<svg width="60" height="58" viewBox="0 0 60 58" fill="none" xmlns="http://www.w3.org/2000/svg">
<path d="M54.8 32.8625C54.8 34.5927 54.412 36.306 53.6582 37.9045C52.9044 39.503 51.7995 40.9555 50.4066 42.1789C49.0137 43.4024 47.3601 44.3729 45.5402 45.035C43.7204 45.6971 41.7698 46.0379 39.8 46.0379L39.8 32.8625H54.8Z" fill="white"/>
<path d="M5.20002 32.8625C5.20002 34.5927 5.588 36.306 6.34182 37.9045C7.09564 39.503 8.20053 40.9555 9.59341 42.1789C10.9863 43.4024 12.6399 44.3729 14.4598 45.035C16.2796 45.6971 18.2302 46.0379 20.2 46.0379L20.2 32.8625H5.20002Z" fill="white"/>
<path d="M14.8 36.5265C14.8 38.481 15.295 40.411 16.2492 42.1766C17.2034 43.9422 18.5929 45.4993 20.3169 46.7349L29.8 36.5265H14.8Z" fill="white"/>
<path d="M45.6 36.5265C45.6 38.481 45.105 40.411 44.1508 42.1766C43.1966 43.9422 41.8071 45.4993 40.0831 46.7349L30.6 36.5265H45.6Z" fill="white"/>
<path d="M28.5946 28.7436C26.9133 31.9106 23.8686 34.3612 20.1303 35.5563C16.392 36.7515 12.2662 36.5932 8.66073 35.1165C5.05521 33.6397 2.26525 30.9653 0.904612 27.6817C-0.45603 24.3981 -0.275897 20.7742 1.40538 17.6073L15 23.1754L28.5946 28.7436Z" fill="white"/>
<path d="M31.4054 28.7436C33.0867 31.9106 36.1314 34.3612 39.8697 35.5563C43.608 36.7515 47.7338 36.5932 51.3393 35.1165C54.9448 33.6397 57.7347 30.9653 59.0954 27.6817C60.456 24.3981 60.2759 20.7742 58.5946 17.6073L45 23.1754L31.4054 28.7436Z" fill="white"/>
<path d="M30 27.9186L42 32.0906L30 57.6073L18 32.0906L30 27.9186Z" fill="white"/>
<path d="M30 30L32.1213 37.8787L40 40L32.1213 42.1213L30 50L27.8787 42.1213L20 40L27.8787 37.8787L30 30Z" fill="#171717"/>
<path d="M30 0L32.1213 7.87868L40 10L32.1213 12.1213L30 20L27.8787 12.1213L20 10L27.8787 7.87868L30 0Z" fill="white"/>
</svg>
