<svg xmlns="http://www.w3.org/2000/svg" fill="none" viewBox="0 0 200 200" id="Airdrop--Streamline-Web-3.0.svg"><desc>Airdrop Streamline Illustration: https://streamlinehq.com</desc><g id="Airdrop--cryptocurrency-crypto-web 3.0-metaverse-bitcoin-ethereum"><g id="Group"><path id="Vector" fill="#d6d5d4" d="M174.591 141.3c0.93 2.865 3.5 13.162 3.209 18.419 -0.2 3.73 -1.616 4.893 -1.56 5.459 0.056 0.566 1.868 2.1 2.844 3.082 4.441 4.472 4.829 9.895 2.529 13.4 -2.5 3.8 -10.29 7.056 -14.969 7.791 -4.464 0.7 -18.217 4.627 -23.665 -3.273 -1.082 -1.57 -0.622 -3.459 0.035 -8.979 0.186 -1.568 -0.167 -1.888 -1.181 -2.38 -8.835 -4.287 -7.519 -11.338 -8.925 -16.69 -1.169 -4.449 -1.149 -4.49 -1.4 -4.86 -2.059 -2.985 -15.1 -8.781 -14.478 -14.81 0.332 -3.2 2.388 -4.617 2.52 -5.06 0.125 -0.423 -7.7 -9.4 5.308 -11.447 -0.644 -3.234 -4.758 -6.137 3.166 -10.819 2.467 -1.457 6 -0.936 8.86 -0.732 4.141 0.3 8.1 1.743 12 3.177 4.276 1.574 5.876 2.258 11.78 6.866 6.336 4.956 11.314 12.814 13.927 20.856Z" stroke-width="1"></path><path id="Vector_2" fill="#141414" d="M141.494 167.522c-3.582 -3.372 -4.439 -7.746 -3.9 -7.9 0.5 -0.142 1.773 3.484 5.1 6.622s7.029 4.19 6.918 4.695c-0.105 0.49 -4.393 0.089 -8.118 -3.417Z" stroke-width="1"></path><path id="Vector_3" fill="#141414" d="M177.087 164.942c6.334 -11.913 -3.133 -36.342 -17.113 -46.844 -7.832 -5.842 -26.955 -12.274 -34.6 -6.908a7.222 7.222 0 0 0 -3.055 8.212c0.835 2.463 1.582 1.533 -0.48 2.071 -5.672 1.472 -7.889 7.443 -3.54 11.754 -2.915 2.033 -2.654 6.184 -1.062 9.346 2.769 5.6 13.451 9.845 13.883 12.416 1.284 8.412 2.253 17.448 11.121 21.048 -0.888 5.433 -1.849 10.257 2.674 13.171 6.216 4.093 15.394 3.295 22.668 1.252 17.354 -4.79 22.746 -13.854 9.504 -25.518Zm-10.163 23.152c-6.548 1.841 -15.212 2.822 -20.862 -0.717 -3.319 -2 -2.819 -5.731 -2.271 -10.8 3.042 0.874 7.435 0.982 7.435 0.522 0.006 -0.323 -3.214 -0.425 -6.75 -1.756 -9.1 -3.344 -9.7 -11.643 -10.978 -20.738 -0.706 -4.409 -11.406 -7.817 -14.141 -13.094 -1.258 -2.444 -1.7 -5.511 0.77 -6.88a15.986 15.986 0 0 0 5.2 1.768l0.364 -1.538c-3.131 -0.913 -6.224 -2.195 -7.208 -5.322 -0.894 -2.653 1.294 -5.04 3.968 -5.7 5.85 -1.464 18.07 4.1 24.994 6.475a22.822 22.822 0 0 0 -1.536 3.8l2.016 0.611c2.2 -7.283 6.383 -10.931 5.886 -11.458 -0.32 -0.355 -3.318 1.9 -5.582 5.643 -5.088 -2.278 -10.088 -4.716 -15.523 -6.325 -2.388 -0.685 -10.347 -1.174 -7.95 -6.924 3.134 -7.554 19.855 -2.792 27.231 0.562 19.056 8.773 28.479 36.2 23.559 47.263 -2.7 6.116 -10.976 10.514 -17.426 12.354 -3.016 0.848 -4.776 1 -4.76 1.2 0.02 1.1 16.416 -1.212 22.867 -10.673 11.186 11.186 6.022 17.3 -9.303 21.727Z" stroke-width="1"></path></g><g id="Group_2"><path id="Vector_4" fill="#d6d5d4" d="M46.822 40.765C46.3 35.722 48.648 30.3 53.056 27.8c5.851 -3.322 16.047 -1.994 47.02 -6.161 12.041 -1.62 16.581 -3.02 22.286 -3.355 6.677 -0.392 8.154 1.607 10.467 3.082 3.139 2 4.451 7.42 4.986 11.108l12.767 120.316s-2.212 5.761 -4.907 7.24S73.2 170.06 73.2 170.06s-9.416 1.249 -11.738 -6.069c-1.717 -5.419 -1.237 7.438 -14.64 -123.226Z" stroke-width="1"></path><path id="Vector_5" fill="#d6d5d4" d="M62.481 46.565c-1.3 -4.411 0.724 -8.564 4.188 -9.938 3.073 -1.218 7.416 -1.513 53.455 -6.91 0 0 6.16 -0.907 7.694 2.345 2.3 4.877 1.592 2.7 13.615 112.788 0.41 3.751 -1.469 7.492 -5.456 8.375 -0.211 0.047 2.035 -0.234 -54.685 6.611 0 0 -4.138 -0.012 -5.35 -2.5 -2.403 -4.936 -0.449 7.604 -13.461 -110.771Z" stroke-width="1"></path><path id="Vector_6" fill="#141414" d="M151.4 148.651 138.3 29.013c-0.783 -7.147 -6.819 -12.4 -13.576 -11.59l-67.991 8.183c-6.686 0.8 -11.485 7.3 -10.7 14.488l13.1 119.638c0.721 6.588 5.949 11.672 12.2 11.672 1.009 0 -3.406 0.5 69.365 -8.265 6.688 -0.805 11.488 -7.305 10.702 -14.488ZM59.928 27.344c69.321 -8.344 65.293 -7.9 66.166 -7.9 5.245 0 9.517 4.34 10.114 9.794l12.88 117.65c-0.606 5.24 -4.439 9.543 -9.488 10.151l-62.144 7.479c-6.061 0.727 -11.351 -4.072 -12.043 -10.4L52.89 39.733a11.8 11.8 0 0 1 7.038 -12.39Zm80.521 133.7 -67.992 8.186c-5.638 0.678 -10.582 -3.8 -11.231 -9.727L48.128 39.865c-0.636 -5.814 3.019 -11.087 8.237 -12.071a13.548 13.548 0 0 0 -4.871 12.092l12.523 114.39c0.778 7.106 6.774 12.464 13.606 11.64l62.145 -7.479a12.217 12.217 0 0 0 9.567 -7.25c-0.423 5.067 -4.059 9.279 -8.886 9.86v-0.003Z" stroke-width="1"></path><path id="Vector_7" fill="#141414" d="M133.214 63.535c-3.237 -29.512 -3 -27.81 -3.349 -29.014a7.74 7.74 0 0 0 -6.9 -5.763c-0.912 -0.022 2.878 -0.28 -54.979 6.545 -3.988 0.47 -7.051 4.632 -6.413 9.489 0 0 11.6 105.581 11.948 108.481a8.268 8.268 0 0 0 5.47 6.905 9.427 9.427 0 0 0 4.349 0.049c0.1 -0.011 52.3 -6.693 52.266 -6.945 -0.036 -0.289 -52.9 5.84 -54.408 5.9 -3.346 0.128 -5.983 -2.857 -6.348 -6.086A341750.42 341750.42 0 0 1 62.966 44.639c-0.548 -4.22 2.04 -7.57 5.185 -7.942 58.327 -6.907 54.979 -7.082 57.213 -5.838a7.063 7.063 0 0 1 3.434 5.377c0.031 0.232 -0.38 -3.954 12.31 108.762a7.557 7.557 0 0 1 -3.756 7.632c-1.042 0.515 -2.547 0.776 -1.262 0.637a6.73 6.73 0 0 0 5.1 -4.353c0.928 -2.282 1.691 2.754 -7.976 -85.38Z" stroke-width="1"></path><path id="Vector_8" fill="#141414" d="M124.077 41.962a8.736 8.736 0 0 0 -4.1 -5.219c-2.44 -1.283 -0.674 -1.141 -43.818 4.214 -3.095 0.385 -5.333 3.145 -5.964 6.248a12.435 12.435 0 0 0 -0.061 4.373c8.044 73.409 7.51 69.02 8.016 70.588 1.375 4.256 4.689 6.146 7.394 5.863 7.992 -0.838 38.215 -5.087 39.092 -5.24 8.519 -1.479 -25.423 2.643 -39.2 3.95 -2.154 0.2 -4.846 -1.367 -5.99 -4.98 -0.437 -1.38 0.216 3.634 -7.918 -70.335a11.235 11.235 0 0 1 0.038 -3.927c0.5 -2.475 2.24 -4.826 4.76 -5.146 42.78 -5.422 40.542 -4.965 41.268 -4.888 2 0.213 4.151 1.818 5.142 4.921 0.407 1.274 -0.224 -3.114 8.363 71.4 0.45 3.9 -1.439 7.123 -3.879 8.23 -0.769 0.348 -1.822 0.553 -0.905 0.477 2.689 -0.067 6.006 -3.738 5.566 -8.78 -0.191 -2.197 -7.023 -69.306 -7.804 -71.749Z" stroke-width="1"></path></g><g id="Group_3"><path id="Vector_9" fill="#d6d5d4" d="M81.439 143.633c0 -12.281 2.491 -7.847 43.538 -13.663a6.274 6.274 0 0 1 3.318 0.127c7.809 3.306 7.5 16.506 0.187 18.59 -1.975 0.563 3.49 -0.563 -40.353 5.1 0 0 -4.389 1.071 -5.418 -2.219a25.393 25.393 0 0 1 -1.272 -7.935Z" stroke-width="1"></path><path id="Vector_10" fill="#d6d5d4" d="M93.65 147.462c-0.177 -0.389 -0.43 -0.741 -0.585 -1.139 -0.239 -0.613 -0.233 -1.3 -0.47 -1.915a12.776 12.776 0 0 0 -0.85 -1.472c-0.671 -1.228 -1.777 -5.679 -3.426 -5.518 -1.513 0.147 -2 4.209 -1.938 4.092 -0.039 0.1 -1.5 6.369 -1.172 7.585 0.395 1.437 2.024 1.529 2.608 0.033 0.962 -2.467 -0.87 -1.829 2.207 -2.444 0.395 -0.079 0.513 0.034 0.57 0.445 0.57 4.077 3.984 2.371 3.056 0.333Zm-4.056 -3.3c-0.172 0.635 -1.552 1.125 -1.523 -0.506a6.707 6.707 0 0 1 0.359 -2.19 0.163 0.163 0 0 1 0.07 -0.056 0.156 0.156 0 0 1 0.088 -0.013 0.167 0.167 0 0 1 0.134 0.109c0.278 0.767 1.093 1.835 0.872 2.656Z" stroke-width="1"></path><path id="Vector_11" fill="#d6d5d4" d="M94.641 148.1a3.071 3.071 0 0 0 2.826 0.953 3.064 3.064 0 0 0 2.3 -1.9c0.986 -2.163 -1.008 -3.378 -1.926 -2.478 -0.578 0.567 -0.447 2.05 -1.093 1.532 -1.639 -1.315 -1.184 -6.215 -0.67 -6.393 0.208 -0.072 1.513 0.516 2.109 -0.462 0.596 -0.978 -0.449 -2.566 -2.121 -2.471 -4.086 0.226 -4.235 7.745 -1.425 11.219Z" stroke-width="1"></path><path id="Vector_12" fill="#d6d5d4" d="M102.206 139.644c-0.7 4.613 1.231 6.709 1.611 5.387 0.039 -0.134 0 -1.573 1.317 -1.556a1.755 1.755 0 0 1 1.555 1.66c0.012 0.276 -0.041 0.551 -0.155 0.803a3.339 3.339 0 0 1 -3.219 2.166 5.396 5.396 0 0 1 -2.077 -0.829c-1.486 -1.3 -2.991 -7.734 -0.909 -10.167 2.222 -2.6 5.408 0.021 4.191 1.464 -1.156 1.373 -2.07 -0.53 -2.314 1.072Z" stroke-width="1"></path><path id="Vector_13" fill="#d6d5d4" d="M106.131 137.955c0.385 4.1 0.684 4.247 0.694 5.232a3.118 3.118 0 0 0 0.372 1.955c0.264 0.694 0.433 1.784 1.253 2.181a5.207 5.207 0 0 0 3.564 -0.428c0.489 -0.235 0.608 -0.437 0.568 -1.084 -0.051 -0.838 -0.221 -1.306 -1.09 -1.458 -1.821 -0.317 -1.542 0.963 -1.962 -1.322 -0.126 -0.689 2.069 -0.185 2.19 -1.831 0.066 -0.894 -0.693 -1.756 -2.418 -1.461 -0.169 0.029 -0.218 -0.012 -0.247 -0.161 -0.168 -0.864 -0.231 -1.061 -0.186 -1.17 0.219 -0.517 2.895 -0.031 1.533 -2.464 -0.556 -0.992 -1.59 -0.739 -2.837 -0.47a1.55 1.55 0 0 0 -1.332 0.554 1.556 1.556 0 0 0 -0.309 1.409c0.028 0.196 0.395 1.949 0.207 0.518Z" stroke-width="1"></path><path id="Vector_14" fill="#d6d5d4" d="M117.6 135.992c-1.722 -2.692 -4.977 -1.774 -5.653 -0.173 -0.25 0.592 -0.051 1.568 0.216 3.124 1.184 6.917 1.456 7.323 2.089 7.632a1.16 1.16 0 0 0 1.275 -0.239c0.109 -0.108 0.195 -0.236 0.254 -0.378a2.366 2.366 0 0 0 -0.021 -1.244c-0.874 -4.653 0.447 -1.481 2.187 -3.818 1.062 -1.434 0.627 -3.373 -0.347 -4.904Zm-2.09 3.213c-1.185 1.762 -1.657 -2.692 -0.925 -2.183 0.955 -0.347 1.815 0.854 0.92 2.183h0.005Z" stroke-width="1"></path><path id="Vector_15" fill="#d6d5d4" d="M119.9 136.4c0.72 6.935 0.75 7.5 0.984 8.44 0.474 1.9 2.009 1.412 2.372 0.3 0.385 -1.177 -0.352 -1.429 -0.631 -8.627 -0.039 -1.01 1.589 -0.026 2.117 -1.042a1.906 1.906 0 0 0 -0.163 -1.752c-0.787 -0.864 -5.648 -0.112 -6.277 0.28 -0.952 0.594 -0.976 2.341 0.415 2.411 0.108 0.001 1.17 -0.118 1.183 -0.01Z" stroke-width="1"></path><path id="Vector_16" fill="#141414" d="M82.756 135.853a8.826 8.826 0 0 0 -2.161 6.191c-0.177 16.131 5.947 12.408 14.212 11.4 29.5 -3.6 32.725 -4.329 32.7 -4.541 -0.041 -0.348 -17.541 1.24 -32.868 3.147 -5.112 0.636 -9.267 2.315 -11.025 -0.356 -1.758 -2.671 -1.828 -9.4 -1.436 -11.561a5.698 5.698 0 0 1 4.833 -4.949l39.263 -4.6c7.18 -0.2 10.181 13.651 3.585 17.349 -1.346 0.755 -3.474 1.132 -1.663 1 9.83 -0.734 7.953 -20.792 -2.817 -19.672 -41.995 4.357 -40.395 4.288 -42.623 6.592Z" stroke-width="1"></path><path id="Vector_17" fill="#141414" d="M88.527 147.543c-0.084 0.446 -0.141 0.896 -0.172 1.348a1.855 1.855 0 0 1 -3.53 0.78 5.199 5.199 0 0 1 0.132 -2.815 49.629 49.629 0 0 1 2.05 -8.494c0.347 -0.855 1.29 -0.979 1.307 -0.873 0.006 0.036 -0.128 0.076 -0.337 0.207 -0.576 0.363 -0.822 0.829 -1.483 4.858 -0.016 0.1 -0.927 5.807 -0.938 6.078 -0.051 1.208 1.066 1.511 1.6 0.8 0.236 -0.312 0.235 -0.541 0.366 -1.631 0.121 -1.01 0.113 -1.01 0.227 -1.014 0.49 -0.189 0.994 -0.337 1.508 -0.443 1.768 -0.305 1.5 -0.089 1.613 0.15 0.816 2.156 0.788 2.195 1.038 2.453a0.855 0.855 0 0 0 1.427 -0.454c0.207 -0.707 -3.346 -8.922 -3.872 -10.237 -0.323 -0.81 -1.074 -0.678 -1.082 -0.779 -0.008 -0.101 0.936 -0.282 1.42 0.615 0.682 1.263 4.8 9.253 4.405 10.651 -0.458 1.641 -2.753 2.094 -3.555 -0.12 -0.093 -0.256 -0.5 -1.321 -0.544 -1.421a5.938 5.938 0 0 0 -1.58 0.341Z" stroke-width="1"></path><path id="Vector_18" fill="#141414" d="M100.49 145.123a1.813 1.813 0 0 0 -3.055 -0.554 1.814 1.814 0 0 0 -0.454 1.13c-0.116 1.265 -1.565 -3.486 -0.836 -5.536a1.677 1.677 0 0 0 2.076 -0.422 1.677 1.677 0 0 0 0.015 -2.118 2.303 2.303 0 0 0 -2.8 -0.615 3.547 3.547 0 0 1 1.735 0.343c1.965 1.095 0.207 3.065 -0.819 2.062 -1.7 -1.66 -1.722 8.467 0.954 7.256a1.137 1.137 0 0 0 0.635 -1.023 0.865 0.865 0 1 1 1.661 0.458 2.763 2.763 0 0 1 -3.668 2.315c-2.747 -1.121 -3.584 -8.483 -1.77 -10.43 0.627 -0.709 1.19 -0.867 1.154 -0.945 0 -0.046 -0.628 -0.023 -1.424 0.683 -2.309 1.974 -1.729 10.117 1.7 11.549 3.242 1.283 5.617 -2.39 4.896 -4.153Z" stroke-width="1"></path><path id="Vector_19" fill="#141414" d="M107.053 145.126c-0.414 4.5 -7.988 6.238 -8.066 -3.907 -0.033 -4.414 2.513 -5.075 2.526 -4.931 0.162 0.282 -2.095 0.489 -1.843 4.911 0.515 9.033 6.126 7.126 6.422 3.824 0.194 -0.968 -1.509 -1.57 -1.717 -0.048a1.002 1.002 0 0 1 -1.573 0.74c-1.245 -0.936 -1.764 -6.52 -0.4 -7.23 0.29 -0.151 0.183 -0.167 0.42 0.067a1.026 1.026 0 0 0 1.04 0.18c0.174 -0.067 0.325 -0.18 0.439 -0.328 0.114 -0.147 0.186 -0.322 0.207 -0.507 0.175 -0.728 -0.808 -1.8 -2.317 -1.7 -0.318 0.021 -0.492 0.062 -0.506 0.022a2.341 2.341 0 0 1 2.926 0.426 1.683 1.683 0 0 1 -2.3 2.445c0.691 0.11 0.26 -0.151 0.163 0.926 -0.193 2.149 0.65 5.584 0.969 4.894a1.808 1.808 0 0 1 0.552 -1.353 1.809 1.809 0 0 1 1.371 -0.507 1.813 1.813 0 0 1 1.687 2.076Z" stroke-width="1"></path><path id="Vector_20" fill="#141414" d="M111.5 147.644c-3.372 0.489 -4.373 0.813 -4.864 -3.082 -0.847 -6.715 -1.709 -8.5 -0.083 -9.067 0.4 -0.189 2.131 -0.226 1.05 0 -0.753 0.278 -0.7 0.211 -0.9 0.318 -1.015 0.554 -0.463 1.93 -0.222 3.169 1.246 6.426 1 7.9 2.338 8.025a8.141 8.141 0 0 0 3.156 -0.627 0.945 0.945 0 0 0 0.258 -1.106 0.945 0.945 0 0 0 -0.988 -0.56c-0.106 0.012 -1.667 0.311 -1.767 0.33 -0.022 0 -0.014 -0.046 -0.022 -0.067l-0.449 -2.738c0.917 -0.111 1.469 -0.1 1.865 -0.4a1.042 1.042 0 0 0 -0.4 -1.723 13.87 13.87 0 0 0 -1.714 0.167l-0.375 -2.446c2.977 0.215 2.11 -2.217 1.251 -2.358 -0.17 -0.052 -2.65 0.02 -1.228 -0.241a4.03 4.03 0 0 1 1.311 -0.145 1.696 1.696 0 0 1 1.255 1.317 1.699 1.699 0 0 1 -0.655 1.698c-1.193 0.838 -1.225 -0.335 -0.93 1.227 0.04 0.147 0.656 -0.078 1.2 -0.039 1.683 0.259 2.474 3.308 -0.48 3.744h-0.015c0.006 0.019 0.133 0.753 0.137 0.772 0.025 0.145 -0.035 0.119 0.231 0.07a2.649 2.649 0 0 1 1.552 -0.037c1.879 0.603 1.564 3.497 -0.512 3.799Z" stroke-width="1"></path><path id="Vector_21" fill="#141414" d="M116.32 146.154a1.803 1.803 0 0 1 -1.722 1.168 1.8 1.8 0 0 1 -1.673 -1.236c-0.427 -2.4 -1.183 -8.169 -1.323 -9.167a1.952 1.952 0 0 1 0.467 -1.842c0.531 -0.5 1.9 -0.851 1.9 -0.664 0.029 0.1 -0.517 0.134 -1.192 0.683 -1.022 1.106 -0.917 -0.7 1.056 10.724 0.208 0.8 1.894 0.852 1.616 -0.739 -0.057 -0.325 -0.4 -2.556 -0.523 -3.326 1.8 -0.218 3.149 -0.7 3.2 -2.755 0.05 -2.1 -1.23 -4.152 -3.231 -4.462 -0.57 -0.088 -0.9 -0.065 -0.908 -0.128 -0.01 -0.047 0.307 -0.183 0.935 -0.193 1.893 -0.032 3.964 1.886 4.015 4.791a3.427 3.427 0 0 1 -2.926 3.549c0.374 2.315 0.57 2.86 0.309 3.597Z" stroke-width="1"></path><path id="Vector_22" fill="#141414" d="M122.93 146.461a1.794 1.794 0 0 1 -1.798 0.046 1.806 1.806 0 0 1 -0.94 -1.533c-1.074 -11.117 -0.066 -7.24 -2.05 -8.385a1.689 1.689 0 0 1 -0.5 -2.394c0.448 -0.732 0.994 -0.657 1.673 -0.7 1.9 -0.112 1.969 0.019 0.045 0.374 -0.665 0.122 -0.979 0.067 -1.251 0.595a1.053 1.053 0 0 0 -0.063 1.063 1.051 1.051 0 0 0 0.894 0.579c1.7 0.1 1.087 -2.154 2.2 8.761a0.86 0.86 0 0 0 1.719 0.044c-0.859 -12.129 -1.24 -8.516 1.014 -9.216 0.958 -0.3 0.871 -1.9 0 -2.065 -0.54 -0.04 -1.082 -0.045 -1.623 -0.015 -3.874 0.011 1.23 -0.575 1.723 -0.516a1.748 1.748 0 0 1 1.229 2.004 1.748 1.748 0 0 1 -1.874 1.419 3.263 3.263 0 0 0 -0.356 0.028c0.906 8.517 1.262 9.109 -0.042 9.911Z" stroke-width="1"></path><path id="Vector_23" fill="#141414" d="M114.96 139.372c0.662 -0.144 0.872 -1.572 0.872 -1.572 0.249 -0.131 0.559 1.691 -0.691 2.172 -1.2 0.461 -1.44 -2.4 -1.258 -2.781a1.038 1.038 0 0 1 1.931 0.214c0.061 0.194 0.039 0.31 0 0.323 -0.09 0.057 -0.273 -0.406 -0.751 -0.557 -0.24 -0.075 -0.668 0.079 -0.607 0.426 0.096 0.553 0.256 1.783 0.504 1.775Z" stroke-width="1"></path><path id="Vector_24" fill="#141414" d="M88.868 145.044c-1.266 0.242 -1.073 -0.681 -1.013 -1.311 0.038 -0.405 0.341 -2.413 0.622 -2.354 0.133 0.029 0.043 0.824 -0.014 3.022 0.226 0.033 0.822 -0.179 0.721 -0.19 0.171 -0.207 -0.248 -1.4 -0.332 -1.647 -1.026 -3.011 1.363 0.84 0.925 1.948 -0.12 0.305 -0.588 0.47 -0.909 0.532Z" stroke-width="1"></path></g><g id="Group_4"><path id="Vector_25" fill="#d6d5d4" d="M127.173 19.863c-2.091 2.539 -6.414 3.364 -4.944 3.9 2.994 1.094 5.216 0.586 7.812 5.486a33.589 33.589 0 0 0 2.586 4.662 16.134 16.134 0 0 1 6.138 -10.772 8.174 8.174 0 0 1 2.8 -1.429c1.426 -1.374 -7.021 -0.269 -9.711 -8.652 -1.769 -5.509 -1.556 -0.139 -1.77 0.816a14.396 14.396 0 0 1 -2.911 5.989Z" stroke-width="1"></path><path id="Vector_26" fill="#141414" d="M141.666 20.682c-2.318 -0.883 -5.28 -1.468 -7.178 -3.757 -3.1 -3.732 -3.32 -8.971 -4.021 -8.879 -1.124 0.044 0.436 9.292 -5.855 13.35 -2.237 1.537 -4.562 1.914 -4.488 2.324 -0.006 0.4 2.24 0.469 4.651 1.48 7.192 2.784 6.807 11.594 7.9 11.418 0.788 -0.183 0.359 -8.308 6.164 -12.737 3.246 -2.44 5.84 -2.07 2.827 -3.199Zm-9.211 11.794a14.199 14.199 0 0 0 -2.941 -5.412c-3.242 -3.661 -6.981 -3.387 -6.116 -3.662 4.568 -2.026 6.8 -6.019 7.423 -10.742 1.585 5.171 4.959 8.025 10.166 8.809 -4.442 1.198 -7.679 6.456 -8.532 11.007Z" stroke-width="1"></path></g><g id="Group_5"><path id="Vector_27" fill="#d6d5d4" d="M73.511 188.554c1.3 0.781 2.507 4.166 6.836 5.608 3.709 1.236 6.48 0.008 8.867 -2.259a31.166 31.166 0 0 0 8.73 -15.008c1.189 -4.808 4.943 -10.812 -0.393 -16.5 -3.39 -3.612 -7.5 -2.989 -11.006 -3.609 -4.049 -0.716 -0.174 -2.559 -7.961 -8.464A126.78 126.78 0 0 0 68 141.21c-2.4 -2 -3.01 -1.626 -9.927 -6.985 -10.108 -7.831 -12.71 -11.065 -18.494 -9.65 -1.776 0.435 -3.064 1.023 -3.59 4.041a14.077 14.077 0 0 0 1.582 9.228c-1.955 -0.941 -3.49 -2.661 -5.53 -3.4 -3.343 -1.2 -7.383 0.869 -8.682 4.177a8.593 8.593 0 0 0 2.812 9.544c-8.411 -3.172 -11.386 3.181 -8.349 8.966 3.023 5.758 10.019 8.839 17.474 12.906 -1.336 1.859 -3.876 2.545 -5.228 4.392 -1.051 1.437 -2.22 5.837 -1.481 8.123 1.1 3.384 5.252 4.991 8.511 4.98 2.336 -0.008 4.64 -0.535 6.972 -0.683 7.492 -0.474 14.723 2.965 22.283 2.806 6.176 -0.126 5.611 -2.031 7.158 -1.101Z" stroke-width="1"></path><g id="Group_6"><path id="Vector_28" fill="#141414" d="M72.443 161.2c-3.727 -6.741 -2.173 -10.4 -2.961 -10.533 -1.079 -0.238 -2.559 10.767 7.334 18.134a17.337 17.337 0 0 0 -6.8 -0.728c-5.494 0.541 -8.625 4.023 -8.328 4.369 0.4 0.486 3.163 -2.087 8.5 -2.622 4.851 -0.468 8.85 0.825 9.03 0.244 0.362 -0.48 -3.727 -3.49 -6.775 -8.864Z" stroke-width="1"></path><path id="Vector_29" fill="#141414" d="M101.026 165.658c-1.119 -10.34 -12.675 -9.257 -15.894 -9.8C81.993 146.6 75 144.731 60.685 134.663c-7.108 -5.063 -11.505 -10.323 -16.791 -11.492 -6.182 -1.41 -11.007 3.224 -8.47 10.882 0.444 1.265 0.517 0.351 -2.4 -0.634 -7.057 -2.329 -13.81 5.024 -10.622 11.5 0.587 1.2 0.854 1.28 0.712 1.258 -7.7 -1.024 -12.029 10.03 -0.027 18.215 13.607 8.871 11.607 3.041 7.043 8.422 -5.664 6.47 -2.632 14.828 5.167 15.784 2.116 0.172 4.245 0.103 6.346 -0.207 10.39 -1.718 21.12 5.537 31.472 0.8 13.444 20.209 29.454 -9.661 27.911 -23.533Zm-77.187 -24.129a6.246 6.246 0 0 1 2.623 -4.8c6.993 -5.085 9.518 4.535 25.9 10.7a55.517 55.517 0 0 0 -6.378 12.275c-6.08 -3.686 -11.945 -8.195 -18.254 -11.685 -1.541 -0.852 -4.058 -3.686 -3.891 -6.49Zm74.653 28.752c-1.058 6.166 -3.385 12.808 -7.149 17.771 -5.825 7.746 -11.048 7.8 -16.749 0.367 7.034 -4.2 9.272 -12.846 8.708 -13.054 -0.627 -0.251 -2.968 6.908 -9.3 10.752 -9.713 5.865 -20.255 -1.745 -32.618 -0.167 -2.7 0.291 -5.906 0.691 -8.284 -0.506 -7.256 -3.635 -3.169 -16.465 13.707 -16.158 4.279 0.048 6.814 1.075 6.969 0.708 0.561 -0.861 -9.284 -4.8 -18.292 -0.929 -5.131 -2.536 -13.994 -7.129 -16.471 -12.268 -2.349 -4.737 0.016 -8.7 3.79 -8.2 3.659 0.474 14.955 8.73 22.653 12.675 -0.254 0.805 -1.384 4.664 -0.891 4.816 0.591 0.18 2.868 -6.162 6.952 -13.318 4.058 -7.165 8.108 -12.565 7.625 -12.973 -0.287 -0.243 -2.825 2.154 -5.778 6.219a70.21 70.21 0 0 1 -8.518 -4.66c-3.808 -2.451 -5.851 -3.7 -7.268 -8.024 -0.958 -2.981 -0.891 -5.9 1.867 -7.45 3.468 -1.673 7.314 0.918 10.379 3.274 6.35 4.972 2.383 3.112 23.355 16.323 3.856 2.429 7 4.365 9.5 8.968 4.184 7.631 1.367 16.517 1.938 16.66 0.276 0.07 2.658 -6.62 1.014 -13.531 6.062 1.113 14.828 0.791 12.861 12.705Z" stroke-width="1"></path></g></g><g id="Group_7"><path id="Vector_30" fill="#d6d5d4" d="M70.2 76c1.3 9.361 1.275 9.9 1.878 11 1.813 3.322 8.786 4.056 12.457 2.317a7.125 7.125 0 0 0 4.238 -6.229 11.436 11.436 0 0 0 -0.729 -3.334c-7.5 -22.94 -7.185 -18.232 -5.834 -23.345a30.302 30.302 0 0 0 4.756 -5.217 1.65 1.65 0 0 0 0.384 -1.5c-0.572 -4.936 -1.1 -1.959 3.5 -6.666 0.736 -0.754 0.621 -1.419 -0.22 -2.026 -1.257 -0.909 -1.523 -0.6 -1.914 -2.8 -0.171 -0.96 -0.46 -1.896 -0.861 -2.785a64.784 64.784 0 0 0 -7.16 3.26c-0.206 -0.927 0.788 -2.416 1.143 -3.266 2.21 -5.28 3.919 -3.7 -2.033 -6.323a144.982 144.982 0 0 1 -5.352 11.7 13.255 13.255 0 0 1 -0.8 -4.914c0.188 -1 0.458 -0.64 2 -5.527 0.161 -0.51 0.169 -0.346 -4.19 -1.242a26.28 26.28 0 0 0 -2.252 13.447c-1.134 -1.743 -3.335 -2.233 -4.12 -4.945 -0.263 -0.909 -0.441 -1.214 -1.452 -1.06 -2.454 0.375 -2.494 0.351 -2.647 0.482 -0.7 0.6 1.532 5.32 2.147 6.385 5.279 9.163 2.514 -0.195 7.061 32.588Z" stroke-width="1"></path><path id="Vector_31" fill="#d6d5d4" d="M113.837 82.432c-0.674 -3.278 -2.562 -3.469 -5.6 -2.03 -0.422 0.2 -0.482 0.364 -0.427 0.77 0.111 0.829 0.273 1.65 0.485 2.459 -3.776 1.487 -3.7 1.312 -3.563 1.84 2.663 10.125 2.6 9.625 2.445 9.876a9.459 9.459 0 0 1 -2.685 1.085c-0.572 0.155 -0.779 0.29 -0.841 0.941 -0.1 1.065 0.04 2.138 0.412 3.141l0.685 24.191 15.574 -1.8c1.046 -2.563 2.332 2.355 -6.485 -40.473Z" stroke-width="1"></path><path id="Vector_32" fill="#d6d5d4" d="M96.725 45.235c-0.113 0.836 -0.444 1.887 -1.286 1.931 -0.636 0.034 -1.939 -1.056 -2.361 0.732a4.185 4.185 0 0 1 -0.368 1.294c-3.311 0.16 -1.4 -1.6 -2.879 4.162 3.27 1.021 1.794 0.063 1.469 2.927 -0.038 0.336 2.593 0.561 2.87 1.041 0.236 0.408 0.232 -0.045 -1.881 11.416 -0.509 2.764 -0.571 3.816 1 7.811 5.26 13.4 4.4 13.558 7.292 15.784 1.138 0.876 2.7 1.453 3.146 2.817 0.233 0.71 0.236 1.16 1.041 1.188a6.032 6.032 0 0 0 2.656 -0.749l-2.8 -10.516c0.809 -0.217 3.54 -1.142 3.862 -1.615 0.361 -0.528 -0.184 -2.278 -0.559 -3.01 5.451 -1.015 1.894 -0.465 3.85 -5.838 0.953 -2.619 0.963 -2.775 1.223 -2.949 0.48 -0.32 3.364 0.168 3.922 0.275 1.167 -11.02 2.365 -11.743 3.4 -20.987 0.452 -4.057 -0.009 -4.824 -5.148 -7.927 -2.669 -1.612 -3.513 -1.918 -7.116 -2.149 -5.119 -0.327 -10.683 -0.446 -11.333 4.362Z" stroke-width="1"></path><path id="Vector_33" fill="#141414" d="m113.257 67.692 -10.466 -1.297 0.326 -2.565 1.357 0.172 -0.153 1.204 9.104 1.128 -0.168 1.358Z" stroke-width="1"></path><path id="Vector_34" fill="#141414" d="m105.777 68.144 -0.185 1.357 4.087 0.557 0.185 -1.356 -4.087 -0.558Z" stroke-width="1"></path><path id="Vector_35" fill="#141414" d="m119.042 53.414 0.216 -1.253 -6.993 -1.211 -0.218 1.253 -0.9 -0.156 -0.25 1.443 -1.579 -0.258 0.266 -1.535 -0.9 -0.156 0.228 -1.351 -15.438 -2.754 -0.184 1.038 8.461 1.508c-0.081 0.464 0.119 0.379 -0.961 0.192l-0.729 4.2 0.9 0.156 -0.216 1.252L107.739 57l0.217 -1.251 0.9 0.155 0.24 -1.386 1.579 0.257 -0.257 1.479 0.9 0.157 -0.217 1.252 6.999 1.207 0.217 -1.252 0.9 0.155 0.728 -4.2 -0.903 -0.159Z" stroke-width="1"></path><path id="Vector_36" fill="#141414" d="M93.845 92.29 82.236 59.939c0.7 -3.252 -0.345 -1.361 5.883 -9.091l-0.367 -3.585 5 -5.036c-3.656 -3.945 -2.611 -2.193 -4.368 -7.832L81.9 37.219l3.37 -6.21 -5.3 -3.421c-5.172 10.167 -4.217 8.2 -5.275 10.65 -0.277 -2.506 -0.616 -0.773 2.292 -8.66l-5.8 -1.854c-3.244 8.331 -2.7 5.31 -2.7 13.236 -2.264 -2.51 -1.534 -1.221 -3.115 -5.855l-5.642 0.927c1.227 5.576 0.131 2.977 5.188 11.681 2.143 5.364 0.762 -2.5 6.728 46.893l3.131 -0.526 1.458 6.108 4.756 -1.459 0.881 3.424 9.8 -3.366 -1.241 -4.687 3.414 -1.81ZM66.477 47.018c-4.829 -8.239 -3.951 -6.213 -4.694 -9.59l2.431 -0.4c1.213 3.555 -0.04 1.711 5.977 8.385 0 -12.511 -0.519 -9.092 2 -15.569l2.563 0.819 -2.021 5.481 0.961 8.7a139.994 139.994 0 0 1 6.932 -14.8l2.376 1.533c-4.748 8.751 -3.636 6.041 -5.19 12.117 5.946 -6 3.776 -4.486 9.5 -6.978l0.774 2.482 -9.813 7.252 -0.469 2.513 -3.441 -0.5 -1.112 7.792 1.694 0.241 0.869 -6.094 3.371 0.49 0.646 -3.466 9.145 -6.759 1.4 1.51 -4.413 4.446 0.377 3.69c-6.2 7.7 -4.985 5.56 -5.883 9.731L87.211 79.2l-2.728 0.773 0.7 2.323 -3.128 0.932 0.945 2.946 -2.924 0.974 -1.1 -2.436 -3.674 0.99 -0.632 -2.2 -2.454 0.876c-4.759 -38.533 -3.547 -31.77 -5.739 -37.36Z" stroke-width="1"></path><path id="Vector_37" fill="#141414" d="m128.513 120.626 -0.572 -10.266 -11.863 -36.081 -2.843 -0.459 0.217 -1.458 4.04 0.33 5.163 -32.214 -2.1 -0.453 0.551 -3.189 -2.84 -0.56 0.436 -2.558 -15.171 -2.642 -0.533 2.7 -2.849 -0.523 -0.5 2.786 -2.4 -0.395L95.4 46.187l-2.825 -0.608 -0.493 2.712 -2.168 -0.5 -1.223 6.22 2.23 0.5 -0.544 2.528 2.767 0.776 -2.48 15.706 -2.1 0.827 7 18.879 -3.438 1.673 1.43 4.816 -11.756 4.033 1.228 22.479a1.927 1.927 0 0 0 1.937 1.826c0.192 0 -1.176 0.163 20.715 -2.58l-0.488 -7.5 4.969 -0.522 -5 -20.4 2.936 -0.86 -2.645 -10.873 3.823 -1.22 -0.725 -3.105 1.677 -0.443 0.95 4.712 -3.777 1.25 7.246 29.67 2.89 -0.248 1.833 7.515 8.068 -1.373a1.3 1.3 0 0 0 1.076 -1.451Zm-16.921 -47.387 -9.176 -1.172 0.352 -2.623 -3.42 -0.482 0.152 -1.092 -1.7 -0.228 -0.372 2.777 3.326 0.47c-0.345 2.538 -0.743 5.622 -1.078 8.16l1.741 0.23 0.334 -2.533 7.892 0.92 0.31 1.541 -3.041 0.8 0.74 3.17 -3.836 1.223 2.639 10.842 -1.625 0.476 -2.1 -8.562 -2.206 0.5 -1.819 -7.137 -2.156 0.518 -3.261 -8.547 -0.779 0.307 2.56 -16.213 -2.683 -0.753 0.562 -2.612 -2.26 -0.509 0.562 -2.854 2.192 0.5 0.5 -2.737 1.144 0.247 -0.936 4.716 4.049 0.765 1.619 -8.807 2.648 0.517 0.369 -2.013 7.3 1.388 -0.18 1.568 4.55 0.776 -0.341 1.631 5.338 0.932 -2.344 14.631 -1.344 -0.164 0.33 -2.437 -15.071 -1.814 -0.351 2.584 -2.061 -0.289 -0.4 2.819 1.695 0.238 0.158 -1.125 2.067 0.289 0.357 -2.617 11.673 1.406 -0.33 2.434 3 0.367 -0.833 5.2 -4.048 -0.335 -0.408 2.713Z" stroke-width="1"></path><g id="Group_8"><path id="Vector_38" fill="#d6d5d4" d="m102.436 50.897 -0.251 1.45 1.45 0.252 0.252 -1.45 -1.451 -0.252Z" stroke-width="1"></path><path id="Vector_39" fill="#d6d5d4" d="m103.634 52.599 -0.251 1.45 1.45 0.251 0.251 -1.45 -1.45 -0.251Z" stroke-width="1"></path><path id="Vector_40" fill="#d6d5d4" d="m112.792 52.77 -0.251 1.451 1.451 0.251 0.251 -1.45 -1.451 -0.251Z" stroke-width="1"></path><path id="Vector_41" fill="#d6d5d4" d="m113.992 54.472 -0.251 1.45 1.45 0.252 0.251 -1.45 -1.45 -0.252Z" stroke-width="1"></path></g></g><g id="Group_9"><path id="Vector_42" fill="#615fff" d="M54.157 141.882c1.208 -0.887 9.967 -7.282 9.86 -7.4 3.578 4.055 3.108 5.587 4.323 4.407 0.6 -0.582 3.236 -2.9 4.052 -2.713 1.586 0.357 7.454 10.313 10.962 14.12 0.325 0.352 0.348 0.565 -0.066 0.906 -3.925 3.24 -4.088 3.263 -4.094 3.658 -0.008 0.437 0.811 1.086 2.522 4.177 0.993 1.794 -6.87 4.536 -10.293 8.124a10.19 10.19 0 0 1 -1.523 1.308c-2.685 1.883 -4.346 -3.768 -5.955 -4.116 -0.621 -0.135 -0.849 0.115 -4.973 2.571 -0.546 0.326 -0.852 0.346 -1.383 -0.328 -1.887 -2.388 -7.859 -10.367 -9.055 -12.458a0.356 0.356 0 0 1 0.057 -0.5c2.124 -2.468 3.04 -2.161 3.314 -2.877 0.418 -1.089 -4.747 -3.929 -1.957 -6.091 1.34 -1.039 2.695 -1.678 4.209 -2.788Z" stroke-width="1"></path><path id="Vector_43" fill="#615fff" d="M46.334 84.3c-0.172 0.162 -0.041 -0.216 -1.829 7.182 -0.3 1.251 1.324 0.522 1.644 1.221a8.966 8.966 0 0 1 -0.076 2.243c1.743 0.551 5 1.124 5.4 0.943 0.323 -0.145 0.8 -1.96 0.878 -2.279 0.385 -1.573 2.055 1.1 2.507 -1.235 0.959 -4.95 1.411 -6.156 0.544 -6.366 -1.026 -0.249 -1.027 0.66 -0.616 -2.626 -5.585 -1.489 -6.144 -1.518 -6.42 -0.073 -0.325 1.683 -1.2 0.208 -2.032 0.99Z" stroke-width="1"></path><path id="Vector_44" fill="#615fff" d="M68.206 74.678c0.054 0.357 -0.393 0.489 -1.711 1.328 -0.176 0.111 -0.2 0.195 -0.082 0.373 1.235 1.936 1.333 2.018 1.311 2.263 -0.057 0.609 -5.264 3.36 -5.8 3.637 -0.248 0.129 -0.373 0.12 -0.576 -0.165 -2.051 -2.892 -1.319 -2.706 -3.168 -1.521 -0.548 0.351 -0.887 0.372 -1.408 -0.38 -0.616 -0.89 -4.261 -6.5 -4.246 -7.125 0.021 -0.807 1.968 -0.634 1.186 -1.752 -0.747 -1.07 -1.18 -1.572 -1.19 -2.059 -0.008 -0.355 0.291 -0.738 0.641 -0.677 2.494 -1.053 5.132 -4.63 6.4 -3.045 1.368 1.707 1.449 1.875 1.626 1.888 0.13 0.01 0.1 0 1.7 -1.141a43.705 43.705 0 0 1 5.317 8.376Z" stroke-width="1"></path><path id="Vector_45" fill="#615fff" d="M74.338 65.046c-3.114 0.982 -1.55 1.436 -1.416 2.446 0.1 0.79 -0.742 0.57 -0.784 0.97 -0.012 0.117 -0.09 -0.11 1.617 3.814 0.7 1.608 1.38 0.192 1.937 0.52 0.146 0.086 0.148 0.134 0.906 1.52 0.237 0.435 3.25 -1 3.693 -1.23 0.427 -0.224 0.292 -0.294 -0.374 -1.741 1.914 -0.978 1.392 -0.391 0.106 -3.11 -1.539 -3.25 -1.07 -2.961 -2.393 -2.5 -0.186 0.066 -0.25 0.038 -0.347 -0.114 -1.15 -1.797 -0.376 -1.385 -2.945 -0.575Z" stroke-width="1"></path><path id="Vector_46" fill="#615fff" d="M36.274 109.341c-0.029 0.2 -0.072 0.027 2.165 4.73 -3.016 2.43 -3.178 2.5 -3.274 2.774 -0.354 1.017 2.68 5.179 3.5 6.743 1.064 2.028 2.392 6.332 3.73 6.5 1.3 0.164 3.957 -3.385 5.028 -1.779 1.905 2.857 2.926 4.911 4.027 4.341 0.55 -0.284 0.3 -0.811 2.271 -1.871 9.019 -4.845 9.089 -4.861 9.213 -5.229 0.209 -0.615 -0.683 -1.13 -2.133 -4.576 -0.139 -0.331 -0.1 -0.472 0.237 -0.669 2.867 -1.663 3.758 -2.2 3.728 -2.969 -0.027 -0.709 -7.254 -13.516 -7.622 -14.162 -0.255 -0.449 -0.446 -0.483 -0.84 -0.3a33.785 33.785 0 0 0 -3.88 2.149l-2.694 -4.5c-10.363 6.425 -13.388 8.345 -13.456 8.818Z" stroke-width="1"></path><path id="Vector_47" fill="#141414" d="M65.414 116.761c-8.36 -15.452 -7.778 -15.57 -9.625 -14.381 0 0 -2.909 1.853 -2.926 1.866a29.605 29.605 0 0 1 -1.725 -3.3c-0.6 -1.209 -1.312 -1.377 -2.4 -0.522 -0.215 0.165 0.86 -0.576 -12.686 7.95a1.2 1.2 0 0 0 -0.412 1.567l2.077 4.126c-2.371 1.548 -3.853 2.085 -3.178 3.381 7.3 14 6.737 13.392 7.426 13.576 0.606 0.162 0.527 0.071 4.9 -2.484 3.006 4.959 2.83 4.871 3.413 5.027 0.647 0.171 -0.02 0.648 12.834 -7.247a1.183 1.183 0 0 0 0.43 -1.529c-0.035 -0.08 -0.86 -1.989 -1.918 -4.032l3.252 -1.929a1.557 1.557 0 0 0 0.538 -2.069ZM58 116.642l2.123 4.035 -8.976 5.687c-3 -5.706 -1.735 -5.3 -6.9 -2.028L39.1 114.56c0.11 -0.294 -0.4 0.1 3.6 -2.435 1.022 -0.648 0.084 -1.648 -1.755 -5.144 9.863 -6.171 8.823 -5.644 8.918 -5.439 0.095 0.205 0 0.022 1.772 3.395 0.713 1.584 1.545 0.8 5.068 -1.475l5.16 9.716c-3.502 2.222 -4.394 2.457 -3.863 3.464Zm-21.031 -7.18 3.082 -1.922 1.98 3.764 -3.131 1.985 -1.931 -3.827ZM62.2 125.233 50.656 132.1c-3.919 -6.466 -2.277 -6.067 -8.293 -2.55l-6.5 -12.59 2.465 -1.61c5.443 10.343 5.1 9.952 5.629 10.094 0.486 0.132 0.432 0.05 4.262 -2.376 1.714 3.255 2.22 4.989 3.31 4.3l8.951 -5.67a58.122 58.122 0 0 1 1.72 3.535Zm1.959 -7.606c-3.312 1.952 -3.283 1.94 -3.387 2.02l-1.788 -3.4 3.387 -2.145c1.899 3.498 1.929 3.443 1.786 3.525h0.002Z" stroke-width="1"></path><g id="Group_10"><path id="Vector_48" fill="#141414" d="M48.587 119.535c-0.768 0.46 -1.629 1.2 -1.924 0.535 -0.17 -0.385 0.043 -11.854 0.047 -11.954 0.029 -0.616 0.417 -0.862 0.9 -0.546 2.25 1.481 3.056 1.81 3.035 3.119 -0.138 8.442 0.295 7.434 -2.058 8.846Z" stroke-width="1"></path><path id="Vector_49" fill="#141414" d="M54.981 115.676c-2.917 1.752 -2.51 1.822 -2.388 -3.566 0.016 -0.708 0.465 -0.9 0.933 -0.589 4.143 2.787 4.439 2.361 1.455 4.155Z" stroke-width="1"></path></g><path id="Vector_50" fill="#615fff" d="M75.02 128.017c-0.087 0.641 0.029 0.922 0.764 1.093 2.318 0.54 3.461 0.034 3.687 0.8 0.115 0.392 -0.276 1.056 -0.314 3.28 -0.037 2.175 6.37 1.307 10.143 2.286 1.772 0.46 2.938 0.62 3.223 -1.241 0.544 -3.552 0.5 -3.626 0.746 -3.847 0.327 -0.3 0.506 -0.179 4.94 0.5 0.62 -4.44 1.092 -8.955 1.573 -13.412a11.894 11.894 0 0 1 -3.663 -0.437c0.054 -0.866 0.782 -4.155 0.066 -4.72a1.541 1.541 0 0 0 -0.719 -0.247c-13.248 -2.153 -12.451 -2.071 -12.784 -1.969 -1.841 0.561 0.589 4.833 -2.344 4.381 -4.567 -0.702 -3.145 -2.473 -5.318 13.533Z" stroke-width="1"></path><path id="Vector_51" fill="#141414" d="m96.877 116.392 0.445 -3.83a1.109 1.109 0 0 0 -0.941 -1.251c-15.072 -2.106 -14.155 -2.1 -14.656 -1.545 -0.331 0.368 -0.263 0.451 -0.76 4.176 -3.069 -0.446 -4.366 -0.933 -4.673 0.455 -0.023 0.1 0.115 -0.438 -1.978 13.835a1.391 1.391 0 0 0 1.205 1.595l3.236 0.367a45.339 45.339 0 0 0 -0.37 3.656 1.11 1.11 0 0 0 0.955 1.253c13.235 1.7 12.531 1.569 13.029 1.193 0.468 -0.354 0.36 -0.375 1.3 -5.137 4.477 0.48 4.42 0.573 4.88 0.226 0.526 -0.4 0.249 0.263 2.025 -13.309 0.191 -1.444 -1.527 -1.343 -3.697 -1.684Zm-4.026 -4.144 3.046 0.415 -0.41 3.525 -3.108 -0.444 0.472 -3.496ZM77.769 114.9c2.95 0.452 4.447 1.109 4.588 -0.766 0 0 0.431 -3.271 0.433 -3.3 0.724 0.153 -1.212 -0.127 9.017 1.278 -0.726 5.378 -1.38 4.422 3.835 5.167 0.1 0.151 0.175 -0.686 -1.2 9.482 -5.4 -0.772 -4.41 -1.518 -5.156 4.011l-9.178 -1.312c0.74 -5.478 1.483 -4.536 -3.759 -5.285 1.179 -7.746 1.126 -9.323 1.42 -9.275Zm1.363 13.933c-0.1 -0.021 -0.206 -0.029 -3.429 -0.388l0.49 -3.231 3.363 0.481 -0.424 3.138Zm18.495 1.341c-6.068 -0.65 -4.884 -1.546 -6.163 4.911L79.8 133.742c0.036 -0.525 0.136 -1.84 0.33 -3.221 9.983 1.427 9.24 1.327 9.342 1.327 1 0 0.86 -0.928 1.349 -4.546l3.688 0.527c1.178 0.173 0.93 -0.546 2.212 -10.041l2.43 0.382 -1.524 12.004Z" stroke-width="1"></path><path id="Vector_52" fill="#141414" d="M89.138 115.566c0.57 1.278 0.55 1.182 0.537 1.267 -0.279 1.856 -0.273 2.258 -0.374 2.242 -2.342 -0.378 -2.2 -0.307 -2.185 -0.407a7.8 7.8 0 0 0 0.134 -1.1c-1.581 -0.246 -1.451 -0.26 -1.463 -0.175 -0.282 1.882 -0.4 2.236 -0.3 2.252 2.96 0.467 2.885 0.409 2.93 0.509 0.575 1.286 0.553 1.19 0.541 1.271a43.6 43.6 0 0 1 -0.713 4.582c-0.638 0.717 -0.819 1.01 -0.919 0.994 -4.326 -0.688 -4.369 -0.636 -4.414 -0.736 -0.583 -1.3 -0.558 -1.2 -0.547 -1.277 0.271 -1.8 0.272 -2.266 0.373 -2.25 2.291 0.369 2.2 0.3 2.187 0.405a7.42 7.42 0 0 0 -0.132 1.1c1.545 0.241 1.421 0.255 1.434 0.173 0.288 -1.929 0.4 -2.239 0.3 -2.255 -2.883 -0.454 -2.881 -0.4 -2.926 -0.5 -0.576 -1.288 -0.556 -1.195 -0.543 -1.279 0.157 -1.524 0.393 -3.039 0.707 -4.539a8.585 8.585 0 0 0 0.89 -1.03l0.005 -0.004a0.01 0.01 0 0 1 0.005 -0.002l0.006 0c4.75 0.753 4.422 0.659 4.467 0.759Z" stroke-width="1"></path><path id="Vector_53" fill="#615fff" d="M67.984 105.2c0.218 -3.575 0.274 -3.587 0.1 -3.741 -0.126 -0.11 -0.221 -0.084 -2.975 -0.362a1.93 1.93 0 0 1 -0.821 -0.438c2.559 -17.069 2.085 -14.97 2.394 -15.316 0.728 -0.816 2.518 -0.066 3.453 -0.034s0.606 -0.978 0.612 -1.531c0.013 -0.999 0.114 -1.994 0.3 -2.975 0.247 -0.28 -0.28 -0.256 11.555 1.312 1.3 0.172 1.49 0.728 0.628 5.273 0.946 0.236 1.894 0.461 2.844 0.676 -1.116 11.105 -1.041 14.242 -2.609 14.032 -2.783 -0.373 -2.777 -0.411 -3.03 -0.258 -1.013 0.613 -0.8 5.647 -2.223 5.585 -3.54 -0.153 -5.567 -0.836 -6.952 -0.925 -1.233 -0.083 -4.452 0.094 -3.276 -1.298Z" stroke-width="1"></path><path id="Vector_54" fill="#141414" d="M83.778 86.867c0.445 -3.743 0.962 -5.215 -0.394 -5.4C70.3 79.645 71.1 79.63 70.628 80.271c-0.248 0.335 -0.188 0.232 -0.742 4.424 -2.822 -0.493 -3.874 -0.89 -4.117 1.035 -1.959 15.55 -2.248 14.794 -1.723 15.472 0.414 0.534 0.637 0.45 3.513 0.755a60.417 60.417 0 0 0 -0.423 3.941 1.084 1.084 0 0 0 0.9 1.272c9.226 1.148 10.554 1.141 10.661 1.141 1.244 0 1.143 -1.474 1.932 -5.747l3.406 0.334a1.08 1.08 0 0 0 0.804 -0.245 1.083 1.083 0 0 0 0.389 -0.745L86.939 88.5c0.191 -1.423 -1.256 -1.329 -3.161 -1.633Zm-14.907 14.395c0.779 -5.817 1.4 -4.867 -3.057 -5.5l1.37 -10.033c2.557 0.369 3.932 1.034 4.1 -0.886 0 0 0.46 -3.509 0.465 -3.559 0.264 0.078 -0.278 -0.008 7.634 1.063 -0.752 5.608 -1.4 4.708 3.116 5.35 0.165 0.291 0.266 -0.956 -1.194 10.27 -4.742 -0.675 -3.836 -1.464 -4.566 4.416l-7.868 -1.121Zm13.514 -14.579 -2.542 -0.361 0.515 -3.846 2.488 0.332 -0.461 3.875Zm-17.243 13.606c0.048 -0.1 0.216 -1.442 0.527 -3.553l2.76 0.392 -0.464 3.463c-0.072 -0.013 -0.726 -0.08 -2.823 -0.302Zm18.73 1.183c-5.266 -0.516 -4.2 -1.445 -5.463 5.4l-9.859 -1.062c0.043 -0.547 0.168 -2.013 0.383 -3.545 8.052 1.145 7.842 1.124 7.947 1.124 1.014 0 0.853 -1.376 1.288 -4.876l3.177 0.452c1.081 0.16 0.877 -0.744 2.213 -10.713l1.957 0.313 -1.643 12.907Z" stroke-width="1"></path><path id="Vector_55" fill="#141414" d="M74.422 92.692c-1.13 0 -2.082 -1.326 -2.51 -2.219 -0.1 -0.2 -0.118 -0.015 0.271 -0.914a23.347 23.347 0 0 1 2.382 -4.259c0.463 -0.714 0.291 -0.707 0.6 0.057a36.56 36.56 0 0 1 1.716 6.54c-0.181 0.56 -2.248 0.795 -2.459 0.795ZM72.6 90.316a4.8 4.8 0 0 0 1.251 1.525 1.166 1.166 0 0 0 0.983 0.112c0.458 -0.067 0.912 -0.164 1.357 -0.29a42.166 42.166 0 0 0 -1.416 -5.425 20.912 20.912 0 0 0 -2.175 4.078Z" stroke-width="1"></path><path id="Vector_56" fill="#141414" d="M76.826 93.548c0.242 -0.8 -1.112 -0.225 -1.727 -0.075 -1.391 0.332 -1.632 0.085 -2.367 -0.967 -1.535 -2.193 -1.21 0.187 -0.987 2.863a6.467 6.467 0 0 0 0.933 3.448c1.256 -0.012 3.992 -4.753 4.148 -5.27Zm-1.406 1.18a23.754 23.754 0 0 1 -2.456 3.26c-0.472 -0.973 -0.48 -2.013 -0.686 -4.307 -0.148 -1.641 0.11 0.332 1.45 0.565 1.896 0.329 2.707 -1.107 1.692 0.483Z" stroke-width="1"></path><path id="Vector_57" fill="#141414" d="M68.62 74.159c-6.147 -9.561 -4.846 -9.122 -7.644 -7.327 -1.2 -1.914 -1.522 -3.029 -2.691 -2.065 -6.241 3.938 -6.822 3.963 -6.243 4.882l1.34 2.2c-2.3 1.53 -2.357 0.306 3.18 9.153 0.519 0.83 1.131 0.24 2.875 -0.776l1.721 2.453c0.578 0.917 1.051 0.423 6.861 -3.166a0.756 0.756 0 0 0 0.214 -1.047c-0.024 -0.044 -0.575 -1.056 -1.259 -2.128 1.085 -0.638 2.326 -1.115 1.646 -2.179Zm-2.754 2.086L61.7 78.919c-1.992 -3.162 -1.334 -2.934 -3.809 -1.347L54.5 72.184c0.089 -0.275 -0.246 0 1.6 -1.18 0.608 -0.389 -0.039 -1.043 -1.185 -2.862 2.793 -1.763 3.948 -2.487 4.039 -2.558 1.887 3.014 1.383 2.911 3.811 1.354l3.4 5.33c-2.398 1.532 -2.265 0.852 -0.299 3.977Zm-12.8 -6.938 1.251 -0.79 1.254 1.99 -1.276 0.818 -1.229 -2.018ZM67.2 78.775l-5.29 3.144c-2.527 -3.6 -1.744 -3.334 -4.584 -1.681l-4.282 -6.9 0.956 -0.631c3.641 5.78 3.41 5.545 3.74 5.619 0.3 0.066 0.331 -0.033 2.046 -1.133 1.155 1.833 1.536 2.8 2.144 2.414l4.17 -2.677c0.481 0.752 0.9 1.488 1.1 1.845Zm-0.946 -3.233 -1.121 -1.78 1.405 -0.9 1.162 1.822c-0.019 0.016 -1.426 0.845 -1.446 0.858Z" stroke-width="1"></path><path id="Vector_58" fill="#141414" d="M62.994 72.833c-2.487 -2.09 -4.385 -5.01 -4.733 -3.62 -0.05 0.2 -0.055 0.07 0.722 2.748 -0.217 0.123 -0.432 0.25 -0.644 0.383a0.351 0.351 0 1 0 0.355 0.606l0.491 -0.3 0.58 1.994a0.352 0.352 0 0 0 0.677 -0.186l-0.627 -2.156c0.249 -0.129 0.755 -0.309 0.517 -0.678 -0.2 -0.309 -0.5 -0.118 -0.716 -0.008 -0.875 -3.01 -0.757 -1.35 2.882 1.708 0.343 0.294 0.842 -0.2 0.496 -0.49Z" stroke-width="1"></path><path id="Vector_59" fill="#141414" d="M55.113 85.589c0.677 -3.293 1.461 -2.449 -5.849 -3.9 -1.044 -0.348 -1.084 0.31 -1.522 2.286 -1.522 -0.311 -1.957 -0.547 -2.21 0.631 -1.843 8.606 -2.355 7.883 0.22 8.316 -0.707 3.178 -1.052 2.355 5.566 3.578a0.721 0.721 0 0 0 0.834 -0.557l0.615 -2.238c2.944 0.472 2.06 1.261 3.866 -7.016 0.195 -0.895 -0.833 -0.947 -1.52 -1.1ZM46.778 92.4c0.631 -2.858 0.812 -2.422 -1.276 -2.848l1.063 -4.734c2.191 0.452 1.924 0.667 2.533 -2.073l3.614 0.711c-0.431 1.943 -0.492 1.978 -0.332 2.225 0.269 0.415 1.508 0.264 1.773 0.613L53.088 91.1c-2.315 -0.473 -1.9 -0.792 -2.53 2.073l-3.78 -0.773Zm7.288 -6.945 -1.031 -0.211 0.366 -1.652 1.007 0.2 -0.342 1.663Zm-9.078 6.278 0.353 -1.5 1.144 0.234 -0.324 1.461 -1.173 -0.195Zm9.24 1.144c-2.656 -0.425 -2.136 -0.688 -3.022 2.54l-4.71 -0.8c0.055 -0.328 0.158 -0.9 0.293 -1.5 4.962 1.014 4.16 1.538 4.855 -1.6 2.467 0.5 1.8 1.207 3.16 -4.92l0.736 0.164 -1.312 6.116Z" stroke-width="1"></path><path id="Vector_60" fill="#141414" d="M81.46 70.292c-2.842 -6.056 -2.2 -5.69 -3.9 -4.942 -0.933 -2.035 -0.076 -1.89 -5.294 0.353 -0.624 0.39 -0.162 0.916 0.311 1.99 -0.578 0.265 -1.181 0.42 -0.908 1.018 2.61 5.733 1.841 5.17 3.818 4.4 0.679 1.3 0.872 2.006 1.45 1.764 3.678 -1.542 4.255 -1.5 3.945 -2.166 -0.589 -1.543 -0.786 -1.123 0.284 -1.547a0.63 0.63 0 0 0 0.294 -0.87Zm-2.207 0.556 -2.206 0.966c-0.807 -1.762 -0.568 -1.666 -2.011 -1.034L73.7 67.857c1.45 -0.635 1.339 -0.43 0.55 -2.153l2.17 -0.933c0.823 1.8 0.606 1.745 2.091 1.095L79.8 68.69c-1.453 0.64 -1.345 0.415 -0.547 2.158ZM73.561 66l0.42 0.918 -0.749 0.33 -0.409 -0.93 0.738 -0.318Zm3.3 8.062c-1.16 -2.225 -0.779 -2.023 -2.532 -1.34L72.474 68.6l0.613 -0.28c1.75 3.82 1.276 3.571 2.856 2.878 0.529 1.153 0.645 1.633 1.157 1.41 2.806 -1.227 2.4 -1.116 2.482 -0.939 0.205 0.434 0.381 0.861 0.482 1.114l-3.203 1.279Zm3.177 -3.3 -0.52 -1.135 0.663 -0.29 0.547 1.151 -0.69 0.274Z" stroke-width="1"></path><path id="Vector_61" fill="#141414" d="M84.119 149.95s-10.394 -14.106 -10.514 -14.25c-0.642 -0.739 -1.456 -0.752 -2.5 0.013 0 0 -3.1 2.253 -3.168 2.309 -2.489 -3.442 -3.164 -5.436 -5.327 -3.523 -0.215 0.19 0.927 -0.706 -13.979 10.047a1.457 1.457 0 0 0 -0.334 2.026l2.768 3.971c-2.826 2.109 -3.342 2.283 -3.474 3.109 -0.133 0.843 -0.47 0.191 9.578 14.151a1.455 1.455 0 0 0 2.014 0.342l4.423 -2.986c3.921 4.739 3.863 4.946 4.782 4.946 0.636 0 -0.349 0.829 14.073 -9.347a1.437 1.437 0 0 0 0.367 -1.976 57.925 57.925 0 0 0 -2.608 -3.871c3.712 -2.538 4.074 -2.583 4.238 -3.578a1.824 1.824 0 0 0 -0.339 -1.383Zm-8.793 0.983 2.866 3.95L68.387 162c-4.156 -5.726 -2.626 -5.45 -8.314 -1.32l-7.011 -9.659c0.106 -0.395 -0.465 0.117 3.843 -3.014a1.067 1.067 0 0 0 0.43 -0.701 1.076 1.076 0 0 0 -0.193 -0.799l-2.736 -3.77c10.718 -7.693 9.517 -7.034 9.779 -6.673 3.782 5.22 2.648 5.166 8.153 1.087l6.991 9.549 -3.765 2.732a1.067 1.067 0 0 0 -0.43 0.701 1.069 1.069 0 0 0 0.192 0.8Zm-25.245 -5.1 3.252 -2.327 2.595 3.577 -3.3 2.4 -2.547 -3.65Zm30.948 13.625 -12.566 8.616c-5.316 -6.424 -3.444 -6.14 -10 -1.711l-8.834 -12.387 2.563 -1.913c7.514 10.352 7.035 9.92 7.661 10.021 0.58 0.092 0.383 0.11 4.748 -3.059 2.363 3.256 3.166 5.061 4.365 4.188l9.794 -7.109c1 1.367 1.869 2.72 2.269 3.355v-0.001Zm-2 -6.014c-0.236 0.161 0.182 0.595 -2.49 -3.087l3.581 -2.6 2.446 3.267 -3.537 2.42Z" stroke-width="1"></path><path id="Vector_62" fill="#141414" d="M70.982 153.741c-0.212 -0.3 -0.208 -0.178 -0.09 -0.37 1.862 -3 -1.545 -6.379 -4.356 -6.154 1.242 -2.9 -0.869 -5.534 -3.4 -4.892 -0.465 -1 -1.345 -1.351 -1.479 -1.155 -0.134 0.196 0.221 0.675 0.608 1.257 0.2 0.3 0.23 0.034 -0.864 0.727 -1.01 -1.7 -1.728 -1.1 -0.661 0.464 -0.26 0.239 -0.508 0.491 -0.742 0.755 0.763 1.2 2.818 3.541 4.115 5.595 4.31 6.824 3.311 6.291 4.4 5.411 0.106 -0.057 0.033 -0.066 0.231 0.193 0.725 0.953 1.932 1.2 0.645 -0.493 -0.134 -0.175 -0.157 -0.106 0.07 -0.26 0.927 -0.629 0.751 -0.764 0.862 -0.607 1.266 1.754 1.479 0.66 0.661 -0.471ZM63.9 148.2c-0.7 -1.255 -1.364 -2.594 -1.91 -3.612a10.15 10.15 0 0 1 1.2 -1.052c1.918 -1.322 3.742 1.015 2.347 3.017A8.215 8.215 0 0 1 63.9 148.2Zm4.225 5.6a35.575 35.575 0 0 1 -3.306 -4.046 4.82 4.82 0 0 1 2.106 -1.365c2.764 -0.464 5.967 3.424 1.198 5.405l0.002 0.006Z" stroke-width="1"></path><g id="Group_11"><path id="Vector_63" fill="#d6d5d4" d="M89.2 112.418c0.9 0.453 1.252 1.4 2.232 3.448 0.384 -0.838 0.623 -3.379 3.384 -4.181 0.3 -0.086 0.461 -0.288 0.192 -0.45 -0.652 -0.392 -2.608 -0.618 -3.38 -2.865 -1.187 -3.454 0.165 2.286 -4.194 3.252 0.54 0.362 1.137 0.631 1.766 0.796Z" stroke-width="1"></path><path id="Vector_64" fill="#d6d5d4" d="M37.727 104.044a26.435 26.435 0 0 0 1.682 -4.319c0.47 1.3 1.11 2.533 1.9 3.668 1.063 1.268 3.707 1.789 3.867 2.121 0.2 0.418 -1.9 0.709 -2.982 2.035 -0.128 0.156 -1.632 2.607 -1.7 2.792 -0.233 0.609 -0.238 1.381 -0.774 1.752 -0.434 -0.9 -0.516 -1.935 -0.975 -2.819 -0.931 -1.79 -2.856 -2.2 -3.8 -2.648 -1.435 -0.679 1.455 -0.609 2.782 -2.582Z" stroke-width="1"></path><path id="Vector_65" fill="#141414" d="M43.444 104.462a5.514 5.514 0 0 1 -3.257 -3.906c-1.019 -3.437 -0.6 -3.674 -1.477 0.134 -1.248 5.569 -5.528 4.953 -5.457 5.615 0.057 0.527 4.337 0.151 5.784 4.841 0.441 1.4 0.593 2.619 0.8 2.611 0.207 -0.008 0.34 -1.2 0.795 -2.6 2.319 -7.224 8.877 -4.149 2.812 -6.695Zm-3.612 7a6.981 6.981 0 0 0 -3.763 -4.845c-1.551 -0.725 -1.437 0.02 0.075 -0.894a7.513 7.513 0 0 0 3.31 -5.251 6.46 6.46 0 0 0 5.376 5.137c-2.497 0.552 -4.411 3.385 -4.998 5.855v-0.002Z" stroke-width="1"></path><path id="Vector_66" fill="#d6d5d4" d="M73.284 78.081c-1.613 1.583 -2.972 0.919 -2.04 1.631a5.05 5.05 0 0 1 1.949 4.06c2.435 -3.578 3.608 -2.859 3.954 -3.2 0.326 -0.321 -0.68 -0.83 -0.849 -0.946 -1.494 -1.024 -1.105 -2.82 -1.471 -3.537 -0.592 0.554 -0.945 1.404 -1.543 1.992Z" stroke-width="1"></path><path id="Vector_67" fill="#141414" d="M76.661 79.482c-2.586 -1.928 -0.547 -7.146 -2.589 -2.964a4.12 4.12 0 0 1 -2.362 2.266c-0.86 0.295 -1.67 0.267 -1.7 0.484 -0.139 0.506 2.529 0.78 2.753 3.837 0.182 2.293 0.078 2.207 1.232 0.29 2.25 -3.77 5.969 -1.53 2.666 -3.913Zm-3.2 3.453a4.482 4.482 0 0 0 -1.665 -3.172c-0.4 -0.315 -0.417 -0.131 0.133 -0.31a4.717 4.717 0 0 0 2.662 -2.395 4.026 4.026 0 0 0 2.228 3.342 5.136 5.136 0 0 0 -3.363 2.535h0.005Z" stroke-width="1"></path><path id="Vector_68" fill="#d6d5d4" d="M60.123 136.319c3.042 0.12 3.346 0.631 5.137 2.674 0.2 -3.457 0.8 -4.2 2.211 -5.591 -0.381 -0.492 -1.957 0.141 -3.351 -0.767 -0.818 -0.533 -1.5 -1.712 -1.794 -1.905 -0.55 -0.357 -0.124 1.135 -0.145 1.536a6.586 6.586 0 0 1 -2.058 4.053Z" stroke-width="1"></path><path id="Vector_69" fill="#141414" d="M94.02 110.391c-3.4 -1.489 -2.337 -7.694 -3.51 -2.605 -0.873 3.888 -3.838 3.4 -3.772 4.009 -0.024 0.547 2.977 0.149 4.006 3.474 0.792 2.507 0.568 2.368 1.336 0.007 1.542 -4.802 6.177 -3.104 1.94 -4.885Zm-2.607 4.666a4.995 4.995 0 0 0 -2.629 -3.134c-0.661 -0.307 -0.624 -0.03 0.063 -0.444a5.294 5.294 0 0 0 2.312 -3.387 4.519 4.519 0 0 0 3.42 3.221c-1.528 0.487 -2.654 2.166 -3.166 3.744Z" stroke-width="1"></path><path id="Vector_70" fill="#141414" d="M65.994 132.78c-3.823 -0.3 -4.849 -6.684 -4.271 -1.351 0.467 4.074 -2.585 4.584 -2.312 5.159 0.158 0.533 2.936 -0.873 5.061 2.011 3 4.023 -0.144 -0.729 2.272 -4.024 1.133 -1.564 2.447 -1.593 -0.75 -1.795Zm-0.942 5.423a5.086 5.086 0 0 0 -3.617 -2.172c-0.777 -0.079 -0.643 0.192 -0.095 -0.467a5.427 5.427 0 0 0 1.094 -4.088 4.643 4.643 0 0 0 4.443 1.989c-1.32 0.967 -1.892 3.035 -1.825 4.735v0.003Z" stroke-width="1"></path><path id="Vector_71" fill="#d6d5d4" d="M67.081 61.7c1.585 1.444 3.055 1.122 3.141 1.375 0.08 0.234 -0.608 1.024 -0.779 1.416 -0.281 0.644 -0.126 1.431 -0.48 2.037 -1.187 -1.9 -3.018 -1.375 -3.023 -1.738 0 -0.158 0.829 -0.9 1.044 -1.763 0.052 -0.206 0.283 -1.153 0.097 -1.327Z" stroke-width="1"></path><path id="Vector_72" fill="#141414" d="M70.817 62.973c-0.007 -0.386 -1.581 -0.185 -2.315 -0.7 -0.9 -0.627 -1.382 -1.908 -1.716 -1.771 -0.571 0.188 0.569 2.137 -0.681 3.591 -0.415 0.482 -0.894 0.816 -0.811 1.011 0.06 0.2 0.623 0.156 1.235 0.238 1.871 0.188 2.185 2.2 2.745 2.109 0.538 -0.145 -0.327 -1.958 0.829 -3.476 0.367 -0.487 0.784 -0.812 0.714 -1.002Zm-2.053 2.868a3.33 3.33 0 0 0 -2.156 -1.193c0.527 -0.69 0.813 -1.532 0.816 -2.4a2.939 2.939 0 0 0 2.321 1.08 3.888 3.888 0 0 0 -0.981 2.513Z" stroke-width="1"></path></g></g><g id="Group_12"><path id="Vector_73" fill="#615fff" d="M142.573 100.452c1.973 1.8 4.581 2.707 7.11 3.566 4.449 1.512 9.787 -0.5 12.69 -4.2 3.956 -5.038 4.1 -10.992 2.972 -12.46 -1.067 2.181 -3.67 4.8 -6.018 4.244a2.39 2.39 0 0 1 -1.813 -2.624c0.416 -2.309 3.812 -6.043 3.48 -7.583 -0.144 -0.668 0.421 -1.606 0.3 -2.784 -0.071 -0.674 -0.307 -1.084 -1.55 -3.78a2.172 2.172 0 0 0 -1.112 -1.238c-0.749 -0.517 -1.414 -1.332 -2.324 -1.323 2.62 9.7 -8.665 4.094 -9.38 9.655 -0.306 2.38 2.247 3.347 1.363 7.14 -0.17 0.727 -0.348 0.972 -1.141 1.108a5.022 5.022 0 0 1 -4.568 -1.046c-0.851 -0.872 -2.382 -4.256 -2.1 -6.225 0.3 -2.108 -2.915 3.234 -2.1 10.565 -0.499 -0.167 1.565 4.588 4.191 6.985Z" stroke-width="1"></path><path id="Vector_74" fill="#615fff" d="M83.547 12.674c-1.437 0.08 -1.275 10 6.283 11.444 2.524 0.48 4.76 0.6 7.629 -1.412 2.253 -1.577 2.713 -3.14 3.087 -5.882a4.363 4.363 0 0 0 -0.41 -3.21c-1.244 2.958 -4.747 2.611 -5.1 0.412a5.92 5.92 0 0 1 0.568 -2.537 5.547 5.547 0 0 0 -2.617 -6.266c-0.119 0.741 0.276 1.534 -0.006 2.23 -0.432 1.07 -1.766 0.946 -3.779 2.3 -1.727 1.165 -1.624 2.158 -0.806 3.944 0.5 1.091 0.764 2.487 -0.039 2.906a3.7 3.7 0 0 1 -3.239 -1.191 12.06 12.06 0 0 1 -1.571 -2.738Z" stroke-width="1"></path><path id="Vector_75" fill="#615fff" d="M50.3 34.272c-0.21 -0.348 -0.37 -0.641 -0.854 -0.7 0.296 1.269 0.409 2.573 0.333 3.874a3.357 3.357 0 0 1 -1.055 2.527 1.624 1.624 0 0 1 -1.778 0.742c-3.551 -0.434 -2.419 -4.107 -3.647 -6.242 -0.982 -1.709 -1.1 -2.481 -2.921 -3.356 -2.23 -1.069 -5.314 -1.277 -4.048 -0.358a3.918 3.918 0 0 1 1.709 4.012c-0.528 1.874 -2.735 2.789 -3.241 4.087a2.7 2.7 0 0 0 1.052 2.909c2.054 1.655 4.993 1.175 4.172 4.289a1.3 1.3 0 0 1 -0.945 1.079c-2.665 1.078 -3.447 0.106 -4.459 -0.332 -0.406 -0.176 -0.844 -0.274 -1.239 -0.472 -0.917 -0.461 -1.506 -1.409 -2.406 -1.9 0.004 0.502 0.045 1.004 0.123 1.5 1.425 4.035 2.91 5.517 5.584 6.946 4.955 2.647 7.358 2.052 10.58 0.517 3.593 -1.713 4.815 -4.159 5.9 -7.195 0.829 -2.538 0.7 -5.292 -0.36 -7.743a15.947 15.947 0 0 0 -2.5 -4.184Z" stroke-width="1"></path><path id="Vector_76" fill="#141414" d="M165.676 87.217c-0.4 -0.981 -0.366 -0.43 -0.958 0.564 -1.99 3.39 -7.493 4.46 -6.324 0.75 0.577 -1.8 2.227 -3.511 3.109 -5.53a8.472 8.472 0 0 0 -1.152 -8.431c-1.567 -2 -4.034 -2.893 -4.15 -2.511 -0.326 0.139 1.046 2.826 -1 4.815 -2.965 3.009 -6.425 -0.677 -8.7 3.735 -1.688 3.242 1.419 5.377 1.3 7.626 -0.095 1.913 -3.446 2.464 -5.746 -1.265 -1.613 -2.691 -1.157 -5.093 -1.548 -5.126 -0.211 -0.135 -2.806 3.127 -3.049 7.783 -0.686 12.75 13.972 19.712 22.968 13.009 5.219 -3.883 7.06 -10.955 5.25 -15.42Zm-1.133 7.42c-4.073 11.25 -17.873 11.191 -23.3 3.04a14.598 14.598 0 0 1 -1.479 -13.739c0.569 -1.481 0.4 -1.077 0.368 -0.58 -0.292 6.044 5.263 9.66 8.3 7.175a3.088 3.088 0 0 0 1.087 -2.182c0.21 -3.156 -3.652 -5.835 -0.584 -8.036 1.264 -0.913 2.855 -0.254 4.576 -0.84 3.022 -0.965 4.71 -4.282 3.073 -7.015 2.992 2.16 4.035 4.8 3.947 7.258 -0.106 3.96 -4.477 6.639 -3.94 10.207 0.58 4.348 7.735 2.382 8.8 -2.072a14.954 14.954 0 0 1 -0.848 6.785Z" stroke-width="1"></path><path id="Vector_77" fill="#141414" d="M100.11 12.776c-0.286 -0.031 -1.282 3.39 -3.472 2.358 -2.082 -0.922 1.545 -4.431 -0.313 -7.683 -0.982 -1.728 -3.4 -2.72 -3.52 -2.451 -0.3 -0.023 -0.023 1.379 -0.184 1.843 -0.262 0.782 -1.289 1.049 -2.08 1.283 -3.107 0.942 -4.47 3.263 -2.706 5.819 0.471 0.683 0.728 1.157 0.623 1.43 -0.179 0.88 -2.09 1.018 -3.386 -0.756 -1.094 -1.522 -0.893 -2.889 -1.136 -2.9 -0.07 -0.063 -0.524 0.246 -0.961 1.1 -1.147 2.245 -0.873 6.261 1.76 9.351 5.324 6.227 15.13 3.178 16.254 -4.177 0.487 -3.018 -0.614 -5.332 -0.879 -5.217ZM83.5 16.579a7.966 7.966 0 0 1 0.04 -3.492 4.432 4.432 0 0 0 4.035 4.4 2.342 2.342 0 0 0 2.25 -3.306c-0.539 -1.244 -2.255 -2.439 -0.346 -3.974 1.356 -1.1 4.951 -1.408 3.785 -4.4 -0.16 -0.349 -0.143 -0.289 -0.039 -0.169 0.614 0.7 0.861 0.858 1.3 1.4 2.3 2.83 -0.743 5.11 -0.029 7.733 0.641 2.594 4.873 2.692 5.686 -0.606 0.943 11.711 -14.611 13.287 -16.682 2.414Z" stroke-width="1"></path><path id="Vector_78" fill="#141414" d="M49.036 33.02c-0.212 0.078 0.47 1.511 0.32 3.852 -0.3 3.714 -3.159 4.937 -4.237 1.022 -0.8 -2.876 -1.286 -6.329 -5.743 -7.714 -2.145 -0.66 -4.156 -0.051 -4.08 0.213 -0.046 0.21 2.445 0.85 2.314 3.354 -0.085 1.831 -1.47 2.39 -2.692 3.782 -1.639 1.879 -1.3 4.614 2.046 5.892a5.438 5.438 0 0 1 2.5 1.377c0.835 0.994 -0.04 2.427 -2.385 2.235 -3.952 -0.326 -5.909 -3.037 -6.121 -2.824 -0.172 -0.005 -0.5 3.112 2.136 6.443C41.342 60.97 58.463 52.216 53.207 38.4c-1.353 -3.432 -3.975 -5.637 -4.171 -5.38Zm3.677 12.609c-1.249 5.543 -7.619 9.376 -13.006 7.956a11.706 11.706 0 0 1 -8.573 -8.9c2.25 3.661 9.236 5.064 9.927 1.244 0.362 -1.98 -1.7 -3.115 -3.61 -3.8 -2.375 -0.857 -2.612 -2.534 -1.555 -3.8 0.957 -1.208 2.815 -2.265 2.687 -4.592a3.584 3.584 0 0 0 -2.292 -3.255 7.77 7.77 0 0 1 2.755 0.606c3.761 1.6 4 4.419 4.751 7.179 1.972 6.786 8.9 2.215 5.881 -4.342 -0.105 -0.225 4.545 5.137 3.035 11.704Z" stroke-width="1"></path></g><g id="Group_13"><path id="Vector_79" fill="#d6d5d4" d="M125.305 135.7c0.4 8.984 9.553 13.435 16.717 17.007 1.15 0.573 1.478 0.935 1.345 2.934 -0.459 6.888 4.628 14.463 6.613 15.75 3.324 2.155 10.217 -2.943 11.876 -6.87 1.919 -4.545 0.522 -10.718 -0.923 -15.415 -0.551 -1.793 -2.321 -7.364 -3.426 -8.867 -1.557 -2.115 -8.712 -5.682 -11.18 -6.621 -3.118 -1.187 -6.57 -1.861 -9.062 -4.079 -2.7 -2.4 -4.671 -4.511 -8.138 -2.017a9.746 9.746 0 0 0 -3.822 8.178Z" stroke-width="1"></path><path id="Vector_80" fill="#141414" d="M160.559 144.57c-2.7 -10.234 -13.691 -10.69 -20.644 -14.852 -2.438 -1.411 -3.677 -3.336 -5.938 -4.146 -3.435 -1.33 -9.668 2.771 -9.493 9.811 0.318 8.452 9.579 16.755 17.8 18.6 -0.424 10.259 6.432 17.764 7.142 17.15 0.485 -0.4 -2.76 -4.592 -4.33 -10.734 -1.669 -6.115 -0.956 -11.373 -1.576 -11.473 -0.229 -0.043 -0.669 0.909 -0.97 2.6 -10.521 -2.542 -20.542 -15.85 -13 -22.351 4.1 -3.418 4.792 0.226 9.112 2.642 7.457 4.408 17.284 4.258 20.232 13.236 4.806 16.426 5.32 15.322 1.665 -0.483Z" stroke-width="1"></path></g><g id="Group_14"><path id="Vector_81" fill="#615fff" d="M128.072 125.908c1.012 1.28 4.506 0.694 6.392 -0.706 1.736 3.116 5.914 2.817 6.082 2.18 0.1 -0.377 -0.957 -0.971 -1.686 -1.78 -1.767 -1.961 -1.622 -5.3 -2.485 -6.471 -0.916 0.753 -1.392 1.931 -2.281 2.714a6.528 6.528 0 0 1 -4.409 1.5c-1.116 -0.142 -5.49 -2.453 -5.889 -2.593 0.414 3.672 2.373 3.96 1.13 6.631 -1.068 2.3 -3.711 4.6 -3.872 4.879 3.65 -0.214 6.423 -0.568 6.829 -4.6a8.761 8.761 0 0 0 0.189 -1.754Z" stroke-width="1"></path><path id="Vector_82" fill="#141414" d="M136.216 120.028c0.695 2.014 0.109 3.511 1.88 5.39a16.752 16.752 0 0 1 1.606 1.752 3.972 3.972 0 0 1 -4.842 -3.139 5.554 5.554 0 0 1 -7.529 1.041c0.83 3.113 -1.108 7.053 -5.118 6.678 2.034 -2.214 3.473 -3.205 3.376 -6.258 -0.053 -1.691 -0.964 -2.671 -1.331 -4.106 3.176 1.2 6.377 4.866 10.827 0.255a3.772 3.772 0 0 1 1.131 -1.613Zm0.51 -1.75c-1.2 0.957 -1.948 1.4 -2.537 2.773 -3.747 3.712 -5.473 0.889 -11.452 -1.364 1.153 4.51 1.8 4.509 1.8 5.838 0.188 2.626 -1.357 3.618 -4.537 7.078l2.117 0.2c3.938 0.366 6.335 -2.72 6.446 -5.984a6.461 6.461 0 0 0 4.346 -0.114c2.378 -0.916 0.874 -1.325 2.22 0.078 2.285 2.381 4.844 1.409 6.293 1 -2.755 -3.9 -3.277 -2.988 -3.693 -5.568a13.991 13.991 0 0 0 -1.003 -3.937Z" stroke-width="1"></path></g></g></svg>