<svg xmlns="http://www.w3.org/2000/svg" fill="none" viewBox="0 0 200 200" id="Cryptowallets--Streamline-Web-3.0.svg"><desc>Cryptowallets Streamline Illustration: https://streamlinehq.com</desc><g id="Cryptowallets--cryptocurrency-crypto-web 3.0-metaverse-bitcoin-ethereum"><g id="Group"><path id="Vector" fill="#d6d5d4" d="M163.579 168.826c4.094 -30.208 6.916 -57.866 7.833 -63.187 1.1 -6.369 1.96 -12.792 -3.705 -16.613 -8.617 -5.806 -41.736 -1.666 -78.3 -8.417 -26.179 -4.833 -38.639 -13.542 -47.6 -7.32 -3.622 2.516 -4.75 5.966 -5.319 10.3 -0.013 0.1 -4.488 54.919 -4.518 75.821 0 7.3 -0.138 15.1 6.655 16.823a159.164 159.164 0 0 0 25.155 1.61c5.735 -0.085 6.905 -0.333 12.4 -0.182 0.1 0 20.5 0.91 20.6 0.928 11.4 2.028 14.268 5.859 39.522 12.3 4.689 1.2 12.562 3.981 16.854 3.031 7.871 -1.744 9.189 -15.995 10.423 -25.094Z" stroke-width="1"></path><path id="Vector_2" fill="#141414" d="m32.244 170.238 1.685 -0.476c-2.657 -9.832 2.815 -64.754 3.836 -79.01 0.514 -7.185 0.371 -14.774 7.425 -17.019 7.221 -2.3 16.519 2.1 28.5 5.341C110.738 89.1 153 86.327 163 89.2c6 1.724 7.646 5.62 6.974 11.852 -0.419 3.9 0.158 -2.893 -3.2 25.264 -7.622 63.857 -6.01 69.1 -22.793 64.737 -34.88 -9.056 -29.243 -9.376 -41.211 -12.813a29.87 29.87 0 0 0 -6.962 -1.36c-6.563 -0.031 -13.133 -0.629 -19.593 -0.759 -6.1 -0.123 -7.96 0.191 -12.458 0.274 -10.14 0.185 -23.416 -0.879 -25.453 -1.515 -2.406 -0.751 -3.671 -2.706 -4.37 -5.118l-1.685 0.476c1.022 3.655 3.15 6.194 6.97 6.726a161.607 161.607 0 0 0 30.73 1.308c8.832 -0.294 16.4 0.783 26.591 0.9 11.509 2.047 14.238 5.974 39.611 12.314 5.523 1.38 14.42 4.976 19.291 2.222 7.386 -4.175 8.213 -20.793 9.936 -34.329 0.014 -0.112 7.617 -60.23 7.378 -62.61 -0.908 -9.01 -8.725 -10.936 -17.769 -11.375 -33.732 -1.637 -58.323 -1.81 -87.961 -10.9 -8.852 -2.723 -18.726 -6.76 -26.194 -1.264 -5.918 4.357 -5.039 12.485 -5.939 24.25 -0.835 10.908 -5.471 62.65 -2.649 72.758Z" stroke-width="1"></path></g><g id="Group_2"><path id="Vector_3" fill="#d6d5d4" d="M46.12 64.06c2.084 2.65 4.074 3.618 8.6 5.486 3.051 1.273 10.566 3.808 13.834 3.36 20.553 -2.823 27.829 -34.059 16.453 -41.993 -1.624 -1.132 -8.577 -3.481 -9.866 -3.887 -3.574 -1.126 -6.809 -1.9 -10.461 -1.324C46.244 28.626 38.134 53.9 46.12 64.06Z" stroke-width="1"></path><path id="Vector_4" fill="#141414" d="M90.484 39.285c-1.765 -8.62 -6.378 -9.689 -10.509 -11.22 -4.275 -1.579 -9.653 -3.52 -14.212 -3.115 -20.163 2.368 -28.77 30.22 -19.342 40.371 2.616 3.358 12.931 6.776 17.406 7.733 16.206 3.466 29.88 -17.246 26.657 -33.769Zm-7.266 -0.094c2.67 0.191 2.314 0.086 5.332 1.39a25.68 25.68 0 0 1 -0.263 9.287c-4.447 -0.289 -3.509 -0.8 -6.131 -1.6a27.625 27.625 0 0 0 1.062 -9.077Zm5.031 -0.182c-3.175 -0.2 -2.95 -0.6 -5.214 -1.482a14.058 14.058 0 0 0 -3.235 -7.34c3.161 1.207 6.851 1.952 8.449 8.822ZM47.76 64.06c-8.193 -8.576 -1.96 -31.438 14.015 -36.373 5.14 -1.723 9.444 -0.63 14.993 1.365 9.517 6.673 4.395 23.522 -3.069 32.67 -4.331 5.231 -9.1 7.905 -15.8 7.585 -2.475 -0.854 -8.534 -3.179 -10.139 -5.248Zm13.445 6.27a18.265 18.265 0 0 0 7.615 -2.475c1.99 0.585 2.77 0.054 5.731 1.723 -5.223 2.66 -8.373 2.106 -13.346 0.751Zm14.975 -1.68c-2.981 -0.722 -2.562 -0.154 -5.763 -1.89a29.407 29.407 0 0 0 6.074 -6.5c-0.082 0.343 2.194 0.227 3.859 0.652a19.4 19.4 0 0 1 2.63 1.081 24.225 24.225 0 0 1 -6.8 6.657Zm7.708 -8.026c-4.729 -0.617 -2.451 -0.076 -6.479 -1.74a40.159 40.159 0 0 0 4.253 -8.967c2.644 0.5 2.081 -0.433 6.295 1.356a34.308 34.308 0 0 1 -4.069 9.351Z" stroke-width="1"></path><path id="Vector_5" fill="#141414" d="M55.943 66.137c13.716 3.047 28.57 -21.132 20.072 -33.306C72.122 27.209 60.312 27 52.2 39.018a14.58 14.58 0 0 0 -1.921 3.618c0.343 0.187 2.942 -6.111 10.463 -10.551 4.606 -2.654 11.557 -2.619 14.248 1.471 5.206 7.648 0.331 20.209 -6.5 26.834 -11.03 10.735 -24.212 2.27 -19.611 -13.738 0.67 -2.252 2.1 -5.479 0.728 -2.949 -4.8 8.82 -2.596 20.608 6.336 22.434Z" stroke-width="1"></path><path id="Vector_6" fill="#141414" d="M64.081 49.31c1.6 0.041 3.572 0.665 4.575 -0.507 1.328 -7.646 1.691 -9.87 1.606 -15.1 -7.448 5.521 -6.348 4.774 -10.941 9.231A9.835 9.835 0 0 0 61.013 48a3.833 3.833 0 0 0 3.068 1.31ZM68.81 36.6c-0.074 2.547 -0.3 4.411 -1.5 11.41 -0.831 0.036 -1.664 0 -2.489 -0.108 -0.939 -0.1 -2.054 -0.034 -2.643 -0.8a8.258 8.258 0 0 1 -1.334 -3.602 53.198 53.198 0 0 1 7.966 -6.9Z" stroke-width="1"></path><path id="Vector_7" fill="#141414" d="m58.661 45.968 -0.819 -1.519c-2.6 8.136 -4.609 11.716 -3.893 15.276 0.162 0.558 0.035 0.428 0.522 0.6 1.355 0.489 10.231 -5.676 12.282 -7.821 0.221 -0.231 0.251 -0.283 1.167 -1.427 -1.813 -0.085 -2.174 -0.116 -3.457 -0.093 -6.063 0.109 -4.122 -1.893 -5.802 -5.016Zm4.714 6.483c1.868 0.063 1.819 -0.535 -1.494 2.139a71.21 71.21 0 0 1 -6.593 4.119 14.89 14.89 0 0 1 1.08 -5.439c0.75 -2.272 0.9 -3.127 1.6 -4.8 0.758 2.777 1.551 3.846 5.407 3.981Z" stroke-width="1"></path></g><g id="Group_3"><path id="Vector_8" fill="#d6d5d4" d="M144.809 35.117c5.207 -7.439 3.079 -10.486 1.5 -13.238 -2.243 -3.9 -4.539 -8.022 -8.46 -9.829 -14.415 -6.64 -38.175 9.4 -38.113 21.417 0.3 4.323 5.313 12.623 8.566 15.009 7.227 5.305 26.675 0.543 36.507 -13.359Z" stroke-width="1"></path><path id="Vector_9" fill="#141414" d="M148.678 26.135a10.603 10.603 0 0 0 -1.844 -4.564c-2.116 -3.676 -4.8 -8.419 -8.74 -10.064C124 4.729 97.534 21.168 99.246 34.612c0.4 3.114 3.752 9.078 6.9 12.649 3.322 3.794 8.863 4.441 13.838 3.775 15.772 -2.319 29.469 -16.721 28.694 -24.901Zm-11.305 -13.076c2.734 1.183 4.822 4.242 6.361 6.812 2.708 12.846 -27.762 30.892 -39.683 21.468a32.041 32.041 0 0 1 -2.917 -6.089C97.507 24.006 123.225 6 137.373 13.059Zm-31.918 30.4a14.94 14.94 0 0 0 7.213 1.915c1.133 1.532 1.755 1.4 2.669 3.953 -5.792 -0.327 -7.769 -2.927 -9.882 -5.867v-0.001Zm11.388 5.9c-1.591 -2 -1.575 -1.475 -2.564 -4.043a33 33 0 0 0 8.509 -2.011c1.114 1.42 1.611 0.784 3.245 4.141a26.863 26.863 0 0 1 -9.19 1.912v0.001Zm10.506 -2.436a20.16 20.16 0 0 1 -1.827 -1.824 20.678 20.678 0 0 1 -1.276 -2.359 51.118 51.118 0 0 0 9.014 -4.823c1.726 1.824 1.671 0.836 3.236 3.794a43.712 43.712 0 0 1 -9.147 5.211v0.001Zm10.143 -5.983c-2.482 -2.1 -1.555 -1.752 -2.969 -3.909a34.7 34.7 0 0 0 6.883 -6.433 7.12 7.12 0 0 1 2.6 3.381 32.145 32.145 0 0 1 -6.514 6.96v0.001Zm7.25 -8.1c-1.76 -1.489 -1.393 -1.443 -2.475 -3.41a13.676 13.676 0 0 0 2.7 -7.425c1.651 2.926 3.358 4.923 -0.225 10.836v-0.001Z" stroke-width="1"></path><path id="Vector_10" fill="#141414" d="M103.855 36.011a7.487 7.487 0 0 0 4.786 4.438C122.7 45.416 150.1 24.865 137.562 15.97c-7.355 -5.139 -20.962 1.53 -20.762 1.939 0.146 0.3 5.669 -2.99 13.672 -3.025 4.778 0 7.884 2.4 8.84 4.731 1.428 3.35 -1.941 8.393 -4.765 11.075a38.27 38.27 0 0 1 -16.847 8.818c-11.241 2.475 -16.386 -4.034 -11.384 -12.129 4.122 -6.525 10.482 -9.049 10.306 -9.38 -0.329 -0.656 -16.21 8.401 -12.767 18.012Z" stroke-width="1"></path><g id="Group_4"><path id="Vector_11" fill="#141414" d="M113.924 26.057c-2.18 -2.824 -1.768 -2.4 4.493 -3.437 17.278 -2.853 9.881 -1.693 11.777 -1.946 0.883 -0.117 1.253 0.336 0.822 1.054 -3.381 5.618 -1.737 4.41 -12.057 6.053 -3.583 0.57 -3.311 0.51 -5.035 -1.724Z" stroke-width="1"></path><path id="Vector_12" fill="#141414" d="M118.275 31.692c-0.4 -0.559 -0.051 -1.14 0.791 -1.3 8.787 -1.619 7.465 -1.3 4.562 3.429 -0.776 1.263 -0.831 1.362 -0.914 1.475 -0.433 0.583 -1.115 0.676 -1.5 0.192 -0.164 -0.2 -2.821 -3.631 -2.939 -3.796Z" stroke-width="1"></path></g></g><g id="Group_5"><path id="Vector_13" fill="#d6d5d4" d="M151.052 43.468c-2.2 1.091 -7.98 5.268 -8.917 7.253 -4.43 9.38 10.706 31.2 23.949 30 3.79 -0.343 10.557 -5.906 12.27 -9.008 5.723 -10.36 -14.53 -34.566 -27.302 -28.245Z" stroke-width="1"></path><path id="Vector_14" fill="#141414" d="M179.033 62.675c-3.354 -10.213 -14.218 -21.686 -24.517 -20.772 -3.666 0.13 -7.265 3.141 -10.066 5.446a8.98 8.98 0 0 0 -2.862 3.111c-3.064 6.274 3.479 22.016 15.532 28.688 6.723 3.613 12.26 3.318 19.869 -4.675 2.702 -2.838 3.834 -6.095 2.044 -11.798Zm-36 -11.515a7.822 7.822 0 0 1 2.425 -2.595c1.429 -1.2 -1.2 0.158 0.284 6.482 -1.45 1.243 -1.154 1.33 -3.02 1.994 -0.347 -1.867 -0.515 -4.18 0.313 -5.88h-0.002Zm-0.066 7.016a6.233 6.233 0 0 1 3.114 -1.93 29.717 29.717 0 0 0 3.588 7.25c-1.61 1.175 -0.913 1.3 -3.569 2.244a27.603 27.603 0 0 1 -3.131 -7.564h-0.002Zm3.7 8.485c2.12 -1.873 2.093 -1.263 3.747 -2.07a43.816 43.816 0 0 0 5.786 6.6c-2.072 1.827 -1.2 1.323 -3.758 2.423a37.424 37.424 0 0 1 -5.772 -6.953h-0.003Zm6.674 7.772c2.446 -2.313 2.251 -1.37 3.861 -2.346a28.365 28.365 0 0 0 6.229 4.188c-1.588 1.78 -1.408 1.348 -3.283 2.474a23.109 23.109 0 0 1 -6.804 -4.316h-0.003Zm8.026 4.748c1.51 -1.785 1.922 -1.454 3.342 -2.37 2.037 0.75 4.231 0.97 6.377 0.641 -2.711 1.81 -4.986 3.195 -9.716 1.73h-0.003Zm16.926 -9.9c-0.487 2.783 -3.2 5.14 -5.438 6.892 -12.322 3.941 -31.507 -19.687 -25.4 -29.252 2.01 -1.6 4.614 -3.425 7.17 -3.55C166.7 42.121 180.01 59.484 178.3 69.28l-0.007 0.002Z" stroke-width="1"></path><path id="Vector_15" fill="#141414" d="M172.051 56.027a15.15 15.15 0 0 0 -2.24 -2.413c-0.216 0.193 4.126 4.254 5.447 10.654 1.585 8.075 -4.579 11.663 -12.816 6.306a32.83 32.83 0 0 1 -10.875 -12.18c-1.44 -2.973 -2.646 -8.076 -0.481 -10.342 1.491 -1.6 4.723 -2.566 8.534 -1.13 6.835 2.605 9.789 6.83 10.074 6.565 0.285 -0.265 -8.558 -9.76 -16.1 -7.835 -12.793 3.364 3.051 28.16 15.842 28.418 6.498 0.174 10.405 -7.74 2.615 -18.043Z" stroke-width="1"></path><g id="Group_6"><path id="Vector_16" fill="#141414" d="M165.544 60.506c-3.317 3.387 -3.01 3.258 -3.517 3.108 -3.773 -1.114 -3.7 -0.994 -3.855 -1.25 -0.155 -0.258 -0.525 0.311 6.034 -6.43 0.245 -0.252 0.244 -0.153 4.06 0.94 0.288 0.082 0.517 0.323 0.312 0.531l-3.034 3.101Z" stroke-width="1"></path><path id="Vector_17" fill="#141414" d="M156.362 60.59c-0.252 -0.14 -0.111 0.025 -1.338 -3.84 -0.168 -0.53 -0.21 -0.29 2.825 -3.37 0.765 -0.777 3.2 -3.315 3.3 -3.33 0.5 -0.082 0.342 -0.064 1.587 3.844 0.167 0.525 0.2 0.258 -3.064 3.594 -0.106 -0.099 -2.972 3.29 -3.31 3.102Z" stroke-width="1"></path><path id="Vector_18" fill="#141414" d="m167.141 62 3.017 -3.081c0.174 -0.188 0.426 0.018 0.509 0.288 1.2 3.889 1.27 3.836 1.052 4.058 -6.622 6.714 -6.084 6.3 -6.318 6.173 -0.252 -0.14 -0.117 0.034 -1.353 -3.894 -0.145 -0.46 -0.245 -0.172 3.074 -3.563l0.019 0.019Z" stroke-width="1"></path></g></g><g id="Group_7"><path id="Vector_19" fill="#d6d5d4" d="M57.883 122.372c3.61 1.952 16.824 4.655 21.571 3.414 20.083 -5.252 23.5 -38.794 10.807 -45.8 -1.8 -0.99 -3.046 -1.134 -6.419 -1.8 -5.287 -1.05 -10.951 -2.1 -15.831 -0.6 -19.28 5.883 -23.994 37.286 -10.128 44.786Z" stroke-width="1"></path><path id="Vector_20" fill="#141414" d="M86.507 78.084c-8.031 -1.594 -15.152 -3.424 -22.255 0.4 -16.072 8.221 -19.572 34.607 -8.741 43.071 3.445 3.213 16.656 5.406 21.936 5.14 21.263 -1.083 29.815 -44.395 9.06 -48.61Zm9.632 20.61c-4.608 0.434 -3.81 -0.253 -6.589 -0.638a29.24 29.24 0 0 0 -0.4 -9.537c3.237 -0.285 2.725 -0.21 5.728 0.551a26.814 26.814 0 0 1 1.261 9.624ZM94.3 87.5c-3.311 0.32 -2.939 -0.09 -5.623 -0.666a14.66 14.66 0 0 0 -4.549 -7.034c3.411 0.708 7.372 0.822 10.172 7.7Zm-37.62 32.534c-9.886 -7.5 -7.2 -32.117 8.441 -39.835 5.055 -2.648 9.729 -2.199 15.694 -1.073 10.95 5.324 8.387 23.6 2.236 34.2 -3.554 6.033 -7.966 9.621 -15.045 10.439 -2.681 -0.465 -9.325 -1.865 -11.323 -3.733l-0.003 0.002Zm14.9 4.244a19.1 19.1 0 0 0 7.445 -3.812c2.293 0.293 2.811 -0.427 6.2 0.83 -5 3.634 -8.571 3.523 -13.637 2.98l-0.008 0.002Zm15.168 -4.209c-3.171 -0.249 -2.668 0.265 -6.257 -1a35.483 35.483 0 0 0 5.18 -7.59c0.708 0.073 0.778 -0.088 4.1 -0.088a20.75 20.75 0 0 1 2.891 0.681 25.284 25.284 0 0 1 -5.906 7.995l-0.008 0.002Zm6.624 -9.553c-4.972 0.142 -2.645 0.3 -6.971 -0.725a42.027 42.027 0 0 0 2.9 -9.95c2.458 0.066 2.279 -0.744 6.717 0.357a35.851 35.851 0 0 1 -2.638 10.316l-0.008 0.002Z" stroke-width="1"></path><path id="Vector_21" fill="#141414" d="M74.739 117.709c9.318 -9.747 13.69 -26.23 6 -34.576 -4.953 -5.422 -17.055 -3.74 -23.184 10.308a15.51 15.51 0 0 0 -1.288 4.072c0.376 0.126 1.91 -6.887 8.735 -12.793 5.06 -4.284 13.9 -5.41 17.212 3.305 2.778 7.362 -0.274 17.663 -5.3 24.773 -2.812 3.906 -6.049 7.924 -11.239 7.378 -7.947 -0.837 -11 -9.981 -10.117 -18.28 0.315 -2.692 0.765 -4.145 0.643 -4.18 -0.279 -0.082 -3.194 7.88 -0.189 15.712 3.159 8.155 12.244 11.028 18.727 4.281Z" stroke-width="1"></path></g><g id="Group_8"><path id="Vector_22" fill="#d6d5d4" d="M75.133 33.254A9.622 9.622 0 0 0 81.846 25c0.045 -0.559 0.088 -1.215 0.558 -1.522 2.2 6.186 3.418 6.18 9.034 8.07 -1.207 1.438 -4.437 -0.136 -7.808 9.94 -2.384 -7.812 -6.557 -7.026 -8.497 -8.234Z" stroke-width="1"></path><path id="Vector_23" fill="#141414" d="M88.389 30.094c-2.043 -0.781 -3.794 -2.1 -4.963 -5.4 -0.7 -2.015 -1.048 -3.786 -1.342 -3.747 -0.293 0.01 -0.381 1.857 -0.774 4.04 -1.378 7.9 -7.622 7.652 -7.476 8.46 -0.01 0.65 6.292 0.01 8.667 6.583 0.739 2 1.037 3.739 1.329 3.707 0.95 0 -0.47 -8.07 7.219 -11.5 1.876 -0.843 1.27 -0.71 -2.66 -2.143Zm-0.228 2.692a13 13 0 0 0 -4.492 7.644c-1 -3.534 -3.766 -6.6 -7.4 -7.184 2.492 -0.767 5.151 -3.38 6.01 -8.083 0.127 -0.705 0.025 -0.682 0.213 -0.14 1.258 3.554 3.229 5.113 5.539 5.993 3.676 1.332 2.749 -0.204 0.13 1.77Z" stroke-width="1"></path></g><g id="Group_9"><path id="Vector_24" fill="#d6d5d4" d="M137.245 11.239c0.35 -1.266 0.624 -2.553 0.82 -3.852 0.5 0.286 0.323 1.217 1.508 3.134 1.81 2.927 3.575 2.343 5.436 3.411 -4.321 1.94 -3.892 3.018 -5.692 7.341 -0.065 0.155 -0.165 0.129 -0.237 0 -0.563 -1.052 -0.337 -2.949 -2.924 -4.664 -2.222 -1.473 -3.412 -1 -2.967 -1.646 0.211 -0.306 3.06 -1.011 4.056 -3.724Z" stroke-width="1"></path><path id="Vector_25" fill="#141414" d="M142.776 12.8a6.002 6.002 0 0 1 -3.74 -4.07c-0.537 -1.54 -0.765 -2.824 -0.978 -2.82 -0.638 0.012 0.3 5.569 -3.486 8.01 -1.376 0.945 -2.778 1.139 -2.7 1.374 0.07 0.527 4.71 -0.11 6.527 4.918 0.556 1.507 0.765 2.806 0.968 2.79 0.453 -0.035 0.147 -4.951 3.678 -7.644 2.5 -1.884 4.223 -0.926 -0.269 -2.558Zm-3.524 7.857a7.554 7.554 0 0 0 -4.333 -5.145c-1.856 -0.762 -1.684 0.129 0.028 -1.023a8.148 8.148 0 0 0 3.31 -5.965 7.019 7.019 0 0 0 6.2 5.41c-2.757 0.692 -4.727 3.96 -5.205 6.718v0.005Z" stroke-width="1"></path></g><g id="Group_10"><path id="Vector_26" fill="#d6d5d4" d="M136.1 130.977c13.435 7.131 33.357 -11.718 25.813 -29.622 -2.288 -5.431 -12.784 -13.378 -14.429 -14.373 -12.21 -7.416 -35.6 11.836 -26.738 30.418 1.863 3.9 11.59 11.577 15.354 13.577Z" stroke-width="1"></path><path id="Vector_27" fill="#141414" d="M163.256 103.163c-2.1 -5.771 -4.743 -8.25 -11.572 -13.752 -2.643 -2.05 -4.455 -4.128 -8.9 -4.54 -13.763 -1.045 -29.952 15.939 -22.85 32.214 2.12 4.652 10.132 10.749 14.419 13.57 14.647 9.087 34.585 -10.079 28.903 -27.492ZM149.95 90.519a14.4 14.4 0 0 0 -7.556 0.388c-1.908 -1.514 -2.153 -1.072 -4.032 -3.7 6.387 -1.387 8.995 1.253 11.588 3.312Zm-13.147 -2.9c2.5 1.819 2.194 1.33 4.036 3.86a23.196 23.196 0 0 0 -6.876 4.56c-1.725 -1.622 -1.994 -0.771 -4.665 -4.477a22.034 22.034 0 0 1 7.502 -3.944l0.003 0Zm-8.565 4.847c3.858 2.812 2.713 2.7 4.562 4.729a31.206 31.206 0 0 0 -5.111 7.108c-4.031 -3.031 -1.961 -1.051 -4.98 -4.728a26.88 26.88 0 0 1 5.529 -7.11Zm-6.225 8.513c0.827 0.538 1.62 1.127 2.375 1.763 1.387 1.372 2.332 3.233 2.63 2.936a23.585 23.585 0 0 0 -2.168 7.618c-3.094 -1.872 -2.1 -1.484 -4.7 -4.063 0.014 -2.854 0.65 -5.671 1.863 -8.255v0.001ZM125.1 120.7c-2.5 -2.619 -4.258 -4.7 -4.842 -9.61 2.931 1.706 3.138 2.836 4.526 4.094 0.184 5.939 3.85 9.154 0.316 5.516Zm37.455 -9.421c-1.077 13.884 -14.879 22.337 -23.646 19.616 -2.919 -0.852 -7.27 -4.323 -9.59 -6.276 -4.666 -6.7 -4.107 -13.182 -0.116 -20.417 4.989 -8.641 14.388 -15.846 23.424 -11.541 6.258 5.119 10.5 9.625 9.932 18.618h-0.004Z" stroke-width="1"></path><path id="Vector_28" fill="#141414" d="M154.353 96.47c-3.872 -2.893 -10.752 -2.878 -17.127 3.276 -7.025 6.814 -9.008 17.674 -6.974 22.312 3.143 7.354 14.661 9.33 22.606 0.939 0.789 -0.833 2.434 -2.964 2.271 -3.08 -0.326 -0.244 -3.687 5.81 -11.5 7.365 -4.972 0.977 -10.451 -1.2 -12.273 -5.694 -2.931 -6.928 3.96 -23.219 14.5 -25.452 8.6 -1.854 16.69 7.031 11.033 20.232 -0.854 1.962 -2.591 4.844 -1 2.649 4.861 -6.717 5.655 -17.256 -1.536 -22.547Z" stroke-width="1"></path></g><g id="Group_11"><path id="Vector_29" fill="#d6d5d4" d="M130.219 102.047c11.759 -8.63 7.657 -37.56 -11.432 -43.808 -5.083 -1.664 -10.451 -0.58 -16.059 0.535 -2.922 0.581 -5.338 0.863 -7.583 2.576 -3.466 2.644 -5.21 7.62 -5.991 11.892 -2.331 12.73 5.219 30.051 17.951 33.136 4.995 1.21 19.007 -1.317 23.114 -4.331Z" stroke-width="1"></path><path id="Vector_30" fill="#141414" d="M117.784 57.31c-6.294 -1.591 -19.124 1.6 -20.429 2.1 -8.476 3.358 -10.431 16.681 -8.372 25.913 3.04 13.553 11.762 20.693 18.7 21.811 4.851 0.858 19.76 -1.612 23.372 -4.982 11.245 -8.781 7.445 -38.973 -13.271 -44.842Zm-15.341 3.081a14.692 14.692 0 0 0 -4.554 7.036c-2.612 0.562 -2.33 0.989 -5.624 0.667 2.72 -6.659 6.37 -6.909 10.178 -7.703ZM91.7 69.666c2.962 -0.75 2.515 -0.83 5.729 -0.551a29.265 29.265 0 0 0 -0.405 9.536c-2.884 0.4 -1.959 1.08 -6.588 0.638a26.828 26.828 0 0 1 1.264 -9.623Zm-1.161 11.126c4.466 -1.1 4.232 -0.29 6.718 -0.359a41.927 41.927 0 0 0 2.9 9.952c-4.168 0.995 -1.966 0.875 -6.972 0.724a35.943 35.943 0 0 1 -2.646 -10.317ZM93.9 92.667a21.132 21.132 0 0 1 2.891 -0.68c1.731 0 4.1 0.087 4.1 0.087 -0.054 -0.714 1.272 3.489 5.18 7.589 -3.607 1.266 -3.027 0.742 -6.258 1a25.313 25.313 0 0 1 -5.913 -7.996Zm17.821 12.452c-2.782 0.114 -5.781 0.126 -10.384 -3.232 3.34 -1.24 4.007 -0.549 6.2 -0.828 5.251 4.505 11.295 3.748 4.185 4.06h-0.001Zm18.164 -4.492c-2 1.87 -8.621 3.263 -11.318 3.737 -7.109 -0.821 -11.511 -4.433 -15.05 -10.439 -6.164 -10.632 -8.7 -28.888 2.24 -34.2 5.968 -1.124 10.644 -1.571 15.688 1.071 15.969 7.874 18.022 32.559 8.441 39.831h-0.001Z" stroke-width="1"></path><path id="Vector_31" fill="#141414" d="M130.8 79.331c-2.09 -6.291 4.868 13.644 -5.989 20.089a8.67 8.67 0 0 1 -8.21 0.649c-4.9 -1.976 -10.144 -11 -11.8 -16.133 -7.465 -22.91 13.042 -30.505 23.714 -9.662 1.123 2.218 2.385 5.62 1.581 2.745a27.67 27.67 0 0 0 -7.866 -12.471c-5.539 -4.952 -15.387 -6.006 -19.145 3.58 -4.587 11.859 5.154 29.953 13.007 33.155 10.023 4.217 19.213 -8.405 14.708 -21.952Z" stroke-width="1"></path><path id="Vector_32" fill="#141414" d="M119.539 79.765c-0.748 -0.44 -0.739 -0.217 -0.363 -0.547a5.695 5.695 0 0 0 1.61 -5.61 5.692 5.692 0 0 0 -4.175 -4.078c-0.08 -1.912 -1.263 -3.1 -1.605 -2.89 -0.331 0.192 -0.074 1.223 0.177 2.414 0.1 0.472 0.269 0.13 -1.815 0.21 -0.432 -3.239 -2.019 -3.173 -1.351 0.12 -0.553 0.173 -1.093 0.385 -1.617 0.633 0.459 2.387 2.184 7.427 3 11.505 0 0.1 1.5 9.767 2.152 11.82 1.508 -0.463 1.236 -0.405 1.518 -0.39 0.372 2.458 2.585 4.124 1.374 0a9.046 9.046 0 0 0 2.025 -0.3c0.89 4.073 2.148 2.26 1.259 -0.492 5.056 -2.66 2.027 -9.785 -2.189 -12.395Zm-6.152 -8c2.9 -0.7 4.812 -0.763 6.151 1.916a3.226 3.226 0 0 1 -1.564 3.965 11.286 11.286 0 0 1 -3.837 0.907c-0.312 -2.367 -0.529 -4.845 -0.75 -6.783v-0.005Zm3.967 18.535a64.775 64.775 0 0 1 -2.728 -8.67 7.58 7.58 0 0 1 4.058 -0.08c4.77 1.778 7.423 10.064 -1.33 8.75Z" stroke-width="1"></path></g><g id="Group_12"><path id="Vector_33" fill="#d6d5d4" d="M126.2 64.987c-4.5 2.227 0.7 -1.091 3.425 6.442 0.364 -0.488 0.344 -4.62 4.6 -6.394 -0.191 -0.576 -2.237 -0.455 -3.572 -1.777a12.822 12.822 0 0 1 -1.911 -3.322c-0.424 1.992 -1.265 4.865 -3.28 5.435l0.738 -0.384Z" stroke-width="1"></path><path id="Vector_34" fill="#141414" d="M132.566 64.006c-4.68 -1.788 -3.307 -9.657 -4.476 -3.177 -0.863 4.944 -4.75 4.749 -4.653 5.306 -0.006 0.536 3.881 -0.067 5.4 4.133 0.193 0.8 0.476 1.574 0.844 2.31 0.5 0.114 0.135 -4.059 3.123 -6.339 1.996 -1.539 3.522 -0.863 -0.238 -2.233Zm-2.974 6.376A6.31 6.31 0 0 0 126 66.271c-1.289 -0.529 -1.173 0.055 0.034 -0.756a6.775 6.775 0 0 0 2.755 -4.77 5.802 5.802 0 0 0 4.948 4.273c-2.137 0.626 -3.687 3.147 -4.145 5.364Z" stroke-width="1"></path></g><g id="Group_13"><path id="Vector_35" fill="#d6d5d4" d="M50.679 80.581s-9.542 -1.125 -10.938 8.591c-1.396 9.716 -4.389 64.6 -4.389 64.6s-1.035 16.388 2.6 18.1c3.635 1.712 22.348 2.362 22.348 2.362 39.567 0.429 29.448 -0.244 46.567 2.676 32.74 10.388 43.825 14.884 47.394 11.315 4.13 -4.13 5.407 -21.045 11.3 -65.356 0 0 4.527 -23.272 -5.146 -25.787 0 0 2.564 3.824 -2.22 5.374 -4.784 1.55 -35.779 8.45 -57.878 4 -22.099 -4.45 -47.226 -9.688 -53.393 -19.83 0.001 -0.001 -3.215 -4.732 3.755 -6.045Z" stroke-width="1"></path><path id="Vector_36" fill="#141414" d="m158.03 95 -0.438 1.468c16.926 6.284 -38.325 16.278 -81.284 3.49 -7.02 -2.09 -24.32 -7.634 -28.242 -13.772A3 3 0 0 1 50 81.393c2.853 -0.677 7.09 1.012 9.923 1.785l0.4 -1.478c-3.967 -1.2 -9.3 -3.66 -12.835 -1.13a4.8 4.8 0 0 0 -1.09 6.642c4.289 6.935 21.428 12.6 29.243 14.971 33.925 10.316 86 6.883 86.472 -3.371 0.125 -2.77 -2.194 -3.228 -4.083 -3.812Z" stroke-width="1"></path><g id="Group_14"><path id="Vector_37" fill="#141414" fill-rule="evenodd" d="m39.834 105.714 -0.09 1.346a1.021 1.021 0 0 0 2.037 0.136l0.091 -1.345a1.02 1.02 0 0 0 -2.038 -0.137Z" clip-rule="evenodd" stroke-width="1"></path><path id="Vector_38" fill="#141414" fill-rule="evenodd" d="m40.274 99.639 -0.1 1.345a1.02 1.02 0 0 0 1.674 0.83 1.02 1.02 0 0 0 0.363 -0.675l0.1 -1.345a1.022 1.022 0 0 0 -2.037 -0.155Z" clip-rule="evenodd" stroke-width="1"></path><path id="Vector_39" fill="#141414" fill-rule="evenodd" d="M41.879 92.658a1.025 1.025 0 0 0 -1.109 0.925c-0.1 1.108 -0.384 2.353 0.816 2.453a1.028 1.028 0 0 0 1.1 -0.93c0.096 -1.1 0.388 -2.34 -0.807 -2.448Z" clip-rule="evenodd" stroke-width="1"></path><path id="Vector_40" fill="#141414" fill-rule="evenodd" d="m38.727 123.955 -0.076 1.346a1.022 1.022 0 0 0 2.039 0.115l0.076 -1.345a1.022 1.022 0 0 0 -2.039 -0.116Z" clip-rule="evenodd" stroke-width="1"></path><path id="Vector_41" fill="#141414" fill-rule="evenodd" d="M39.075 117.885 39 119.23a1.022 1.022 0 1 0 2.039 0.118l0.075 -1.348a1.019 1.019 0 0 0 -0.962 -1.077 1.018 1.018 0 0 0 -0.977 0.576 1.022 1.022 0 0 0 -0.1 0.386Z" clip-rule="evenodd" stroke-width="1"></path><path id="Vector_42" fill="#141414" fill-rule="evenodd" d="M39.438 111.831c-0.07 1.129 -0.34 2.355 0.875 2.428a1.03 1.03 0 0 0 1.08 -0.957l0.083 -1.345a1.02 1.02 0 0 0 -2.038 -0.126Z" clip-rule="evenodd" stroke-width="1"></path><path id="Vector_43" fill="#141414" fill-rule="evenodd" d="M38.789 141.229a1.03 1.03 0 0 0 -1.067 0.976c-0.047 1.108 -0.277 2.37 0.929 2.414a1.028 1.028 0 0 0 1.057 -0.981c0.043 -1.102 0.282 -2.355 -0.919 -2.409Z" clip-rule="evenodd" stroke-width="1"></path><path id="Vector_44" fill="#141414" fill-rule="evenodd" d="m38.028 136.118 -0.074 1.347a1.022 1.022 0 1 0 2.039 0.113l0.075 -1.348a1.02 1.02 0 0 0 -0.966 -1.046 1.026 1.026 0 0 0 -1.074 0.934Z" clip-rule="evenodd" stroke-width="1"></path><path id="Vector_45" fill="#141414" fill-rule="evenodd" d="m38.379 130.066 -0.078 1.345a1.02 1.02 0 1 0 2.039 0.118l0.078 -1.345a1.024 1.024 0 0 0 -0.575 -0.978 1.018 1.018 0 0 0 -1.464 0.86Z" clip-rule="evenodd" stroke-width="1"></path><path id="Vector_46" fill="#141414" fill-rule="evenodd" d="M37.421 154.43c0 0.594 0 0.8 -0.021 1.3a1.035 1.035 0 0 0 0.963 1.055c1.124 0.063 1.089 -1.066 1.1 -1.667v-0.678a1.02 1.02 0 0 0 -1.74 -0.73c-0.192 0.19 -0.3 0.449 -0.302 0.72Z" clip-rule="evenodd" stroke-width="1"></path><path id="Vector_47" fill="#141414" fill-rule="evenodd" d="M38.563 147.352a1.028 1.028 0 0 0 -1.05 0.994c-0.028 1.108 -0.237 2.377 0.972 2.4a1.027 1.027 0 0 0 1.039 -1c0.023 -1.104 0.24 -2.36 -0.961 -2.394Z" clip-rule="evenodd" stroke-width="1"></path><path id="Vector_48" fill="#141414" fill-rule="evenodd" d="M49 170.829a1.029 1.029 0 0 0 1.015 1.033c1.1 0.007 2.381 0.193 2.379 -1.017a1.029 1.029 0 0 0 -1.018 -1.019c-1.105 -0.002 -2.361 -0.198 -2.376 1.003Z" clip-rule="evenodd" stroke-width="1"></path><path id="Vector_49" fill="#141414" fill-rule="evenodd" d="M42.509 170.2a1.027 1.027 0 0 0 0.807 1.2c1.083 0.211 2.3 0.63 2.525 -0.56a1.029 1.029 0 0 0 -0.812 -1.189c-1.086 -0.208 -2.284 -0.634 -2.52 0.549Z" clip-rule="evenodd" stroke-width="1"></path><path id="Vector_50" fill="#141414" fill-rule="evenodd" d="M38.647 165.756c-1.053 0.57 -0.38 1.736 0.329 2.705a1.061 1.061 0 0 0 1.901 -0.471 1.061 1.061 0 0 0 -0.195 -0.788c-0.482 -0.646 -0.894 -2.063 -2.035 -1.446Z" clip-rule="evenodd" stroke-width="1"></path><path id="Vector_51" fill="#141414" fill-rule="evenodd" d="M38.327 159.411c-1.2 -0.014 -1.175 1.333 -1.026 2.524a1.06 1.06 0 0 0 2.1 -0.273c-0.108 -0.8 0.223 -2.237 -1.074 -2.251Z" clip-rule="evenodd" stroke-width="1"></path><path id="Vector_52" fill="#141414" fill-rule="evenodd" d="M68.306 171.609c1.105 -0.018 2.365 0.149 2.35 -1.056a1.025 1.025 0 0 0 -1.038 -1.008l-1.345 0.022a1.018 1.018 0 0 0 -1.004 1.038 1.023 1.023 0 0 0 1.037 1.004Z" clip-rule="evenodd" stroke-width="1"></path><path id="Vector_53" fill="#141414" fill-rule="evenodd" d="m62.233 171.729 1.347 -0.028a1.02 1.02 0 1 0 -0.042 -2.042l-1.347 0.028a1.025 1.025 0 0 0 -1 1.042 1.022 1.022 0 0 0 1.042 1Z" clip-rule="evenodd" stroke-width="1"></path><path id="Vector_54" fill="#141414" fill-rule="evenodd" d="M55.13 170.827a1.024 1.024 0 0 0 1.033 1.011c1.1 -0.014 2.379 0.153 2.358 -1.058a1.03 1.03 0 0 0 -1.038 -1c-1.103 0.014 -2.366 -0.154 -2.353 1.047Z" clip-rule="evenodd" stroke-width="1"></path><path id="Vector_55" fill="#141414" fill-rule="evenodd" d="M85.5 170.783a1.026 1.026 0 0 0 0.957 1.074c1.08 0.064 2.329 0.34 2.419 -0.857a1.03 1.03 0 0 0 -0.951 -1.1c-1.075 -0.069 -2.358 -0.33 -2.425 0.883Z" clip-rule="evenodd" stroke-width="1"></path><path id="Vector_56" fill="#141414" fill-rule="evenodd" d="M79.437 170.564c-0.023 1.226 1.258 1.041 2.327 1.076a1.038 1.038 0 0 0 1.056 -0.981c0.042 -1.108 -1.086 -1.065 -1.662 -1.079 -0.609 -0.013 -1.699 -0.152 -1.721 0.984Z" clip-rule="evenodd" stroke-width="1"></path><path id="Vector_57" fill="#141414" fill-rule="evenodd" d="M73.386 170.527a1.029 1.029 0 0 0 1.024 1.015l1.336 0a1.02 1.02 0 1 0 0.009 -2.042c-1.055 0 -2.376 -0.2 -2.369 1.027Z" clip-rule="evenodd" stroke-width="1"></path><path id="Vector_58" fill="#141414" fill-rule="evenodd" d="M103.553 173.047a1.028 1.028 0 0 0 0.767 1.21c1.053 0.24 2.221 0.726 2.519 -0.432a1.022 1.022 0 0 0 -0.386 -1.077 1.036 1.036 0 0 0 -0.363 -0.171c-1.06 -0.259 -2.281 -0.718 -2.537 0.47Z" clip-rule="evenodd" stroke-width="1"></path><path id="Vector_59" fill="#141414" fill-rule="evenodd" d="M97.592 171.961a1.027 1.027 0 0 0 0.847 1.158c1.067 0.171 2.267 0.577 2.486 -0.6a1.028 1.028 0 0 0 -0.832 -1.194c-1.073 -0.187 -2.321 -0.566 -2.501 0.636Z" clip-rule="evenodd" stroke-width="1"></path><path id="Vector_60" fill="#141414" fill-rule="evenodd" d="M91.594 171.231a1.03 1.03 0 0 0 0.91 1.112c1.077 0.112 2.3 0.446 2.451 -0.743a1.03 1.03 0 0 0 -0.9 -1.141c-1.087 -0.126 -2.346 -0.434 -2.461 0.772Z" clip-rule="evenodd" stroke-width="1"></path><path id="Vector_61" fill="#141414" fill-rule="evenodd" d="M121.643 179.585c1.073 0.357 2.189 0.932 2.571 -0.222a1.028 1.028 0 0 0 -0.647 -1.29l-1.279 -0.426a1.026 1.026 0 0 0 -1.292 0.647 1.023 1.023 0 0 0 0.647 1.291Z" clip-rule="evenodd" stroke-width="1"></path><path id="Vector_62" fill="#141414" fill-rule="evenodd" d="m115.877 177.667 1.278 0.424a1.022 1.022 0 0 0 0.643 -1.939l-1.278 -0.423a1.019 1.019 0 0 0 -1.226 1.426c0.119 0.241 0.329 0.425 0.583 0.512Z" clip-rule="evenodd" stroke-width="1"></path><path id="Vector_63" fill="#141414" fill-rule="evenodd" d="M109.464 174.546c-0.341 1.168 0.921 1.329 1.947 1.658 0.257 0.078 0.534 0.053 0.773 -0.07 0.24 -0.122 0.422 -0.333 0.509 -0.587 0.343 -1.057 -0.764 -1.325 -1.3 -1.49 -0.587 -0.178 -1.608 -0.61 -1.929 0.489Z" clip-rule="evenodd" stroke-width="1"></path><path id="Vector_64" fill="#141414" fill-rule="evenodd" d="M138.422 183.792a1.027 1.027 0 0 0 0.708 1.262c0.736 0.2 1.417 0.387 1.315 0.36a1.02 1.02 0 0 0 1.251 -0.722 1.024 1.024 0 0 0 -0.722 -1.251c-1.01 -0.27 -2.219 -0.826 -2.552 0.351Z" clip-rule="evenodd" stroke-width="1"></path><path id="Vector_65" fill="#141414" fill-rule="evenodd" d="M132.588 182.061c-0.361 1.164 0.893 1.343 1.972 1.671a1.012 1.012 0 0 0 1.089 -0.333c0.085 -0.105 0.148 -0.225 0.186 -0.355 0.317 -1.07 -0.823 -1.31 -1.329 -1.462 -0.595 -0.182 -1.586 -0.596 -1.918 0.479Z" clip-rule="evenodd" stroke-width="1"></path><path id="Vector_66" fill="#141414" fill-rule="evenodd" d="M126.811 180.217a1.028 1.028 0 0 0 0.655 1.289c1.053 0.341 2.206 0.905 2.572 -0.246a1.029 1.029 0 0 0 -0.662 -1.283c-1.044 -0.336 -2.19 -0.906 -2.565 0.24Z" clip-rule="evenodd" stroke-width="1"></path><path id="Vector_67" fill="#141414" fill-rule="evenodd" d="M153.577 180.82a1.008 1.008 0 0 0 1.349 -0.174 0.992 0.992 0 0 0 0.219 -0.441c0.086 -0.393 0.2 -0.975 0.275 -1.371a1.019 1.019 0 0 0 -2 -0.378c-0.259 1.374 -0.512 1.903 0.157 2.364Z" clip-rule="evenodd" stroke-width="1"></path><path id="Vector_68" fill="#141414" fill-rule="evenodd" d="M150.427 185.843c0.689 1.308 1.827 0.473 2.714 -0.7a1.078 1.078 0 0 0 -0.191 -1.478 1.079 1.079 0 0 0 -1.485 0.131c-0.509 0.604 -1.556 1.064 -1.038 2.047Z" clip-rule="evenodd" stroke-width="1"></path><path id="Vector_69" fill="#141414" fill-rule="evenodd" d="M144.416 185.6c-0.007 1.053 1.024 1.059 2.066 1.286a0.992 0.992 0 0 0 0.95 -0.291 0.998 0.998 0 0 0 0.23 -0.966c-0.16 -0.558 -0.434 -0.623 -1.706 -0.926l-0.3 -0.072a1.001 1.001 0 0 0 -1.24 0.969Z" clip-rule="evenodd" stroke-width="1"></path><path id="Vector_70" fill="#141414" fill-rule="evenodd" d="M157.174 162.949a1.025 1.025 0 0 0 1.173 -0.841c0.181 -1.092 0.565 -2.314 -0.627 -2.5a1.031 1.031 0 0 0 -1.17 0.847c-0.173 1.062 -0.571 2.297 0.624 2.494Z" clip-rule="evenodd" stroke-width="1"></path><path id="Vector_71" fill="#141414" fill-rule="evenodd" d="m157.341 168.112 0.227 -1.33a1.021 1.021 0 1 0 -2.013 -0.344l-0.227 1.329a1.021 1.021 0 0 0 2.013 0.345Z" clip-rule="evenodd" stroke-width="1"></path><path id="Vector_72" fill="#141414" fill-rule="evenodd" d="m156.292 174.089 0.236 -1.328a1.022 1.022 0 0 0 -2.011 -0.358l-0.236 1.328a1.025 1.025 0 0 0 0.826 1.185 1.024 1.024 0 0 0 1.185 -0.827Z" clip-rule="evenodd" stroke-width="1"></path><path id="Vector_73" fill="#141414" fill-rule="evenodd" d="m161.111 144.03 0.19 -1.335a1.023 1.023 0 0 0 -0.869 -1.134 1.022 1.022 0 0 0 -1.152 0.845l-0.191 1.335a1.02 1.02 0 0 0 0.866 1.156 1.025 1.025 0 0 0 1.156 -0.867Z" clip-rule="evenodd" stroke-width="1"></path><path id="Vector_74" fill="#141414" fill-rule="evenodd" d="m160.232 150.052 0.2 -1.334a1.026 1.026 0 0 0 -0.19 -0.758 1.02 1.02 0 0 0 -1.83 0.458l-0.2 1.334a1.021 1.021 0 0 0 2.02 0.3Z" clip-rule="evenodd" stroke-width="1"></path><path id="Vector_75" fill="#141414" fill-rule="evenodd" d="M158.15 156.9a1.025 1.025 0 0 0 1.168 -0.852c0.17 -1.093 0.54 -2.316 -0.65 -2.5a1.03 1.03 0 0 0 -1.164 0.855c-0.167 1.097 -0.541 2.313 0.646 2.497Z" clip-rule="evenodd" stroke-width="1"></path><path id="Vector_76" fill="#141414" fill-rule="evenodd" d="M163.548 125.911c0.142 -1.121 0.49 -2.327 -0.717 -2.478a1.027 1.027 0 0 0 -1.14 0.885l-0.169 1.337a1.02 1.02 0 1 0 2.026 0.256Z" clip-rule="evenodd" stroke-width="1"></path><path id="Vector_77" fill="#141414" fill-rule="evenodd" d="M162.769 131.946c0.146 -1.121 0.5 -2.325 -0.707 -2.482a1.031 1.031 0 0 0 -1.144 0.881l-0.174 1.336a1.022 1.022 0 0 0 2.025 0.265Z" clip-rule="evenodd" stroke-width="1"></path><path id="Vector_78" fill="#141414" fill-rule="evenodd" d="M160.81 138.832a1.027 1.027 0 0 0 1.152 -0.871c0.151 -1.1 0.5 -2.327 -0.693 -2.488a1.029 1.029 0 0 0 -1.148 0.876c-0.147 1.091 -0.503 2.319 0.689 2.483Z" clip-rule="evenodd" stroke-width="1"></path><path id="Vector_79" fill="#141414" fill-rule="evenodd" d="m165.735 107.767 0.153 -1.339a1.021 1.021 0 0 0 -2.029 -0.232l-0.153 1.339a1.021 1.021 0 0 0 2.029 0.232Z" clip-rule="evenodd" stroke-width="1"></path><path id="Vector_80" fill="#141414" fill-rule="evenodd" d="M165.029 113.809c0.133 -1.123 0.471 -2.331 -0.737 -2.472a1.029 1.029 0 0 0 -1.133 0.895L163 113.57a1.022 1.022 0 1 0 2.029 0.239Z" clip-rule="evenodd" stroke-width="1"></path><path id="Vector_81" fill="#141414" fill-rule="evenodd" d="M164.305 119.83c0.137 -1.122 0.48 -2.329 -0.728 -2.475a1.032 1.032 0 0 0 -1.136 0.89l-0.164 1.338a1.019 1.019 0 0 0 0.894 1.106 1.019 1.019 0 0 0 1.134 -0.859Z" clip-rule="evenodd" stroke-width="1"></path><path id="Vector_82" fill="#141414" fill-rule="evenodd" d="m100.659 152.84 0.157 -1.816a1.01 1.01 0 0 0 -0.547 -0.994 1.021 1.021 0 0 0 -1.488 0.818l-0.157 1.816a1.02 1.02 0 0 0 0.93 1.106 1.023 1.023 0 0 0 1.106 -0.93Z" clip-rule="evenodd" stroke-width="1"></path><path id="Vector_83" fill="#141414" fill-rule="evenodd" d="m100.069 159.744 0.153 -1.816a1.021 1.021 0 0 0 -2.035 -0.171l-0.153 1.815a1.022 1.022 0 1 0 2.035 0.172Z" clip-rule="evenodd" stroke-width="1"></path><path id="Vector_84" fill="#141414" fill-rule="evenodd" d="M98.422 167.561a1.026 1.026 0 0 0 1.094 -0.941c0.1 -1.371 0.484 -2.809 -0.8 -2.911a1.028 1.028 0 0 0 -1.1 0.936c-0.105 1.375 -0.475 2.82 0.806 2.916Z" clip-rule="evenodd" stroke-width="1"></path><path id="Vector_85" fill="#141414" fill-rule="evenodd" d="M101.262 133.012a1.025 1.025 0 0 0 1.092 -0.945c0.1 -1.375 0.463 -2.828 -0.824 -2.912a1.027 1.027 0 0 0 -1.085 0.948c-0.093 1.377 -0.466 2.817 0.817 2.909Z" clip-rule="evenodd" stroke-width="1"></path><path id="Vector_86" fill="#141414" fill-rule="evenodd" d="M100.732 139.927a1.03 1.03 0 0 0 1.1 -0.935c0.065 -0.8 0.151 -1.926 0.144 -1.823a1.022 1.022 0 0 0 -2.037 -0.156c-0.105 1.373 -0.489 2.81 0.793 2.914Z" clip-rule="evenodd" stroke-width="1"></path><path id="Vector_87" fill="#141414" fill-rule="evenodd" d="m101.259 145.883 0.154 -1.817a1.02 1.02 0 0 0 -1.676 -0.867 1.021 1.021 0 0 0 -0.359 0.694l-0.154 1.817a1.021 1.021 0 1 0 2.035 0.173Z" clip-rule="evenodd" stroke-width="1"></path><path id="Vector_88" fill="#141414" fill-rule="evenodd" d="M102.288 112.2a1.028 1.028 0 0 0 1.041 -1c0.014 -0.636 0.021 -1.942 0.02 -1.84a1.022 1.022 0 0 0 -2.045 -0.015v0.908c-0.004 0.705 -0.177 1.926 0.984 1.947Z" clip-rule="evenodd" stroke-width="1"></path><path id="Vector_89" fill="#141414" fill-rule="evenodd" d="M102.072 119.137a1.025 1.025 0 0 0 1.064 -0.984c0 -0.1 0.065 -1.928 0.062 -1.827a1.022 1.022 0 0 0 -2.041 -0.069l-0.031 0.91c-0.026 0.725 -0.2 1.922 0.946 1.97Z" clip-rule="evenodd" stroke-width="1"></path><path id="Vector_90" fill="#141414" fill-rule="evenodd" d="m102.8 125.079 0.1 -1.823a1.022 1.022 0 0 0 -2.04 -0.111l-0.1 1.822a1.04 1.04 0 0 0 0.056 0.395 1.024 1.024 0 0 0 1.646 0.422 1.024 1.024 0 0 0 0.338 -0.705Z" clip-rule="evenodd" stroke-width="1"></path></g><path id="Vector_91" fill="#d6d5d4" d="M111.074 123.658c0.5 -4.933 2.069 -5.747 5.463 -5.763 8.74 -0.042 24.233 0.427 32.6 3.043 4.344 1.358 3.005 5.461 0.2 35.415 -1.713 18.289 -3.953 19.255 -15.925 17.092 -20.321 -3.671 -26.288 -2.822 -25.6 -12.354 3.295 -45.405 1.088 -16.108 3.262 -37.433Z" stroke-width="1"></path><path id="Vector_92" fill="#141414" d="m107.665 155.586 1.32 0.119c2.973 -34.392 1.89 -35.6 5.27 -36.622 3.5 -1.057 21.465 0.3 29.589 1.462 3.156 0.451 6.218 0.467 6.743 3.664a25.54 25.54 0 0 1 -0.109 4.7c-0.438 12.691 -0.487 6.577 -1.387 18.012 -0.9 11.454 -0.724 10.1 -2.112 18.665 -0.826 5.1 -1.61 6.883 -6.086 7.186 -6.854 0.464 -28.115 -3.622 -30.438 -5.3 -2.455 -1.772 -1.725 -8.472 -1.47 -11.767l-1.32 -0.119c-0.385 3.966 -1.322 10.768 1.866 13.145 3.117 2.323 24.81 6.343 31.484 5.944 7.319 -0.437 7.382 -4.861 8.891 -14.879 0.284 -1.883 2.591 -25.666 2.622 -29.19 0.039 -4.39 0.657 -6.3 -0.534 -8.591 -1.635 -3.149 -5.514 -3.368 -14.171 -4.2a152.38 152.38 0 0 0 -18.16 -0.942c-3.1 -0.023 -6.968 -0.324 -8.686 2.4 -1.388 2.2 -1.088 5.7 -1.352 8.38 -0.925 9.325 -0.298 1 -1.96 27.933Z" stroke-width="1"></path><path id="Vector_93" fill="#d6d5d4" d="M140.716 124.493c-2.16 -2.342 -1.4 -1.883 -3.392 -0.068a1.439 1.439 0 0 1 -0.774 0.446 1.441 1.441 0 0 1 -0.888 -0.092 1.992 1.992 0 0 1 -0.565 -0.672c-1.863 -2.947 -1.874 -1.591 -3.642 -0.063 -1.521 1.314 -1.888 -0.673 -2.309 -1.013 -0.019 0.1 0.489 0.157 -0.826 -0.942 -0.411 -0.344 -0.68 -0.4 -1.256 0.095 -3.034 2.585 -3.516 4.031 -2.645 -4.108 0.258 -2.407 0.1 -4.277 0.428 -5.334 0.708 -0.193 2 3.459 3.035 2.118 3.213 -4.159 2.342 -1.021 5.3 0.893 0.744 0.483 2.051 -1.577 2.366 -1.884 1.7 -1.652 2.5 1.654 3.83 2.138a0.796 0.796 0 0 0 1.031 -0.4c0.31 -1.028 1.6 -1.353 2.48 -1.963 0.3 1.655 0.121 12.189 -0.37 12.374 -0.307 0.113 -1.419 -1.109 -1.803 -1.525Z" stroke-width="1"></path><path id="Vector_94" fill="#141414" d="M143.03 113.315c-0.24 -0.263 -3.237 2.273 -3.461 2.237a3.597 3.597 0 0 1 -0.321 -0.436c-1.457 -2.147 -2.409 -3.376 -4.288 -1.51 -0.239 0.237 -1.258 1.473 -1.359 1.574 -2.595 -2.257 -3.11 -3.8 -4.271 -2.655 -0.8 0.791 -1.82 2.057 -1.921 2.116 -0.068 0.163 -1.494 -1.394 -1.778 -1.7 -0.849 -0.918 -1.112 -1.354 -1.5 1.021 -0.363 2.1 -0.663 10.516 0.11 10.493 0.174 0.234 2.694 -1.561 2.99 -1.73 0.856 -0.513 0.937 -0.05 1.562 0.853 1.81 2.641 1.875 1.542 4.54 -0.53 0.572 0 1.7 3.168 3.595 2.352 0.918 -0.388 1.067 -1.079 1.972 -1.847 0.194 -0.344 3.32 3.078 3.66 2.6 1.177 0.171 1.278 -12.776 0.47 -12.838Zm-0.825 6.415c-0.042 8.99 1.1 6.09 -2.491 2.983 -0.482 -0.308 -0.673 -0.651 -1.406 -0.119 -0.559 0.436 -1.078 0.921 -1.552 1.448 -1 0.777 -1.325 -1.471 -2.886 -2.24 -1.048 -0.417 -1.421 0.2 -3.4 1.954l-0.025 -0.006c-1.713 -1.879 -1.777 -3.543 -4.646 -1.021 -0.579 0.533 -1.014 0.965 -1.276 1.265 0.397 -1.847 0.605 -3.73 0.621 -5.62 0.389 -6.24 -0.969 -6.36 0.749 -3.994 1.451 2 1.684 1.563 3.215 0.087 1.446 -1.414 0.263 -1.339 3.034 1.223 0.565 0.522 0.887 0.888 1.405 0.916 0.979 0.031 1.575 -1.186 2.381 -2.08 1.042 -1.156 1.129 -0.146 2.756 1.673a1.121 1.121 0 0 0 0.95 0.445 1.13 1.13 0 0 0 0.905 -0.53c0.768 -0.718 1.5 -1.475 2.192 -2.267a27.46 27.46 0 0 0 -0.526 5.883Z" stroke-width="1"></path><path id="Vector_95" fill="#141414" d="m143.467 138.55 -3.793 -0.438 0.566 -8.215c0.039 -0.547 -0.813 -0.544 -0.851 0l-0.559 8.118 -7.89 -0.891 0.581 -8.439c0.038 -0.546 -0.813 -0.544 -0.851 0l-0.575 8.346 -7.955 -0.872 0.57 -8.34c0.038 -0.547 -0.813 -0.544 -0.851 0l-0.564 8.25 -1.7 -0.183c-0.543 -0.059 -0.539 0.792 0 0.85l1.649 0.177 -0.505 7.769 -1.968 -0.254c-0.541 -0.071 -0.536 0.781 0 0.85l1.915 0.249 -0.488 7.935 -1.919 -0.25c-0.542 -0.07 -0.537 0.781 0 0.851l1.869 0.243 -0.424 7.27c-0.031 0.548 0.82 0.546 0.851 0l0.417 -7.159 7.935 1.05 -0.484 8.282c-0.031 0.547 0.82 0.545 0.851 0l0.477 -8.169 7.877 1.07 -0.486 8.31c-0.031 0.548 0.82 0.546 0.851 0l0.479 -8.2 3.807 0.528c0.536 0.074 0.767 -0.745 0.227 -0.821l-3.984 -0.551 0.492 -7.944 3.457 0.476c0.536 0.075 0.767 -0.745 0.227 -0.82l-3.63 -0.5 0.534 -8.176 3.85 0.444c0.538 0.068 0.534 -0.783 -0.005 -0.846ZM122.084 137l7.955 0.871 -0.521 7.964 -7.94 -1.047 0.506 -7.788Zm-1.047 16.568 0.489 -7.936 7.939 1.047 -0.492 7.939 -7.936 -1.05Zm16.657 2.233 -7.877 -1.07 0.491 -7.94 7.878 1.066 -0.492 7.944Zm0.545 -8.788 -7.877 -1.066 0.522 -7.982 7.889 0.891 -0.534 8.157Z" stroke-width="1"></path><path id="Vector_96" fill="#141414" d="M114.893 162.405c0.439 1.551 2.856 1.7 4.143 2.035a158.555 158.555 0 0 0 20.775 3.984c0.976 0.122 0.967 -1.41 0 -1.532 -9.3 -1.167 -21.581 -3.952 -22.925 -4.623 -0.691 -0.345 -0.6 0 -0.307 -6.643 0.419 -9.458 1.1 -18.9 1.815 -28.341 0.074 -0.983 -1.458 -0.979 -1.532 0 0.101 0 -2.482 33.308 -1.969 35.12Z" stroke-width="1"></path><path id="Vector_97" fill="#615fff" d="m144.226 139.353 -0.671 -5.917a1.318 1.318 0 0 0 -0.781 -1.056 1.317 1.317 0 0 0 -1.306 0.147l-4.788 3.539a1.312 1.312 0 0 0 -0.276 1.838c0.137 0.186 0.32 0.332 0.532 0.424l1.614 0.7c-1.634 4.263 -3.467 9 -5.415 13.219 -0.5 1.081 -0.387 0.948 -0.521 0.742 -6.55 -10.057 -5.339 -13.178 -9.136 -5.373 -1.343 2.759 -6.485 13.141 -5.543 13.623 1.074 0.548 6.845 -10.708 8.371 -13.567a89.678 89.678 0 0 0 4.673 7.788c1.255 1.875 1.251 2.341 2 2.6 1.075 0.369 7.657 -16.873 8.067 -17.943 1.366 0.595 1.507 0.7 1.872 0.7a1.322 1.322 0 0 0 1.308 -1.464Z" stroke-width="1"></path><path id="Vector_98" fill="#615fff" d="M122.219 134.772c6.452 0.5 9.514 1.193 10.008 1.193 1.266 0 1.667 -1.945 0.32 -2.165 -2.993 -0.49 -9.074 -1.242 -10.371 -1.242 -1.362 0 -1.33 2.108 0.043 2.214Z" stroke-width="1"></path><path id="Vector_99" fill="#615fff" d="M122.386 131.478c4.837 0.5 7.2 0.75 7.3 0.75 1.325 0 1.3 -2.075 -0.056 -2.216 -4.837 -0.5 -7.2 -0.749 -7.3 -0.749 -1.325 0 -1.303 2.074 0.056 2.215Z" stroke-width="1"></path><path id="Vector_100" fill="#141414" d="M142.246 132.609c1.165 0 0.959 0.756 1.641 6.782a0.965 0.965 0 0 1 -0.241 0.758 0.96 0.96 0 0 1 -0.725 0.327c-0.267 0 -0.237 -0.016 -2.062 -0.811 -1.853 4.831 -3.378 8.822 -5.418 13.273 -2.79 6.088 -1.839 5.836 -4.179 2.337 -4.985 -7.456 -4.819 -8.458 -4.987 -8.263 -10.094 18.925 -10.868 17.973 -2.491 0.755 0.387 -0.8 1.7 -4.145 2.725 -4.144 0.821 0 0.532 1.436 5.82 9.555 0.543 0.834 0.385 0.765 0.595 0.327 2.215 -4.627 4.345 -10.18 6.061 -14.656l-1.913 -0.833a0.969 0.969 0 0 1 -0.579 -0.783 0.981 0.981 0 0 1 0.389 -0.893c5.263 -3.887 4.926 -3.731 5.364 -3.731Zm0 -1.021c-0.908 0 -0.855 0.152 -5.971 3.931a1.995 1.995 0 0 0 0.389 3.433l1.017 0.443c-1.466 3.822 -3.33 8.609 -5.061 12.346 -4.989 -7.869 -4.452 -9.139 -6.111 -9.139 -1.905 0 -3.086 3.51 -5.148 7.846 -3.521 7.4 -5.663 11.5 -3.249 11.517 1.338 0.012 3.7 -4.447 8.2 -12.854a96.356 96.356 0 0 0 4.324 7.061c0.343 0 0.708 2.048 2.124 2.534 1.262 0.432 1.535 -0.845 3.5 -5.1 6.292 -13.636 4.387 -12.925 5.867 -12.281a1.99 1.99 0 0 0 2.287 -0.5c0.793 -0.888 0.469 -1.754 0.157 -4.509 -0.262 -2.273 -0.077 -4.728 -2.325 -4.728Z" stroke-width="1"></path><path id="Vector_101" fill="#141414" d="M122.176 132.9c1.509 0 7.577 0.789 10.316 1.238 0.97 0.158 0.56 1.633 -0.407 1.477a120.8 120.8 0 0 0 -9.84 -1.18c-0.954 -0.076 -0.982 -1.535 -0.069 -1.535Zm0 -0.68c-1.788 0 -1.8 2.754 0.017 2.894 6.062 0.466 9.625 1.193 10.034 1.193 1.679 0 2.137 -2.553 0.375 -2.841 -6.332 -1.037 -10.527 -1.248 -10.426 -1.248v0.002Z" stroke-width="1"></path><path id="Vector_102" fill="#141414" d="M122.33 129.6c0.1 0 0.043 0 7.266 0.748 0.976 0.1 0.975 1.635 0 1.532 -2.391 -0.255 -4.783 -0.5 -7.175 -0.744 -0.941 -0.094 -0.978 -1.536 -0.091 -1.536Zm0 -0.681c-1.758 0 -1.763 2.71 0.021 2.9 4.4 0.455 2.771 0.3 7.175 0.743 1.9 0.19 1.99 -2.695 0.14 -2.886 -6.516 -0.676 -7.437 -0.754 -7.336 -0.754v-0.003Z" stroke-width="1"></path><path id="Vector_103" fill="#d6d5d4" d="M80.5 113.881c6.2 1.965 6.552 2 7.075 2.481 1.039 0.964 1.883 4.882 2.06 6.7 0.243 2.507 0.723 34.682 -0.512 37.088A3.983 3.983 0 0 1 87.1 162c1.806 1.424 -25.722 -1.194 -26.771 -1.245 -3.441 -0.164 -9.367 -1.81 -10.659 -3.621 -1.64 -2.3 -0.916 -20.909 -0.681 -24.244 0.161 -2.288 0.331 -4.137 1.339 -15.765 0.156 -1.8 0.047 -4.513 0.948 -6.077a5.174 5.174 0 0 1 5.067 -2.316c8.315 1.35 16.122 2.603 24.157 5.149Z" stroke-width="1"></path><path id="Vector_104" fill="#d6d5d4" d="M57.436 122.324c-1.711 -4.4 3 -0.164 3.419 -0.068 0.564 0.129 1.09 -0.395 1.258 -0.949 0.257 -0.847 -0.06 -2.808 1.259 -2.953 0.581 -0.064 0.829 0.222 4.108 2.536 1.04 -2.723 1.107 -3.019 1.434 -3.346 0.482 -0.483 1.191 -0.5 1.478 0.68l1.362 5.593c2.231 -2.161 5.268 -3.194 5.613 -1.141 0.157 0.932 -0.843 1.668 -1 2.6 3.729 -2.371 5.11 -1.083 4.506 0.575 -0.413 1.136 -1.886 2.139 -1.547 3.457a21.441 21.441 0 0 0 1.7 3.18c2.56 -1.524 5.509 1.665 3.854 4.742a5.093 5.093 0 0 1 -3.264 2.406A6.672 6.672 0 0 1 82.8 145.3a5.09 5.09 0 0 0 -0.291 2.7 4.341 4.341 0 0 1 -3.039 4.12 26.894 26.894 0 0 1 3.045 4.737 13.767 13.767 0 0 1 1.4 4.914c0.076 0.518 -0.2 0.766 -0.679 0.974 -1.43 0.619 -24.423 -2.761 -27.939 -2.564a4.935 4.935 0 0 1 -1.679 -0.073 1.428 1.428 0 0 1 -1.083 -1.159 16.26 16.26 0 0 1 2.776 -5.995c1.96 -2.377 5.012 -3.532 7.97 -4.4 -0.4 -1.522 -4.615 -1.881 -4.266 -11.145 -6.674 -3.113 -3.5 -9.174 -0.042 -7.967a0.36 0.36 0 0 0 0.277 0.023c1.508 -0.787 2.058 2.804 -1.814 -7.141Z" stroke-width="1"></path><path id="Vector_105" fill="#141414" d="M75.676 156.374c-2.193 -0.969 -7.645 -2.1 -10.845 -1.054 -2.932 0.958 -4.288 3.531 -3.961 3.715 0.327 0.184 1.293 -1.77 4.278 -2.744 2.857 -0.933 8.106 0.124 10.108 1.014 3.06 1.362 3.491 3.364 3.819 3.267 0.373 -0.072 -0.287 -2.822 -3.399 -4.198Z" stroke-width="1"></path><path id="Vector_106" fill="#141414" d="M82.225 134.36c-1.554 0.209 -1.36 1.688 -0.506 1.746 0.142 -0.037 0.324 0.333 0.226 0.571 -0.208 0.5 -0.966 0.836 -0.862 1.02 0.082 0.217 1.158 0.046 1.5 -0.794a1.078 1.078 0 0 0 -0.824 -1.474 0.105 0.105 0 0 1 -0.02 -0.073 0.108 0.108 0 0 1 0.035 -0.068c0.149 -0.227 0.86 -0.442 1.11 -0.014 0.664 1.126 0.853 -1.118 -0.659 -0.914Z" stroke-width="1"></path><path id="Vector_107" fill="#141414" d="M59.9 132.694c-0.983 -0.227 -1.5 0.96 -1.2 1.766 0.344 0.934 1.4 0.941 1.376 0.744 0.009 -0.134 -1.168 -0.574 -0.7 -1.591 0.2 -0.445 0.262 -0.268 1.555 0.112 0.54 0.158 0.485 0.193 0.4 -0.023a2.888 2.888 0 0 0 -0.994 -1.536c-2.1 -1.492 -3.839 0.86 -3.362 1.045 0.141 0.069 1.417 -1.554 2.925 -0.517Z" stroke-width="1"></path><g id="Group_15"><path id="Vector_108" fill="#141414" d="M90.821 131.718c-0.1 -11.568 1.395 -15.956 -9.868 -18.5 -18.209 -4.232 -27.933 -8.184 -30.6 -2.3 -0.816 1.808 -0.706 3.915 -0.833 6.161 -2.346 36.085 -2.654 40.3 1.576 42.7 4.216 2.375 27.49 3.732 32.791 3.761 5.038 -0.05 6.109 -2.117 6.428 -6.966 0.557 -8.552 0.561 -16.882 0.506 -24.856ZM53.11 158.646c1 -4.863 5.7 -8.324 10.361 -9.5 0.681 0.337 1.398 0.597 2.136 0.777a8.099 8.099 0 0 0 3.435 2.259c1.91 0.669 7.546 1.5 10.281 0.719 2.454 2.666 3.177 5.073 3.921 8.618 -6.32 -0.057 -26.72 -1.632 -30.134 -2.873Zm8.9 -21.822c0.225 -0.26 -0.17 -0.343 -0.112 -0.234 0.007 0.019 0.023 0.042 0.007 0.06 -0.12 -0.114 -0.405 0.2 -1.2 0.269a5.405 5.405 0 0 1 -4.275 -2.173c-1.3 -1.712 -0.6 -4.868 1.973 -4.852 3.845 -0.087 4.5 3.176 4.767 3.1 0.224 -0.021 0.242 -1.641 -1.213 -2.972 4.328 -0.929 4.068 -0.875 9.715 -2.114 1.173 -0.4 0.771 -2.518 0.581 -3.823a11.814 11.814 0 0 1 2.778 -1.613c0.562 -0.13 1.542 -0.094 1.709 0.545 0.133 0.559 -0.346 1.228 -0.775 1.782 -0.89 1.135 -1.259 2.016 -1.1 2.109 0.207 0.231 2.37 -1.818 4.062 -2.3 1.23 -0.258 1.693 0.136 1.261 1.279 -0.466 1.261 -1.307 1.314 -1.7 2.394 -0.5 1.342 0.9 2.163 1.114 2.427 0.352 0.43 0.592 0.939 0.7 1.484a4.642 4.642 0 0 0 -7.222 0.893c-2.979 -3.909 -8.727 -1.1 -8.23 2.57a1.005 1.005 0 0 0 0.7 0.921 3.433 3.433 0 0 0 2.172 3.17c0.711 0.271 0.373 -0.234 -1.336 1.533 -2.146 2.236 -2.571 5.313 -1.761 7.141 -4.121 -2.1 -5.278 -6.075 -5.206 -10.7a2.636 2.636 0 0 0 2.587 -0.896h0.004Zm-4.115 -15.748c1.016 0.316 2.711 2.34 4.058 1.427 0.976 -0.689 0.9 -3.29 1.581 -3.512 1.064 -0.59 3.413 4.492 4.748 1.465 0.259 -0.587 1.034 -3.478 1.371 -2.755 0.736 0.663 1.787 7.676 1.581 8.994 -0.021 0.133 0.637 -0.106 -9.408 1.978 -1.359 0.3 -0.957 0.411 -1.545 -0.913 1.178 -0.312 3.128 -0.963 4.482 -1.29 12.039 -2.941 1.028 -1.8 -4.906 0.287 -0.475 -1.12 -0.951 -2.242 -1.371 -3.345 -1.065 -2.764 -0.825 -2.393 -0.595 -2.336h0.004Zm13.468 27.8c5.956 0.7 8.792 1.059 10.546 -0.428a3.369 3.369 0 0 1 -1.7 2.661c-2.509 1.487 -9.131 0.365 -10.73 -0.186 -5.628 -1.833 -5.248 -7.8 0.134 -11.113a2.458 2.458 0 0 0 -0.031 1.02c0.247 1.3 1.322 1.576 2.606 1.729 1.564 0.152 1.657 0.355 1.942 1.6 0.414 1.753 1.4 -1.667 -0.546 -2.5 -0.9 -0.407 -2.207 -0.4 -2.539 -0.8a1.07 1.07 0 0 1 0.16 -1.268c0.691 -0.844 2.984 -0.963 4.167 -1 3.694 -0.049 5.784 1.394 4.435 2.278 -1.3 0.855 -3.289 0.515 -3.056 3.5 0.051 0.33 0.094 0.518 0.187 0.541 0.093 0.023 0.227 -0.149 0.34 -0.487 0.441 -1.189 0.18 -1.433 1.944 -1.915 1.124 -0.337 2.148 -0.743 2.333 -2a7.39 7.39 0 0 1 0.688 3.785c-0.194 4.386 -2.882 3.8 -6.67 3.74 -7.267 -0.306 -11.456 -0.01 -4.214 0.841l0.004 0.002Zm-2.875 -9.48a3.29 3.29 0 0 1 -2.369 -2.794 11.86 11.86 0 0 1 2.392 -0.235c0.07 0.7 -0.079 1.221 0.968 1.052 1 -0.161 0.8 -0.5 0.736 -1.114 1.728 0.128 1.93 0.48 2.578 0.227 -0.214 1.195 -0.307 0.974 -0.9 1.144a3.34 3.34 0 0 0 -1.784 1.115c-1.609 0.651 -1.193 0.748 -1.625 0.603l0.004 0.002Zm-2.514 -3.621c-0.171 0.03 -0.218 0.022 -0.248 0 -0.082 -0.017 -0.17 -0.39 -0.136 -0.69 0.136 -2.5 3.758 -3.95 5.9 -2.19a2.52 2.52 0 0 1 1.209 2.388c-0.39 1.008 -0.565 -0.725 -6.729 0.49l0.004 0.002Zm7.415 0.444c0.348 0.069 1.535 -0.22 3.057 -0.289 -0.012 0.062 0.093 0.6 0.119 0.836 0.043 0.356 1.773 0.494 1.691 -0.193 -0.026 -0.219 -0.06 -0.416 -0.092 -0.6 1.135 0.115 1.554 0.317 1.925 0.3 -1.42 2.77 -0.786 0.285 -6.806 1.122a2.6 2.6 0 0 0 0.102 -1.178l0.004 0.002Zm6.886 -2.377c0.44 0.887 0.02 1.563 -0.292 1.439a12.659 12.659 0 0 0 -5.1 -0.021c-1.509 0.241 -1.132 0.486 -1.112 -0.124a2.486 2.486 0 0 0 -0.252 -1.338 3.853 3.853 0 0 1 6.752 0.042l0.004 0.002Zm0.268 4.609c-0.936 -0.742 -0.937 -0.249 -0.521 -0.781a3.958 3.958 0 0 0 0.731 -1.608 2.077 2.077 0 0 0 0.3 -2.908c1.368 -1.465 3.18 -0.141 3.456 1.756a3.736 3.736 0 0 1 -2.916 4.228 5.686 5.686 0 0 0 -1.054 -0.689l0.004 0.002Zm7.757 17.992c-0.221 3.639 -0.584 5.008 -4.027 5.077 -0.153 -3.509 -1.252 -6.739 -3.859 -9.03 2.518 -1.233 2.869 -3.186 2.756 -5.972a8.045 8.045 0 0 0 -1.007 -6.785c4.438 -0.962 4.346 -7.293 0.8 -8.049a2.345 2.345 0 0 0 -1.485 0.169c-0.491 -3.06 -2.788 -2.243 -1.076 -3.856 2.223 -2.055 1.477 -5.488 -1.816 -4.462 -1.3 0.494 -0.452 0.61 -0.6 -0.69 -0.163 -1.5 -2.262 -2.834 -5.312 -0.622l-0.647 0.489c-0.378 -2.024 -1.075 -6.654 -2.905 -5.917 -1.031 0.438 -1.33 2.315 -1.872 3.392 -0.277 0.437 -1.342 -1.12 -1.872 -1.632 -1.166 -1.124 -2.547 -1.122 -3.282 0.329 -0.553 1.121 -0.591 2.609 -0.982 2.56 -1.188 -0.371 -2.453 -2.124 -3.942 -1.658 -1.489 0.466 -0.545 2.546 0.048 4.106 2.152 5.719 2.5 4.8 1.184 4.747 -4.833 -0.157 -5.718 7.253 0.061 8.9 -0.621 4.191 0.4 8.437 3.8 10.881a13.467 13.467 0 0 0 -9.139 6.709c-1.276 2.53 -0.579 3.318 -1.083 3.033 -2.947 -1.665 -3.007 -4.01 -1.217 -41.011 0.193 -2.514 0.031 -5.674 1.921 -6.957 2.011 -1.422 5.4 -0.514 8.152 0.026 2.6 0.5 22.139 5.059 24.6 6.4 4.128 2.215 3.317 6.114 3.35 15.106 0.02 7.966 -0.003 16.249 -0.549 24.717Z" stroke-width="1"></path></g><path id="Vector_109" fill="#d6d5d4" d="M49.348 108.594c-0.948 1.542 -1.179 3.075 -2.041 7.3 -0.558 2.738 0.579 3.67 2.206 3.458 1.37 -0.179 4.535 -2.107 5.646 -2.919 3.546 -2.6 0.584 -1.095 8.367 -5.362 0.403 -0.18 0.753 -0.462 1.015 -0.818a1.865 1.865 0 0 0 -0.852 -2.4 6.781 6.781 0 0 0 -2.735 -0.647c-3.898 -0.465 -8.966 -2.906 -11.606 1.388Z" stroke-width="1"></path><path id="Vector_110" fill="#d6d5d4" d="M87.691 152.91a3.55 3.55 0 0 1 1.373 -0.777 2.328 2.328 0 0 1 2.344 1.165c1.022 1.664 0.491 4.761 0.176 6.8 -0.719 4.638 -2.084 4.22 -3.551 4.593 -0.476 0.121 -0.917 0.367 -1.4 0.465 -1.33 0.27 -7.2 -0.343 -9.615 -0.716 -0.629 -0.1 -1.009 -0.366 -0.9 -1.169 0.232 -1.74 2.723 -3.417 11.573 -10.361Z" stroke-width="1"></path><path id="Vector_111" fill="#141414" d="m61.6 106.819 -0.085 0.872a4.566 4.566 0 0 1 1.975 0.565c0.508 0.339 0.824 1.088 0.506 1.5 -0.289 0.461 -1.28 0.824 -2.117 1.287 -7.177 3.967 -9.013 7.146 -12.168 7.652a3.54 3.54 0 0 1 -1.29 0c0.044 0.1 -0.539 -0.534 -0.252 -2.752 0.181 -1.4 1.226 -6.434 2.205 -7.665 1.271 -1.6 4.252 -1.408 6.325 -1.2 5.557 0.567 4.764 1.155 4.9 -0.26 -5.337 -0.715 -11.108 -2.764 -13.093 2.225 -0.8 2 -2.949 9.476 -0.834 10.792 1.125 0.585 2.933 0.162 4.122 -0.416 3.1 -1.511 4.14 -3.72 11.875 -8.044 1.157 -0.647 1.875 -1.551 1.345 -2.777 -0.589 -1.371 -1.925 -1.654 -3.414 -1.779Z" stroke-width="1"></path><path id="Vector_112" fill="#141414" d="M87.662 153.444c-0.759 -1.081 0.054 -1.139 -4.128 2.174a42.099 42.099 0 0 0 -6.705 5.364c-1.586 1.748 -2.11 3.62 0.094 4.176a28 28 0 0 0 9.48 0.617c2.843 -0.275 4.655 -1.112 5.457 -3.894 0.42 -1.972 0.63 -3.983 0.625 -6 -0.13 -3.619 -2.052 -5.4 -5.326 -3.153l0.5 0.717a4.15 4.15 0 0 1 1.759 -0.772c2.735 -0.172 1.968 6.382 1.21 8.829 -0.695 2.243 -2.056 2.724 -4.355 2.927a31.167 31.167 0 0 1 -6.654 -0.139c-2.775 -0.36 -3.134 -0.408 -2.658 -1.315 1.06 -2.022 5.47 -5.171 7.233 -6.507 1.34 -1.143 2.387 -2.228 3.468 -3.024Z" stroke-width="1"></path></g><g id="Group_16"><path id="Vector_113" fill="#d6d5d4" d="M8.441 111.383c2.865 3.129 14.065 6.508 18.492 4.818 15.522 -5.929 20.4 -36.332 11.556 -43.326 -1.693 -1.338 -8.279 -2.96 -10.418 -3.3C9 66.528 -0.58 101.542 8.441 111.383Z" stroke-width="1"></path><path id="Vector_114" fill="#141414" d="M36.955 71.333c-0.775 -0.292 -7.246 -2.41 -11.029 -2.6 -16.754 -0.982 -27.309 32 -18.391 42.511 3.065 3.613 10.549 5.584 15.286 6.013 18.568 1.743 27.613 -40.8 14.134 -45.924Zm0.028 9.583a7.1 7.1 0 0 1 4.214 0.669c0.49 3.158 0.507 6.371 0.05 9.534 -3.278 0.184 -2.577 -0.261 -4.844 -0.8a34.7 34.7 0 0 0 0.58 -9.403Zm3.965 -0.662c-2.344 0.13 -2.066 -0.111 -4.141 -0.777 -1.279 -7.48 -4.693 -7.732 -2.621 -7.087 2.492 0.788 5.302 1.12 6.762 7.864Zm-30.022 31.72c-6.379 -3.494 -5.694 -15.532 -3.747 -22.568 2.563 -9.264 9.909 -19.465 18.654 -18.92 1.854 0.153 3.686 0.5 5.467 1.039 6.353 4.395 4.967 15.778 2.772 23.2 -2.691 8.9 -7.667 18.848 -16.843 19.664a32.32 32.32 0 0 1 -6.303 -2.415Zm8.781 2.995a14.969 14.969 0 0 0 6.556 -3.566c1.9 0.338 2.24 -0.189 4.655 1.037 -4.456 3.737 -7.629 3.216 -11.211 2.529Zm12.326 -3.543c-2.535 -0.362 -2.168 0 -4.642 -1.175a32.912 32.912 0 0 0 4.8 -7.308c1.771 0.265 1.715 -0.536 5.2 0.777a26.804 26.804 0 0 1 -5.358 7.706Zm5.957 -8.99c-3.217 -0.03 -1.9 0.18 -5.129 -0.906a51.027 51.027 0 0 0 3.234 -9.7c2.232 0.124 1.81 -0.534 4.958 0.532a43.637 43.637 0 0 1 -3.063 10.074Z" stroke-width="1"></path><path id="Vector_115" fill="#141414" d="M15.522 111.313c13.819 1.8 24.364 -33.116 12.831 -37.923 -7.449 -3.2 -15.229 6.62 -17.725 14.253 -0.821 2.507 0.382 -0.357 1.482 -2.431 6.418 -11.953 15.347 -14.239 18.416 -8.085C36.94 89.793 22.167 117.3 12.38 108.7c-7.683 -6.813 0 -25.243 -2.5 -19 -3.245 8.091 -2.36 20.436 5.642 21.613Z" stroke-width="1"></path><path id="Vector_116" fill="#141414" d="M17.233 96.357c0.064 -0.17 0.34 0.013 -3.355 -1.387 -0.1 -0.038 -0.009 -0.128 -1.72 4.409 -0.051 0.137 -0.048 -0.08 0.257 2.7 0.013 0.125 -0.423 -0.088 6.811 2.638 0.1 0.04 0.142 -0.068 1.987 -1.749 0.1 -0.095 -0.135 0.46 3.426 -9 0.058 -0.154 0.05 0.05 -0.249 -2.69 -0.017 -0.16 0.351 0.026 -4.512 -1.793 -0.1 -0.038 -0.114 0.138 1.6 -4.433 0.062 -0.165 -0.161 -0.177 2.293 0.737 0.1 0.036 0 0.15 -0.762 2.166 -0.068 0.179 -0.333 -0.008 3.351 1.39 0.1 0.039 0 0.158 1.717 -4.392 0.062 -0.166 0.05 0.032 -0.246 -2.681 -0.018 -0.167 -6.786 -2.668 -6.888 -2.7 -0.011 0 -0.023 -0.01 -0.033 0.02 -0.056 0.178 -1.961 1.72 -2.06 1.985 -3.52 9.367 -3.335 8.8 -3.319 8.94 0.276 2.439 0.245 2.586 0.348 2.625 4.907 1.839 4.523 1.625 4.455 1.807 -1.678 4.445 -1.608 4.422 -1.708 4.384 -2.378 -0.905 -2.228 -0.775 -2.168 -0.934l0.775 -2.042Z" stroke-width="1"></path></g><g id="Group_17"><path id="Vector_117" fill="#d6d5d4" d="M173.2 102.534c-2.124 0.335 -8.143 1.751 -9.959 3.171 -3.045 2.382 -3.912 7.81 -4.092 11.7 -0.741 16.016 10 29.815 17.625 29.815 4.024 0 12.321 -2.166 14.951 -5.025 8.475 -9.216 -0.239 -42.547 -18.525 -39.661Z" stroke-width="1"></path><path id="Vector_118" fill="#141414" d="M175.229 101.706c-3.725 0.184 -10.068 2.3 -10.471 2.451 -10.065 3.8 -7.535 30.5 4.65 40.532a14.77 14.77 0 0 0 6.329 3.078c2.749 0.368 7.835 -0.865 10.686 -1.909 4.318 -1.566 5.062 -2.448 6.518 -4.175 7.866 -12.61 -2.808 -40.82 -17.712 -39.977Zm-11.43 5.058a8.623 8.623 0 0 1 3.584 -1.6c1.991 -0.609 -1.276 -0.357 -2.5 6.721 -1.955 0.626 -1.715 0.859 -3.932 0.73 0.449 -2.03 1.266 -4.47 2.849 -5.851h-0.001Zm-3.085 7.115a6.723 6.723 0 0 1 4 -0.627 32.904 32.904 0 0 0 0.533 8.924c-2.143 0.506 -1.5 0.935 -4.6 0.75a30.551 30.551 0 0 1 0.067 -9.047Zm0.117 10.229c3.015 -1.012 2.539 -0.379 4.705 -0.5a48.319 48.319 0 0 0 3.053 9.21c-2.667 0.892 -1.6 0.83 -4.87 0.851a41.483 41.483 0 0 1 -2.888 -9.561Zm3.452 10.783c3.332 -1.245 3.279 -0.484 4.939 -0.728a31.359 31.359 0 0 0 4.54 6.943c-2.392 1.135 -2.044 0.771 -4.407 1.107a25.437 25.437 0 0 1 -5.072 -7.322Zm6.128 8.286c2.241 -1.134 2.769 -0.686 4.421 -0.976a14.18 14.18 0 0 0 6.217 3.4c-3.544 0.671 -6.449 1.105 -10.638 -2.424Zm23.627 -9.356c-0.808 7.316 -3.757 9.368 -10.636 11.233a13.224 13.224 0 0 1 -7.424 -3.24c-8.2 -7.39 -15.071 -31.118 -5.853 -37.466 6.251 -1.741 8.677 -1.07 12.131 1.049 7.644 4.968 12.957 16.786 11.782 28.424Z" stroke-width="1"></path><path id="Vector_119" fill="#141414" d="M190.414 121.63c-2.071 -5.222 4.68 11.771 -2.4 18.028 -9.386 8.212 -23.229 -18.069 -17.163 -29.991 1.1 -2.2 2.875 -3.406 5.936 -3.01 5.052 0.673 9.138 6.248 11.527 10.716 1.05 1.992 2.172 4.679 1.4 2.309 -2.346 -7.224 -9.7 -16.587 -16.795 -13.557 -3.691 1.529 -4.876 7.6 -4.685 11.723a36.713 36.713 0 0 0 6.028 17.671c6.777 9.886 15.733 8.256 17.514 -1.4 0.658 -4.21 0.188 -8.52 -1.362 -12.489Z" stroke-width="1"></path><g id="Group_18"><path id="Vector_120" fill="#141414" d="M180 125.336a8.791 8.791 0 0 1 -4.285 -1.476c-0.314 -0.212 -0.249 -0.094 -0.287 -0.481 -0.522 -5.391 -0.607 -4.447 -0.311 -12.525 2.662 2.058 3.667 2.773 9.551 9.433 0.879 0.994 -1.475 2.917 -2.079 3.633a3.478 3.478 0 0 1 -1.136 0.998 3.48 3.48 0 0 1 -1.453 0.418Zm-3.3 -2.4c0.99 0.615 2.112 0.988 3.273 1.089a2.329 2.329 0 0 0 1.609 -0.95 20.613 20.613 0 0 0 1.9 -2.138c-4.535 -5.106 -5.635 -6.155 -7.151 -7.439 -0.193 3.149 -0.07 6.31 0.369 9.435v0.003Z" stroke-width="1"></path><path id="Vector_121" fill="#141414" d="M184.614 137.015c-3.342 -1.382 -5.589 -6.438 -8.922 -11.445 5.1 0.929 4.956 2.953 7.7 -0.252 1.081 -1.26 0.023 -0.185 2.584 -3.1 0.937 4.188 0.026 13.939 -1.052 14.6l-0.31 0.197Zm-6.037 -9.28c0.569 1.038 3.929 6.4 5.675 7.607 0.393 -2.292 0.66 -4.603 0.8 -6.924 -0.016 -3.828 0.426 -3.512 -0.662 -2.244 -2.246 2.626 -3.445 2.581 -5.813 1.561Z" stroke-width="1"></path></g></g></g></svg>