<svg xmlns="http://www.w3.org/2000/svg" fill="none" viewBox="0 0 200 200" id="Blockchain-Distribution--Streamline-Web-3.0.svg"><desc>Blockchain Distribution Streamline Illustration: https://streamlinehq.com</desc><g id="Blockchain-Distribution--cryptocurrency-crypto-web 3.0-metaverse-bitcoin-ethereum"><g id="Group"><path id="Vector" fill="#d6d5d4" d="M120.628 87.509c1.854 -0.83 4.106 0.606 5.078 2.391a12.352 12.352 0 0 1 1.035 5.945c0.039 62.941 0.975 57.9 -2.765 62.116 -1.024 1.155 -13.051 12.381 -13.151 12.4 -10.245 2.055 -57.25 -1.38 -97.668 0.691 -5.116 0.262 -6.835 -1.049 -6.973 -6.357 -0.518 -16.844 0.287 -34.155 -1.162 -50.841 -0.5 -5.7 6.883 -11.145 16.353 -21 1.974 -2.055 3.976 -5 7.067 -5.35l92.186 0.005Z" stroke-width="1"></path><path id="Vector_2" fill="#d6d5d4" d="M22.539 101.27c-0.03 -0.783 0.176 -1.225 1.42 -1.162 18.17 0.915 17.156 0.832 17.344 0.929 0.412 0.213 0.55 0.257 1.539 17.821 0.038 0.673 -0.213 0.687 -0.8 0.685 -17.533 -0.071 -17.747 0.74 -18.2 -2.381 -0.453 -3.121 -1.303 -12.381 -1.303 -15.892Z" stroke-width="1"></path><path id="Vector_3" fill="#d6d5d4" d="m12.956 131.036 0.627 17.14L15.6 150.7h84.269l2.4 -1.937v-37.415s1.552 -1.76 -2.534 -1.76 -20.472 0.383 -20.472 0.383c-0.9 0.966 -0.685 -2.29 -0.32 21.065H12.957Z" stroke-width="1"></path><path id="Vector_4" fill="#d6d5d4" d="M5.277 110.658h8.306v37.518L15.6 150.7h84.269l2.4 -1.937v-37.415h8.131c0.8 64.528 1.179 54.845 -0.507 59.756h-98.67l-4.5 -2.75c-0.758 -5.147 -0.406 4.235 -1.446 -57.696Z" stroke-width="1"></path><path id="Vector_5" fill="#141414" d="M121.7 86.657H28.19a6.4 6.4 0 0 0 -4.62 1.985C4.36 108.886 3.77 108.6 3.835 112.1l1.02 53.971a6.399 6.399 0 0 0 6.368 6.248h97.712a6.389 6.389 0 0 0 4.677 -2.045c13.707 -14.827 14.461 -14.829 14.461 -18.135V93.026a6.377 6.377 0 0 0 -6.373 -6.369ZM11.223 169.786a3.858 3.858 0 0 1 -3.835 -3.763c-1.106 -58.64 -1.511 -55.056 0.033 -56.683C26.513 89.214 25.9 89.19 28.19 89.19c99.753 0 94.191 -0.288 95.584 0.608 -10.893 14.209 -15.2 17.867 -15.016 26.459l1.113 53.412c-0.718 0.182 6.069 0.117 -98.648 0.117Z" stroke-width="1"></path><path id="Vector_6" fill="#141414" d="M114.589 93.43a2.438 2.438 0 0 0 -1.963 -1.468H33.591a10.43 10.43 0 0 0 -7.783 3.053c-11.177 11.636 -14.06 13.345 -13.935 19.052l0.711 34.131a3.678 3.678 0 0 0 3.708 3.577h83.579a3.801 3.801 0 0 0 3.7 -3.831c-0.23 -13.091 -0.32 -33.549 -0.32 -33.549a12.004 12.004 0 0 1 2.445 -7.279c9.255 -12.15 9.704 -12.043 8.893 -13.687Zm-81.2 38.139h21.533c0.032 6.434 0.6 12.2 0.635 18.053H34.016c-0.068 -5.968 -0.589 -11.659 -0.629 -18.053h0.002Zm-9.819 -30.346c0.145 -0.154 -0.911 -0.114 17.5 0.054 0.125 2.8 0.848 14.046 1.019 17.7H24.655c-1.255 -18.712 -1.228 -17.604 -1.085 -17.754Zm27.515 8.024c0 1.027 1.071 -0.657 -7.6 8.613 -0.159 -3.206 -0.857 -14.064 -0.983 -16.976a84.78 84.78 0 0 0 7.881 -6.666c0.068 2.147 0.952 15.029 0.702 15.029Zm26.821 1.447c0.008 2.64 0.042 5.418 0.09 8.256H65.925l6.4 -8.256h5.581Zm-13.813 8.264H44.434c2.742 -2.932 5.345 -5.7 7.908 -8.264h18.147l-6.396 8.264Zm-30.3 11.164c3.379 -3.409 6.386 -6.616 9.285 -9.715h19.893l-7.534 9.715H33.793Zm-9.508 -9.694h16.809c-2.865 3.057 -5.86 6.211 -9.229 9.58 0.164 0.165 1.941 0.114 -16.853 0.114l9.273 -9.694Zm32.085 11.141h21.892c0.138 6.115 0.269 12.359 0.28 18.021H57.005c-0.038 -5.803 -0.605 -11.751 -0.635 -18.021Zm0.9 -1.447 7.53 -9.722h13.222c0.057 3.113 0.2 9.616 0.207 9.725l-20.959 -0.003Zm22.4 -0.358c-0.144 -6.457 -0.3 -13.119 -0.315 -19.07h22.215c-0.617 2.29 -0.545 2.306 -0.395 19.428 -23.886 0 -21.494 0.16 -21.506 -0.358h0.001Zm-27.1 -20.517c-0.058 -5.832 -0.64 -11.409 -0.743 -15.1h39.316c-1.65 1.77 -3.571 4.111 -6.007 6.914 -7.793 8.975 -7.141 7.964 -6.891 8.186H52.57Zm-4.07 -15.3a79.681 79.681 0 0 1 -7 5.882l-17.16 -0.15c6.611 -6.885 4.065 -5.733 24.16 -5.733Zm-26.429 8.094 1.163 17.4 -8.876 9.27c-0.445 -20.778 -1.952 -16.606 7.713 -26.67Zm-5.777 47.609a1.536 1.536 0 0 1 -1.539 -1.5l-0.337 -16.586h17.521c0.039 6.244 0.565 12.408 0.629 18.081l-16.274 0.005Zm84.668 -0.564c-0.656 0.67 0.57 0.474 -20.972 0.474 -0.012 -5.667 -0.143 -11.878 -0.28 -17.991h21.477c0.164 17.659 0.461 16.819 -0.225 17.517Zm1.082 -39.839H79.9c2.453 -2.772 6.764 -7.734 6.975 -7.977l20.759 -0.278c-3.778 4.958 -4.659 5.854 -5.59 8.255Zm6.7 -9.718 -20.6 0.276c1.976 -2.267 3.577 -4.006 4.98 -5.45h19.509l-3.889 5.174Z" stroke-width="1"></path><g id="Group_2"><path id="Vector_7" fill="#141414" d="M95.062 136.339c0.3 -1.243 0.709 -1.85 -0.07 -2 -1.15 -0.223 -6.847 0.345 -7.187 0.982 -0.468 -0.121 -2.358 2.526 -1.681 5.815 0.346 1.583 0.645 1.946 0.042 3.746 -0.43 1.221 -0.983 1.731 -0.06 1.978 1.5 0.4 6.135 0.077 7.215 -1.033a4.38 4.38 0 0 0 1.94 -3.2c0.222 -1.793 -1.023 -2.887 -0.2 -6.288Zm-0.85 -0.306c-1.453 2.963 -0.068 5.245 -0.123 6.5a9.205 9.205 0 0 1 -0.875 2.961 26.333 26.333 0 0 0 -7.078 0.785 4.933 4.933 0 0 0 1.547 -2.958c0.222 -1.794 -1.022 -2.889 -0.2 -6.29 0.174 -0.732 0.365 -1.259 0.387 -1.525a7.856 7.856 0 0 0 3.785 0.216c4.17 -0.461 3.539 -1.711 2.557 0.311Z" stroke-width="1"></path><path id="Vector_8" fill="#141414" d="M90.578 138.665c2.8 -0.265 2.734 -0.985 -0.068 -0.72s-2.734 0.987 0.068 0.72Z" stroke-width="1"></path><path id="Vector_9" fill="#141414" d="M90.662 140.822c2.606 -0.214 2.547 -0.937 -0.06 -0.722 -2.605 0.215 -2.55 0.936 0.06 0.722Z" stroke-width="1"></path><path id="Vector_10" fill="#141414" d="M90.856 142.035c-2.191 0.142 -3.394 0.945 0.048 0.722 3.442 -0.223 2.132 -0.868 -0.048 -0.722Z" stroke-width="1"></path></g><g id="Group_3"><path id="Vector_11" fill="#141414" d="M88.812 120.758a4.169 4.169 0 0 0 3.615 -0.233c1.882 -0.864 1.847 -1.626 0.82 -3.332 -1.5 -2.483 -3.104 -6.081 -4.341 -4.41 -0.605 0.819 -3.015 4.422 -3.108 5.532 -0.12 1.43 1.766 2.039 3.014 2.443Zm0.249 -0.77a5.418 5.418 0 0 1 -2.3 -1.146c0.1 -0.033 2.453 -0.8 2.626 -0.84 0.08 2.509 0.295 2.186 -0.326 1.986Zm0.789 0.247c0.318 -2.812 -0.87 -2.422 2.234 -1.421 0.346 0.112 0.7 0.273 0.957 0.385a4.597 4.597 0 0 1 -3.191 1.036Zm-3.245 -1.853a26.697 26.697 0 0 1 3.022 -5.19c0.429 -0.073 3.4 5.079 3.5 5.616a27.574 27.574 0 0 0 -3.057 -1.308c-0.178 -0.065 -0.14 0.037 -0.136 -0.6 0.017 -2.893 -0.377 -3.572 -0.5 -3 -0.06 0.289 -0.063 1.311 -0.063 3.535 -1.18 0.304 -2.793 1.245 -2.766 0.947Z" stroke-width="1"></path><path id="Vector_12" fill="#141414" d="M89.952 122.213c-0.966 0.119 -2.258 -0.717 -3.2 -1.323 -0.69 -0.443 -0.513 -0.418 -0.8 -0.164 -0.441 0.392 0.44 2.017 0.727 2.658 1.8 4.024 2.176 5.136 3.222 5.106 1.457 -0.067 2.549 -3.15 3.108 -4.228a8.249 8.249 0 0 0 0.99 -2.84c-1.499 -0.596 -0.66 0.372 -4.047 0.791Zm-3.039 -0.26c3.375 2.087 2.481 -0.26 2.643 3.149 0.065 1.385 0.127 2.147 0.183 2.547 -0.478 -0.265 -2.791 -5.596 -2.826 -5.696Zm3.207 5.632c0.073 -1.522 0.01 -3.047 -0.185 -4.558a7.966 7.966 0 0 0 3.083 -0.882c-0.205 0.718 -2.012 4.865 -2.898 5.44Z" stroke-width="1"></path></g><path id="Vector_13" fill="#141414" d="M36.45 111.242c-1.663 -4.468 -1.643 -4.98 -2.467 -4.931 -0.633 0.038 -0.892 0.717 -1.194 1.276 -0.651 1.207 -0.644 0.948 -1.21 2.1 -0.007 0.014 -0.02 0.074 -0.035 0.071l-0.018 -0.007c-8.093 -9.064 -1.028 1.1 -0.362 1.348a0.922 0.922 0 0 0 1.175 -0.23c0.501 -0.748 0.961 -1.522 1.378 -2.32 0.3 -0.533 -0.048 -1.118 1.566 3.219 -2.755 1.211 -1.98 1.88 0.1 3.284 1.186 0.8 1.847 1.274 2.332 -0.105 1.385 -3.199 1.938 -4.836 -1.264 -3.705Zm0.219 3.4c-0.095 -0.059 -1.64 -1.167 -1.943 -1.388 0.938 -0.52 1.927 -0.942 2.952 -1.259 -0.3 1.018 -0.952 2.482 -1.01 2.644v0.003Z" stroke-width="1"></path><g id="Group_4"><path id="Vector_14" fill="#141414" d="M28.132 143.672c-0.088 -1.882 0.237 -4.629 -1.426 -5.044 -0.073 -5.343 -6.608 -5.155 -6.617 0.02 -1.693 0.594 -1.655 2.49 -1.724 4.039 -0.185 4.217 1.928 4.208 6.06 3.83 2.446 -0.256 3.775 -0.027 3.707 -2.845Zm-2.44 -5.18a25.396 25.396 0 0 0 -4.556 -0.016c0.705 -3.289 3.842 -3.197 4.556 0.016Zm1.453 5.2c-0.055 1.778 -0.39 1.425 -2.832 1.594 -1.36 0.092 -4 0.5 -4.45 -0.781a12.416 12.416 0 0 1 0 -3.66c0.225 -0.927 0.429 -1.2 4.23 -1.215 0.489 0 2.055 0.031 2.37 0.1 0.793 0.22 0.712 3.14 0.682 3.962Z" stroke-width="1"></path><path id="Vector_15" fill="#141414" d="M23.556 141.052c-0.967 -0.033 -0.806 2.708 0.156 2.559 0.833 -0.128 0.688 -2.533 -0.156 -2.559Z" stroke-width="1"></path></g><path id="Vector_16" fill="#141414" d="M68.48 140.6a2.931 2.931 0 0 0 0.725 -4.175 2.928 2.928 0 0 0 -1.225 -0.965 2 2 0 0 0 0.108 -0.668c0 -1.482 -1.19 -1.156 -1.19 0 0 0.528 0.223 0.29 -0.667 0.306 0.2 -1.582 -1.3 -1.434 -1.18 -0.247 0.053 0.532 0.392 0.3 -1.015 0.713a40.03 40.03 0 0 0 0.432 10.42c1.249 0.292 0.883 0.023 0.883 0.769 0 1.75 1.437 1.152 1.152 -0.437 1.052 0.043 0.574 -0.243 0.676 0.635 0.191 1.671 1.736 1.059 1.027 -0.813 3.494 -1.003 3.3 -5.265 0.274 -5.538Zm-1.417 -0.425a5.939 5.939 0 0 1 -1.962 0.55 112.058 112.058 0 0 0 -0.244 -4.506c3.743 -0.779 5.019 2.659 2.206 3.955v0.001Zm2.516 3.145a2.563 2.563 0 0 1 -2.175 1.89 7.962 7.962 0 0 1 -2.207 0.069c0 -0.934 -0.016 -2.106 -0.057 -3.4 2.099 -0.405 4.686 -0.616 4.439 1.44v0.001Z" stroke-width="1"></path><path id="Vector_17" fill="#141414" d="M49.747 141.8c-0.71 -3.213 -4.381 -8.339 -7.551 -7.3 -4.222 1.45 -4.515 4.376 -2.106 8.166 5.054 7.746 10.466 3.067 9.657 -0.866Zm-3.464 1.285c-2.65 -1.418 -5.968 -7.432 -2.924 -7.838 4.127 0.442 8.825 10.909 2.924 7.836v0.002Zm-4.278 -7.556a3.075 3.075 0 0 0 -0.21 2.513c-0.914 0.838 -0.814 1.038 -2.105 1.515 -0.526 -2.068 0.374 -3.193 2.315 -4.03v0.002Zm-2.13 4.622a6.669 6.669 0 0 1 2.166 -1.372c0.37 0.857 0.852 1.66 1.434 2.39 -0.9 0.883 -0.427 0.832 -2.046 1.717a11.67 11.67 0 0 1 -1.553 -2.737v0.002Zm1.967 3.259c1.226 -1.413 1.075 -0.96 2.11 -1.639a7.094 7.094 0 0 0 1.923 1.736 7.496 7.496 0 0 1 -0.68 1.011c-0.334 0.359 -0.906 0.671 -1.128 0.888a9.41 9.41 0 0 1 -2.225 -1.998v0.002Zm5.885 1.715a2.523 2.523 0 0 1 -2.958 0.63 7.36 7.36 0 0 1 0.675 -1c0.337 -0.361 0.917 -0.676 1.134 -0.895a3.43 3.43 0 0 0 2.084 0.223 3.434 3.434 0 0 1 -0.935 1.04v0.002Z" stroke-width="1"></path><g id="Group_5"><path id="Vector_18" fill="#d6d5d4" d="M76.716 161.255c-7.61 3.356 -10.2 12.316 -7.735 19.9 4.5 13.86 27.667 14.124 29.726 -1.94 1.653 -12.905 -10.038 -23.232 -21.991 -17.96Z" stroke-width="1"></path><path id="Vector_19" fill="#141414" d="M99.457 173.2c-2.922 -13.477 -16.673 -17.722 -25.766 -11.533 -5.355 3.536 -8.422 11.4 -6.01 19.519 3.776 13.211 23.66 15.538 30.127 4.156a16.914 16.914 0 0 0 1.649 -12.142Zm-3.62 10.98c-6.312 10.653 -27.716 7.2 -26.452 -10.237 0.793 -8.942 8.11 -13.943 16 -12.821 11.53 1.511 15.034 15.517 10.452 23.055v0.003Z" stroke-width="1"></path><path id="Vector_20" fill="#141414" d="M89.945 174.678c-1.246 -5.2 -6.673 -7.315 -10.573 -4.739a7.156 7.156 0 0 0 -2.57 8.049c2.167 7.658 15.317 5.776 13.143 -3.31Zm-10.735 2.578c-2.092 -6.825 7.725 -9.058 8.77 -2.188 0.96 6.389 -7.44 6.672 -8.77 2.188Z" stroke-width="1"></path><path id="Vector_21" fill="#d6d5d4" d="M101.322 166.405c1.557 3.214 2.8 8.353 2.414 9.03 -0.209 0.368 -0.711 0.412 -1.134 0.412 -6.946 0 -5.81 0.507 -6.73 -1.185 -1.352 -2.485 -2.063 -5.028 -4 -7.215 -6.666 -7.591 -19.985 -4.707 -21.043 9.919 -0.462 0.019 -7.142 0.166 -7.173 -0.4 -1.282 -23.102 28.175 -30.154 37.666 -10.561Z" stroke-width="1"></path><path id="Vector_22" fill="#141414" d="M104.118 171.56c-5.135 -19.829 -25.7 -22.547 -36.191 -10.731 -5.59 6.173 -6.2 15.753 -5.193 17.012 0.746 0.882 3.614 0.826 5.142 0.82 4.653 -0.02 4.075 0.045 4.12 -0.335a23.189 23.189 0 0 1 1.252 -6.3c2.986 -7.906 12.18 -10.124 17.81 -3.777 2.85 3.156 3.666 8.758 5.768 8.688 7.556 -0.213 8.954 0.986 7.292 -5.377Zm-1.526 3.306c-6.561 0 -5.288 0.264 -6.13 -1.406 -1.148 -2.284 -3.371 -9.676 -10.93 -11.105 -6.674 -1.213 -14.443 2.8 -15.848 13.769 -2.037 0 -3.161 0.016 -4.757 -0.108 0 -24.587 33.766 -28.235 37.893 -1.379a0.21 0.21 0 0 1 -0.007 0.093 0.203 0.203 0 0 1 -0.221 0.136Z" stroke-width="1"></path></g><g id="Group_6"><path id="Vector_23" fill="#d6d5d4" d="M27.569 161.255c-7.61 3.356 -10.2 12.316 -7.735 19.9 4.5 13.86 27.667 14.124 29.725 -1.94 1.654 -12.905 -10.038 -23.232 -21.99 -17.96Z" stroke-width="1"></path><path id="Vector_24" fill="#141414" d="M50.31 173.2c-2.923 -13.477 -16.673 -17.722 -25.767 -11.533 -5.354 3.536 -8.421 11.4 -6.01 19.519 3.776 13.211 23.66 15.538 30.128 4.156A16.918 16.918 0 0 0 50.31 173.2Zm-3.62 10.98c-6.313 10.653 -27.717 7.2 -26.453 -10.237 0.793 -8.942 8.11 -13.943 16 -12.821 11.53 1.511 15.034 15.517 10.453 23.055v0.003Z" stroke-width="1"></path><path id="Vector_25" fill="#141414" d="M40.8 174.678c-1.246 -5.2 -6.673 -7.315 -10.572 -4.739a7.155 7.155 0 0 0 -2.571 8.049c2.164 7.658 15.314 5.776 13.143 -3.31Zm-10.734 2.578c-2.092 -6.825 7.724 -9.058 8.769 -2.188 0.958 6.389 -7.442 6.672 -8.772 2.188h0.003Z" stroke-width="1"></path><path id="Vector_26" fill="#d6d5d4" d="M52.175 166.405c1.557 3.214 2.8 8.353 2.414 9.03 -0.21 0.368 -0.712 0.412 -1.134 0.412 -6.946 0 -5.81 0.507 -6.73 -1.185 -1.353 -2.485 -2.063 -5.028 -4 -7.215 -6.666 -7.591 -19.986 -4.707 -21.044 9.919 -0.462 0.019 -7.141 0.166 -7.173 -0.4 -1.282 -23.102 28.176 -30.154 37.667 -10.561Z" stroke-width="1"></path><path id="Vector_27" fill="#141414" d="M54.97 171.56c-5.135 -19.829 -25.7 -22.547 -36.191 -10.731 -5.59 6.173 -6.2 15.753 -5.192 17.012 0.746 0.882 3.613 0.826 5.14 0.82 4.654 -0.02 4.076 0.045 4.122 -0.335a23.223 23.223 0 0 1 1.25 -6.3c2.987 -7.906 12.182 -10.124 17.812 -3.777 2.849 3.156 3.665 8.758 5.767 8.688 7.557 -0.213 8.954 0.986 7.292 -5.377Zm-1.526 3.306c-6.56 0 -5.288 0.264 -6.128 -1.406 -1.15 -2.284 -3.373 -9.676 -10.93 -11.105 -6.675 -1.213 -14.444 2.8 -15.85 13.769 -2.036 0 -3.16 0.016 -4.756 -0.108 0 -24.587 33.765 -28.235 37.892 -1.379a0.2 0.2 0 0 1 -0.056 0.172 0.195 0.195 0 0 1 -0.08 0.049 0.196 0.196 0 0 1 -0.092 0.008Z" stroke-width="1"></path></g></g><g id="Group_7"><path id="Vector_28" fill="#d6d5d4" d="M125.624 170.914c-4.771 -1.782 -5.313 -3.221 -5.662 -6.164 -1.91 -16.068 -2.018 -46.126 -1.957 -46.226 3.741 -6.28 7.537 -12.285 11.5 -18.428 3.7 -5.732 7.369 -4.379 24.9 -3.611 5.361 0.235 6.574 1.33 8.381 4.644a109.33 109.33 0 0 1 7.266 16.4c1.578 4.539 5.329 8.428 10.078 9.168 3.584 0.559 9.367 -0.941 11.9 2.821 0.926 1.373 0.942 2.311 2.374 11.381 1.839 11.648 -1.36 11.471 -5.116 19.092 -1.46 2.962 -2.241 6.434 -4.729 8.6 -2.832 2.47 -6.98 2.494 -10.736 2.385 -11.723 -0.333 -10.272 -1.343 -48.199 -0.062Z" stroke-width="1"></path><path id="Vector_29" fill="#d6d5d4" d="m151.5 121.256 7.974 16.393a1.017 1.017 0 0 0 0.853 0.573 1.03 1.03 0 0 0 0.92 -0.457c8.516 -12.888 8.369 -12.283 8.016 -13.027l-8.078 -16.983a1.02 1.02 0 0 0 -1.792 -0.1c-8.431 13.567 -8.239 12.882 -7.893 13.601Z" stroke-width="1"></path><path id="Vector_30" fill="#141414" d="m196.148 145.689 -1.471 -12.056a9.382 9.382 0 0 0 -8.5 -8.182c-6.3 -0.525 -10.67 0 -12.784 -4.476l-9.766 -20.663a9.376 9.376 0 0 0 -8.575 -5.35l-18.864 0.253a9.293 9.293 0 0 0 -7.846 4.467c-11.388 18.61 -12.092 18.734 -11.923 22.546l1.821 41.144a9.324 9.324 0 0 0 9.336 8.932c0.037 -0.1 -2.442 0 51.566 -0.051a9.446 9.446 0 0 0 8.4 -5.331c8.28 -17.145 9.045 -17.628 8.606 -21.233Zm-20.841 -19.3c4.557 2.331 10.982 0.075 14.6 3.284l-10.5 19.785 -17.033 -2.258 12.933 -20.811ZM161.336 101.4c10.406 22.02 10.037 21.84 11.889 23.541L160.387 145.6l-12.795 -25.834 12.243 -20.428a6.833 6.833 0 0 1 1.501 2.062Zm-41.391 16.86L130.5 101a6.772 6.772 0 0 1 5.719 -3.256c19.947 -0.269 19.7 -0.48 21.475 0.227l-12.265 20.463c-27.629 0.004 -25.654 0.103 -25.484 -0.174Zm7.631 51.459a6.755 6.755 0 0 1 -6.8 -6.459c-1.976 -44.576 -1.884 -41.46 -1.776 -42.288h26.369l14.063 28.394 19.623 2.6 3.419 16.819c-2.342 1.315 1.152 0.934 -54.898 0.934Zm65.429 -19.935c-8.41 17.4 -7.855 16.358 -8.348 17.042l-3.213 -15.808 10.141 -19.1c0.629 1.355 0.472 1.146 2.048 14.079a6.813 6.813 0 0 1 -0.628 3.787Z" stroke-width="1"></path><path id="Vector_31" fill="#141414" d="M158.827 137.965c-8.472 -17.414 -8.609 -16.917 -7.887 -18.079 8.233 -13.244 7.994 -13.523 9.424 -13.435 1.47 0.083 1.02 0.024 9.556 17.976 0.588 1.236 0.291 1.095 -8.065 13.737a1.75 1.75 0 0 1 -2.432 0.487 1.748 1.748 0 0 1 -0.596 -0.686Zm-6.672 -17.026c8.543 17.557 7.969 16.543 8.223 16.561 0.254 0.018 -0.262 0.676 8.214 -12.158 0.145 -0.219 0.556 0.8 -8.056 -17.276a0.298 0.298 0 0 0 -0.253 -0.169 0.308 0.308 0 0 0 -0.155 0.033 0.314 0.314 0 0 0 -0.116 0.107c-8.378 13.463 -7.965 12.681 -7.857 12.902Z" stroke-width="1"></path><path id="Vector_32" fill="#141414" d="M187.531 146.723c-4.919 9.583 -6.206 8.919 -1.288 -0.661s6.206 -8.918 1.288 0.661Z" stroke-width="1"></path><path id="Vector_33" fill="#141414" d="M189.221 151.738c-4.93 9.6 -6.2 8.9 -1.288 -0.662 4.921 -9.582 6.207 -8.918 1.288 0.662Z" stroke-width="1"></path><path id="Vector_34" fill="#d6d5d4" d="m122.11 126.971 1.017 17.34a2.048 2.048 0 0 0 2.045 1.929h24.774a2.047 2.047 0 0 0 1.9 -2.827c-7.755 -18.887 -7.154 -18.61 -9.015 -18.61h-18.676a2.047 2.047 0 0 0 -2.045 2.168Z" stroke-width="1"></path><path id="Vector_35" fill="#141414" d="M149.946 147.032h-24.774a2.843 2.843 0 0 1 -2.836 -2.675c-1.071 -18.271 -1.422 -18.21 -0.248 -19.455 1.174 -1.245 0.892 -0.892 20.738 -0.892a2.832 2.832 0 0 1 2.628 1.762l7.12 17.34a2.841 2.841 0 0 1 -2.628 3.92ZM124.155 125.6a1.255 1.255 0 0 0 -1.254 1.33l1.017 17.34a1.257 1.257 0 0 0 1.254 1.183c26.921 0 25.284 0.238 25.818 -0.557 0.534 -0.795 0.685 0.222 -7 -18.517 -0.452 -1.101 0.077 -0.779 -19.835 -0.779Z" stroke-width="1"></path><g id="Group_8"><path id="Vector_36" fill="#d6d5d4" d="M137.711 161.255c-7.608 3.356 -10.2 12.316 -7.735 19.9 4.5 13.86 27.667 14.124 29.726 -1.94 1.654 -12.905 -10.038 -23.232 -21.991 -17.96Z" stroke-width="1"></path><path id="Vector_37" fill="#141414" d="M160.452 173.2c-2.922 -13.477 -16.673 -17.722 -25.766 -11.533 -5.355 3.536 -8.422 11.4 -6.009 19.519 3.775 13.211 23.66 15.538 30.126 4.156a16.915 16.915 0 0 0 1.649 -12.142Zm-3.62 10.98c-6.312 10.653 -27.716 7.2 -26.452 -10.237 0.793 -8.942 8.11 -13.943 16 -12.821 11.53 1.511 15.034 15.517 10.452 23.055v0.003Z" stroke-width="1"></path><path id="Vector_38" fill="#141414" d="M150.94 174.678c-1.246 -5.2 -6.673 -7.315 -10.573 -4.739a7.158 7.158 0 0 0 -2.57 8.049c2.167 7.658 15.317 5.776 13.143 -3.31Zm-10.735 2.578c-2.092 -6.825 7.725 -9.058 8.77 -2.188 0.961 6.389 -7.44 6.672 -8.77 2.188Z" stroke-width="1"></path><path id="Vector_39" fill="#d6d5d4" d="M162.317 166.405c1.558 3.214 2.8 8.353 2.414 9.03 -0.208 0.368 -0.711 0.412 -1.134 0.412 -6.945 0 -5.809 0.507 -6.73 -1.185 -1.352 -2.485 -2.063 -5.028 -4 -7.215 -6.666 -7.591 -19.985 -4.707 -21.043 9.919 -0.462 0.019 -7.141 0.166 -7.173 -0.4 -1.282 -23.102 28.175 -30.154 37.666 -10.561Z" stroke-width="1"></path><path id="Vector_40" fill="#141414" d="M165.113 171.56c-5.135 -19.829 -25.7 -22.547 -36.191 -10.731 -5.59 6.173 -6.2 15.753 -5.193 17.012 0.746 0.882 3.614 0.826 5.142 0.82 4.653 -0.02 4.075 0.045 4.121 -0.335a23.208 23.208 0 0 1 1.251 -6.3c2.986 -7.906 12.18 -10.124 17.811 -3.777 2.849 3.156 3.665 8.758 5.767 8.688 7.557 -0.213 8.954 0.986 7.292 -5.377Zm-1.526 3.306c-6.561 0 -5.288 0.264 -6.129 -1.406 -1.149 -2.284 -3.372 -9.676 -10.929 -11.105 -6.675 -1.213 -14.444 2.8 -15.85 13.769 -2.037 0 -3.161 0.016 -4.757 -0.108 0 -24.587 33.766 -28.235 37.893 -1.379a0.21 0.21 0 0 1 -0.007 0.093 0.214 0.214 0 0 1 -0.049 0.08 0.19 0.19 0 0 1 -0.079 0.048 0.196 0.196 0 0 1 -0.093 0.008Z" stroke-width="1"></path></g></g><g id="Group_9"><path id="Vector_41" fill="#d6d5d4" d="M81.951 70.45c-5.476 5.121 -8.161 7.29 -15.643 6.914 4.761 5.714 9.634 7.643 16.951 4.871 -3.011 -4.513 -2.695 -6.503 -1.308 -11.785Z" stroke-width="1"></path><path id="Vector_42" fill="#d6d5d4" d="M159.743 54.886c-0.314 -12.714 -7.336 -25.277 -14.319 -30.787 -5.644 -4.454 -12.279 -4.475 -15.754 -2.468a12.389 12.389 0 0 0 -3.336 2.765c14.515 9.452 23.221 30.868 14.488 46.756 1.143 0.415 2.317 0.735 3.512 0.958 9.794 1.72 15.666 -6.888 15.409 -17.224Z" stroke-width="1"></path><path id="Vector_43" fill="#d6d5d4" d="M127.844 26.738c-7.03 -5.13 -14.643 -6.372 -23.268 -5.544 -27.015 2.6 -50.965 19.937 -56 32.447 -2.412 5.983 1.413 10.58 6.972 11.495 1.046 8.232 12.208 13.728 19.858 9.443 1.838 -1.03 5.44 -3.174 8.14 -4.837 -1.424 2.65 -2.148 5.527 -1.324 8.28a12.157 12.157 0 0 0 5.042 6.393c7.058 4.358 14.565 -0.757 29.459 -3.126 10.691 -1.7 20.078 -3.395 24.524 -13.326 5.402 -12.123 -0.314 -31.675 -13.403 -41.225Z" stroke-width="1"></path><path id="Vector_44" fill="#141414" d="M143.8 21.178c-4.927 -2.645 -11.167 -3.213 -15.7 0.15 -3.12 2.173 -0.984 2.56 -3.6 1.242 -16.774 -8.4 -44.067 1 -57.931 10.059 -6.913 4.53 -19.85 15.693 -20.3 23.859 -0.326 4.986 3.692 9 8.551 9.97 -0.478 5.569 5.037 10.2 10.722 11.4A12.483 12.483 0 0 0 83.37 83.4c4.588 4.9 9.857 5.212 16.581 3.687 8.453 -1.9 2.3 -1.548 19.312 -4.375 6.867 -1.13 13.882 -2.623 18.964 -7.353 5.424 -4.92 -0.791 -2.93 8.329 -1.844 0.869 0.019 1.737 -0.023 2.6 -0.127 4.058 -0.572 7.063 -2.952 9.264 -6.371 8.561 -13.817 -2.305 -39.356 -14.62 -45.84Zm-87.311 45.49c9.776 0.532 16.28 -8.653 24.034 -14.46a51.961 51.961 0 0 1 5.045 -3.108 58.546 58.546 0 0 0 5.514 10.135 33.365 33.365 0 0 0 -8.473 8.922c-4.142 3.69 -8.639 7.76 -14.353 7.5 -5.314 -0.21 -11.467 -3.857 -11.767 -8.988Zm11.433 11.5c3.958 0.21 7.314 -1.221 10.494 -3.612 3.729 -2.878 1.558 -2.554 1.819 1.788 0.102 1.99 0.772 3.91 1.932 5.53a12.392 12.392 0 0 1 -14.245 -3.704v-0.001Zm68.578 -4.661c-4.6 4.283 -11.285 5.66 -17.648 6.7 -16.819 2.8 -12.067 2.752 -19.47 4.407 -5.117 1.17 -10.345 1.4 -13.806 -2.522 -7 -6.808 -0.277 -15.832 7.528 -21.745 14.436 -10.827 32.74 -8.26 32.754 -9.374 0 -0.157 -2.222 -0.431 -6.28 -0.407 -10.934 0.169 -13.375 2.363 -9.564 0.2a70.198 70.198 0 0 0 8.8 -5.875c2.12 -1.706 3.263 -2.97 3.06 -3.243 -0.632 -0.85 -21.671 12.03 -22.788 12.792a39.444 39.444 0 0 0 -6.134 3.45c-7.776 -13.34 -9.722 -22.46 -10.65 -22.242 -0.328 0.077 -0.218 2.083 0.524 5.22a52.38 52.38 0 0 0 2.34 7.247c-13.508 7.6 -19.36 17.8 -29.234 16.4 -4.016 -0.572 -7.7 -3.84 -7.347 -7.884 0.554 -8.94 23.814 -31.594 56.055 -34.7 14.279 -1.412 25.055 3.887 32.268 16.11 6.902 11.805 8.144 27.732 -0.408 35.466Zm21.971 -12.794c-2.1 8.427 -7.98 12.835 -16.6 10.01 8.143 -14.426 -0.055 -37.1 -14.41 -46.446a9.814 9.814 0 0 1 5.675 -3.047c15.697 -2.545 28.724 24.434 25.332 39.483h0.003Z" stroke-width="1"></path></g><g id="Group_10"><path id="Vector_45" fill="#615fff" d="M34.1 22.953c5.738 1.893 11.734 3.47 17.753 2.956 4.358 -0.372 15.308 -3.093 19.551 -6.408 5.839 -4.563 5.35 -2.888 13.692 -10.524 0.874 17.056 8.067 22.549 14.244 25.623a64.603 64.603 0 0 0 13.747 4.747c1.428 0.142 -2.245 3.811 -4.19 9.25a33.212 33.212 0 0 0 -2.281 9.599c-0.578 23.185 9.9 24.137 3.686 23.447 -2.627 -0.292 -5.031 0.346 -10.981 1.571a18.096 18.096 0 0 0 -6.253 2.194c-15.451 8.033 -15.807 16.217 -22.915 24.915 -8.461 -13.477 -6.6 -11.6 -18.883 -20.9 -7.482 -5.667 -11.407 -7.88 -27.349 -10.769 9.226 -11.355 12.729 -18.473 14.06 -31.1 0.088 -0.833 1.013 -10.912 0.588 -13.149 -1.437 -7.551 -3.147 -7.677 -4.469 -11.452Z" stroke-width="1"></path><path id="Vector_46" fill="#141414" d="M107.616 60.767c0.6 -9.9 4.841 -17.846 5.771 -20.457 0.259 -0.726 0.307 -0.973 -0.356 -1.327 -1.546 -0.824 -6.488 -2.279 -9.092 -3.294 -9.73 -3.775 -15.7 -10.75 -17.774 -20.382 -0.833 -3.882 -0.364 -6.573 -0.78 -6.66 -0.74 -0.7 -9.596 9.82 -24.24 14.34 -16.616 5.124 -27.253 -1.495 -27.7 -0.552 -0.386 0.3 3.41 4.794 4.253 12.393 0.94 7.6 -1.192 22.777 -9.112 36.316 -2.75 4.73 -4.916 7.4 -4.609 7.668C23.864 79.828 35.744 80.2 50.3 90.08c15.128 10.514 18.845 21.109 19.891 20.578 1.12 0.721 8.4 -14.1 17.248 -20.78 12.772 -9.664 25.035 -6.815 25.164 -7.932 0.606 -0.497 -5.815 -7.722 -4.987 -21.179Zm3.87 20.56c-2.363 -0.743 -9.356 -0.814 -15.815 1.377A34.582 34.582 0 0 0 78.292 95.8a102.318 102.318 0 0 0 -8.074 13.975c-0.72 -3.479 -10.3 -19.778 -28.632 -27.338 -7.074 -2.92 -14.786 -4.217 -16.986 -3.876 3.4 -2.267 16.43 -18.576 15.471 -41.4 -0.19 -4.554 -2.18 -10.21 -5.21 -13.59 6.127 3.584 16.634 5.047 27.023 1.836C72.035 22.273 81.045 15 84.807 9.768c-2.3 7.458 2.61 23.075 18.44 27.9 2.025 0.623 8.585 2.058 9.782 1.936 -1.381 1.054 -7.279 10.175 -7.942 21.01 -0.608 9.828 3.613 18.411 6.399 20.713Z" stroke-width="1"></path></g><g id="Group_11"><path id="Vector_47" fill="#d6d5d4" d="M97.7 45.66c-1.226 -4.68 -6.045 -3.428 -15.371 -11.624a46.315 46.315 0 0 0 -4.735 -4c-8.33 -5.54 -11.4 3.11 -26.675 10.18 -3.909 1.81 -4.373 2.245 -4.909 7.116 -0.861 7.838 -5.78 21.458 -4.342 24.812 1.683 3.922 22.945 15.912 24.223 16.64 1.7 0.97 2.417 1.042 4.435 -0.18 5.38 -3.256 21.3 -13.633 22.193 -14.9 0.84 -1.19 0.792 -3.282 1.072 -4.676C97.754 48.294 98.23 47.685 97.7 45.66Z" stroke-width="1"></path><path id="Vector_48" fill="#d6d5d4" d="M42.321 73.3c-2.312 -3.691 9.418 -7.052 21.068 -16.55 2.234 -1.821 1.069 -2.217 21.7 12.763 7.866 5.713 11.783 2.822 -9.056 15.522 -6.48 3.949 -7.111 4.475 -8.476 4.607 -3.4 0.331 -7.355 -4.124 -9.527 -5.94 -4.586 -3.832 -14.224 -8.03 -15.709 -10.402Z" stroke-width="1"></path><path id="Vector_49" fill="#141414" d="M97.037 42.306 74.759 27.2a5.236 5.236 0 0 0 -5.793 -0.064C46.073 41.932 45.731 41.474 45.132 44.42l-5.1 25.043a5.234 5.234 0 0 0 2.2 5.389C66.636 91.4 65.393 90.967 67.6 90.967c2.156 0 1.33 0.155 24.266 -14.873 2.462 -1.612 1.793 -1.019 7.369 -28.4a5.233 5.233 0 0 0 -2.198 -5.388Zm-49.423 2.62c0.326 -1.6 -0.352 -0.744 22.516 -15.527l-6.01 25.438 -21.558 14.9 5.052 -24.811Zm21.473 43.061a2.71 2.71 0 0 1 -3.011 -0.024c-24.456 -16.576 -22.7 -15.3 -23.1 -15.867l22.111 -15.288L90.44 74 69.087 87.987Zm27.664 -40.8L91.658 72.2 66.31 55.014l6.166 -26.1c0.662 0.166 -1.243 -1.038 23.139 15.492a2.706 2.706 0 0 1 1.136 2.783v-0.002Z" stroke-width="1"></path><path id="Vector_50" fill="#141414" d="m72.191 74.7 -3.638 -6.259c1.653 -0.985 2.43 -1.472 2.336 -2.273 -0.125 -1.077 -1.8 -1.552 -4.168 -2.3 -2.465 -0.775 -3.372 -1.2 -3.48 1.887 -0.07 2.024 -0.772 4.42 1.113 4.42a6.725 6.725 0 0 0 2.574 -0.933L69.98 74.5s-5.782 -1.632 -6.714 -1.892a1.43 1.43 0 0 0 -1.683 0.879c-0.238 0.668 0 1.024 0.366 1.895 8.675 20.383 1.479 -0.764 1.512 -0.864 0.1 -0.093 6.119 1.853 7.387 2.1a1.29 1.29 0 0 0 1.343 -1.918Zm-7.7 -5.976c0.006 -0.31 0.238 -3.743 0.275 -3.94 0.409 0.15 4.657 1.357 4.31 1.59a23.118 23.118 0 0 1 -4.576 2.354l-0.009 -0.004Z" stroke-width="1"></path></g><g id="Group_12"><path id="Vector_51" fill="#d6d5d4" d="M128.805 51.386c-27.491 -4.353 -50.431 15.032 -47.153 26.438 2.319 8.068 11.3 9.843 14.727 8.636 3.427 -1.207 17.035 -4.514 17.035 -4.514s16.352 -1.346 24.154 -9.446c6.953 -7.223 2.597 -19.315 -8.763 -21.114Z" stroke-width="1"></path><path id="Vector_52" fill="#141414" d="M116.475 80.594c-10.707 1.706 -10.119 2.259 -15.857 3.718 -5.134 1.306 -10.228 1.988 -14.234 -1.507 -6.632 -5.792 -3.437 -12.9 2.865 -18.941C97.1 56.33 105.8 53.543 116.463 52.177c5.746 -0.736 9.386 -0.812 9.392 -1.2 0.006 -0.309 -3.619 -0.875 -9.553 -0.583 -11.4 0.56 -20.682 3.843 -28.807 11.642 -7.45 7.152 -10.626 15.778 -2.764 22.69 7.012 6.164 16.132 1.794 24.288 -0.166 10.232 -2.459 28.316 -2.087 33.1 -16.015 0.548 -1.593 0.606 -2.529 0.455 -2.577 -0.181 -0.057 -0.562 0.776 -1.355 2.175 -5.275 9.306 -13.441 10.651 -24.744 12.451Z" stroke-width="1"></path></g></g></svg>