<svg xmlns="http://www.w3.org/2000/svg" fill="none" viewBox="0 0 200 200" id="Hodl--Streamline-Web-3.0.svg"><desc>HODL Streamline Illustration: https://streamlinehq.com</desc><g id="HODL--cryptocurrency-crypto-web 3.0-metaverse-bitcoin-ethereum"><g id="Group"><path id="Vector" fill="#d6d5d4" d="M15.762 30.255c-1.105 3.714 1.52 8.678 3.61 11.965 0.426 0.673 0.611 1.476 1.083 2.117 8.961 12.176 8.3 9.66 12.722 15.047 6.77 8.24 44.055 40.028 57.27 48.254 5.035 3.135 9.553 7.332 14.553 10.527a42.309 42.309 0 0 1 5.577 3.829c2.212 1.978 11.97 7.426 13.411 8.366a45.079 45.079 0 0 0 4.056 2.549c13.892 7.891 14.656 8.57 15.133 8.834a80.595 80.595 0 0 1 7.713 3.783c3.638 2.124 4.118 1.817 15.282 7.22 1.012 0.49 -3.96 -1.416 11.2 3.484 2.355 0.761 1.682 0.505 6.8 0.946a10.789 10.789 0 0 0 6 -1.717c5.181 -3.855 1.11 -11.941 -2.672 -17.142 -0.345 -0.474 -0.748 -0.79 -1.067 -1.282 -4.668 -7.2 -3.362 -5.016 -6.733 -8.673 -2.737 -2.97 -1.929 -2.769 -5.942 -6.457 -5.44 -5 -6.939 -7.329 -9.245 -9.262 -4.817 -4.038 -9.312 -8.459 -14.28 -12.311 -1.954 -1.515 -3.519 -3.442 -5.455 -4.98 -48.345 -38.382 -70.83 -48.436 -78.099 -53.414 -3.579 -2.45 -19.25 -9.289 -21.218 -10.4 -2.063 -1.16 -3.026 -0.619 -9.555 -3.4A36.66 36.66 0 0 0 24.8 25.349c-0.55 -0.049 -4.354 0.55 -4.486 0.582a6.42 6.42 0 0 0 -4.552 4.324Zm6.34 0.21c16.37 -2.252 62.162 27.035 75.831 36.257 2.532 1.707 4.869 3.769 7.689 4.939 0.277 0.092 0.532 0.24 0.75 0.435 0.7 0.725 -1.2 -0.367 3.616 2.8 6.072 4 6.385 4.773 9.1 6.473a8.68 8.68 0 0 1 1.411 0.85c6.77 6.13 1.014 0.408 20.169 16.244 20.735 17.143 14.569 12.272 16.8 14.561 0.625 0.641 1.49 0.99 2.13 1.615 5.279 5.159 12.291 11.994 15.022 15.051 3.494 3.913 16.128 18.339 12.267 21.957 -0.654 0.614 -0.659 0.835 -1.724 0.773 -3.529 -0.207 -4.2 -0.23 -4.9 -0.339 -2.211 -0.347 -3.064 -1.339 -3.994 -1.433 -0.481 -0.049 -0.131 0.187 -1 -0.128 -3.741 -1.358 -2.99 -0.49 -3.074 -0.707 -1.171 0.043 -1.345 -0.184 -13.166 -5.458a6.455 6.455 0 0 1 -1.012 -0.336c-2.676 -1.822 -11.619 -5.388 -12.686 -6.425 -1.039 -1.009 -15.025 -8.413 -22.841 -13.835a30.92 30.92 0 0 0 -5.7 -3.56c-0.039 -0.271 -0.326 -0.421 -0.575 -0.535 -3.829 -1.741 -6.813 -4.936 -10.5 -6.959 -3.144 -1.725 -1.713 -0.8 -4.075 -2.635 -1.57 -1.223 -3.268 -2.068 -10.968 -7.741 -6.393 -4.71 -7.257 -6.308 -9.018 -6.818 -3.132 -3.359 -9.095 -6 -21.348 -17.378 -2.218 -2.058 0.136 1.564 -14.322 -12.806a12.43 12.43 0 0 0 -1.527 -1.306c-4.437 -3.113 -5.965 -5.921 -7.6 -7.606a41.728 41.728 0 0 1 -4.317 -4.449c-1.654 -1.941 -3.587 -3.74 -5.053 -5.827 -0.563 -0.8 -0.885 -1.751 -1.43 -2.567 -1.232 -1.845 -1.763 -1.294 -3.593 -5.359 -1.264 -2.813 -3.756 -7.281 -0.364 -7.748h0.001Z" stroke-width="1"></path><path id="Vector_2" fill="#141414" d="M189.591 140.571C165.567 100.648 31.401 7.046 16.362 27.854 0.477 49.833 147.323 157.8 184.213 157.8c7.863 0 12.403 -5.554 5.378 -17.229Zm1.172 13.326c-13.719 18.985 -146.63 -72.06 -171.04 -112.625 -6.46 -10.735 -2.614 -15.243 4.253 -15.243 37.094 0 181.25 107.862 166.787 127.871v-0.003Z" stroke-width="1"></path><path id="Vector_3" fill="#141414" d="M171.126 125.119C116.793 68.685 0.411 2.811 22.536 39.58c19.955 33.167 118.448 104.358 156.22 112.9 2.432 0.551 7.887 1.511 9.346 -0.509 3.516 -4.86 -12.829 -22.545 -16.976 -26.852Zm15.912 26.086c-0.971 1.339 -6.375 0.363 -7.992 0C141.634 142.739 43.424 71.747 23.661 38.9c-2.873 -4.775 -2.9 -7.051 -2.51 -7.588 0.082 -0.114 0.605 -0.682 2.837 -0.682 28.66 0 138.952 77.107 160.54 112.984 2.872 4.778 2.898 7.054 2.51 7.591Z" stroke-width="1"></path></g><g id="Group_2"><path id="Vector_4" fill="#615fff" d="M79.474 157.748c0.014 5.015 0.69 6.442 2.765 9.765 3.318 5.314 5.613 8.363 12.267 10.818 5.2 1.919 6.6 0.607 10.044 0.411 5.675 -0.324 7.8 0.662 16.332 0.322 9.928 -0.395 13.471 1.5 22.094 -4.635a11.164 11.164 0 0 0 3.259 -3.306c4.84 -7.159 4.668 -8.093 4.377 -40.92 -0.052 -5.842 -1.836 -13.49 -6.059 -17.952 -4.747 -5.016 -10.595 -10.182 -17.58 -10.865 -0.9 -0.088 -2.722 -0.737 -3.617 -0.819 -2.719 -0.251 -5.417 0.4 -8.143 0.239 -4.963 -0.286 -17.093 -0.619 -21.758 1.154 -6.034 2.293 -10.741 7.3 -12.439 12 -2.102 5.815 -1.639 6.691 -1.542 43.788Z" stroke-width="1"></path><path id="Vector_5" fill="#141414" d="M129.892 180.046h-29.3a21.789 21.789 0 0 1 -21.771 -21.766v-36.843a21.79 21.79 0 0 1 21.766 -21.766h20.445a30.663 30.663 0 0 1 30.626 30.629v27.98a21.796 21.796 0 0 1 -6.382 15.384 21.796 21.796 0 0 1 -15.384 6.382Zm-29.3 -78.413a19.826 19.826 0 0 0 -19.8 19.8v36.847a19.824 19.824 0 0 0 19.8 19.8h29.3a19.826 19.826 0 0 0 19.8 -19.8V130.3a28.697 28.697 0 0 0 -28.664 -28.664l-20.436 -0.003Z" stroke-width="1"></path></g><g id="Group_3"><path id="Vector_6" fill="#d6d5d4" d="M194.3 33.228a6.428 6.428 0 0 0 -4.4 -4.473c-0.161 -0.045 -3.915 -0.762 -4.464 -0.731a36.691 36.691 0 0 0 -11.2 2.418c-6.775 2.627 -7.473 1.946 -9.663 3.083 -2.094 1.088 -17.834 7.316 -21.553 9.685 -5.462 3.479 -5.63 2.459 -11 6.07 -1.218 0.818 -16.812 7.874 -52.512 32.943 -22.69 15.932 -18.048 13.756 -21.934 16.566 -3.025 2.188 -15.183 12.047 -17.259 14.2 -4.693 4.861 -7.553 6.968 -9.114 8.478 -1.419 1.373 -2.625 2.951 -4.01 4.357 -3.708 3.763 -2.237 1.584 -7.019 8.444a29.694 29.694 0 0 0 -4.542 6.48 14.918 14.918 0 0 0 -2.05 6.044 6.793 6.793 0 0 0 2.242 5.765 13.172 13.172 0 0 0 4.773 1.913 35.464 35.464 0 0 0 4.7 -0.174c1.44 0.1 1.745 -0.1 13.147 -3.369 0.49 -0.062 0.974 -0.157 1.451 -0.282 11.034 -4.894 11.947 -4.781 15.514 -6.707a52.171 52.171 0 0 1 6.206 -2.846c1.394 -0.533 31.885 -16.837 34.867 -19.33a42.208 42.208 0 0 1 5.7 -3.641c5.1 -3.028 9.755 -7.072 14.893 -10.037 12.26 -7.078 26.275 -19.264 36.67 -26.828 2.558 -1.861 9.486 -7.989 11.374 -9.679 1.92 -1.717 4.361 -2.916 5.9 -4.98 2.351 -3.154 8.164 -6.829 18.116 -19.448 0.493 -0.626 0.7 -1.422 1.154 -2.08 2.228 -3.252 5.013 -8.016 4.013 -11.841Zm-5.635 5.026c-1.581 3.221 -2.188 4.62 -3.146 5.775 -0.621 0.75 -1.385 1.378 -1.952 2.169 -0.567 0.791 -0.925 1.735 -1.515 2.518 -1.154 1.532 -7.215 7.761 -7.86 8.338a23.004 23.004 0 0 0 -4.023 4.058c-3.339 3.8 -5.3 4.365 -7.238 6.166 -13.873 12.9 -13.149 10.94 -14.74 12.322 -12.131 10.532 -18.953 13.685 -21.915 16.658a6.694 6.694 0 0 0 -2.408 1.406c-7.659 6.222 -14.815 10.126 -18.052 12.478 -2.317 1.683 -0.839 0.817 -4.161 2.5 -3.753 1.9 -6.842 4.993 -10.726 6.606 -0.253 0.105 -0.545 0.246 -0.593 0.515 -2.614 0.972 -3.985 2.359 -8.363 4.905 -17.635 10.255 -19.483 10.385 -20.74 11.532 -1.067 0.969 -10.159 4.267 -12.894 6 -0.5 0.317 2.653 -1.192 -11.917 4.735 -3.065 1.246 -1.6 -0.094 -5.542 1.188 -0.879 0.287 -0.553 0.064 -1 0.095 -0.92 0.062 -1.8 1.024 -4.04 1.3 -0.728 0.089 -1.389 0.086 -4.91 0.175 -1.035 0.026 -1.039 -0.169 -1.7 -0.829 -2.209 -2.214 1.711 -7.978 3.55 -10.5 7.178 -9.854 16.938 -18.246 24.957 -25.576 0.661 -0.6 1.537 -0.923 2.182 -1.543 2.625 -2.521 -4.928 3.15 17.274 -13.993 20.448 -15.789 13.53 -9.494 20.7 -15.564a8.64 8.64 0 0 1 1.438 -0.8c2.768 -1.608 3.108 -2.373 9.31 -6.166 4.669 -2.856 3.146 -2.135 3.708 -2.681 0.224 -0.188 0.483 -0.327 0.763 -0.41 2.5 -0.942 51.981 -33.69 77.624 -38.234 1.941 -0.344 7.154 -0.73 8.272 0.241 1.215 1.047 0.269 3.362 -0.345 4.616h0.002Z" stroke-width="1"></path><g id="Group_4"><path id="Vector_7" fill="#141414" d="M194 30.974C179.692 9.64 42.414 98.352 16.92 137.538c-7.575 11.641 -2.948 17.423 5.454 17.423 37.877 0 186.7 -101.501 171.626 -123.987Zm-3.831 13.292C164.352 83.947 28.325 170.275 15.28 150.815 1.625 130.456 147.38 28.872 185.814 28.872c7.386 0 11.346 4.649 4.355 15.394Z" stroke-width="1"></path><path id="Vector_8" fill="#141414" d="M35.915 122.744c-4.36 4.222 -21.245 21.269 -17.909 26.243 1.386 2.067 6.875 1.3 9.323 0.836 38.058 -7.216 138.978 -74.9 160.088 -107.347 2.743 -4.215 3.75 -7.475 2.766 -8.943 -7.796 -11.62 -103.883 40.428 -154.268 89.211Zm150.4 -80.985C165.412 73.893 64.78 141.385 27.085 148.533c-1.65 0.313 -7.059 1.111 -7.988 -0.278 -0.369 -0.549 -0.264 -2.824 2.775 -7.5C44.952 105.29 156.486 33.475 185.8 33.475c2.043 0 3.053 0.425 3.3 0.79 0.361 0.55 0.256 2.824 -2.783 7.494h-0.002Z" stroke-width="1"></path></g></g><g id="Group_5"><path id="Vector_9" fill="#d6d5d4" d="M138.557 94.685c0.977 -2.323 0.653 -1.287 1.348 -5.388 0.104 -0.427 0.17 -0.862 0.2 -1.3 0.034 -0.358 0.115 -0.709 0.242 -1.045 0.683 -2.625 0.227 -5.406 0.067 -8.019a33.22 33.22 0 0 0 -0.326 -4.4 30.11 30.11 0 0 0 -0.668 -3.587 3.204 3.204 0 0 1 -0.17 -0.332c-1.285 -3.711 -1.559 -3.5 -2.7 -6.314 -0.219 -0.542 0.019 -0.483 -0.462 -1.264 -1.7 -2.756 -5.99 -8.957 -9.706 -12.107 -4.391 -3.722 -2.148 -2.393 -13.148 -7.375a25.592 25.592 0 0 0 -7.459 -2.493c-2.184 -0.314 -3.055 -0.172 -3.738 -0.419 -3.474 -1.255 -12.269 -0.445 -12.408 -0.454 -0.515 -0.033 -16.183 2.82 -25.163 11.82 -3.735 3.743 -6.425 8.373 -8.913 13.013C53.582 68.7 54.2 67.341 53.5 70.8c-0.682 3.349 -1.5 6.53 -1.423 9.946 -0.073 3.56 0.206 7.12 0.834 10.625 1.261 5.492 6.5 14.665 7.093 15.043A20.935 20.935 0 0 1 63.127 110c1.024 1.262 2.982 2.748 3 2.923 0.047 0.432 -1.859 1.946 -2.019 2.35 -1.021 2.575 0.541 6.041 3.04 7.236 -4.11 9.491 -7.4 16.19 -7.858 23.2 -0.382 5.876 1.612 12.258 6.457 15.605 7.23 5 31.924 6.929 49.708 4.291 8.334 -1.237 13.432 -4.006 14.19 -18.059 1.564 -28.958 -5.186 -22.607 -1.464 -28.179a4.603 4.603 0 0 0 -0.038 -5.045c-0.355 -0.516 -0.847 -1.057 -0.727 -1.673 0.23 -1.178 5.453 -4.388 7.543 -9.013 0.451 -0.84 0.708 -1.77 0.752 -2.723 0.12 -0.502 0.227 0.001 2.846 -6.228Z" stroke-width="1"></path><path id="Vector_10" fill="#d6d5d4" d="M74.277 114.437c0.952 -1.042 0.117 -1.469 -0.452 -2.357 -0.762 -1.189 -0.207 -2.891 -0.984 -4.07a5.33 5.33 0 0 0 -2.2 -1.5c-6.32 -3.264 -5.009 -12.213 -0.057 -18.464 0.675 -0.852 0.58 -1.255 -0.085 -1.9 -3.367 -3.276 -6.905 -7.485 -5.2 -12.188 1.384 -3.82 6.2 -6 11.275 -3.956 1.342 -4.574 4.425 -4.715 4.514 -6.314a2.078 2.078 0 0 0 -0.508 -1.241 3.47 3.47 0 0 1 -0.6 -0.454c-6.053 -5.3 -1.06 -11.178 1.951 -9.125 -0.86 -2.418 2.953 -6.866 11.325 0.73 1.01 0.915 2.042 1.977 3.394 2.148 1.988 0.253 3.652 -1.547 4.471 -3.376 0.627 -1.4 1.905 -6.205 3.959 -6.229 2.3 -0.026 1.378 3.85 3.1 4.8 1.814 1 3.778 -2 5.78 -1.462 1.444 0.387 1.776 2.257 1.8 3.751 0.1 6.953 4.861 2.247 6.552 4 0.969 1.007 0.736 4.69 -1.856 6.778 -1.154 0.93 -0.935 0.783 1.448 5.29 5.98 -1.014 11.771 8.977 -0.221 16.912a44.803 44.803 0 0 1 -9.47 24.894c3.683 1.146 5.079 1.686 8.06 4.236 0.323 0.276 1.109 0.947 1.063 1.369 -0.087 0.811 -1.089 0.9 -1.813 1.272 -5.731 2.972 -6.559 3.7 -13.743 5.409 -3.271 0.779 -12.246 1.21 -15.547 0.571 -11.29 -2.183 -10.734 -3 -13.714 -4.019a9.59 9.59 0 0 1 -3.167 -1.658c-0.393 -0.327 -1.523 -0.716 -1.379 -1.29 0.144 -0.574 0.282 -0.342 2.304 -2.557Z" stroke-width="1"></path><path id="Vector_11" fill="#d6d5d4" d="M99.281 55.694c0.307 -2.7 3.388 -8.664 4.353 -9.452a1.983 1.983 0 0 1 2.276 -0.277c1.643 1.1 0.177 4.548 2.526 5.258 2.092 0.631 3.962 -3.234 6.353 -1.56 1.838 1.287 0.552 5.382 1.119 6.563 1.119 2.331 4.85 -0.826 6.732 0.972 1.316 1.258 0.388 3.08 -0.729 4.513 -4.64 5.958 -6.69 7.3 -13.811 3.211 -6.553 -3.759 -8.819 -3.676 -8.819 -9.228Z" stroke-width="1"></path><path id="Vector_12" fill="#141414" d="M87.4 87.767c-2.925 -0.4 -6.3 -0.284 -8.793 1.3 -0.963 0.611 -1.527 1.427 -1.084 2.479 0.8 1.908 4.185 1.414 5.12 3.913 0.678 1.816 -0.194 4.537 -0.51 4.477 -0.316 -0.06 0.236 -2.485 -0.559 -3.987 -0.647 -1.222 -2.432 -1.209 -3.924 -1.944a3.667 3.667 0 0 1 -1.875 -4.448c3.048 -7.718 25.928 -3.323 21.62 4.391 -0.8 1.822 -3.08 2.128 -4.82 2.258 -2.642 0.2 -2.926 0.585 -3.818 2.262 -1.317 2.476 -1.51 2.044 -0.748 -0.333 1.222 -3.806 3.33 -2.919 6.055 -3.72 3.547 -1.046 2.91 -5.352 -6.664 -6.648Z" stroke-width="1"></path><path id="Vector_13" fill="#141414" d="M109.31 82.332c2.219 0.288 2.83 0.53 2.893 -0.15 0.425 -4.543 0.608 -4.792 -0.021 -4.885 -48.043 -7.083 -44.582 -6.824 -44.6 -6.008 -0.149 5.457 -0.316 5.591 0.3 5.67 2.46 0.319 3.011 0.231 2.969 0.86 -0.229 3.5 -0.412 3.881 0.21 3.964 2.291 0.3 2.782 0.225 2.754 0.83 -0.14 3 -0.318 3.471 0.3 3.545 10.331 1.224 10.471 1.465 10.519 0.713 0.17 -2.628 0.045 -3.271 0.743 -3.178 1.844 0.246 2.43 0.464 2.491 -0.195 0.324 -3.488 0.212 -3.92 0.879 -3.833 1.718 0.223 2.237 0.16 2.208 0.753 -0.156 3.172 -0.351 3.708 0.269 3.8 1.923 0.277 2.567 0.209 2.515 0.839 -0.224 2.666 -0.395 3.029 0.212 3.118 10.28 1.5 10.4 1.748 10.458 0.986 0.191 -2.491 0.076 -3.037 0.763 -2.938 2.524 0.363 3.144 0.627 3.218 -0.064 0.356 -3.379 0.241 -3.915 0.92 -3.827Z" stroke-width="1"></path><path id="Vector_14" fill="#d6d5d4" d="M73.454 76.452c-0.246 2.754 -0.41 3.091 0.123 3.174 2.115 0.327 2.559 0.262 2.521 0.792 -0.21 2.864 -0.334 3.04 0.175 3.114 2.28 0.333 2.736 0.534 2.787 -0.056 0.246 -2.861 0.365 -3.039 -0.132 -3.122 -2.255 -0.374 -2.6 -0.311 -2.545 -0.833 0.26 -2.575 0.456 -3.043 -0.1 -3.123 -2.297 -0.33 -2.777 -0.53 -2.829 0.054Z" stroke-width="1"></path><path id="Vector_15" fill="#d6d5d4" d="M93.7 79.041c-0.246 2.754 -0.41 3.091 0.123 3.174 2.115 0.327 2.56 0.262 2.521 0.792 -0.21 2.864 -0.334 3.04 0.175 3.114 2.28 0.333 2.736 0.534 2.787 -0.056 0.246 -2.861 0.365 -3.039 -0.132 -3.122 -2.255 -0.374 -2.6 -0.311 -2.545 -0.833 0.26 -2.575 0.456 -3.043 -0.1 -3.123 -2.302 -0.33 -2.782 -0.53 -2.829 0.054Z" stroke-width="1"></path><path id="Vector_16" fill="#141414" d="M121.4 77.638c1.492 -1.977 2.12 -3.749 1.869 -3.9 -0.335 -0.214 -1.652 1.625 -3.342 3.648 -2.17 2.54 -3.571 3.041 -3.429 3.406 0.059 0.158 0.666 0.128 1.541 -0.268A7.833 7.833 0 0 0 120.1 79.1c0.652 -0.027 1.3 -0.116 1.935 -0.266 4.365 -0.934 1.686 -1.834 -0.635 -1.196Z" stroke-width="1"></path><path id="Vector_17" fill="#141414" d="M103.059 70c-2.814 -0.286 -5.827 2.4 -6.289 1.786 -0.3 -0.4 1.463 -2.3 3.331 -3.174a5.987 5.987 0 0 1 7.836 2.514c0.679 1.326 0.506 2.273 0.262 2.3 -0.538 0.11 -1.599 -3.067 -5.14 -3.426Z" stroke-width="1"></path><path id="Vector_18" fill="#141414" d="M85.83 68.393c-2.815 -0.286 -5.827 2.4 -6.29 1.786 -0.293 -0.389 1.39 -2.265 3.331 -3.174a5.985 5.985 0 0 1 7.836 2.515c0.68 1.326 0.506 2.272 0.263 2.3 -0.539 0.109 -1.6 -3.067 -5.14 -3.427Z" stroke-width="1"></path><path id="Vector_19" fill="#141414" d="M129.615 73.292a7.754 7.754 0 0 0 -6.63 -4.875c-1.254 -0.066 -0.277 0.387 -1.537 -1.867 -1.508 -2.709 -1.739 -0.176 1.767 -5.5 1.273 -1.934 0.838 -4.005 -0.307 -4.84 -0.9 -0.62 -1.668 -0.534 -2.915 -0.307 -5.766 1.095 -2.846 -1.039 -3.693 -5.093a2.557 2.557 0 0 0 -2.385 -2.2c-1.991 -0.122 -4.473 2.522 -5.625 1.894 -1.04 -0.84 0.02 -3.78 -2.089 -4.922a3.524 3.524 0 0 0 -4.28 1.171c-1.138 1.437 -3.225 6.984 -3.483 7.955 -3.232 0.346 0.36 1.062 -9.372 -5.064 -4.449 -2.63 -7.552 -1.043 -8.278 1.343 -0.37 1.223 0.174 1.1 -0.46 1.022 -5.063 -0.783 -7.509 7.273 -0.333 11.618 0.748 0.445 -0.309 -0.23 -2.464 2.86 -2.706 3.864 -0.95 4.2 -2.43 3.23 -7.312 -4.825 -17.572 6.18 -4.35 17.6 -7.04 5.664 -8.25 18.41 1.722 20.768a9.351 9.351 0 0 0 0.937 4c1.021 2.1 1.311 0.751 -0.583 2.479a8.554 8.554 0 0 0 -1.994 2.571l1.09 1a18.054 18.054 0 0 0 3.733 -3.141c5.427 4.777 16.53 4.155 22.538 -0.353 3.3 -2.462 6.286 -7.477 4.86 -11.364 -0.291 -0.86 -10.388 2.256 -21.745 2.873 -4.363 0.194 -10.286 0.627 -12.595 -3.015 -2.8 -4.248 -0.228 -11.037 3.388 -14.81 1.75 -1.846 3.18 -2.695 3.022 -3.014 -0.072 -0.185 -1.018 -0.058 -2.39 0.683 -2.922 -2.448 -5.685 -5.23 -6.187 -9.032 -0.537 -3.947 2.282 -7.535 6.291 -6.695 4.038 0.848 4.542 4.692 4.931 4.59 0.246 -0.035 0.042 -1.845 -0.83 -3.249 1.7 -2.442 1.693 -3.13 5.044 -6.98 1.92 0.777 3.107 0.9 1.4 -0.436 -1.647 -1.31 -3.952 -2.66 -5.107 -5.124a3.906 3.906 0 0 1 0.141 -4.175c1.587 -1.818 4.63 0.62 7.792 2.478 9.63 5.662 -0.847 -3.26 -3.853 -4.725a1.838 1.838 0 0 1 1.278 -2.046c1.418 -0.5 2.97 0.248 4.264 1.02 7.394 4.658 6.854 3.81 6.144 4.118 -1.224 0.52 -1.85 1.1 -1.74 1.338 0.163 0.363 1.363 0.017 5.806 -0.372a5.126 5.126 0 0 0 0.788 3.057c2.509 3.717 12.756 7.956 14.947 8.306 1.962 0.325 3.642 -0.595 5.149 -1.907 0.224 0.421 1.2 2.18 1.421 2.556 -4.5 1.264 -7.764 5.9 -7.318 6.214 0.432 0.383 5.059 -4.859 9.73 -4.4 5.372 0.5 7.811 7.691 -0.42 13.535 -2.215 1.53 -4.746 2.74 -4.6 3.1 0.15 0.374 2.757 -0.528 3.14 -0.672 -1.359 9.036 -3.391 17.107 -10.377 23.438 -0.646 0 -4.238 0 -4.2 0.767 0.026 0.58 2.7 0.814 5.746 1.536 1.202 0.373 2.359 0.876 3.452 1.5 6.477 3.417 4.75 3.934 6.384 2.128a18.374 18.374 0 0 0 -9.278 -5.672c7.191 -5.593 9.816 -15.2 9.91 -24.394 6.501 -3.136 8.367 -8.752 7.033 -12.504ZM101.7 104.233c0.275 2.808 -1.043 4.852 -2.916 6.948 -5.835 6.528 -23.17 7.306 -24.736 -2.819 5.59 0.692 19.898 -0.419 27.652 -4.129Zm12.486 -38.268c-2.322 -0.376 -11.8 -4.768 -13.511 -7.38 -1.123 -1.68 0.1 -4.479 0.911 -6.422 0.753 -1.857 1.449 -4.8 3.178 -5.007 1.9 -0.223 0.382 3.153 2.516 4.723 1.849 1.408 4.4 -1.1 5.984 -1.706 2.335 -0.93 1.526 2.714 1.41 4.477 -0.266 5.267 6.064 2.473 7.1 3.077 0.417 0.287 0.3 1.35 -0.078 2.024 -0.06 0.101 -4.224 6.708 -7.514 6.214h0.004Z" stroke-width="1"></path><path id="Vector_20" fill="#141414" d="M126.96 122.183c2.867 -2.988 4.047 -6.4 0.861 -9.009 29.336 -26.991 8.961 -74.258 -31.52 -74.258 -40.5 0 -60.935 47.4 -31.394 74.375a6.188 6.188 0 0 0 -1.626 5.261 8.8 8.8 0 0 0 3.1 4.53 49.966 49.966 0 0 0 -6.666 20.387c-1.41 13.52 4 19.326 14.883 21.791a121.646 121.646 0 0 0 31.864 2.374c6.984 -0.415 14.724 -0.925 19.73 -5.924 4.747 -4.682 4.731 -11.671 4.92 -17.973 0.217 -7.904 -0.405 -14.862 -4.152 -21.554ZM52.853 82.119c0 -22.754 19.491 -41.266 43.448 -41.266s43.448 18.512 43.448 41.266c0 22.754 -19.49 41.267 -43.448 41.267 -23.958 0 -43.448 -18.512 -43.448 -41.267Zm13.04 32.045a47 47 0 0 0 60.96 -0.124c3.98 3.365 -1.463 8.069 -5.679 10.513 -22.197 13.205 -65.163 -0.737 -55.28 -10.389Zm63.265 29.5c-0.257 5.817 -0.272 12.413 -4.494 16.5 -4.532 4.455 -12.049 4.832 -18.313 5.183a123.34 123.34 0 0 1 -31.262 -2.28c-4.9 -1.071 -8.974 -2.606 -11.494 -6.839 -4.687 -7.994 -0.643 -24.108 3.991 -32.2 12.773 9.3 44.083 11.847 58.286 -0.81 3.189 6.016 3.576 13.602 3.286 20.449v-0.003Z" stroke-width="1"></path></g><g id="Group_6"><g id="Group_7"><path id="Vector_21" fill="#d6d5d4" d="M90.45 132.547a18.746 18.746 0 0 0 4.11 4.64 19.56 19.56 0 0 0 11.118 3.1c4.9 -0.184 8.929 -2.621 9.967 -4.138 0.457 -0.669 0.483 -0.919 2.653 -7.587 0.716 -2.2 1.141 -4 -0.62 -6.534a14.427 14.427 0 0 0 -5.577 -4.5c-0.517 -0.174 -1.06 -0.27 -1.566 -0.475 -0.576 -0.234 -1.088 -0.6 -1.653 -0.864 -2.116 -0.978 -9.9 -1.2 -13.533 1.487 -3.649 2.711 -6.555 11.438 -4.899 14.871Z" stroke-width="1"></path><path id="Vector_22" fill="#141414" d="M105.026 140.4a19.78 19.78 0 0 1 -10.526 -3.133 18.844 18.844 0 0 1 -4.139 -4.677c-1.673 -3.465 1.231 -12.248 4.928 -14.988 3.68 -2.726 11.521 -2.474 13.634 -1.5 0.565 0.261 1.082 0.632 1.648 0.862 0.5 0.2 1.045 0.3 1.56 0.472a14.502 14.502 0 0 1 5.627 4.535c1.7 2.446 1.414 4.22 0.633 6.62 -2.2 6.77 -2.22 6.961 -2.666 7.612 -1.225 1.79 -5.694 4.197 -10.699 4.197Zm-14.487 -7.9a18.679 18.679 0 0 0 4.078 4.6 19.498 19.498 0 0 0 11.057 3.083c4.852 -0.183 8.869 -2.6 9.89 -4.1 0.454 -0.664 0.483 -0.933 2.641 -7.562 0.722 -2.22 1.122 -3.953 -0.608 -6.447a14.325 14.325 0 0 0 -5.528 -4.46c-0.514 -0.173 -1.057 -0.269 -1.571 -0.477 -0.588 -0.238 -1.093 -0.6 -1.657 -0.865 -2.1 -0.974 -9.827 -1.2 -13.434 1.476 -3.607 2.676 -6.502 11.361 -4.868 14.757v-0.005Z" stroke-width="1"></path></g><g id="Group_8"><path id="Vector_23" fill="#141414" d="M96.172 116.349c-2.555 1.415 -4.471 3.055 -6.118 9.794a11.598 11.598 0 0 0 -0.457 5.442c2.208 9.152 21.9 13.587 27.433 2.77a37.595 37.595 0 0 0 2.644 -8.286c0.606 -7.319 -14.149 -14.819 -23.502 -9.72Zm19.755 4.491c-0.225 0.662 -0.463 1.691 -0.776 2.479 -0.287 0.722 -0.761 1.549 -1.06 2.173a16.835 16.835 0 0 0 -4.622 -2.842c0.728 -1.963 0.012 -1.378 1.977 -4.869a15.702 15.702 0 0 1 4.481 3.059Zm-5.305 -3.412c-1.116 3.888 -1.077 2.738 -2.078 4.854a24.182 24.182 0 0 0 -5.779 -1.381c1.107 -3.587 0.076 -1.18 1.991 -4.859 2.011 0.181 3.987 0.647 5.866 1.386Zm-6.849 -1.448c-1.132 4.082 -1.353 3.167 -2.034 4.831a16.555 16.555 0 0 0 -4.873 0.352c0.482 -3.1 0.611 -2.38 1.394 -4.406a14.75 14.75 0 0 1 5.513 -0.777Zm-6.543 1.2c-0.46 3.034 -1.731 4.2 -1.388 4.291a9.346 9.346 0 0 0 -4.165 3.132c1.65 -5.082 3.076 -6.241 5.553 -7.42v-0.003Zm15.529 20.347c-8.27 5.506 -20.864 0.142 -22.119 -6.174a10.204 10.204 0 0 1 0.417 -4.556c1.814 -4.1 5.534 -5.367 9.591 -5.294 12.316 0.159 21.176 9.997 12.111 16.027v-0.003Zm4.283 -6.231a7.428 7.428 0 0 0 -2.2 -5.066c0.666 -2.4 0.176 -2.053 1.759 -4.682 2.772 3.158 2.014 5.04 0.441 9.752v-0.004Z" stroke-width="1"></path><path id="Vector_24" fill="#141414" d="M114.284 129.994c-2.443 -5.351 -11.3 -7.509 -17.978 -5.927 -7.47 1.79 -4.464 11.631 4.862 13.424 1.6 0.307 -0.4 -0.26 -1.526 -0.714 -7.544 -3.112 -8.156 -8.8 -5.4 -10.978 2.168 -1.715 9.747 -2.606 15.844 0.851 2.153 1.246 4.315 3.639 4 5.883a5.853 5.853 0 0 1 -3.99 4.465c-4.832 1.637 -8.162 0.274 -8.225 0.584a8.94 8.94 0 0 0 2.22 0.481c8.584 0.962 11.981 -4.343 10.193 -8.069Z" stroke-width="1"></path></g></g><g id="Group_9"><path id="Vector_25" fill="#d6d5d4" d="M75.209 123.963c-0.449 -2.838 0.237 -3.919 1.947 -5.653 4.095 -4.149 7.536 -6.992 13.516 -5.522a28.559 28.559 0 0 1 5.539 2.307 27.491 27.491 0 0 1 3.526 3.1c2.459 2.569 4.978 6.942 3.787 10.481a12.605 12.605 0 0 1 -2.929 4.312c-4.859 5.316 -9.048 7.45 -17.011 2.706 -1.979 -1.18 -2.479 -2.073 -3.942 -3.3a14.734 14.734 0 0 1 -4.433 -8.431Z" stroke-width="1"></path><g id="Group_10"><path id="Vector_26" fill="#141414" d="M103.789 123.612c-2.769 -7.481 -11.835 -13.658 -19.815 -11.011 -2.381 0.789 -4.807 3.308 -6.509 5.1 -1.724 1.787 -2.749 2.922 -2.767 5.306 -0.019 7.663 8.944 16.085 16.91 15.9 2.863 -0.086 5.26 -0.662 9.7 -5.773 2.573 -2.942 3.982 -5.363 2.481 -9.522Zm-23.624 -7.039a7.261 7.261 0 0 0 -0.358 5.386c-1.644 1.779 -1.072 1.706 -3.625 3.282 -0.995 -3.991 0.518 -5.283 3.983 -8.668Zm-3.713 9.588c0.491 -0.475 1.158 -1.262 1.784 -1.806 0.572 -0.5 1.355 -1.006 1.893 -1.414a16.466 16.466 0 0 0 2.744 4.539c-1.526 1.393 -0.606 1.175 -3.9 3.346a15.37 15.37 0 0 1 -2.521 -4.665Zm3.081 5.341c2.787 -2.96 1.985 -1.763 3.98 -3.288a23.675 23.675 0 0 0 4.4 3.787c-2.56 2.617 -0.589 0.986 -3.906 3.332a20.783 20.783 0 0 1 -4.474 -3.833v0.002Zm5.3 4.324c2.825 -3.052 2.587 -2.141 3.93 -3.286a16.235 16.235 0 0 0 4.392 1.875c-1.8 2.474 -1.593 1.794 -3.183 3.205a14.43 14.43 0 0 1 -5.135 -1.794h-0.004Zm6.225 1.884c1.676 -2.315 3.358 -2.9 3.127 -3.107a9.154 9.154 0 0 0 5.021 -0.857c-3.666 3.64 -5.436 4.054 -8.144 3.964h-0.004Zm12.072 -9.366a9.99 9.99 0 0 1 -2.4 3.773c-3.414 2.754 -7.213 2.187 -10.706 0.306 -10.637 -5.651 -13.919 -18.162 -3.35 -19.347 9.826 -1.102 18.157 9.356 16.46 15.268h-0.004Z" stroke-width="1"></path><path id="Vector_27" fill="#141414" d="M97.95 119.411a9.643 9.643 0 0 0 -1.7 -1.431c-0.146 0.167 3.1 2.412 4.317 6.771 1.01 3.739 -0.7 6.352 -3.05 6.812 -2.7 0.528 -7.483 -1.971 -9.688 -3.742 -4.38 -3.549 -7.574 -9.816 -2.92 -12.411 5.181 -2.9 13.112 4.071 10.853 2.085 -3.548 -3.131 -10.075 -5.109 -13 -1.04 -2.37 3.225 0.568 11.163 9.586 14.81 1.722 0.685 3.516 1.35 5.308 0.961 4.053 -0.826 5.857 -7.026 0.294 -12.815Z" stroke-width="1"></path><path id="Vector_28" fill="#141414" d="M97.926 128.237c-0.034 -0.144 -0.342 -1.245 -1.48 -5.337a0.138 0.138 0 0 0 -0.044 -0.086 0.137 0.137 0 0 0 -0.09 -0.037c-0.623 -0.127 -1.92 -0.4 -1.966 -0.405 0.13 0.406 -0.052 -0.222 0.938 3.322 0.07 0.248 0.215 0.112 -3.515 -0.613l0.547 1.982 5.61 1.174Z" stroke-width="1"></path><path id="Vector_29" fill="#141414" d="m89 119.891 3.455 0.725 -0.547 -1.98 -5.6 -1.173 1.507 5.422 2.042 0.424c-1.008 -3.679 -1.015 -3.453 -0.857 -3.418Z" stroke-width="1"></path><path id="Vector_30" fill="#141414" d="m93.418 124.056 -0.555 -1.988 -2.061 -0.433 0.553 1.99 2.063 0.431Z" stroke-width="1"></path><path id="Vector_31" fill="#141414" d="m95.993 121.342 -0.549 -1.959 -2.026 -0.428 0.547 1.964 2.028 0.423Z" stroke-width="1"></path><path id="Vector_32" fill="#141414" d="M88.737 126.235c0.04 0.145 -0.077 0.066 2 0.507 0.122 0.027 0.117 0.133 -0.45 -1.906 -0.028 -0.1 0.177 -0.021 -2.072 -0.491 0.017 0.075 0.305 1.101 0.522 1.89Z" stroke-width="1"></path></g></g><g id="Group_11"><path id="Vector_33" fill="#d6d5d4" d="M129.514 129.394c0.833 3.6 -1.892 8.351 -4.27 11.078 -3.319 3.806 -7.045 4.895 -11.329 5.539a6.128 6.128 0 0 1 -5.106 -0.989 12.965 12.965 0 0 1 -3.99 -2.989c-3.265 -4.134 -5.725 -6.349 -3.437 -11.439 5.216 -11.6 17.94 -13.254 23.118 -7.829 1.688 1.768 4.31 3.584 5.014 6.629Z" stroke-width="1"></path><g id="Group_12"><path id="Vector_34" fill="#141414" d="M129.52 127.348a37.395 37.395 0 0 0 -6.167 -6.134c-9.782 -6.965 -25.359 5.833 -23.064 15.107 0.742 3 5.846 7.934 8.292 9.4 3.1 1.939 9.867 1.8 16.134 -3.95 3.949 -3.631 7.364 -10.358 4.805 -14.423Zm-0.641 5.424c-2.641 -1.618 -2.067 -1.569 -3.72 -3.343a7.442 7.442 0 0 0 -0.384 -5.507c4.137 4.005 5.01 5.162 4.104 8.85Zm-27.559 3.271c-1.8 -6.175 6.84 -16.756 16.779 -15.676 3.468 0.376 5.387 1.966 6.367 4.413 1.911 5.675 -4.466 12.571 -9.724 15.389 -3.531 1.916 -7.421 2.55 -10.949 -0.272a10.221 10.221 0 0 1 -2.473 -3.854Zm4.034 5.513a9.877 9.877 0 0 0 5.1 0.89c0.847 0.966 1.57 0.841 3.246 3.135 -3.609 0.139 -5.451 -1.173 -8.346 -4.025Zm9.458 3.928c-1.6 -1.411 -1.43 -0.758 -3.268 -3.266a16.56 16.56 0 0 0 4.487 -1.936c1.342 1.137 1.183 0.283 4.032 3.35a14.765 14.765 0 0 1 -5.251 1.852Zm6.095 -2.36c-3.39 -2.379 -1.364 -0.716 -4.008 -3.394a24.216 24.216 0 0 0 4.491 -3.89c2.05 1.555 1.245 0.354 4.083 3.348a21.251 21.251 0 0 1 -4.566 3.936Zm5.134 -4.628c-3.387 -2.223 -2.319 -1.885 -4 -3.409a16.836 16.836 0 0 0 2.791 -4.653c0.553 0.415 1.354 0.93 1.942 1.439 0.641 0.554 1.327 1.357 1.831 1.842a15.724 15.724 0 0 1 -2.564 4.785v-0.004Z" stroke-width="1"></path><path id="Vector_35" fill="#141414" d="M104.584 138.733c3.083 3.222 9.7 -0.139 12.861 -2.694 4.784 -3.914 8.137 -10.987 2.766 -13.841 -5 -2.668 -12.01 2.9 -11.8 3.145 0.148 0.183 2.844 -2.548 7.567 -3.275a5.862 5.862 0 0 1 5.6 2.123c4.977 6.962 -14.872 21.371 -17.649 12.19 -2 -5.95 6.368 -12.585 3.9 -10.635 -3.901 3.089 -6.664 9.481 -3.245 12.987Z" stroke-width="1"></path><path id="Vector_36" fill="#141414" d="M116.972 124.859a6.143 6.143 0 0 1 -0.7 -0.61c-1.049 0.843 -3.058 3.005 -4.858 4.439 -6.681 5.325 -5.262 3.528 -4.64 4.714 -1.091 0.8 -1.353 2.252 0.253 0.749 0.136 -0.127 0.093 -0.132 0.169 -0.016 0.578 0.888 0.7 0.643 0.484 0.821 -1.259 1.05 -0.871 1.688 0.481 0.56 0.266 -0.222 0.132 -0.206 0.395 -0.065 2.652 1.472 5.543 -2.311 5.307 -4.77a3.18 3.18 0 0 0 3.234 -0.554 3.191 3.191 0 0 0 1.03 -3.115c0.907 -0.531 1.187 -1.406 1 -1.517 -0.187 -0.111 -0.615 0.274 -1.133 0.708 -0.226 0.191 0 0.192 -0.595 -0.745 1.494 -1.077 1.013 -1.799 -0.427 -0.599Zm-8.85 8.016a36.618 36.618 0 0 1 3.564 -3.581 3.723 3.723 0 0 1 1.111 1.869c0.325 2.676 -3.031 5.973 -4.675 1.712Zm9.235 -4.546a1.88 1.88 0 0 1 -0.529 1.144c-0.302 0.31 -0.701 0.506 -1.131 0.556 -1.307 0.142 -2.088 -1 -2.717 -1.708 1.11 -0.794 2.307 -1.57 3.218 -2.2a2.919 2.919 0 0 1 1.159 2.208Z" stroke-width="1"></path></g></g><g id="Group_13"><path id="Vector_37" fill="#d6d5d4" d="M131.675 144.483c0.622 0.872 1.966 5.188 2.229 5.6 0.386 1.247 0.53 2.556 0.424 3.857a11.891 11.891 0 0 1 -1.81 5.271c-1.652 2.861 -3.6 4.237 -7.315 6.374a14.955 14.955 0 0 1 -4.212 1.291c-2.541 0.728 -2.519 0.537 -5.911 0.29a7.417 7.417 0 0 1 -2.253 -0.789 6.33 6.33 0 0 1 -2.142 -1.932c-3.1 -3.8 -3.437 -8.939 -4.164 -10.217 -0.17 -0.3 0.21 -1.591 0.211 -2.073 0 -0.115 1.374 -2.543 1.51 -2.772 2.553 -4.313 4.329 -4.812 6.232 -6.26a6.845 6.845 0 0 1 3.711 -1.821c4.207 -0.99 4.917 -0.824 6.794 -0.689 0.023 0 0.9 0.039 0.923 0.051 2.432 1.337 3.026 0.536 4.614 2.432 0.038 0.052 1.124 1.338 1.159 1.387Z" stroke-width="1"></path><g id="Group_14"><path id="Vector_38" fill="#141414" d="M134.622 151.414a37.367 37.367 0 0 0 -2.958 -8.18c-4.569 -7.072 -23.947 -1.844 -25.423 9.63 -0.542 2.679 1.836 8.548 3.187 10.937 5.508 9.739 27.608 0.599 25.194 -12.387Zm-3.965 -7.519a46.357 46.357 0 0 1 2.111 5.088 7.434 7.434 0 0 0 -4.831 -2.673c-0.936 -2.3 -1.115 -1.743 -1.462 -4.784a6.289 6.289 0 0 1 4.182 2.374v-0.005Zm-5.152 -2.519c0.226 0.661 0.665 1.622 0.9 2.437 0.213 0.748 0.341 1.692 0.484 2.369a16.815 16.815 0 0 0 -5.395 0.566c-0.626 -2.014 -0.823 -1.073 -1.4 -5.064a15.733 15.733 0 0 1 5.411 -0.308Zm-6.285 0.531c1.512 3.824 0.76 2.573 1.314 5.114a24.207 24.207 0 0 0 -5.421 2.431c-1.312 -3.519 -0.662 -1 -1.387 -5.066a21.246 21.246 0 0 1 5.494 -2.479Zm-6.31 3.03c1.595 3.935 0.859 3.33 1.334 5.068a16.635 16.635 0 0 0 -3.647 3.251c-1.484 -2.7 -0.924 -2.1 -1.583 -4.341a14.761 14.761 0 0 1 3.896 -3.978Zm-4.452 4.944c1.486 2.683 1.192 4.386 1.517 4.247a9.354 9.354 0 0 0 -1.389 5.021c-1.765 -4.949 -1.399 -6.779 -0.128 -9.268Zm25.236 4.245c-0.835 7.683 -9.374 13.546 -17.609 12.685 -3.91 -0.429 -5.259 -2.383 -6.653 -5.544 -1.509 -6.176 3.6 -10.466 9.511 -12.892 10.034 -3.916 15.329 0.431 14.751 5.751Z" stroke-width="1"></path><path id="Vector_39" fill="#141414" d="M124.326 148.813c-7.739 1.056 -17.87 9.131 -12.074 14.27 4.238 3.875 12.388 0.55 12.217 0.184 -0.089 -0.208 -3.581 1.822 -8.146 1.052 -3.826 -0.677 -5.584 -3.38 -4.98 -5.786 1.269 -5.059 12.242 -11.306 18.128 -8.284 3.171 1.571 3.943 6.945 -3 11.751 -1.116 0.761 -2.782 1.656 -1.336 1.026 9.916 -4.302 9.721 -15.574 -0.809 -14.213Z" stroke-width="1"></path></g></g><g id="Group_15"><path id="Vector_40" fill="#d6d5d4" d="M81.057 138.567a4.962 4.962 0 0 1 -0.091 0.5 2.61 2.61 0 0 0 -0.171 0.434 17.96 17.96 0 0 0 0.5 4.127c0.324 1.505 -0.288 1.825 2.412 6.744a5.998 5.998 0 0 0 1.993 2.458c1.7 1.471 1.262 1.225 1.554 1.377 0.606 0.394 1.183 0.83 1.727 1.306 0.719 0.516 1.47 0.983 2.25 1.4 1.74 0.947 6.148 0.679 7.7 0.288a15.92 15.92 0 0 0 5.263 -2.887c1.715 -1.246 3.545 -2.658 4.064 -4.712 0.338 -1.095 0.501 -2.238 0.482 -3.384 -0.807 -6.551 -5.967 -12.872 -9.9 -14.413 -5.343 -2.093 -7.351 -1.712 -11.6 0.651 -2.527 1.408 -5.425 3.211 -6.183 6.111Z" stroke-width="1"></path><g id="Group_16"><path id="Vector_41" fill="#141414" d="M109.163 145.737c-0.995 -7.954 -8.478 -16.374 -17.167 -15.59 -2.56 0.231 -5.57 2.179 -7.673 3.562 -2.142 1.384 -3.42 2.273 -3.994 4.641 -1.81 7.643 5.17 18.11 13.132 19.781 2.863 0.58 5.382 0.577 11.009 -3.485 3.251 -2.337 5.217 -4.417 4.693 -8.909ZM84.979 134.7c3.13 -2.095 2.287 -1.542 1.868 -0.924a7.758 7.758 0 0 0 -1.185 4.725c-2.044 1.382 -1.47 1.452 -4.375 2.422 -0.054 -3.778 1.368 -4.707 3.692 -6.223Zm-3.638 7.2c0.6 -0.358 1.448 -0.987 2.2 -1.383 0.687 -0.364 1.584 -0.686 2.216 -0.966a16.83 16.83 0 0 0 1.673 5.16c-1.848 1.034 -0.877 1.03 -4.662 2.424a15.743 15.743 0 0 1 -1.427 -5.235Zm1.822 6.038c3.376 -2.236 2.6 -1.384 4.73 -2.346a24.16 24.16 0 0 0 3.5 4.8c-3.192 2.027 -0.882 0.872 -4.667 2.406a21.32 21.32 0 0 1 -3.563 -4.862v0.002Zm4.274 5.545c3.533 -2.388 3.067 -1.523 4.68 -2.357a16.62 16.62 0 0 0 3.938 2.893c-2.334 2.011 -1.855 1.335 -3.918 2.449a14.752 14.752 0 0 1 -4.7 -2.987v0.002Zm5.763 3.327c2.1 -1.82 4.009 -2.127 3.839 -2.365a9.353 9.353 0 0 0 5.2 0.317c-4.513 2.774 -6.373 2.768 -9.04 2.048Zm14.208 -6.512a10.208 10.208 0 0 1 -3.273 3.2c-4.042 1.946 -7.693 0.5 -10.733 -2.193 -9.276 -8.112 -9.633 -21.338 1.177 -20.051 10.044 1.194 15.897 13.551 12.827 19.046l0.002 -0.002Z" stroke-width="1"></path><path id="Vector_42" fill="#141414" d="M104.327 140.19a8.91 8.91 0 0 0 -1.357 -1.82c-0.193 0.139 2.523 3.109 2.72 7.751 0.133 3.967 -2.187 6.162 -4.628 6.072 -2.813 -0.1 -7 -3.711 -8.775 -5.986 -3.543 -4.566 -5.251 -11.547 -0.013 -13.044 5.78 -1.661 12.073 7.061 10.323 4.609 -6.256 -8.783 -17.256 -6.3 -13.737 3.736 2.51 7 9.2 11.329 12.184 11.378 4.227 0.122 7.475 -5.629 3.283 -12.696Z" stroke-width="1"></path><path id="Vector_43" fill="#141414" d="M97.52 143.384c0.936 -0.259 1.27 -1.146 1.57 -1.717 0.99 -1.867 0.754 -2.009 0.587 -2.333 -4.54 -2.779 -4.775 -3.059 -7.951 -4.306a40.234 40.234 0 0 0 2.2 7.113c0.5 1.2 0.352 1.013 0.62 1.1a5.813 5.813 0 0 0 2.974 0.143ZM93 136.488a45.108 45.108 0 0 1 5.939 3.412 8.51 8.51 0 0 1 -0.618 1.358c-0.414 0.783 -0.635 1.916 -3.314 1.206A32.023 32.023 0 0 1 93 136.488Z" stroke-width="1"></path><path id="Vector_44" fill="#141414" d="M98.81 147.817a7.524 7.524 0 0 0 3.863 2.165c1 -1.1 -0.893 -7.891 -1.909 -9.728 -2.692 5.842 -1.246 3.586 -5.907 4.088 2.075 1.749 0.775 0.79 3.953 3.475Zm0.608 -3.062c1.7 -1.6 1.072 -3.585 1.669 -1.286a36.894 36.894 0 0 1 1.04 5.513 9.165 9.165 0 0 1 -2.831 -1.9c-4.062 -3.492 -1.454 -0.843 0.122 -2.327Z" stroke-width="1"></path></g></g><g id="Group_17"><path id="Vector_45" fill="#d6d5d4" d="M82.488 133.091c2.066 2.722 2.935 5.13 0.134 10.962 -2.837 5.91 -9.224 10.79 -16.211 10.226a6.552 6.552 0 0 1 -2.579 -0.631 8.608 8.608 0 0 1 -2.379 -1.817c-2.47 -2.993 -12.244 -7.9 -2.334 -19.949 3.848 -4.679 8.393 -6.394 14.541 -6.2 0.837 0.045 1.65 0.291 2.373 0.717a57.621 57.621 0 0 1 6.455 6.692Z" stroke-width="1"></path><g id="Group_18"><path id="Vector_46" fill="#141414" d="M84.419 134.33c-0.691 -1.444 -4.53 -5.477 -6.11 -6.766 -10.262 -8.266 -25.82 6.256 -23.8 15.743 0.987 4.009 7.025 10.175 9.608 11.062 11.383 3.953 24.13 -12.025 20.302 -20.039Zm-0.905 5.464c-2.676 -1.767 -2.058 -1.7 -3.732 -3.611a8.665 8.665 0 0 0 -0.386 -5.97c4.265 4.431 5.019 5.643 4.118 9.581ZM72.9 126.36a7.03 7.03 0 0 1 6.15 4.746c2.809 9.329 -15.03 26.329 -22.487 14.268 -4.517 -7.309 5.903 -20.606 16.337 -19.014Zm-13.173 22.952a9.052 9.052 0 0 0 5.145 0.953c0.869 1.063 1.6 0.911 3.319 3.45 -3.703 0.169 -5.653 -1.415 -8.464 -4.403Zm9.6 4.294c-1.732 -1.63 -1.446 -0.823 -3.327 -3.576a16.062 16.062 0 0 0 4.536 -2.093c1.45 1.287 1.194 0.326 4.089 3.648a14.053 14.053 0 0 1 -5.302 2.021h0.004Zm6.149 -2.571c-0.575 -0.43 -1.527 -1.018 -2.188 -1.618 -0.684 -0.621 -1.387 -1.555 -1.873 -2.078a25.114 25.114 0 0 0 4.554 -4.213c2.063 1.649 1.312 0.459 4.119 3.63a21.909 21.909 0 0 1 -4.616 4.279h0.004Zm5.183 -5.027c-3.562 -2.5 -2.235 -1.98 -4.035 -3.7a18.73 18.73 0 0 0 2.832 -5.045c0.56 0.447 1.356 1 1.937 1.54 0.653 0.606 1.345 1.476 1.854 2a17.511 17.511 0 0 1 -2.592 5.205h0.004Z" stroke-width="1"></path><path id="Vector_47" fill="#141414" d="M58.713 145.982c2.987 3.861 9.715 0.419 13.25 -2.64 4.805 -4.205 8.122 -11.59 3.085 -14.832 -5.117 -3.275 -12.451 2.974 -12.22 3.232 0.138 0.161 3.038 -2.867 7.821 -3.585 2.875 -0.387 6.174 1.316 6.155 4.923 0.085 7.249 -10.677 15.122 -15.57 13.766 -2.224 -0.616 -3.983 -3.441 -2.9 -7.621 1.279 -4.823 4.569 -7.225 4.4 -7.4 -0.094 -0.1 -1.445 1.25 -1.758 1.6 -3.085 3.458 -5.041 9.081 -2.263 12.557Z" stroke-width="1"></path><path id="Vector_48" fill="#141414" d="M64.674 138.89c0.076 -0.078 0.189 0.094 -1.534 -1.6 -0.022 -0.021 -0.038 -0.013 -0.076 0.026 -2.456 2.514 -1.864 1.6 -2.495 3.591a41.247 41.247 0 0 0 3.232 3.159c2.05 -0.7 0.693 0.316 5.6 -4.679 0.073 -0.074 0.019 0.032 0.524 -1.565 0.063 -0.2 -2.2 -2.044 -2.057 -2.194l1.964 -2c0.077 -0.079 -0.044 -0.136 1.1 0.976 0.019 0.019 0.013 0.033 -0.022 0.069l-0.937 0.955c-0.08 0.081 -0.19 -0.09 1.53 1.6 0.023 0.023 0.04 0.013 0.08 -0.028 2.45 -2.508 1.865 -1.608 2.486 -3.565a25.835 25.835 0 0 0 -3.291 -3.16c-1.58 0.535 -1.484 0.482 -1.558 0.557 -4.867 4.952 -3.868 3.588 -4.521 5.654 -0.064 0.2 2.222 2.019 2.055 2.188l-1.963 2c-0.035 0.036 -0.051 0.045 -0.072 0.025 -1.1 -1.089 -1.057 -0.98 -0.981 -1.056 0.312 -0.316 0.623 -0.635 0.936 -0.953Z" stroke-width="1"></path></g></g><g id="Group_19"><path id="Vector_49" fill="#d6d5d4" d="M146.867 149.538c0.209 -0.978 0.128 -1.032 -0.962 -10.716 -0.722 -6.415 -2.323 -5.8 -3.388 -9.238 -0.442 -1.432 -0.4 -3.025 -1.129 -4.333 -1.054 -1.884 -3.4 -2.641 -4.791 -4.292 -1.512 -1.793 -1.9 -4.615 -4.006 -5.651a5.024 5.024 0 0 0 -4.707 0.624c-6.972 4.27 0.688 9.488 -0.175 13.9a11.531 11.531 0 0 0 -0.605 2.619c0.068 1.53 1.579 2.7 1.673 4.228 0.092 1.508 -1.192 2.7 -1.781 4.1 -0.829 1.954 -0.257 4.266 -0.992 6.256 -1.095 2.965 -4.776 4.467 -5.6 7.518 -2.3 0.29 -3.13 -3.27 -7.512 0.9 -0.08 0.072 -0.152 0.151 -0.216 0.238 -4.589 -2.763 -11.038 -2.324 -14.916 -8.563a7.367 7.367 0 0 0 -1.457 -2.194 5.185 5.185 0 0 0 -0.592 -0.345c-0.283 -0.246 -0.506 -0.177 -0.681 -0.259 -1.217 -0.567 -1.724 -1.051 -4.355 1.129 -0.494 0.409 -0.564 1.561 -1.364 2.525 -0.833 1 -1.283 -2.509 -4.544 -1.272a10.675 10.675 0 0 0 -2.807 1.9 31.497 31.497 0 0 1 -10.18 5.415c-3.041 -3.716 -5.961 -1.437 -7.428 -1.489 -2.866 -0.1 -3.958 -4.622 -3.481 -7.864 0.382 -2.6 -0.958 -5.168 -0.263 -7.742 0.3 -1.11 0.932 -2.1 1.266 -3.2 0.495 -1.629 0.32 -3.445 1.061 -4.978 0.399 -0.704 0.848 -1.377 1.346 -2.015 1.718 -2.517 2.539 -6.466 0.72 -8.865a4.454 4.454 0 0 0 -5.226 -1.2 44.346 44.346 0 0 0 -8.527 6.606c-2.431 2.411 -1.3 3.339 -2.269 5.229 -0.982 1.91 -3.689 2.386 -4.721 4.269 -0.66 1.205 -0.466 2.675 -0.664 4.034 -0.536 3.662 -3.976 6.733 -3.448 10.4 0.289 2.01 1.756 3.695 2.082 5.7 0.342 2.108 -0.621 4.313 -0.055 6.373 0.717 2.6 3.571 4.021 4.836 6.407 0.843 1.59 1.022 3.657 2.481 4.709 1.536 1.108 3.756 0.53 5.458 1.359 2.008 0.979 3.67 4.936 7.673 6.537a6.26 6.26 0 0 0 6.38 -0.775c4.233 4.215 5.816 4.134 10.894 3.862 6.405 -0.343 7.486 1.425 10.464 1.862 2.521 0.37 5.013 -0.659 7.537 -1.006 8.089 -1.113 15.075 4.011 20.454 -8.227a25.39 25.39 0 0 1 -1.8 3.551c-0.1 0.762 1.188 1.206 1.751 1.244a18.182 18.182 0 0 0 2.528 -0.277c1.995 -0.147 2.347 0.263 3.939 -1.567 3.735 -4.294 3.668 -4.275 4.039 -4.488 1.452 -0.833 3.457 1.214 5.9 -3.251 0.786 -1.441 1.42 -3.056 2.728 -4.047 1.729 -1.311 4.436 -1.371 5.511 -3.256 1.087 -1.905 -0.276 -4.353 0.27 -6.476 0.573 -2.279 3.164 -3.623 3.651 -5.908Zm-27.531 19.678c-0.135 -2.826 -1.992 -9.411 -4.915 -12.21 3.35 1.771 5.158 8.01 4.915 12.21Z" stroke-width="1"></path><path id="Vector_50" fill="#141414" d="M134.742 128.025c-2.929 0.48 -5.159 1.581 -5.42 1.186 -0.12 -0.181 0.307 -0.724 1.211 -1.324 4.249 -2.819 9.929 -1.238 9.724 -0.468 -0.122 0.458 -2.586 0.127 -5.515 0.606Z" stroke-width="1"></path><path id="Vector_51" fill="#141414" d="M137.133 138.144c-3.909 -0.743 -7.119 0.2 -7.288 -0.252 -0.073 -0.195 0.652 -0.726 2.028 -1.142 6.509 -1.973 12.8 3.1 12.132 3.833 -0.321 0.357 -2.963 -1.696 -6.872 -2.439Z" stroke-width="1"></path><path id="Vector_52" fill="#141414" d="M135.377 149.317c-4.419 -1.571 -8.73 -1.036 -8.8 -1.592 -0.061 -0.5 4.814 -1.578 9.354 0.047 5 1.79 7.142 6.244 6.648 6.521 -0.54 0.307 -2.197 -3.193 -7.202 -4.976Z" stroke-width="1"></path><path id="Vector_53" fill="#141414" d="M130.353 157.556c-3.516 -3.61 -7.634 -4.794 -7.489 -5.267 0.046 -0.2 1.157 -0.182 2.842 0.387 8.527 2.878 10.583 12.352 9.631 12.519 -0.56 0.098 -1.081 -3.631 -4.984 -7.639Z" stroke-width="1"></path><path id="Vector_54" fill="#141414" d="M146.94 144.158c-0.888 -3.178 -0.693 -3.182 -0.182 -5.64 0.922 -5.062 -1.941 -5.583 -3.343 -8.314 -0.588 -1.159 -0.333 -2.408 -0.477 -3.948 -0.324 -4.087 -3.852 -4.278 -4.878 -6.276a10.891 10.891 0 0 0 -1.606 -3.154 6.78 6.78 0 0 0 -11.217 0.996 6.78 6.78 0 0 0 -0.763 4.283c0.326 2.5 2.128 3.926 2.535 5.539 0.475 1.431 -0.973 3.471 -0.282 5.684 0.376 1.278 1.122 2.382 1.175 3.26 0.06 1 -0.854 1.595 -1.29 2.781 -0.776 1.72 -0.615 3.841 -0.7 5.352 -0.224 5.14 -4.189 3.5 -5.819 8.483 -3.15 -1.544 -5.893 -1.035 -7.784 0.964 -2.767 -1.709 -6.19 -2.379 -9.08 -3.815 -2.431 -1.208 -3.821 -4.682 -6.513 -6.424 -3.169 -2.035 -6.5 -0.3 -7.689 2.988a4.31 4.31 0 0 0 -2.8 -1.454c-3.621 -0.29 -4.7 3.193 -8.819 5.351 -1.8 0.906 -3.783 1.573 -5.6 2.482a7.625 7.625 0 0 0 -8.033 -1.482c-0.481 -0.553 -1.008 -1.016 -1.4 -1.488 -2.066 -2.612 -0.3 -4.664 -0.375 -8.195a9.659 9.659 0 0 0 -0.851 -3.38c-0.485 -1.862 2.309 -2.957 2.356 -6.066 0.075 -3.4 -0.532 -2.709 2.37 -5.9a6.657 6.657 0 0 0 1.849 -4.078c0.543 -7.107 -7.756 -9.7 -11.827 -5.138 -2.01 2.246 -0.08 1.778 -4.4 3.757 -4.187 1.966 -2.562 5.385 -4.513 7.521 -1.28 1.4 -3.952 2.52 -4.5 5.191 -0.4 1.943 -0.007 2.815 -0.2 4.266 -0.233 1.725 -1.366 3.165 -2.262 5.353 -2.4 5.955 2.346 7.71 1.756 11.3 -0.213 1.553 -1.555 3.851 -0.443 5.911 1.039 1.915 4.617 3.256 5.883 5.935 0.887 1.8 0.45 4.189 3.667 5.324 1.637 0.533 3.371 0.701 5.08 0.492 2.5 5.941 8.444 8.335 13.213 6.493 4.745 3.672 10.142 4.255 16 3.687 2.828 1.98 5.583 1.322 9.063 0.739 6.339 -1.232 16.6 2.72 22.771 -4.944 4.408 3.327 10.34 0.38 11.835 -5.447a5.103 5.103 0 0 0 5.914 -2.648c1.41 -3.047 0.279 -3.239 6.322 -6.19 3.817 -1.864 2.339 -4.867 2.476 -7.2 0.114 -2.6 3.413 -4.446 4.028 -7.442a12.13 12.13 0 0 0 -0.647 -5.509Zm-91.495 26.986c-1.719 0.076 -4.874 -0.188 -5.637 -2.069 -1.053 -2.488 0.268 -3.437 -5.813 -8.144 -2.05 -1.661 -0.667 -2.852 -0.166 -5.644 0.678 -3.7 -2.77 -6.223 -2.277 -9.112 0.592 -3.5 3.111 -4.331 3.03 -9.817a3.947 3.947 0 0 1 0.853 -3.152c1.226 -1.369 3.77 -2.395 4.578 -5.075 0.479 -1.476 0.5 -2.878 1.185 -3.791 0.651 -0.861 1.961 -1.153 3.305 -1.875 2.01 -1.017 2.361 -2.586 3.1 -3.384a4.897 4.897 0 0 1 4.6 -1.413 4.646 4.646 0 0 1 2.077 7.712c-1.588 1.879 -2.873 2.725 -2.847 5.46 0.017 1.388 0.208 2.178 -0.23 3.1a32.012 32.012 0 0 0 -1.8 3.078c-0.644 1.7 0.265 2.968 0.548 3.83 0.758 2.4 -0.568 4.778 -0.18 7.55a6.944 6.944 0 0 0 2.56 4.087c-4.865 2.837 -8.972 11.508 -6.886 18.659Zm3.93 -12.219c4.612 -8.732 11.269 -4.991 10.962 -4.8 -6.629 4.132 -9.6 16.688 -2.573 23.737 -7.414 1.188 -14.236 -7.802 -8.389 -18.937Zm24.47 18.464a3.207 3.207 0 0 0 -0.494 3.246c-10.112 0.578 -16.112 -4.353 -18.015 -11.24 -0.709 -2.836 -1.688 -6.321 3.618 -11.613 3.473 -3.387 8 -3.423 11.777 -6.319 1.518 -1.094 2.489 -2.5 3.652 -3.222 3.171 -1.986 5.03 2.653 3.833 6.458 -2.037 0.809 -3.04 1.487 -4.909 2.092 -1.466 0.479 -2.463 0.659 -2.464 0.944 -0.009 0.255 1.025 0.581 2.744 0.42 2 -0.174 3.746 -1.085 6.123 -1.912a7.863 7.863 0 0 1 5.992 -0.119c5.319 1.372 5.906 1.346 6.247 2.351 0.139 0.542 0.135 0.991 -0.866 1.654 -3.413 2.142 -5.958 0.271 -10.349 0.523 -3.033 0.213 -11.085 3.059 -12.266 5.844 -0.756 1.689 0.581 3.933 3.354 4.559 -1.8 0.983 -2.88 1.747 -2.758 2.03 0.215 0.5 3.635 -0.445 11.715 -3.923a16.006 16.006 0 0 1 11.263 -0.276c1.939 0.753 1.7 3.5 -1.222 4.308 -4.33 1.186 -5.834 -2.083 -14.862 2.617a6.368 6.368 0 0 0 -2.113 1.578Zm40.814 -0.99a5.28 5.28 0 0 1 -3.203 1.684 5.286 5.286 0 0 1 -3.535 -0.777 13.127 13.127 0 0 0 1.923 -8.377c-0.542 -3.749 -0.909 0.97 -1.722 3.444 -4.369 12.746 -16.7 7.442 -24.265 8.9 -2.859 0.491 -5.552 1.072 -7.448 -0.417 -2.338 -1.836 -0.162 -2.688 2.507 -3.881 4.77 -2.319 6.7 -1.606 11.37 -1.548 4.437 0.114 7.29 -0.183 2.966 -1.106 2.352 -1.4 2.8 -4.846 0.911 -6.539a8.48 8.48 0 0 0 -3.924 -1.5c-5.877 -1.18 -9.717 0.55 -15.513 3.3 -1.739 0.058 -4.048 -0.481 -4.459 -1.872 -0.466 -1.426 4.956 -3.515 6.354 -4.047 3.857 -1.464 5.146 -1.117 8.712 -0.715 7.227 0.864 13.223 0.523 6.452 -0.954 1.9 -1.049 2.779 -2.622 1.714 -4.846a4.377 4.377 0 0 0 -2.969 -1.807c-5.633 -1.523 -6.608 -1.886 -8.528 -1.679 -2.3 -4.484 -0.651 -7.735 1.425 -8.261 2.56 -0.729 4.741 3.861 7.236 6 4.086 3.5 11.046 2.159 15.786 9.519 1.9 2.968 3.548 9.892 3.046 4.438a15.382 15.382 0 0 0 -5.886 -10.3c3.61 -2.792 8.589 1.411 10.77 5.01 2.821 4.654 4.021 12.766 0.28 16.332v-0.001Zm17.386 -21.59a7.114 7.114 0 0 0 -0.413 4.213c0.374 3.118 -0.407 3 -2.97 4.336 -6.206 3.16 -4.3 5.718 -6.12 7.418a3.773 3.773 0 0 1 -3.41 0.875c0.859 -5.9 -1.579 -13.67 -7.7 -17.679 1.141 -3.677 3.6 -2.978 5.263 -5.646 1.387 -2.087 0.913 -4.609 1.266 -6.764a5.728 5.728 0 0 1 1.266 -2.811c1.981 -2.961 -1.018 -4.856 -0.558 -7.4 0.2 -1.141 0.841 -2.613 0.4 -4.245 -0.769 -2.822 -3.027 -3.862 -2.331 -6.935a4.543 4.543 0 0 1 8.81 -0.308c1.319 3.616 3.463 3.441 4.61 5.072 1.033 1.3 0 4 1.219 6.3 1.036 2 3.152 3.413 3.333 5.059 0.295 2.692 -1.557 2.663 0.109 8.463 1.944 6.601 -0.776 5.714 -2.774 10.052Z" stroke-width="1"></path><path id="Vector_55" fill="#141414" d="M56.687 126.762c2.93 1.105 4.854 3.313 4.56 3.612 -0.269 0.273 -2.207 -1.321 -5.023 -2.383s-5.325 -1.143 -5.346 -1.526c-0.024 -0.421 2.853 -0.817 5.81 0.297Z" stroke-width="1"></path><path id="Vector_56" fill="#141414" d="M51.845 136.118c4.383 0.045 7.388 2.343 7.18 2.664 -0.192 0.341 -3.16 -1.31 -7.193 -1.351 -4.033 -0.041 -7.035 1.547 -7.22 1.2 -0.2 -0.322 2.813 -2.559 7.233 -2.513Z" stroke-width="1"></path><path id="Vector_57" fill="#141414" d="M51.136 147.433c4.638 -0.681 9.287 1.241 9.156 1.632 -0.148 0.445 -4.291 -1.007 -8.963 -0.333 -5.355 0.773 -7.607 3.977 -8.018 3.624 -0.302 -0.256 2.428 -4.13 7.825 -4.923Z" stroke-width="1"></path><path id="Vector_58" fill="#141414" d="M53.739 157.159c-4.19 3.675 -5.278 7.457 -5.726 7.312 -0.343 -0.112 0.668 -4.623 4.86 -8.3 4.082 -3.581 8.789 -4.125 8.861 -3.736 0.089 0.478 -3.783 1.029 -7.995 4.724Z" stroke-width="1"></path></g><g id="Group_20"><path id="Vector_59" fill="#d6d5d4" d="M173.994 139.306c0.292 0.994 1.244 1.8 1.162 2.838 -0.082 1.038 -1.185 1.766 -1.266 2.8 -0.095 1.225 1.269 2.144 1.341 3.37 0.069 1.175 -1.069 2.15 -1.053 3.327 0.014 0.986 0.841 1.836 0.8 2.821 -0.045 1.145 -1.249 2.085 -1.048 3.213 0.175 0.487 0.383 0.962 0.622 1.422 0.416 1.289 -0.683 2.62 -0.559 3.968 0.093 1.023 0.885 1.948 0.729 2.963 -0.165 1.078 -1.37 1.966 -1.06 3.011 0.149 0.336 0.331 0.655 0.545 0.954 0.922 1.707 -0.9 3.715 -0.678 5.642 0.219 1.865 1.592 2.175 1.1 4.785a2.451 2.451 0 0 1 -1.981 1.129c-0.1 0 -42.446 4.2 -44.928 -1.613 -0.148 -0.347 1.125 -2.276 1.161 -2.652 0.568 -5.971 2.853 -4.571 3.885 -6.545 0.265 -0.744 0.348 -1.54 0.243 -2.322 0 -2.442 1.575 -2.076 2.247 -2.334 1.755 -0.674 0.693 -3.7 2.061 -4.989 0.677 -0.639 1.8 -0.672 2.392 -1.393 0.985 -1.2 -0.26 -3.277 0.729 -4.477 0.635 -0.77 1.885 -0.749 2.566 -1.479 0.975 -1.044 0.22 -2.908 1.05 -4.071 0.766 -1.073 2.6 -1.137 3.063 -2.372 0.276 -0.737 -0.092 -1.573 0.08 -2.341 0.317 -1.415 2.178 -1.85 2.979 -3.06 0.684 -1.033 0.5 -2.493 1.273 -3.461 0.6 -0.752 1.664 -1.041 2.207 -1.835 0.754 -1.1 0.23 -2.737 1.006 -3.824 0.537 -0.752 1.55 -1.019 2.161 -1.713 1.249 -1.42 0.692 -4.727 5.468 -2.289 3.875 1.977 6.6 1.848 8.944 2.076 2.431 0.237 4.242 1.209 3.859 3.622 -0.254 1.597 -1.594 3.152 -1.1 4.829Z" stroke-width="1"></path><path id="Vector_60" fill="#d6d5d4" d="M147.812 155.767c1.073 -2.593 1.382 -2.494 3.078 -4.13 1.383 -1.334 1.731 -2.166 4.765 -3.277 4.019 -1.472 7.068 -1.3 10.122 1.895 1.865 1.954 3.649 3.922 3.922 5.78a9.702 9.702 0 0 1 -0.8 4.231c-0.56 2.747 -4.993 7.908 -10.734 9.312 -3.629 0.887 -5.131 -0.124 -7.333 -2.412 -4.853 -5.041 -4.765 -7.178 -3.02 -11.399Z" stroke-width="1"></path><path id="Vector_61" fill="#d6d5d4" d="M158.652 136.71c0.243 -0.578 0.728 -0.876 1.945 -1.756 1.277 -0.924 2.185 -1.334 3.793 -0.494 0.446 0.234 0.864 0.517 1.248 0.842a23.222 23.222 0 0 1 2.422 3.245 9.788 9.788 0 0 1 1.364 3.47c0.066 0.246 0.061 0.506 -0.014 0.749 -0.168 0.361 -0.279 0.748 -0.464 1.1 -0.507 0.965 -2.389 2.548 -3.308 2.626 -3.038 0.259 -8.168 -6.972 -6.986 -9.782Z" stroke-width="1"></path><g id="Group_21"><path id="Vector_62" fill="#141414" d="M176.2 153.476c0 -1.521 -1.214 -1.524 -1.209 -3.041 0.005 -1.517 1.214 -1.52 1.211 -3.041 -0.003 -1.521 -1.229 -1.512 -1.241 -3.028 -0.012 -1.516 1.2 -1.533 1.18 -3.053 -0.02 -1.52 -1.245 -1.5 -1.272 -3.016 -0.037 -1.7 1.355 -1.259 1.087 -3.892 -0.394 -3.878 -2.116 -3.264 -2.011 0.88 0.039 1.515 -1.173 1.543 -1.141 3.054 0.032 1.511 1.25 1.49 1.274 3 0.024 1.51 -1.2 1.531 -1.181 3.042 0.019 1.511 1.233 1.5 1.242 3.018 0.009 1.518 -1.215 1.518 -1.213 3.03 0.002 1.512 1.216 1.515 1.211 3.031 -0.005 1.516 -1.231 1.5 -1.244 3.017 -0.013 1.517 1.2 1.527 1.18 3.043 -0.02 1.516 -1.247 1.493 -1.275 3 -0.028 1.507 1.184 1.539 1.149 3.054 -0.035 1.515 -1.263 1.48 -1.306 2.991 -0.043 1.511 1.168 1.552 1.116 3.067 -0.052 1.515 -1.278 1.466 -1.338 2.976 -0.06 1.51 1.154 1.565 1.083 3.079 -0.222 4.714 1.839 4.556 2.057 0.1 0.069 -1.52 -1.142 -1.574 -1.077 -3.09 0.065 -1.516 1.28 -1.468 1.337 -2.988 0.057 -1.52 -1.163 -1.561 -1.115 -3.077 0.048 -1.516 1.264 -1.482 1.3 -3 0.036 -1.518 -1.181 -1.549 -1.147 -3.066 0.034 -1.517 1.247 -1.494 1.274 -3.015 0.027 -1.521 -1.2 -1.536 -1.178 -3.053 0.022 -1.517 1.23 -1.498 1.247 -3.022Z" stroke-width="1"></path><path id="Vector_63" fill="#141414" d="M147.7 148.656c0.889 -1.445 -0.152 -2.083 0.734 -3.529 0.886 -1.446 1.925 -0.812 2.807 -2.262 0.882 -1.45 -0.158 -2.081 0.716 -3.534 0.874 -1.453 1.923 -0.823 2.793 -2.283 0.87 -1.46 -0.175 -2.081 0.688 -3.541s1.915 -0.842 2.772 -2.311c2.525 -4.333 0.858 -5.58 -1.789 -1.043 -0.854 1.463 -1.9 0.847 -2.76 2.3 -0.86 1.453 0.185 2.076 -0.682 3.533 -0.867 1.457 -1.918 0.824 -2.79 2.274 -0.872 1.45 0.169 2.081 -0.711 3.529s-1.921 0.813 -2.805 2.257c-0.884 1.444 0.157 2.083 -0.731 3.526 -0.888 1.443 -1.927 0.805 -2.815 2.248 -0.888 1.443 0.149 2.082 -0.741 3.525s-1.928 0.8 -2.818 2.246c-0.89 1.446 0.149 2.084 -0.74 3.527s-1.927 0.806 -2.814 2.253 0.153 2.083 -0.73 3.53c-0.883 1.447 -1.926 0.813 -2.8 2.267 -0.874 1.454 0.162 2.081 -0.708 3.537s-1.92 0.828 -2.789 2.29c-0.869 1.462 0.181 2.081 -0.676 3.543 -2.567 4.378 -0.845 5.507 1.774 1.041 0.855 -1.458 -0.184 -2.071 0.678 -3.53 0.862 -1.459 1.915 -0.831 2.782 -2.282s-0.17 -2.079 0.7 -3.529c0.87 -1.45 1.919 -0.817 2.8 -2.263 0.881 -1.446 -0.159 -2.081 0.728 -3.525s1.922 -0.808 2.811 -2.251c0.889 -1.443 -0.149 -2.081 0.74 -3.525s1.927 -0.8 2.817 -2.246c0.89 -1.446 -0.148 -2.082 0.743 -3.525s1.923 -0.803 2.816 -2.247Z" stroke-width="1"></path><path id="Vector_64" fill="#141414" d="M168.949 153.253a33.805 33.805 0 0 0 -4.019 -4.2c-8 -6.444 -20.06 4.884 -18.494 12.233 0.636 2.588 3.457 5.61 5.354 7.218 8.745 7.206 22.528 -8.343 17.159 -15.251Zm-1.5 -0.284c1.372 1.526 2.2 2.614 1.524 5.587 -2.077 -1.373 -1.594 -1.318 -2.9 -2.806a6.996 6.996 0 0 0 -0.074 -4.117c-0.206 -0.525 -0.816 -1.267 1.45 1.336Zm-6.722 -4.852a5.442 5.442 0 0 1 5.065 5.623c-0.161 6.04 -9.242 15.065 -15.454 11.575 -8.204 -4.581 0.953 -18.64 10.389 -17.198Zm-10.237 17.834a6.948 6.948 0 0 0 4.013 0.728c-0.22 0.185 1.142 0.592 2.565 2.7 -2.883 0.121 -4.38 -1.094 -6.578 -3.428Zm7.457 3.339c-1.29 -1.219 -1.115 -0.627 -2.586 -2.781a12.468 12.468 0 0 0 3.525 -1.626c1.125 1 0.933 0.26 3.178 2.836a11.163 11.163 0 0 1 -4.117 1.571Zm4.778 -2c-2.688 -2.012 -1.059 -0.618 -3.156 -2.873a19.482 19.482 0 0 0 3.538 -3.274c1.618 1.292 1.009 0.348 3.2 2.821a17.018 17.018 0 0 1 -3.582 3.327v-0.001Zm4.026 -3.908a12.53 12.53 0 0 1 -3.135 -2.87 14.558 14.558 0 0 0 2.2 -3.921c0.435 0.348 1.053 0.777 1.5 1.2 0.506 0.471 1.044 1.147 1.44 1.553a13.578 13.578 0 0 1 -2.005 4.039v-0.001Z" stroke-width="1"></path><path id="Vector_65" fill="#141414" d="M149.7 163.364c2.317 3 7.538 0.335 10.3 -2.051 8.811 -7.712 2.748 -16.275 -5.717 -10.24 -1.456 1.05 -2.154 1.654 0.133 0.2 5.705 -3.569 9.363 -1.291 9.346 2.067 0.066 5.64 -8.3 11.749 -12.1 10.7 -1.727 -0.478 -3.095 -2.675 -2.25 -5.922 1.022 -3.853 4.58 -6.786 3.031 -5.471 -2.977 2.524 -5.16 7.69 -2.743 10.717Z" stroke-width="1"></path><path id="Vector_66" fill="#141414" d="M156.707 157.51c0.855 0.194 1.559 0.637 2.129 0.192a33.918 33.918 0 0 0 2.028 -6.039c0.161 -0.846 0.279 -0.722 -0.477 -0.371a27.733 27.733 0 0 0 -4.518 2.418c-0.846 0.556 -0.723 0.413 -0.75 0.632a4.54 4.54 0 0 0 0.315 2.292 1.774 1.774 0 0 0 1.273 0.876Zm-0.929 -2.929a24.622 24.622 0 0 1 4.276 -2.387 36.102 36.102 0 0 1 -1.756 5.024c-0.243 -0.01 -2.018 -0.4 -2.255 -0.883a3.811 3.811 0 0 1 -0.265 -1.754Z" stroke-width="1"></path><path id="Vector_67" fill="#141414" d="M154.672 156.407a4.966 4.966 0 0 0 -0.35 -1.671c-0.823 1.452 -4.513 6.92 -2.807 6.92 1.134 0 5.5 -1.937 6.256 -2.564 0.675 -0.556 0.688 -0.385 -0.133 -0.591 -2.228 -0.561 -2.853 -0.239 -2.966 -2.094Zm1.926 2.564a24.928 24.928 0 0 1 -4.781 1.982c0.141 -1.036 0.792 -1.977 1.784 -3.763 0.849 -1.528 -0.042 0.288 1.057 1.089 0.589 0.37 1.252 0.606 1.942 0.692h-0.002Z" stroke-width="1"></path><path id="Vector_68" fill="#141414" d="M158.034 137.12c-0.689 3.765 4.637 11.159 9.127 9.174a6.22 6.22 0 0 0 2.344 -2.68c1.127 -2.749 -2.553 -8.378 -5.354 -9.64 -2.451 -1.13 -5.751 1.019 -6.117 3.146Zm5.027 3.608c-0.955 0.93 -0.443 0.868 -2.138 1.793a12.127 12.127 0 0 1 -1.623 -2.858 7.022 7.022 0 0 1 2.261 -1.434 10.99 10.99 0 0 0 1.5 2.499Zm0.5 0.628a7.738 7.738 0 0 0 2.008 1.814 7.746 7.746 0 0 1 -0.71 1.057c-0.348 0.374 -0.946 0.7 -1.179 0.928a9.778 9.778 0 0 1 -2.325 -2.087c1.281 -1.475 1.122 -1 2.205 -1.712h0.001Zm1.558 3.114c0.352 -0.378 0.958 -0.708 1.185 -0.935a3.595 3.595 0 0 0 2.178 0.232c-0.247 0.428 -0.58 0.801 -0.978 1.094a2.638 2.638 0 0 1 -3.091 0.659c0.206 -0.369 0.442 -0.72 0.705 -1.05h0.001Zm0.877 -1.741c-1.46 -0.78 -4.013 -3.935 -4.282 -6.1 -0.3 -2 1.17 -2.983 3.676 -0.842 3.35 2.874 5.583 9.535 0.61 6.942h-0.004Zm-4.69 -5.27c-0.977 0.9 -0.871 1.093 -2.2 1.583 -0.552 -2.158 0.391 -3.334 2.419 -4.209a3.202 3.202 0 0 0 -0.22 2.626h0.001Z" stroke-width="1"></path></g><g id="Group_22"><path id="Vector_69" fill="#d6d5d4" d="M181 132.733c3.006 0.325 6.4 0.324 7.99 -2.363a4.71 4.71 0 0 0 -0.177 -4.847c-0.881 -1.433 -6.039 -5.67 -8.473 -6.395 -0.874 -0.26 -0.6 -0.107 -1.195 -0.6 -2.273 -1.877 -24.663 -8.183 -30.9 -4.7a3.65 3.65 0 0 0 -2 3.653c0.229 1.184 1.68 2.811 2.51 3.688a10.823 10.823 0 0 0 4.784 3.339c9.202 3.892 14.544 6.829 27.461 8.225Z" stroke-width="1"></path><path id="Vector_70" fill="#615fff" d="M161.9 121.607c0.415 0.194 7.069 2.555 7.9 2.778 3.261 0.877 7.193 0.6 8.087 -0.081 0.847 -0.643 2.185 -4.175 1.5 -7.551 -0.755 -3.7 -2.951 -5.381 -5.78 -6.764a7.962 7.962 0 0 0 -4.851 -1.115c-4.951 0.157 -6.461 1.657 -9.554 6.467a2.737 2.737 0 0 0 -0.617 2.2 5.136 5.136 0 0 0 3.315 4.066Z" stroke-width="1"></path><path id="Vector_71" fill="#141414" d="M189.931 126.12c-1.437 -3.072 -6.469 -6.132 -9.483 -7.671a11.379 11.379 0 0 0 -6.21 -9.283c-2.821 -1.347 -5.241 -1.028 -7.515 -0.653 -2.479 0.408 -4.831 2.249 -6.477 4.093 -4.58 -0.874 -13.718 -0.977 -14.467 3.6 -0.533 2.768 1.9 5.757 4.065 7.425 6.179 4.793 29.236 12.172 36.678 9.552 4.034 -1.423 4.85 -4.417 3.409 -7.063ZM161.2 114.07c5.712 -7.36 14.123 -4.84 16.527 1.105 0.754 1.806 1.375 5.09 0.587 6.879 -1.722 3.863 -14.917 0.08 -17.791 -2.521 -1.569 -1.594 -0.675 -3.668 0.677 -5.463Zm26.733 16.33c-5.727 4.774 -31.461 -4.1 -36.954 -8.247 -1.625 -1.22 -3.819 -3.63 -3.5 -5.634 0.516 -3.08 8.569 -3.153 11.842 -2.742 -1.251 1.8 -2.095 4.471 -0.822 6.151 1.79 2.945 9.3 5.065 12.874 5.545 5.193 0.664 9.247 -0.191 9.19 -5.446 2.416 1.429 6.684 4.242 7.849 6.809 0.603 1.324 0.626 2.67 -0.481 3.564h0.002Z" stroke-width="1"></path></g></g><g id="Group_23"><path id="Vector_72" fill="#d6d5d4" d="M33.476 70.7c-2.322 6.618 11.1 15.223 14.85 14.917 2.32 -0.19 -1.525 -9.276 -2.117 -10.652 -1.3 -3.031 -3.325 -7.564 -7.112 -7.952a5.532 5.532 0 0 0 -5.621 3.687Z" stroke-width="1"></path><path id="Vector_73" fill="#141414" d="M49.842 82.342c-0.816 -3.54 -3.565 -10.9 -6.31 -13.861a6.236 6.236 0 0 0 -11.04 4.473c0.207 2.507 2.223 5.409 4.052 7.209 3.476 3.41 15.219 11.46 13.298 2.179Zm-1.822 2.264c-2.616 0.055 -8.477 -4.137 -10.228 -5.748 -9.071 -8.38 0.165 -14.041 4.372 -9.127 2.725 3.182 6.124 12.92 5.856 14.875Z" stroke-width="1"></path><path id="Vector_74" fill="#141414" d="M44.429 79.774c-0.374 -1.488 -2.456 -7.8 -4.887 -9.551 -2.4 -1.7 -4.685 -0.155 -3.492 2.81 1.339 3.457 6.525 6.506 8.159 7.04 0.344 0.112 0.244 -0.173 0.22 -0.299Zm-6.282 -5c-1.6 -2.048 -2.152 -4.639 -0.2 -4.24 2.767 0.528 4.53 6.343 6.263 9.341 -1.263 -1.121 -4.21 -2.747 -6.063 -5.103v0.002Z" stroke-width="1"></path><path id="Vector_75" fill="#615fff" d="M21.3 77.69c1.2 0.78 4.642 -0.24 6.027 -0.874 3.585 -1.644 3.54 1.69 5.648 2.674 0.8 0.37 1.972 0.09 2.16 -0.767 0.256 -1.164 -1.414 -2.326 -0.782 -3.337 8.153 -6.488 8.074 -6.867 9 -5.864 0.78 0.843 1.373 2.2 2.519 2.134 0.955 -0.06 1.5 -1.221 1.324 -2.16 -0.362 -1.88 -2.677 -3.09 -2.372 -5.086 0.1 -0.654 0.267 -0.836 2.71 -4.946 1.123 -1.89 0.725 -2.547 -0.3 -3.381 -8.068 -6.562 -9.1 -5.624 -11.354 -6.824 -1.962 -1.044 -5.8 -5.962 -14.761 -8.592 -4.606 -1.352 -6.39 0.18 -7.14 3.2 -2.61 10.49 4.8 14.864 3.375 20.785 -0.77 3.185 2.846 12.325 3.946 13.039Z" stroke-width="1"></path><path id="Vector_76" fill="#d6d5d4" d="M23.106 60.8c-0.391 -1.183 -0.964 -2.892 -0.528 -4.061 0.4 -1.08 2.574 -3.35 4.608 -3.428a4.554 4.554 0 0 1 3.659 1.889 8.827 8.827 0 0 1 1.374 5.239c-0.376 1.143 -2.756 3.039 -5.333 2.8 -3.786 -0.362 -4.667 -4.75 -3.78 -2.44Z" stroke-width="1"></path><path id="Vector_77" fill="#141414" d="M32.9 58.588a5.213 5.213 0 0 1 -3.694 5.04 5.324 5.324 0 0 1 -6.766 -3.978c-0.142 -0.792 -0.051 -1.233 0.033 -1.238 0.1 -0.007 0.19 0.41 0.47 1.089 2.063 4.99 8.62 3.64 8.6 -0.91a4.483 4.483 0 0 0 -6.785 -3.771 4.02 4.02 0 0 0 -1.923 2.143c-0.23 0.684 -0.275 1.117 -0.38 1.115 -0.191 0.01 -0.664 -2.433 1.8 -4.073a5.54 5.54 0 0 1 8.645 4.583Z" stroke-width="1"></path><path id="Vector_78" fill="#141414" d="M35.238 61.079c-2.41 7.388 -13.443 6.827 -15.212 -1.106a3.84 3.84 0 0 1 -0.139 -1.69c0.068 -0.008 0.122 0.593 0.447 1.606a7.859 7.859 0 0 0 8.34 5.629A7.086 7.086 0 0 0 32.78 53.5a7.647 7.647 0 0 0 -9.957 -1.153c-0.9 0.564 -1.308 1.009 -1.36 0.958a3.62 3.62 0 0 1 1.18 -1.22c6.527 -4.963 14.921 1.861 12.595 8.994Z" stroke-width="1"></path><path id="Vector_79" fill="#141414" d="M46.63 54.878A24.556 24.556 0 0 0 35.487 48.6c-3.617 -3.667 -12.38 -10.226 -17.5 -9.79 -8.64 0.482 -5.545 15.936 -1.267 24.143 -0.763 7.029 2.31 14.246 3.749 15.109 2.6 1.559 6.495 0.219 9.1 -1.258 1.432 1.687 3.544 4.577 5.247 3.164 1.353 -1.111 0.552 -2.841 -0.28 -4.187 2.563 -0.9 7.265 -4.29 8.166 -5.742 1.013 1.139 1.64 1.95 2.7 2.147a1.753 1.753 0 0 0 1.986 -1.456c0.263 -1.213 -0.522 -2.6 -1.285 -3.841 -1.745 -2.836 -1.76 -0.716 0.987 -4.657 2.766 -4.152 1.545 -5.381 -0.46 -7.354ZM14.9 51.056c3.878 -1.734 6.826 -4.25 2.794 -2.421 -0.787 0.377 -1.816 0.779 -2.98 1.252 -1.172 -8.475 1.888 -11.525 10.042 -7.024 -3.957 3.774 -7.308 7.043 -2.831 3.867a41.993 41.993 0 0 0 3.888 -3.262C32.955 47.7 40.35 54.155 41.815 62.337a130.418 130.418 0 0 1 -14.723 10.256C22.157 69.105 16.7 61.105 14.9 51.056Zm6.213 25.16a27.976 27.976 0 0 1 -3.091 -10.968c2.4 3.893 6.553 8.829 10.846 10.469 -2.061 0.89 -6.711 2.363 -7.76 0.5h0.005Zm13.36 2.519c-0.574 1.519 -2.157 -0.4 -2.941 -1.12 -1.5 -1.446 -1.408 -1.124 -0.965 -1.42a6.998 6.998 0 0 0 3.217 -0.177c0.35 0.8 0.987 1.923 0.685 2.717h0.005Zm7.557 -12.276c-0.183 2.416 -0.73 3.035 -2.157 4.047 -4.676 3.346 -7.364 5.357 -11.9 2.66 4.72 -2.213 11.687 -7.614 13.99 -9.8 0.123 1.026 0.145 2.062 0.067 3.093Zm2.27 3.958c-1.911 -1.856 -0.916 -0.2 -0.723 -3.861 0.02 -0.387 -0.1 -0.157 0.676 -0.944 3.54 5.488 1.92 6.573 0.047 4.805Zm-0.75 -5.98a25.34 25.34 0 0 0 -6.2 -13.8 28.391 28.391 0 0 1 8.05 5.495c1.509 1.479 3.246 1.917 -1.847 8.306h-0.002Z" stroke-width="1"></path></g><g id="Group_24"><path id="Vector_80" fill="#d6d5d4" d="M43.4 35.81c-1.79 0.737 -1.325 3.035 -1.466 3.574 -0.259 0.995 -1.232 1.123 -0.333 3.219 2.723 6.347 2.992 3.478 5.513 4.567 1.141 0.493 1.725 2.327 7.814 -0.446 2.14 -0.974 1.153 -1.9 1.667 -2.953 0.406 -0.833 1.644 -1.045 1.97 -1.912 0.352 -0.936 -0.592 -1.86 -0.682 -2.853 -0.109 -1.2 1.415 -2.908 -0.312 -4.5 -1.637 -1.507 -3 -0.008 -3.859 -0.542 -0.837 -0.521 -0.12 -2.1 -1.732 -2.65a15.752 15.752 0 0 0 -3.893 0.153c-4.37 0.56 -1.987 3.233 -4.687 4.344Z" stroke-width="1"></path><path id="Vector_81" fill="#141414" d="m45.889 32.73 -0.556 -0.636c-0.982 0.816 -0.827 2.426 -1.565 2.8a4.016 4.016 0 0 0 -1.494 0.7 2.559 2.559 0 0 0 -0.864 2.63c0.231 0.875 -1.625 1.928 -0.238 5.019 2.018 4.5 3.741 4.3 5.118 4.468 1.309 0.158 1.8 1.721 4.977 1.124a16.953 16.953 0 0 0 4.148 -1.45c2.313 -1.249 1.664 -2.666 1.8 -2.986 0.19 -0.819 2.663 -1.256 1.962 -3.573 -0.288 -0.951 -0.958 -1.691 -0.76 -2.458 0.28 -1.084 1.77 -1.12 -0.058 -3.895 -1.333 -2.023 -2.516 -1.249 -3.721 -1.091 -1.031 0.136 -0.693 -0.414 -1.058 -1.164a3.146 3.146 0 0 0 -2.415 -1.455 9.543 9.543 0 0 0 -5.827 1.336c0.972 1.113 -0.2 0.453 2.884 -0.174 1.226 -0.25 3.012 -0.417 4 0.356 0.5 0.395 0.415 0.635 0.563 1.158 0.523 1.856 3.09 0.758 3.6 0.84 0.618 0.1 1.1 1.087 1.406 1.63 0.774 1.392 -1.681 1.574 -0.187 4.463 0.814 1.574 0.377 1.569 -0.864 2.552 -2.345 1.858 1.36 2.2 -3.8 4.089 -3.283 1.2 -4.122 0.488 -5.327 -0.2 -1.411 -0.8 -2.158 0.087 -3.448 -1.159a9.1 9.1 0 0 1 -2.344 -4.4c0.006 -0.77 0.229 -1.523 0.644 -2.171 0.492 -1.054 -0.66 -1.085 0.36 -2.524 0.619 -0.874 1.591 -0.466 2.087 -1.475 0.488 -0.879 0.388 -1.802 0.977 -2.354Z" stroke-width="1"></path><path id="Vector_82" fill="#141414" d="M43.574 40.239c-0.881 0.216 0.528 2.511 0.243 2.584 -0.073 0.019 -0.46 -0.5 -0.927 -1.571 -0.484 -1.51 1.089 -2.932 2.652 0.676 0.755 1.743 1.429 2.676 0.8 3.441a0.767 0.767 0 0 1 -1.15 0.1 4.175 4.175 0 0 1 -0.716 -1.165c-0.72 -1.41 0.886 0.716 1.014 0.808 0.269 0.255 0.722 -0.221 0.438 -0.793 -0.206 -0.491 -1.798 -4.219 -2.354 -4.08Z" stroke-width="1"></path><path id="Vector_83" fill="#141414" d="M48.888 33.584c-1.275 0.165 -2.282 0.4 -2.356 0.231 -0.074 -0.169 0.923 -0.708 2.265 -0.882 2.16 -0.28 4.097 0.13 0.09 0.651Z" stroke-width="1"></path><path id="Vector_84" fill="#141414" d="M50.57 38.747c-1.757 1.033 -4.313 1.256 -3.934 -0.279 0.242 -0.978 1.365 -1.321 1.384 -1.163 0.019 0.087 -0.833 0.477 -0.925 1.234 -0.093 1.406 4.5 -0.65 4.549 -1.688 0.05 -0.37 -0.791 -0.495 -1.21 -0.434 -0.991 0.145 -1.605 0.534 -1.65 0.424 -0.083 -0.164 1.9 -1.515 3.1 -0.669 1.026 0.718 -0.173 1.905 -1.313 2.575Z" stroke-width="1"></path><path id="Vector_85" fill="#141414" d="M53.716 39.277c1.062 0.334 0.229 2.178 0.073 1.806 -0.068 -0.05 0.19 -0.45 0 -1.05 -0.446 -1.033 -1.59 1.845 -1.37 2.517 0.127 0.256 0.276 0.3 0.473 0 0.384 -0.587 0.648 -0.979 0.728 -0.933 0.1 0.059 -0.212 1.557 -0.936 1.684 -1.87 0.189 -0.484 -4.355 1.032 -4.024Z" stroke-width="1"></path><path id="Vector_86" fill="#141414" d="M51.533 46.353a3.326 3.326 0 0 1 -2.76 -0.289c-0.607 -0.283 -0.985 -0.374 -0.993 -0.465 -0.008 -0.091 0.467 -0.159 1.149 0.027a3.46 3.46 0 0 0 2.427 0.095c1.939 -0.574 3.5 -1.262 3.588 -1.071a7.8 7.8 0 0 1 -3.411 1.703Z" stroke-width="1"></path></g><g id="Group_25"><path id="Vector_87" fill="#d6d5d4" d="M61.85 42.43c-0.945 1.146 -2.435 2.568 -1.294 3.832 0.39 0.433 1 0.682 1.318 1.19 0.328 0.529 0.233 1.07 1.4 1.242 2.909 0.428 2.473 -0.881 3.232 -1.64 0.3 -0.294 0.72 -0.423 1.022 -0.711 0.626 -0.6 0.69 -1.814 -0.537 -2.933 -0.858 -0.783 -0.5 -0.756 -0.891 -1.324a3.586 3.586 0 0 0 -2.377 -0.908c-0.948 0 -1.216 0.454 -1.873 1.252Z" stroke-width="1"></path><path id="Vector_88" fill="#141414" d="m62.583 41.25 0.428 0.729a2.832 2.832 0 0 1 1.938 0.011c1.143 0.355 0.742 1.308 1.464 1.971 0.446 0.41 0.763 0.411 0.942 0.83a1.267 1.267 0 0 1 -0.054 1c-0.167 0.246 -0.873 0.38 -1.286 0.929 -0.378 0.589 -0.228 0.895 -0.757 1.126 -0.608 0.265 -2.361 0.3 -2.613 -0.286 -0.612 -1.427 -1.475 -0.822 -1.677 -1.879a5.682 5.682 0 0 1 0.016 -1.236c0.108 -0.588 0.7 -0.556 1.149 -1.187 0.373 -0.529 0.475 -0.977 0.878 -1.277l-0.428 -0.729c-0.382 0.235 -0.7 0.563 -0.922 0.952 -0.838 1.364 -1.628 0.351 -1.87 2.807 -0.23 2.35 1.485 2.5 1.575 2.786 0.1 0.1 0.088 0.441 0.439 0.787 0.938 0.923 2.967 0.9 4 0.455a2.302 2.302 0 0 0 1.265 -1.555c0.076 -0.18 1.025 -0.381 1.346 -1.068a2.48 2.48 0 0 0 0.072 -2.121c-0.351 -0.808 -1.04 -1 -1.277 -1.208 -0.293 -0.26 -0.4 -1.733 -1.98 -2.094a3.623 3.623 0 0 0 -2.648 0.257Z" stroke-width="1"></path><path id="Vector_89" fill="#141414" d="M62.337 45.936c-0.264 -0.409 -0.508 -0.57 -0.482 -0.662 0.026 -0.092 0.424 -0.044 0.837 0.362 0.393 0.387 0.788 1.041 1.359 1.119 0.484 0.135 0.692 -0.782 1.23 -1.142 0.512 -0.343 0.906 -0.26 0.905 -0.182 0.019 0.1 -0.3 0.2 -0.6 0.532 -0.323 0.352 -1.198 3.146 -3.25 -0.027Z" stroke-width="1"></path></g><g id="Group_26"><path id="Vector_90" fill="#d6d5d4" d="M31.03 152.793c-1.118 1.357 -2.881 3.04 -1.532 4.536 0.462 0.512 1.188 0.807 1.56 1.408 0.389 0.626 0.276 1.266 1.658 1.47 3.442 0.507 2.926 -1.043 3.825 -1.941 0.348 -0.348 0.853 -0.5 1.209 -0.842 0.741 -0.708 0.816 -2.147 -0.635 -3.471 -1.016 -0.927 -0.587 -0.9 -1.056 -1.567a4.243 4.243 0 0 0 -2.813 -1.074c-1.121 -0.001 -1.438 0.537 -2.216 1.481Z" stroke-width="1"></path><path id="Vector_91" fill="#141414" d="M38.659 154.745c-0.386 -0.913 -1.247 -1.191 -1.495 -1.412 -0.472 -0.421 -0.4 -2.764 -3.93 -2.591 -2 0.126 -2.473 1.552 -2.93 2.071 -0.35 0.4 -0.711 0.361 -1.194 0.827a4.004 4.004 0 0 0 -0.21 4.06c0.51 0.793 1.349 0.912 1.42 1.14 0.116 0.335 0.29 0.646 0.513 0.921 1.094 1.079 3.469 1.059 4.684 0.532A2.72 2.72 0 0 0 37 158.478c0.089 -0.209 1.2 -0.447 1.575 -1.251a2.9 2.9 0 0 0 0.084 -2.482Zm-1.24 1.162c-0.067 1.131 -0.934 0.715 -1.657 1.676a8.235 8.235 0 0 0 -0.44 0.953c-0.526 0.839 -2.968 0.656 -3.4 0.2 -0.142 -0.183 -0.171 -0.428 -0.394 -0.741 -0.468 -0.624 -1.163 -0.712 -1.456 -1.1a3.23 3.23 0 0 1 -0.054 -2.377c0.152 -0.192 0.795 -0.414 1.2 -0.987 0.72 -1.02 0.7 -2.251 3.3 -1.482 1.357 0.444 0.836 1.495 1.713 2.307 0.492 0.453 1.269 0.616 1.189 1.551Z" stroke-width="1"></path><path id="Vector_92" fill="#141414" d="M33.372 158.39c-1.06 -0.16 -1.49 -1.065 -1.914 -1.722 -0.31 -0.479 -0.595 -0.667 -0.564 -0.774 0.03 -0.107 0.5 -0.052 0.979 0.423 0.46 0.454 0.923 1.219 1.59 1.309 0.567 0.159 0.81 -0.914 1.44 -1.336 0.6 -0.4 1.06 -0.3 1.059 -0.213 0.022 0.111 -0.345 0.233 -0.7 0.623 -0.418 0.454 -0.697 1.87 -1.89 1.69Z" stroke-width="1"></path></g><g id="Group_27"><g id="Group_28"><path id="Vector_93" fill="#d6d5d4" d="M135.517 38.227c-2.988 1.238 -2.275 5.283 -2.494 6.13 -0.44 1.706 -2.1 1.927 -0.567 5.523 0.541 1.27 2.589 5.877 3.784 6.762 1.547 1.144 3.831 0.3 5.595 1.072 1.94 0.846 2.937 3.991 13.292 -0.764 3.645 -1.674 1.957 -3.246 2.837 -5.066 0.691 -1.43 2.8 -1.793 3.351 -3.281 0.6 -1.605 -1.007 -3.189 -1.16 -4.9 -0.186 -2.063 2.407 -4.988 -0.532 -7.718 -2.837 -2.635 -5.051 0.022 -6.565 -0.929 -1.414 -0.889 -0.219 -3.611 -2.945 -4.547 -1.16 -0.4 -5.4 0.1 -6.622 0.262 -7.258 0.943 -3.525 5.613 -7.974 7.456Z" stroke-width="1"></path><path id="Vector_94" fill="#141414" d="M162.1 46.808c-0.5 -1.654 -1.616 -2.832 -1.278 -4.138 0.221 -0.859 1.424 -1.621 1.408 -3.159 0.02 -1.241 -1.688 -3.913 -2.673 -4.794 -2.678 -2.424 -5.772 0.8 -6.428 -0.9a4.108 4.108 0 0 0 -1.623 -2.821c-2.176 -1.661 -5.528 -1.335 -8.2 -0.725 -3.078 0.755 -5.072 1.511 -5.853 4.046 -1.552 4.828 -2.135 1 -4.7 4.853a3.633 3.633 0 0 0 -0.562 3.262c0.394 1.571 -2.712 3.024 -0.4 8.45 4.036 9.223 7.859 6.8 9.81 7.911 2.582 1.473 4.393 2.777 10.733 0.513 3.126 -1.174 6.585 -2.47 6.435 -5.845 -0.052 -2.441 4.624 -2.356 3.331 -6.653Zm-3.327 -4.708c-0.8 2.768 1.84 5.028 1.29 6.35 -0.444 1.5 -3.556 1.523 -3.5 5.031 0.02 1.187 -0.764 1.857 -1.85 2.43a27.623 27.623 0 0 1 -6.327 2.221c-4.622 0.9 -4.761 -1.583 -7.729 -1.858 -2 -0.214 -3.79 0.5 -7.039 -6.2 -1.994 -4.427 0.621 -5.216 0.5 -7.244 -0.068 -1.294 -0.852 -1.4 0.441 -3.21 0.881 -1.253 1.956 -0.774 3.032 -1.833a6.95 6.95 0 0 0 1.3 -3.03c0.45 -1.631 1.01 -2.151 4.758 -2.934 2.027 -0.4 5.118 -0.711 6.727 0.6 0.251 0.213 0.469 0.46 0.647 0.737 0.2 0.348 0.157 3.56 3.7 3.04 2.218 -0.339 2.94 -1.126 4.275 1.024 2.264 3.56 0.478 2.239 -0.225 4.876Z" stroke-width="1"></path><path id="Vector_95" fill="#141414" d="M138.139 49.117c-0.358 -0.826 -1.7 -3.436 -2.3 -3.288 -1.424 0.35 0.808 4.17 0.409 4.351 -0.17 0.077 -3.264 -4.243 -0.735 -5.267 1.485 -0.6 3 2.3 3.639 3.759 1.318 3.037 2.4 4.518 1.346 5.794a1.292 1.292 0 0 1 -1.936 0.176 8.783 8.783 0 0 1 -1.205 -1.961c-1.155 -2.346 1.452 1.176 1.706 1.361 0.453 0.429 1.217 -0.374 0.737 -1.336 -0.261 -0.632 -0.208 -0.232 -1.661 -3.589Z" stroke-width="1"></path><path id="Vector_96" fill="#141414" d="M144.785 34.623c-2.146 0.278 -3.842 0.669 -3.966 0.39 -0.124 -0.279 1.553 -1.192 3.813 -1.485 3.638 -0.472 6.897 0.219 0.153 1.095Z" stroke-width="1"></path><path id="Vector_97" fill="#141414" d="M147.618 43.317c-1.524 0.9 -4.21 1.852 -5.773 1.215a1.466 1.466 0 0 1 -0.852 -1.686c0.393 -1.594 2.294 -2.256 2.33 -1.958 0.026 0.126 -1.405 0.834 -1.557 2.078 -0.182 2.76 10.42 -2.491 6.912 -3.487a5.457 5.457 0 0 0 -3.273 0.456c-1.055 0.36 -1.04 0.177 -0.193 -0.386 4.028 -2.676 8.128 0.406 2.406 3.768Z" stroke-width="1"></path><path id="Vector_98" fill="#141414" d="M150.027 47.164c1.237 -3.763 3.47 -3.5 3.759 -1.88 0.229 1.277 -0.6 2.142 -0.75 1.965 -0.112 -0.114 0.329 -0.789 -0.006 -1.768 -0.429 -1.253 -1.5 0.614 -1.954 2.029 -0.854 2.681 -0.024 2.927 0.45 2.2 0.647 -0.988 1.09 -1.65 1.225 -1.57 0.135 0.078 -0.06 0.787 -0.546 1.957 -0.856 1.691 -3.505 1.117 -2.178 -2.933Z" stroke-width="1"></path><path id="Vector_99" fill="#141414" d="M149.239 56.123a5.607 5.607 0 0 1 -4.646 -0.487c-1.023 -0.477 -1.661 -0.629 -1.673 -0.783 -0.012 -0.154 0.785 -0.268 1.934 0.046a5.823 5.823 0 0 0 4.086 0.159c2.486 -0.715 5.887 -2.148 6.041 -1.8 0.137 0.303 -2.981 2.07 -5.742 2.865Z" stroke-width="1"></path></g><path id="Vector_100" fill="#d6d5d4" d="M145.637 31.029c0.644 0.686 -0.247 1.794 1.353 2.056 4.429 0.724 4.214 2.5 4.59 4.965 1.044 6.829 7.547 4.906 4.792 11.161 -0.919 2.085 -2.946 3.562 -2.461 5.5 0.975 3.9 9.438 -0.2 11.622 -3.507 1.1 -1.67 1.2 -3.908 2.519 -5.415 3.262 -3.736 11.319 -0.271 12.122 -6.051a2.756 2.756 0 0 0 -0.478 -2.019c-0.8 2.978 -4.534 3.875 -7.293 3.409 -4.341 -0.733 -4.8 -4.132 -2.149 -5.9 2.438 -1.625 8.491 -1.873 12.893 -4.924a26.435 26.435 0 0 0 2.844 -2.982 10.6 10.6 0 0 0 1.7 -3.566c2.154 -6.45 4.48 -5.823 5.027 -6.712 0.278 -0.452 -5.091 -1.327 -9.053 3.609 -1.438 1.792 -2.077 4.055 -3.856 5.508 -2.317 1.891 -6.309 2.019 -9.076 3.153 -2.664 1.092 -6.42 4.759 -7.865 3.139 -2.1 -1.069 0.7 -5.267 2.109 -6.6 3.072 -2.912 6.834 -1.312 9.811 -2.637 1.769 -0.787 3.658 -2.68 3.778 -4.612 -1.934 2.022 -3.211 2.644 -5.7 2.468a13.194 13.194 0 0 1 -3.595 -0.665 10.71 10.71 0 0 0 -5.683 0.2c-1.164 0.559 -1.892 1.753 -2.969 2.467a29.86 29.86 0 0 1 -5.959 2.6c-3.688 0.721 -2.708 -0.775 -9.41 2.561 -0.762 0.379 -2.286 1 -2.5 1.951 -0.132 0.573 0.577 0.757 1.013 0.732 0.585 -0.028 1.391 -0.404 1.874 0.111Z" stroke-width="1"></path><path id="Vector_101" fill="#141414" d="M190.676 16.376c-7.6 -0.47 -8.114 7.37 -12.1 9.758 -2.231 1.38 -5.375 1.135 -8.257 2.346 -2.735 1.137 -4 2.674 -5.311 3.247 -1.334 0.614 -2.235 -0.049 -2.228 -0.81 0.025 -0.912 1.166 -2.488 1.748 -3.294 4.43 -5.925 9.784 -0.107 13.594 -6.986a6.43 6.43 0 0 0 0.794 -2.247c0.015 -0.4 -0.383 0.04 -0.69 0.337 -4.41 4.082 -7.767 0.507 -12.5 0.821 -2.823 0.158 -4.071 1.957 -5.694 3.173 -4.91 3.678 -11.057 1.589 -16.71 5.905a1.888 1.888 0 0 0 -0.864 2.307c0.551 1.019 1.62 0.785 2.435 0.643 1.067 -0.187 0.285 1.4 1.721 2.185 2.395 1.408 3.759 -1.062 4.152 3.848a8.264 8.264 0 0 0 4.109 6.644c3.937 3.246 -1.264 5.928 -1.81 9.83 -0.31 2.217 1.8 3.97 5.738 2.439 10.116 -4.117 6.354 -6.9 10.27 -10.4 3.093 -2.766 7.691 -1.015 10.555 -4.4a3.172 3.172 0 0 0 0.082 -4.18c0.069 0.36 0.157 0.715 0.264 1.066 0.588 2.622 -2.433 4.22 -5.129 4.551 -2.057 0.3 -4.351 0.254 -6.526 2.079 -2.621 2.083 -2.434 4.866 -4.368 6.759 -2.191 2.269 -11.189 6.163 -9.028 1.28 1.483 -3.354 6.13 -6.7 -0.157 -11.136 -3.714 -2.67 -1.308 -6.649 -3.717 -8.7 -1.243 -1.112 -2.774 -0.548 -3.6 -1.06 -0.709 -0.514 0.071 -2.863 -3.348 -2.281 0 0 -0.022 0 -0.028 -0.009a0.034 0.034 0 0 1 0 -0.039c3.014 -3.013 9.407 -2.908 13.516 -4.507 3.348 -1.343 4.117 -2.771 5.691 -3.939 4.4 -3.263 10.777 3.05 15.064 -2.574a8.843 8.843 0 0 1 -2.627 3.175c-3.983 2.952 -8.059 -1.785 -13.226 5.658a6.346 6.346 0 0 0 -1.3 2.969 2.707 2.707 0 0 0 2.607 2.756c3.055 0.262 4 -3.215 9.891 -4.392 4.876 -0.987 6.565 -1.344 9.2 -5.951 2.17 -3.874 4.039 -6.713 9.715 -6.167a9.968 9.968 0 0 0 -3.426 2.094c-1.785 1.684 -1.785 3.928 -2.816 6.053a11.815 11.815 0 0 1 -5.7 5.643c-4.115 1.877 -12.1 2.208 -13.031 6.487 -0.309 1.477 0.472 3.1 2.771 3.817 2.261 0.578 4.637 0.527 6.871 -0.148 2.589 -1.02 2.642 -3.444 2.361 -3.441 -0.308 -0.038 -0.151 3.041 -5.45 2.81 -5.648 -0.255 -6 -2.552 -4.073 -4.091 3.434 -2.832 10.391 -1.68 15.13 -6.853 2.361 -2.57 2.784 -4.781 3.406 -7.2 0.842 -3.283 4 -4.544 4.237 -5.146 0.529 -0.005 -0.514 -0.605 -2.208 -0.729Z" stroke-width="1"></path></g><g id="Group_29"><path id="Vector_102" fill="#d6d5d4" d="M37.618 132.437c1.728 0.716 1.275 2.936 1.414 3.476 0.25 0.967 1.189 1.092 0.322 3.131 -2.628 6.176 -2.882 3.381 -5.318 4.443 -1.1 0.479 -1.666 2.263 -7.538 -0.433 -2.067 -0.95 -1.11 -1.841 -1.609 -2.873 -0.391 -0.811 -1.585 -1.017 -1.9 -1.861 -0.34 -0.91 0.571 -1.808 0.658 -2.775 0.105 -1.17 -1.365 -2.829 0.3 -4.377 1.608 -1.494 2.864 0.013 3.722 -0.526 0.8 -0.5 0.124 -2.048 1.67 -2.579 0.6 -0.206 5.512 -0.165 6.341 1.439 0.675 1.298 0.409 2.298 1.938 2.935Z" stroke-width="1"></path><g id="Group_30"><path id="Vector_103" fill="#141414" d="M39.615 135.844c-0.372 -0.754 -0.444 -0.66 -0.33 -1.115a2.01 2.01 0 0 0 -0.316 -1.838c-0.965 -1.411 -1.144 -0.929 -1.921 -1.32 -0.923 -0.463 -0.148 -2.331 -2.72 -3.3 -2.21 -0.8 -5.33 -1.255 -6.585 0.762 -0.345 0.707 -0.024 1.234 -1 1.1 -0.941 -0.124 -2.21 -0.961 -3.53 1.034 -1.76 2.684 -0.27 2.766 -0.055 3.7 0.347 1.215 -2.081 2.922 0.03 4.685 0.48 0.39 1.026 0.676 1.11 1.037a2.698 2.698 0 0 0 1.7 2.834c5.8 3.089 7.533 0.445 8.659 0.309a4.62 4.62 0 0 0 2.02 -0.454c1.75 -1.054 4.152 -4.978 2.938 -7.434ZM38.9 137.6c-0.14 1.385 -1.842 4.635 -3.476 4.852a4.558 4.558 0 0 0 -2.02 0.427c-0.47 0.338 -0.996 0.588 -1.554 0.739 -1.494 0.3 -6 -1.05 -6.277 -2.317a2.366 2.366 0 0 0 -0.825 -2.113c-1.174 -0.914 -1.592 -0.923 -0.82 -2.422 1.412 -2.717 -0.912 -2.932 -0.176 -4.234 0.283 -0.516 0.747 -1.451 1.333 -1.547 0.649 -0.105 1.63 0.541 2.592 0.116 1.22 -0.539 0.546 -1.376 1.355 -2.011 1.384 -1.086 5.306 -0.185 6 0.431 0.554 0.491 0.472 1.408 0.936 2.226a2.112 2.112 0 0 0 1.378 0.919 2 2 0 0 1 1 1.253c0.062 0.521 -0.334 0.991 -0.061 1.622 0.4 0.612 0.614 1.327 0.615 2.059Z" stroke-width="1"></path><path id="Vector_104" fill="#141414" d="M37.416 136.129c-1.151 -0.488 -2.516 3.012 -2.954 4.193 -0.4 1.141 0.627 1.869 1.236 1.289 0.323 -0.317 1.375 -2.31 0.477 -1.237 -0.23 0.319 -0.484 0.619 -0.76 0.9 -0.255 0.242 -0.685 -0.21 -0.415 -0.752 0.11 -0.268 0.317 -0.606 0.469 -0.955a9.274 9.274 0 0 1 1.565 -2.843c0.356 -0.284 0.533 0.277 0.423 0.761 -0.3 0.939 -0.553 1.588 -0.455 1.613 0.198 0.05 1.728 -2.462 0.414 -2.969Z" stroke-width="1"></path><path id="Vector_105" fill="#141414" d="M32.19 130.33c1.21 0.154 2.167 0.379 2.235 0.22 0.068 -0.159 -0.875 -0.674 -2.15 -0.837 -1.93 -0.255 -3.975 0.102 -0.085 0.617Z" stroke-width="1"></path><path id="Vector_106" fill="#141414" d="M33.482 133.945c-0.278 -0.14 -0.463 -0.123 -0.468 -0.084 -0.005 0.039 0.132 0.107 0.333 0.286 0.428 0.39 0.82 1.125 0.3 1.29 -1.2 0.41 -5.372 -1.9 -3.654 -2.37 0.989 -0.294 2.226 0.517 2.292 0.354a2.899 2.899 0 0 0 -2.418 -0.856c-0.628 0.143 -0.87 0.513 -0.87 0.853 0 1.4 3.479 3.059 4.846 2.5 0.72 -0.292 0.73 -1.343 -0.361 -1.973Z" stroke-width="1"></path><path id="Vector_107" fill="#141414" d="M27.54 137.446c0.064 -0.048 -0.18 -0.427 0 -1 0.416 -0.976 1.506 1.757 1.3 2.389 -0.121 0.243 -0.262 0.282 -0.45 0 -0.363 -0.557 -0.614 -0.93 -0.69 -0.886 -0.1 0.058 0.208 1.477 0.888 1.6 1.424 0.148 0.85 -2.556 -0.14 -3.557 -0.641 -0.507 -1.208 -0.279 -1.331 0.349 -0.117 0.831 0.388 1.189 0.423 1.105Z" stroke-width="1"></path><path id="Vector_108" fill="#141414" d="M32.152 141.757a3.3 3.3 0 0 1 -2.3 0.09c-1.834 -0.562 -3.327 -1.2 -3.4 -1.017a7.669 7.669 0 0 0 3.236 1.616 3.17 3.17 0 0 0 2.619 -0.274c0.576 -0.269 0.937 -0.354 0.942 -0.441 0.005 -0.087 -0.45 -0.151 -1.097 0.026Z" stroke-width="1"></path></g><path id="Vector_109" fill="#d6d5d4" d="M31.879 128.355c-0.365 0.389 0.14 1.017 -0.767 1.166 -2.511 0.411 -2.39 1.42 -2.6 2.815 -0.592 3.873 -4.28 2.782 -2.717 6.329 0.143 0.337 0.326 0.656 0.545 0.949 2.169 2.478 0.153 4.54 -4.033 1.7 -3.04 -2.062 -1.77 -3.024 -3.135 -4.587 -1.278 -1.463 -3.568 -0.965 -5.266 -1.544a2.172 2.172 0 0 1 -1.604 -2.107c0.002 -0.318 0.074 -0.631 0.21 -0.918 0.44 1.649 2.64 2.188 4.193 1.927 2.46 -0.416 2.72 -2.343 1.218 -3.345 -1.382 -0.921 -4.814 -1.061 -7.311 -2.792A14.95 14.95 0 0 1 9 126.256a6.043 6.043 0 0 1 -0.966 -2.022c-1.221 -3.657 -2.54 -3.3 -2.85 -3.806 -0.158 -0.256 2.887 -0.752 5.133 2.047 0.815 1.016 1.178 2.3 2.187 3.123 1.314 1.072 3.577 1.145 5.146 1.788 1.51 0.619 3.64 2.7 4.46 1.78 1.19 -0.606 -0.4 -2.986 -1.2 -3.741 -1.742 -1.652 -3.875 -0.744 -5.563 -1.5a3.574 3.574 0 0 1 -2.142 -2.615c1.058 1.106 2.224 2.025 5.27 1.023a6.058 6.058 0 0 1 3.222 0.11c0.66 0.317 1.074 0.994 1.684 1.4a16.93 16.93 0 0 0 3.379 1.475c2.09 0.409 1.536 -0.44 5.336 1.452 0.432 0.215 1.3 0.568 1.42 1.107 0.074 0.324 -0.327 0.429 -0.574 0.415 -0.332 -0.016 -0.79 -0.229 -1.063 0.063Z" stroke-width="1"></path><path id="Vector_110" fill="#141414" d="M33.358 127.257c-1.733 -1.992 -5.906 -1.943 -8.076 -2.742 -3.06 -1.162 -2.674 -3.229 -6.494 -2.524 -1.448 0.3 -3.154 0.888 -4.451 0.16 -0.806 -0.454 -1.192 -1.122 -1.292 -1.038 -0.178 0 0.1 1.539 1.38 2.64 1.3 1.146 3.294 0.807 4.542 1.124 1.622 0.42 3.534 3.142 2.9 3.721 -0.682 0.623 -1.691 -0.337 -2.432 -0.86 -2.555 -1.861 -4.59 -1.182 -6.272 -2.221 -1.462 -0.874 -1.987 -2.841 -3.288 -4.136 -2.042 -2.036 -5 -1.222 -4.876 -0.952 0.078 0.262 1.973 1.072 2.444 2.93a7.83 7.83 0 0 0 1.92 4.076c2.957 3.234 8.514 2.368 9.083 4.622 0.42 1.635 -4.233 2.021 -5.364 0.8 -0.473 -0.509 -0.465 -0.968 -0.554 -0.855a1.758 1.758 0 0 0 0.065 2.345c1.608 1.9 4.21 0.923 5.949 2.479 2.208 1.974 0.1 3.555 5.788 5.863 1.149 0.448 2.35 0.609 3.063 -0.407 0.733 -1.406 -0.964 -3.05 -1.508 -4.333 -0.534 -1.183 0.275 -1.927 1.258 -2.617 2.31 -1.653 1.34 -4.241 2.159 -4.958 0.392 -0.344 1.19 -0.095 1.9 -0.512 0.547 -0.3 0.557 -0.9 0.646 -1.094 0.206 -0.288 0.272 -0.069 0.986 -0.068a0.821 0.821 0 0 0 0.753 -0.543 0.825 0.825 0 0 0 -0.23 -0.9Zm-0.74 0.542c-1.92 -0.325 -1.5 1 -1.886 1.285 -0.476 0.295 -1.328 -0.032 -2.031 0.6 -0.97 0.827 -0.578 2.291 -0.942 3.217 -0.716 2.151 -2.3 1.838 -2.844 3.616 -0.655 2.116 2.334 4.363 1.73 5.33 -0.681 1.089 -4.33 -0.787 -5.216 -1.7 -1.064 -1.041 -1.016 -2.66 -2.461 -3.808 -1.212 -1.018 -2.427 -0.989 -3.678 -1.172 -1.515 -0.187 -3.22 -1.083 -2.89 -2.565 0.152 -0.687 -0.062 -0.15 0.38 0.51 1.085 1.594 5.012 1.468 6.144 0.26 0.834 -0.929 0.687 -2.515 -1.678 -3.534 -1.671 -0.716 -3.657 -0.924 -5.261 -1.654 -4.914 -2.236 -2.428 -6.43 -6.717 -7.735 5.139 -0.437 4.644 4.083 7.409 5.856 1.93 1.236 3.72 0.5 6.186 2.259 0.665 0.457 1.562 1.312 2.612 1.223a1.561 1.561 0 0 0 1.5 -1.593 5 5 0 0 0 -1.215 -2.347c-1.844 -2.359 -3.753 -1.773 -5.181 -1.946a4.104 4.104 0 0 1 -3.314 -2.4c2.459 3.314 6.044 -0.336 8.539 1.516a10.209 10.209 0 0 0 3.207 2.22c2.064 0.8 4.414 0.756 6.32 1.682 0.41 0.181 1.42 0.84 1.287 0.881v-0.001Z" stroke-width="1"></path></g><g id="Group_31"><path id="Vector_111" fill="#d6d5d4" d="M41.88 87.931a19.012 19.012 0 1 0 -0.001 38.023 19.012 19.012 0 0 0 0.002 -38.023Z" stroke-width="1"></path><path id="Vector_112" fill="#141414" d="M41.88 126.958a20.017 20.017 0 0 1 -3.9 -39.648 20.015 20.015 0 0 1 23.92 19.632 20.037 20.037 0 0 1 -20.02 20.016Zm0 -38.157a18.142 18.142 0 1 0 18.142 18.141A18.162 18.162 0 0 0 41.88 88.8v0.001Z" stroke-width="1"></path><path id="Vector_113" fill="#d6d5d4" d="M31.809 103.048c0.542 1.931 1.416 7.8 3.705 8.913a2.085 2.085 0 0 0 2.477 -0.929c0.46 -0.848 0.77 -1.769 0.918 -2.722 0.23 -0.922 1.482 -4.641 2.406 -4.5 1.156 0.173 4.112 6.129 4.891 7.9 0.184 0.418 1.157 0.746 -0.038 1.251 -2.541 1.073 -2.33 2.5 -0.182 3.536 4.032 1.943 6.175 3.92 6.432 -0.429 0.214 -3.642 1.3 -5.011 0.314 -5.556a3.095 3.095 0 0 0 -1.854 0.048c-0.621 0.193 -0.9 0.284 -1.274 -0.228 -2.877 -3.886 -5.479 -13.21 -7.772 -13.513 -2.123 -0.282 -3.391 5.5 -5.851 8.116 -1.963 -4.984 -2.672 -7.886 -4.563 -7.792 -1.47 0.07 0.038 4.648 0.391 5.905Z" stroke-width="1"></path><path id="Vector_114" fill="#141414" d="M49.836 111.939c2.442 -1.116 2.3 -1.074 2.505 -1.074a0.72 0.72 0 0 1 0.566 0.28 0.718 0.718 0 0 1 0.126 0.62l-1.541 5.887a0.716 0.716 0 0 1 -1.026 0.454l-5.29 -2.766a0.713 0.713 0 0 1 -0.383 -0.654 0.714 0.714 0 0 1 0.418 -0.633l2.418 -1.106c-6.781 -11.846 -5.551 -13.981 -9.683 -3.124 -0.335 0.881 -0.862 1.893 -1.8 1.893 -2.124 0 -2.924 -5.344 -3.53 -7.648 -0.306 -1.16 -0.735 -2.283 -1 -3.455 -0.407 -1.767 -0.445 -4 0.88 -2.477 1.758 2.026 2.684 9.945 3.739 7.924 1.1 -2.105 2.35 -4.158 3.48 -6.273 2.985 -5.598 2.345 -1.387 10.12 12.152Zm-8.077 -15.657c-1.581 0 -2.4 1.845 -5.787 8.018a71.949 71.949 0 0 1 -1.076 -3.382c-1.861 -6.352 -5.542 -5.376 -4.32 -0.067 0.293 1.266 0.7 2.3 1.013 3.486 0.81 3.082 1.494 8.53 4.643 8.434 2.944 -0.091 2.8 -4.638 5.282 -8.611 1.55 2.057 2.739 4.915 4.629 8.305 -1.235 0.564 -2.371 0.843 -2.407 2.192 -0.04 1.459 0.809 1.551 6.24 4.386a1.773 1.773 0 0 0 2.538 -1.123c1.573 -6 1.944 -6.5 1.23 -7.419 -1 -1.3 -2.32 -0.45 -3.468 0.075 -4.895 -8.712 -6.393 -14.294 -8.517 -14.294Z" stroke-width="1"></path></g><g id="Group_32"><path id="Vector_115" fill="#d6d5d4" d="M191.221 37.918a3.514 3.514 0 0 0 -2.271 0.115c-0.351 0.2 -0.284 0.215 -1.616 2.928 -1.95 3.975 -2.506 3.475 -3.769 5.237 -0.571 0.8 -0.925 1.735 -1.515 2.518 -1.534 2.037 -3.526 3.771 -5.244 5.655a41.932 41.932 0 0 1 -4.463 4.3c-1.715 1.657 -3.3 4.382 -7.844 7.348a12.26 12.26 0 0 0 -1.57 1.255c-13.873 12.9 -13.149 10.94 -14.74 12.322 -12.131 10.532 -18.953 13.685 -21.915 16.658 -1.813 0.46 -2.473 1.867 -9.241 6.513 -7.9 5.427 -9.606 6.2 -11.219 7.371 -2.391 1.738 -0.893 0.844 -4.161 2.5 -3.753 1.9 -6.842 4.993 -10.726 6.606 -0.253 0.105 -0.545 0.246 -0.593 0.515a30.936 30.936 0 0 0 -5.813 3.368c-8 5.168 -22.26 12.132 -23.29 13.068 -1.065 0.969 -10.157 4.267 -12.892 6a6.489 6.489 0 0 1 -1.022 0.3c-4.83 1.964 -17.687 6.99 -23.076 7.105a1.634 1.634 0 0 0 -0.99 1.731c0.129 1.414 1.48 2.027 1.845 2.54 0.426 0.6 0.11 0.514 1.2 0.4 1.549 -0.169 18.046 -4.356 29.114 -10.334a81.024 81.024 0 0 1 7.834 -3.525c0.1 -0.051 30.55 -16.4 33.239 -18.651a42.148 42.148 0 0 1 5.7 -3.641c5.1 -3.028 9.755 -7.072 14.893 -10.037 13.331 -7.7 51.9 -38.418 58.844 -46.32 4.7 -5.35 3.886 -2.786 13.216 -14.615 0.493 -0.626 0.7 -1.422 1.154 -2.08a43.92 43.92 0 0 0 2.595 -4.374 2.632 2.632 0 0 0 -1.664 -2.776Z" stroke-width="1"></path><g id="Group_33"><path id="Vector_116" fill="#141414" d="M190.281 36.685h-1.368C179.93 64.895 54.953 149.044 22.4 149.044c-0.39 0 -0.293 -0.25 -0.293 1.31 32.686 0.619 160.343 -85.466 168.174 -113.669Z" stroke-width="1"></path><path id="Vector_117" fill="#141414" d="M193.663 36.685c-4.343 21.908 -87.69 84.409 -143.265 108.7 -28.644 12.522 -28.3 5.74 -28.3 9.567 35.512 0.491 167.649 -89.164 172.744 -118.286l-1.179 0.019Z" stroke-width="1"></path></g></g><g id="Group_34"><path id="Vector_118" fill="#d6d5d4" d="M171.089 56c0.38 0.6 0.248 1.094 1.069 1.52 0.656 0.34 1.787 -0.246 2.241 -0.213 0.641 0.046 0.96 0.66 1.817 1.977 0.483 0.74 0.223 0.884 -0.152 1.556 -0.806 1.443 0.407 3.106 0.438 3.648 -0.072 0.367 -0.22 0.714 -0.435 1.019a2.658 2.658 0 0 1 -0.815 0.751c-0.831 0.345 -0.733 0 -1.127 1.448 -0.429 1.578 -2.166 2.091 -3.655 2.455 -3.17 0.775 -2.714 0.727 -3.931 -0.065 -1.8 -1.169 -4.047 -0.391 -5.091 -3.053 -0.932 -2.378 -1.2 -2.887 -1.13 -3.527 0.09 -0.861 0.872 -1.562 0.853 -2.427a5.91 5.91 0 0 1 -0.113 -1.149c0.187 -1.051 1.621 -1.084 2.183 -1.9 0.367 -0.529 0.386 -1.527 1.271 -2.313 1.387 -1.23 4.267 -0.755 4.368 -0.769A2.275 2.275 0 0 1 171.089 56Z" stroke-width="1"></path><path id="Vector_119" fill="#141414" d="M176.843 63.7c-0.27 -0.885 -0.879 -1.547 -0.7 -2.253 0.255 -0.988 1.62 -1.018 -0.053 -3.569 -1.228 -1.856 -2.3 -1.145 -3.41 -1 -0.945 0.124 -0.634 -0.38 -0.969 -1.068 -1.214 -1.945 -4.237 -1.5 -6.361 -0.735 -2.63 0.992 -1.62 2.686 -2.626 3.19 -0.8 0.4 -0.931 -0.074 -1.855 1.274a1.934 1.934 0 0 0 -0.306 1.775c0.109 0.434 0.059 0.313 -0.318 1.077 -1.235 2.5 1.292 6.248 2.838 7.179a4.453 4.453 0 0 0 1.952 0.437c1.132 0.137 2.727 2.7 8.361 -0.3a2.566 2.566 0 0 0 1.645 -2.736c0.184 -0.761 2.443 -1.142 1.802 -3.271Zm-1.81 -2.563c-0.421 1.452 0.99 2.768 0.7 3.456 -0.14 0.607 -1.633 0.943 -1.862 2.13 -0.138 0.713 0.283 1.229 -1.049 1.931 -1.4 0.758 -4.284 1.835 -5.783 1a4.558 4.558 0 0 0 -1.866 -0.8c-1.09 -0.117 -2.06 0.277 -3.831 -3.374 -1.217 -2.7 0.757 -3 0.18 -4.415 -0.11 -0.4 -0.164 -0.576 0.331 -1.275 0.575 -0.811 1.448 -0.406 1.913 -1.352 0.755 -1.329 0.022 -1.991 1.853 -2.582a8.67 8.67 0 0 1 3.734 -0.435c2.043 0.347 1.23 1.3 1.921 2.049a1.73 1.73 0 0 0 1.557 0.459c1.206 -0.186 1.6 -0.613 2.326 0.557 1.234 1.94 0.263 1.202 -0.124 2.653v-0.002Z" stroke-width="1"></path><path id="Vector_120" fill="#141414" d="M162.55 63.168c-0.778 0.192 0.454 2.308 0.223 2.368 -0.067 0.018 -0.422 -0.461 -0.849 -1.44 -0.442 -1.373 0.991 -2.693 2.429 0.62 0.691 1.591 1.311 2.451 0.732 3.153a0.696 0.696 0 0 1 -0.799 0.255 0.703 0.703 0 0 1 -0.254 -0.155 3.575 3.575 0 0 1 -0.656 -1.068c-0.648 -1.271 0.756 0.616 0.928 0.741 0.248 0.234 0.663 -0.2 0.4 -0.726 -0.168 -0.416 -1.641 -3.874 -2.154 -3.748Z" stroke-width="1"></path><path id="Vector_121" fill="#141414" d="M167.42 57.069c-1.168 0.152 -2.091 0.365 -2.159 0.213 -0.068 -0.152 0.846 -0.649 2.076 -0.808 2.115 -0.274 3.65 0.133 0.083 0.595Z" stroke-width="1"></path><path id="Vector_122" fill="#141414" d="M168.962 61.8c-3.232 1.9 -4.715 -0.13 -2.789 -1.24 0.268 -0.135 0.447 -0.119 0.451 -0.082 0.004 0.037 -0.129 0.1 -0.322 0.277 -0.406 0.365 -0.793 1.079 -0.292 1.245 1.175 0.39 5.177 -1.82 3.529 -2.289 -0.959 -0.272 -2.158 0.48 -2.214 0.342a2.799 2.799 0 0 1 2.335 -0.825c0.6 0.132 0.841 0.495 0.84 0.823 0 0.734 -0.906 1.379 -1.538 1.749Z" stroke-width="1"></path><path id="Vector_123" fill="#141414" d="M171.844 62.287c0.976 0.306 0.2 1.984 0.067 1.654 -0.062 -0.045 0.174 -0.412 0 -0.962 -0.406 -0.949 -1.455 1.693 -1.252 2.307 0.116 0.235 0.253 0.272 0.434 0 0.351 -0.538 0.593 -0.9 0.667 -0.855 0.1 0.058 -0.217 1.429 -0.858 1.543 -1.723 0.173 -0.434 -3.989 0.942 -3.687Z" stroke-width="1"></path><path id="Vector_124" fill="#141414" d="M169.844 68.771a3.048 3.048 0 0 1 -2.529 -0.265c-0.556 -0.259 -0.9 -0.343 -0.91 -0.426 -0.01 -0.083 0.427 -0.146 1.052 0.025a3.171 3.171 0 0 0 2.224 0.086c1.777 -0.525 3.212 -1.157 3.288 -0.981a7.153 7.153 0 0 1 -3.125 1.561Z" stroke-width="1"></path></g><g id="Group_35"><path id="Vector_125" fill="#d6d5d4" d="M180.784 48.483c1.167 0.923 1.328 2.031 0.915 2.751 -0.322 0.56 -0.97 0.841 -1.408 1.316 -0.256 0.278 -0.438 0.621 -0.707 0.887a3.675 3.675 0 0 1 -3.7 0.693c-0.481 -0.27 -0.78 -0.658 -2.007 -2.015a2.018 2.018 0 0 1 -0.413 -2.81c0.58 -1.2 0.934 -1 1.4 -1.514 0.339 -0.373 0.426 -0.94 0.811 -1.267 0.494 -0.419 1.216 -0.28 1.809 -0.361 0.653 -0.09 0.879 -0.341 1.44 0.044 1.07 0.735 0.561 1.249 1.86 2.276Z" stroke-width="1"></path><path id="Vector_126" fill="#141414" d="M182.518 49.32c-0.385 -0.911 -1.248 -1.192 -1.5 -1.412 -0.49 -0.437 -0.4 -2.764 -3.931 -2.591 -2 0.125 -2.472 1.552 -2.929 2.072 -0.322 0.365 -0.75 0.4 -1.194 0.826a3.995 3.995 0 0 0 -0.208 4.064c0.509 0.792 1.347 0.913 1.419 1.14 0.116 0.335 0.29 0.647 0.514 0.921 1.095 1.079 3.468 1.059 4.684 0.532a2.695 2.695 0 0 0 1.48 -1.819c0.087 -0.208 1.2 -0.447 1.575 -1.25a2.891 2.891 0 0 0 0.09 -2.483Zm-1.239 1.162c-0.071 1.138 -0.93 0.71 -1.659 1.676a9 9 0 0 0 -0.44 0.953c-0.522 0.839 -2.967 0.657 -3.4 0.2 -0.141 -0.179 -0.173 -0.431 -0.394 -0.742 -0.517 -0.689 -1.136 -0.675 -1.457 -1.1a3.232 3.232 0 0 1 -0.053 -2.377c0.152 -0.193 0.8 -0.414 1.2 -0.987 0.716 -1.014 0.7 -2.25 3.3 -1.481 1.354 0.443 0.838 1.5 1.713 2.307 0.491 0.451 1.27 0.615 1.19 1.551Z" stroke-width="1"></path><path id="Vector_127" fill="#141414" d="M177.231 52.965c-1.058 -0.16 -1.488 -1.062 -1.914 -1.722 -0.309 -0.478 -0.6 -0.667 -0.564 -0.774 0.016 -0.105 0.5 -0.052 0.979 0.424 0.46 0.453 0.922 1.218 1.59 1.309 0.567 0.158 0.811 -0.914 1.44 -1.336 0.6 -0.4 1.06 -0.3 1.059 -0.214 0.022 0.112 -0.345 0.233 -0.7 0.623 -0.414 0.449 -0.696 1.87 -1.89 1.69Z" stroke-width="1"></path></g><g id="Group_36"><path id="Vector_128" fill="#d6d5d4" d="M167.778 104.975c8.506 -6.156 10.411 -18.041 4.256 -26.547 -6.156 -8.506 -18.041 -10.411 -26.547 -4.255 -8.506 6.155 -10.411 18.04 -4.255 26.546 6.155 8.506 18.041 10.411 26.546 4.256Z" stroke-width="1"></path><path id="Vector_129" fill="#615fff" d="M168.1 83.9c-0.156 -0.7 -1.275 -5.158 -1.925 -5.447 -0.8 -0.357 -4.966 1.949 -5.724 2.365 -2.228 1.225 -1.6 2.764 0.092 3.031 0.655 0.1 1.109 0.317 0.787 0.893 -4.894 8.672 -4.718 8.793 -5.51 8.547 -0.525 -0.163 -1.7 -3.2 -1.865 -3.636 -0.892 -2.389 -0.572 -3.745 -2.01 -4.6 -1.133 -0.673 -2.67 0.035 -3.4 1.137a8.293 8.293 0 0 0 -1.014 3.3c-0.142 0.862 -1.389 5.025 -1.562 5.735 -1.182 4.9 0.515 5.408 1.586 3.979 2.568 -3.436 1.93 -6.928 2.782 -7.123 0.772 -0.176 0.694 1.315 4.42 6.97 0.549 0.833 1.114 1.337 2.044 0.9 1.144 -0.535 1.133 -0.953 7.469 -13.347 0.339 -0.662 0.61 -0.626 1.029 -0.412 1.81 0.922 3.378 0.266 2.801 -2.292Z" stroke-width="1"></path><path id="Vector_130" fill="#141414" d="M140.428 101.246c-10.424 -14.4 1.883 -34.3 19.383 -31.5a19.997 19.997 0 0 1 16.312 15.124c0.608 2.558 0.706 5.211 0.288 7.807 -2.817 17.543 -25.524 23.023 -35.983 8.569Zm16.2 -29.877a18.143 18.143 0 1 0 10.647 32.839c14.119 -10.215 6.989 -32.839 -10.643 -32.839h-0.004Z" stroke-width="1"></path><path id="Vector_131" fill="#141414" d="M165.444 78.78c0.755 0 0.6 0.162 2.23 6.427a0.721 0.721 0 0 1 -0.234 0.73 0.715 0.715 0 0 1 -0.759 0.102l-2.2 -1.01c-7.733 13.433 -7.116 17.805 -10.14 12.143 -1.13 -2.116 -2.377 -4.172 -3.475 -6.277 -1.051 -2.015 -2 5.909 -3.747 7.921 -1.306 1.5 -1.3 -0.674 -0.878 -2.479 0.271 -1.171 0.7 -2.294 1.007 -3.453 0.612 -2.313 1.419 -7.721 3.587 -7.644 2.076 0.073 2.09 4.954 4.884 8.809 1 1.374 3.853 -5.321 6.556 -10.03l-2.417 -1.108a0.719 0.719 0 0 1 -0.319 -1.015 0.717 0.717 0 0 1 0.286 -0.272c5.749 -3.002 5.375 -2.844 5.619 -2.844Zm0 -1.056c-0.588 0 -0.262 -0.091 -6.112 2.963a1.772 1.772 0 0 0 0.082 3.185l1.37 0.628c-1.863 3.336 -3.084 6.245 -4.635 8.3 -2.482 -3.992 -2.317 -8.585 -5.368 -8.617 -2.629 -0.027 -3.56 4.159 -4.154 6.753 -0.782 3.412 -2.506 7.383 -1.262 8.948 0.526 0.662 1.525 0.8 2.548 -0.374 1.257 -1.446 1.318 -2.886 2.692 -6.856 3.216 5.863 4.159 8.025 5.781 8.025 2.086 0 3.883 -6.041 8.53 -14.285 1.38 0.632 1.567 0.77 2.066 0.77a1.771 1.771 0 0 0 1.405 -0.69 1.77 1.77 0 0 0 0.313 -1.534l-1.536 -5.889a1.775 1.775 0 0 0 -1.72 -1.327Z" stroke-width="1"></path></g></g></svg>