<svg xmlns="http://www.w3.org/2000/svg" fill="none" viewBox="0 0 200 200" id="Wen-Moon--Streamline-Web-3.0.svg"><desc>Wen Moon Streamline Illustration: https://streamlinehq.com</desc><g id="Wen-Moon--cryptocurrency-crypto-web 3.0-metaverse-bitcoin-ethereum"><g id="Group"><path id="Vector" fill="#d6d5d4" d="M115.005 161.19c5.8 9.032 6.511 9.828 7.973 10.078a5.513 5.513 0 0 0 4.171 -1.207 3.692 3.692 0 0 0 1.353 -4.6c-1.192 -3.746 -16.826 -28.317 -22.358 -22.085 -2.733 3.093 3.108 8.858 8.861 17.814Z" stroke-width="1"></path><path id="Vector_2" fill="#d6d5d4" d="M164.979 165.3a6.936 6.936 0 0 0 -1.521 -3.624 51.47 51.47 0 0 0 -6.4 -7.85 17.343 17.343 0 0 0 -19.71 -3.038c-3.541 1.712 -6.86 5.607 -7.363 7.433a18.511 18.511 0 0 0 -0.137 8.931 21.066 21.066 0 0 1 -3.4 4.43c-5.708 0.206 -4.858 0.252 -9.508 -6.385 -2.475 2.357 -4.716 3.848 -2.323 9.744 1.709 4.212 5.537 9.17 8.4 12.611 2.781 3.344 5.031 3.745 8.873 2.956 5.797 -1.192 33.726 -18.414 33.089 -25.208Z" stroke-width="1"></path><path id="Vector_3" fill="#141414" d="M163.247 158.884c-4.017 -5.484 -8.047 -9.773 -14.829 -10.884 -10.433 -1.768 -19.57 5.429 -20.475 14.494 -2.826 -4.547 -9.658 -17.051 -16.419 -20.661 -4.7 -2.48 -7.911 0.623 -7.48 4.143 0.444 3.28 1.836 4.4 11.885 19.207 -0.387 0.369 -0.836 0.741 -1.313 1.184 -5.408 5.148 2.249 15.085 6.443 20.675 1.439 1.918 2.838 3.693 5.084 4.615 5.944 2.434 13.941 -3.362 19.913 -6.758 5.246 -3.073 16.861 -11.239 19.53 -16.085 2.2 -4.121 0.05 -6.669 -2.339 -9.93Zm-48.078 1.006c-5.21 -8.106 -10.509 -13.583 -8.383 -15.951 4.286 -4.937 19.346 16.936 20.914 21.776 0.5 1.6 0.186 2.368 -0.4 3.051a5.3 5.3 0 0 1 -3.278 1.719c-2.193 0.257 -2.707 -1.101 -8.853 -10.595Zm48.358 7.813c-2.369 4.3 -14.024 12.456 -18.649 15.195 -5.524 3.179 -14.228 9.749 -19.289 6 10.6 -0.987 26.572 -13.506 33.939 -21.263 9.844 -10.367 -12.26 11.4 -27.351 17.494a22.886 22.886 0 0 1 -8.547 1.826c-3.905 -4.7 -12.271 -15.172 -7.888 -19.44 0.328 -0.329 0.71 -0.664 1.087 -1.033 2.113 3.026 3.52 6.163 6.957 6.037 -4.479 2.022 -6.993 -2.53 -7.225 -2.446 -1.249 0.454 5.777 10.159 13.221 -1.27 1.274 3.386 3.352 5.675 3.572 5.482 0.449 -0.321 -4.9 -7.309 -2.563 -15.813 4.31 -8.981 16.744 -11.55 24.672 -4.934a43.874 43.874 0 0 1 8.373 10.472 4.066 4.066 0 0 1 -0.309 3.69v0.003Z" stroke-width="1"></path></g><g id="Group_2"><path id="Vector_4" fill="#d6d5d4" d="M191.053 78.328c-0.1 -2.956 -3.76 -3.982 -6.74 -3.43 -5.113 0.956 -6.152 6.875 -10.263 10.93a17.263 17.263 0 0 1 -4.529 2.807c-8.556 -4.772 -11.156 -14.309 -19.409 -12.508 -1.926 0.421 -2.157 2.223 -1.532 4.505 -0.907 -0.954 -4.2 -2.222 -6.517 -1.109a3.658 3.658 0 0 0 -2.19 3.4c0.161 1.735 1.86 2.409 4.758 7.156 1.847 3.038 3.008 5.364 4.1 7.236a47.26 47.26 0 0 0 0.885 6.553c2.343 7.213 13.427 9.682 21.592 5.761 4.509 -2.174 4.844 -4.52 5.28 -6.34 9.758 -5.758 10.518 -14.5 13.782 -22.346a6.304 6.304 0 0 0 0.783 -2.615Z" stroke-width="1"></path><path id="Vector_5" fill="#d6d5d4" d="M150.133 105.983c-23.914 4.007 -21.939 10.211 -15.191 10.478 3.679 0.24 5.477 -0.333 26.078 -4.034 -4.634 -1.327 -8.073 -2.014 -10.887 -6.444Z" stroke-width="1"></path><path id="Vector_6" fill="#141414" d="M180.6 74.937c-3.9 2.948 -6.931 12.647 -11.524 11.658a24.42 24.42 0 0 1 -2.744 -2.039c-2.583 -2.168 -4.735 -5.439 -7.573 -7.587 -3.893 -3.134 -11.62 -4.032 -12.009 1.243 -4.841 -2.117 -9.594 2.157 -8.113 5.913 0.561 1.479 1.534 2.222 2.832 3.965 2.614 3.5 4.418 7.488 6.706 10.86a22.469 22.469 0 0 0 0.058 3.585c0.812 8.058 10.294 11.7 18.257 10.079 4.915 -1.009 10.719 -4.1 10.527 -8.993 9.695 -4.844 10.962 -13.51 15.031 -23.186 2.616 -6.219 -6.358 -9.404 -11.448 -5.498Zm9.592 3.764c-0.094 0.625 -0.524 1.259 -1.532 4.088 -3.563 9.993 -5.455 17.89 -17.22 21.788 -8.294 2.7 0.652 1.083 3.915 -0.212 -1.9 7.588 -23.871 10.113 -25.433 -3.116 2.735 2.889 8.978 5.452 15.164 5.032 2.866 -0.216 4.219 -0.542 0.009 -0.917 -4.634 -0.445 -10.3 -2.153 -13.261 -5.137 -2.88 -2.884 -5.121 -9.786 -9.979 -15.391 -0.783 -0.907 -1.429 -1.74 -1.032 -2.864 0.824 -2.187 4.1 -2.857 6.228 -1.144 0.881 3.347 4.7 9.554 6.268 11.448 2.168 2.682 4.843 3.364 8.224 3.953 6.316 0.961 7.06 0.365 0.368 -1.624 -5.159 -1.615 -5.932 -2.11 -8.62 -6.514 -3.125 -5.227 -7.093 -11.8 -1.236 -11.266 7.815 0.61 8.562 8.568 18.541 13.3 5.966 2.773 10.688 1.442 10.588 0.969 -0.063 -0.624 -3.751 0.134 -9.284 -2.735 6.983 -3.223 6.657 -13.223 14.711 -12.725 2.395 0.146 3.789 1.666 3.582 3.066l-0.001 0.001Z" stroke-width="1"></path><path id="Vector_7" fill="#141414" d="m149.877 106.878 -0.19 -1.5c-5.288 0.463 -21.1 3.175 -20.748 8.485 0.363 5.433 9.015 4.349 14.371 3.249 2.595 -0.533 16.239 -3.5 19.534 -4.285l-0.3 -1.486c-14.143 2.263 -31.136 6.878 -31.29 2.4 -0.268 -2.878 15.626 -6.366 18.623 -6.863Z" stroke-width="1"></path></g><g id="Group_3"><path id="Vector_8" fill="#d6d5d4" d="M147.806 93.669c-0.6 -13.648 -5.629 -26.507 -15.752 -35.824 2.094 -2.774 0.8 -5.865 -1.816 -8.173a44.489 44.489 0 0 0 -10.172 -6.361c-4.143 -1.642 -11.138 -3.064 -13.883 0.454 -0.648 0.828 -0.305 0.781 -0.847 0.664a59.084 59.084 0 0 0 -22.611 -0.629c-7.49 1.278 -7.077 3.148 -8.713 2.316 -1.251 -0.636 -0.878 -3.625 -6.314 -1.883a33.012 33.012 0 0 0 -9.244 4.927c-2.122 1.582 -3.288 2.46 -2.886 5.194 0.439 2.986 -0.3 2.72 -2.669 4.519 -3.277 2.5 -8.03 10.426 -10.372 16.415 -4.757 12.166 -2.114 19.278 -5.891 21.735a4.52 4.52 0 0 0 -1.993 2.057c-1.986 4.191 2.979 18.407 5.044 23.258 2.455 5.767 5.08 4.517 6.694 4.933 4.563 1.138 5.3 12.022 26.237 19.6 9.108 3.3 11.2 2.431 11.55 3.155 1.015 2.124 3.439 2.574 5.58 3a30.936 30.936 0 0 0 16.682 -1.724c1.515 -0.594 3.115 -1.385 3.732 -2.907 0.452 -1.113 -0.27 -0.491 2.142 -1.389 3.287 -1.241 5.328 -2.565 8.966 -3.7 3.7 -1.159 2.873 0.094 5.452 0.007 4.861 -0.465 10.436 -5.375 10.78 -10.522 0.094 -1.4 -0.569 -2.095 0 -3.492 6.486 -11.909 10.898 -21.199 10.304 -35.63Z" stroke-width="1"></path><path id="Vector_9" fill="#d6d5d4" d="M65.745 80.276c5 -6.707 16.22 -5.164 19.059 1.681 0.607 1.464 2.909 11.507 1.037 12.355 -0.908 0.411 -6.162 -1.825 -10.255 -1.9 -3.123 -0.06 -6.711 0.991 -9.5 1.68 -1.31 0.322 -1.759 0.024 -2.208 -1.266a13.8 13.8 0 0 1 1.867 -12.55Z" stroke-width="1"></path><path id="Vector_10" fill="#d6d5d4" d="M83.352 106.543c-2.51 1.187 -9.466 2.857 -10.187 8.317 -0.333 2.523 0.9 4.79 4.172 5.487 7.212 1.538 10.3 -6.275 24.728 -3.27 10.389 2.163 11.547 2.516 13.319 2.4 4.29 -0.273 5.622 -4.085 3.74 -7.253 -3.455 -5.817 -22.082 -12.156 -35.772 -5.681Z" stroke-width="1"></path><g id="Group_4"><path id="Vector_11" fill="#141414" d="M148.309 93.649c-0.848 -15.756 -6.984 -28.011 -15.568 -35.87a5.64 5.64 0 0 0 -0.171 -6.206c-1.631 -2.589 -8.731 -7.913 -15.229 -9.738 -4.016 -1.1 -9.773 -1.44 -11.891 2.1a59.887 59.887 0 0 0 -25.266 -0.17c-4.089 0.822 -5.4 3.078 -6.442 1.326 -1.994 -3.346 -5.749 -1.791 -9.234 -0.091a34.696 34.696 0 0 0 -7.977 5.048 4.254 4.254 0 0 0 -1.542 3.692c0.207 2.765 0.835 2.492 -1.779 4.285 -3.478 2.28 -8.069 10.125 -9.8 13.908 -2 4.326 -3.911 9.243 -5.051 20.326 -0.71 5.762 -2.714 3.351 -4.16 6.581 -2.118 4.486 3.2 19.645 5.361 24.429 2.512 5.166 5.171 4.071 6.69 4.486 3.435 0.939 9.918 17.844 37.465 22.49 1.118 2.324 3.651 2.833 5.948 3.277 5.705 0.996 11.574 0.39 16.954 -1.751 2.141 -0.841 3.531 -1.678 4.208 -3.724 3.622 -1.09 10.536 -4.8 12.659 -4.724 1.025 0.034 2.13 0.648 3.454 0.466 5.471 -0.581 11.991 -6.667 10.927 -12.632 -0.565 -3.412 11.513 -16.29 10.444 -37.508Zm-4.2 16.4c-1.928 7.059 -5.209 12.727 -7.412 17.015 -0.832 1.618 -1.467 2.275 -1.045 4.46 0.852 4.866 -4.9 9.808 -8.907 10.274 -0.8 0.166 -1.786 -0.353 -3.221 -0.407 -2.51 -0.087 -9.33 3.74 -12.446 4.925 -0.268 -6.068 -12.7 -4.611 -12.58 -3.867 0.065 0.432 9.4 0.2 10.477 3.276a2.841 2.841 0 0 1 -1.112 2.983c-4.539 3.214 -22.414 4.507 -22.56 -0.122 -0.127 -4.035 9.076 -4.635 9.055 -5.189 -0.019 -0.6 -11 -0.755 -11.008 5.214 0 0.1 -16.784 -2.429 -29.015 -15.358 -3.317 -3.577 -4.281 -6.685 -7.561 -7.6 -1.914 -0.473 -3.338 0.615 -5.2 -3.339a74.197 74.197 0 0 1 -5.336 -18.214c-0.918 -5.078 0.743 -4.9 2.223 -6.131 4.86 -4.141 -0.615 -17.957 13.9 -36.083 2.375 -2.891 5.52 -2.964 5.08 -6.768 -0.147 -1.454 -0.635 -2.33 0.569 -3.406a32.833 32.833 0 0 1 7.449 -4.778c2.616 -1.312 5.311 -2.718 6.531 -0.749 1.9 2.973 4.41 1.061 6.213 0.317 3.925 -1.754 14.958 -3.35 26.743 -1.093 -0.5 4.41 8.42 7.81 8.594 7.033 0.037 -0.167 -0.706 -0.494 -1.945 -1.293 -9.481 -6.007 -3.236 -9.53 5.118 -7.1 5.28 1.582 12.518 6.415 14.035 8.7 2.042 2.962 0.408 6.446 -5.716 5.25 -2.787 -0.541 -4.7 -1.513 -4.838 -1.273 -0.322 0.542 7.19 5.07 11.423 2.147 13.083 12.815 17.345 34.109 12.483 51.175l0.009 0.001Z" stroke-width="1"></path><path id="Vector_12" fill="#141414" d="M133.583 72.909c-0.261 0.148 4.427 8.67 2.814 11.708 -0.757 1.474 -2.378 1.837 -4.257 -0.283a3.143 3.143 0 0 0 1.975 -3.508c-0.222 -1.789 -3.625 -8.261 -3.76 -8.5 -1.884 -3.377 -4.838 -3.352 -5.984 -1.62 -0.3 -3.907 2.509 -5.739 6.457 -1.447 3.427 3.53 -0.048 -1.23 -1.1 -2.112 -2.75 -2.294 -5.018 -1.714 -6.213 0.905 -1.672 3.946 1.582 8.843 4.439 13.073 1.589 2.322 3.193 4.755 5.025 5.676 2.627 1.382 5.194 -0.878 5 -3.868 -0.217 -3.958 -4.031 -10.313 -4.396 -10.024Zm-8.932 -1.109c0.112 -1.064 1.6 -1.977 3.167 -0.992 1.419 0.84 2.112 2.853 3.073 4.774 1.8 3.595 2.187 4.334 2.347 5.369a2.348 2.348 0 0 1 -1.581 2.8c-3.438 -4.337 -7.822 -12.008 -7.006 -11.95Z" stroke-width="1"></path><path id="Vector_13" fill="#141414" d="M76.484 134.871c-2.044 -2.383 -9.231 -6.471 -12.484 -7.849 -5.049 -1.936 -7.093 2.041 -5.272 5.157 1.978 3.437 8.24 7.392 8.435 6.971 0.167 -0.251 -7.855 -5.753 -7.778 -9.192 0.013 -1.661 1.3 -2.709 3.929 -1.662a3.14 3.14 0 0 0 -0.186 4.021c1.018 1.523 7.08 5.837 7.181 5.906 3.22 2.18 5.831 0.795 6.074 -1.244 1.768 2.936 0.432 5.581 -3 4.784 -1.1 -0.129 -6.8 -2.357 -2.339 -0.062 6.623 3.624 9.512 -2.111 5.44 -6.83Zm-3.226 3.568c-1.645 -0.111 -3.169 -1.6 -4.891 -2.882 -2.781 -2.073 -3.846 -2.808 -4.512 -3.741a2.345 2.345 0 0 1 0.154 -3.213c4.647 2.151 12.451 7.178 11.632 7.525 0.38 1.004 -0.541 2.486 -2.383 2.311Z" stroke-width="1"></path><path id="Vector_14" fill="#141414" d="M128.794 117.7c-1.519 2.405 -5.416 9.335 -5.217 12.2 0.138 2.7 3.1 3.651 5.337 2.125 2.955 -1.991 6.042 -7.793 5.628 -7.956 -0.36 -0.2 -5.881 9.5 -9 7 -0.663 -0.529 -0.688 -1.665 -0.326 -2.835a2.85 2.85 0 0 0 3.552 -0.139c0.99 -0.762 1.654 -1.877 3.292 -4.37 1.077 -1.638 2.362 -3.258 2.32 -5.017a2.582 2.582 0 0 0 -2.152 -2.707c1.335 -0.888 3.215 -1.147 3.87 0.112 1.072 1.911 -0.686 5.768 -0.332 5.892 0.2 0.069 1.025 -1.976 1.172 -2.4 2.198 -6.052 -4.238 -7.851 -8.144 -1.905Zm2.571 -0.932c0.844 -0.38 2.172 0.335 2.127 1.939 0 1.376 -0.911 2.392 -3.777 6.81a8.269 8.269 0 0 1 -1.5 1.887 2.066 2.066 0 0 1 -2.749 0.125c1.9 -4.959 5.643 -11.264 5.899 -10.757v-0.004Z" stroke-width="1"></path><path id="Vector_15" fill="#141414" d="M107.965 53.9c-2.416 -2 -8.1 -3.185 -8.138 -2.793 -0.048 0.209 5.437 1.755 7.422 3.6 1.447 1.363 1.212 3.315 -1.573 3.275a2.516 2.516 0 0 0 -1 -2.976c-0.891 -0.648 -1.978 -0.927 -4.519 -1.7 -1.649 -0.5 -3.347 -1.191 -4.827 -0.719a2.278 2.278 0 0 0 -1.759 2.495c-2.249 -1.89 -1.62 -4.065 1.891 -4.268a9.587 9.587 0 0 0 2.317 -0.221c0.012 -0.229 -6.062 -1.471 -6.479 2.007 -0.207 1.712 1.145 3.336 2.8 4.255 2.108 1.176 8.726 2.319 11.346 2.394 4.232 0.111 4.793 -3.487 2.519 -5.349Zm-13.532 1.709a1.5 1.5 0 0 1 1.115 -2.283c1.173 -0.346 2.3 0.191 6.707 1.508a7.288 7.288 0 0 1 1.971 0.8c0.392 0.219 0.689 0.575 0.834 1 0.146 0.423 0.13 0.887 -0.045 1.3 -3.948 -0.316 -11.03 -1.9 -10.582 -2.325Z" stroke-width="1"></path><path id="Vector_16" fill="#141414" d="M54.316 66.322c-0.253 -0.207 -4.15 4.006 -6.664 10.393 -2.161 5.452 -3.886 15.3 -3.3 21.9 0.318 3.676 1 5.857 1.177 5.821 0.22 -0.037 -0.093 -2.273 -0.139 -5.867a73.043 73.043 0 0 1 3.529 -21.379c2.381 -6.635 5.696 -10.625 5.397 -10.868Z" stroke-width="1"></path><path id="Vector_17" fill="#141414" d="M124.868 55.331c2.059 0.436 3.158 -1.339 2.386 -2.472 -1.109 -1.563 -7.317 -4.681 -7.527 -4.2 -0.141 0.3 7.251 4.527 6.28 5.232 -1.1 0.748 -16.29 -6.862 -13.591 -7.62 1.181 -0.307 3.352 0.437 3.419 0.325 0.143 -0.243 -1.832 -1.438 -3.59 -1.243 -1.221 0.148 -1.8 1.809 0.262 3.545 3.022 2.479 9.86 5.866 12.361 6.433Z" stroke-width="1"></path><path id="Vector_18" fill="#141414" d="M88.646 148.375c-0.016 0.393 3.716 0.833 8.3 0.354 4.582 -0.463 8.146 -1.653 8.051 -2.035 -0.095 -0.406 -3.727 0.122 -8.2 0.574 -4.478 0.469 -8.141 0.69 -8.151 1.107Z" stroke-width="1"></path><path id="Vector_19" fill="#141414" d="M129.9 136.456c-4.075 3.332 -3.153 4.475 0.93 1.138 4.083 -3.337 3.149 -4.475 -0.93 -1.138Z" stroke-width="1"></path><path id="Vector_20" fill="#141414" d="M64.722 50.976c5.785 -3.312 3.847 -3.893 -0.729 -1.275 -4.404 2.513 -5.251 4.687 0.729 1.275Z" stroke-width="1"></path><path id="Vector_21" fill="#141414" d="M91.232 128.008c-1.9 -2.019 -11.742 -5.211 -12.694 -1.741a2.39 2.39 0 0 0 0.922 2.274c1.319 1.267 3.7 1.695 3.779 1.507 0.146 -0.344 -1.843 -0.829 -3.018 -2.215 -3.6 -4.251 12.233 0.348 10.391 2.236 -0.43 0.28 -0.934 0.423 -1.447 0.409 -2.3 0.059 -3.792 -0.342 -3.843 -0.131 -0.136 0.378 4.508 2.043 6.141 0.593a2.093 2.093 0 0 0 -0.231 -2.932Z" stroke-width="1"></path><path id="Vector_22" fill="#141414" d="M117.638 58.144c-0.428 -0.082 -0.67 -0.018 -0.689 0.075 -0.06 0.217 0.8 0.485 1.507 1.5 0.768 1.074 0.822 2.932 -0.232 2.142a28.07 28.07 0 0 1 -3.824 -4.135c-4.962 -5.35 1.231 4.8 3.5 5.6a1.792 1.792 0 0 0 2.188 -0.646c0.964 -1.545 -0.538 -4.157 -2.45 -4.536Z" stroke-width="1"></path><path id="Vector_23" fill="#141414" d="M54.894 89.3c-0.126 0.074 0.245 4.059 -0.97 4.487 -0.315 0.173 -1.3 -0.065 -1.651 -1.2 -0.488 -1.488 0.495 -3.166 -0.059 -6.141 -0.323 -1.677 -0.9 -2.572 -1.074 -2.509 -0.2 0.073 0 1.058 0.042 2.619 0.07 3.393 -1.846 7.107 1.609 8.507 1.08 0.469 2.387 0.026 2.882 -1.7 0.547 -2.021 -0.434 -4.308 -0.779 -4.063Z" stroke-width="1"></path><path id="Vector_24" fill="#141414" d="M127.2 109.768c-0.16 -0.155 -0.856 0.246 -0.953 1.281a2.334 2.334 0 0 0 0.921 1.945 2.322 2.322 0 0 0 2.122 0.358 2.318 2.318 0 0 0 1.508 -1.535 2.335 2.335 0 0 0 -0.395 -2.115c-0.686 -0.782 -1.483 -0.7 -1.523 -0.479 -0.044 0.249 1.068 0.992 0.723 2.039a1.262 1.262 0 0 1 -1.794 0.581c-0.909 -0.663 -0.419 -1.896 -0.609 -2.075Z" stroke-width="1"></path><path id="Vector_25" fill="#141414" d="M42.128 111.635c-3.333 -13.656 -4.8 -13.448 -1.426 0.348 2.398 9.689 5.661 16.781 1.426 -0.348Z" stroke-width="1"></path><path id="Vector_26" fill="#141414" d="M92.937 64.187c-0.375 -1.194 -0.925 -1.756 -1.092 -1.671 -0.191 0.1 0 0.79 0.072 1.867 0.416 6.369 -4.046 -2.754 -4.619 -2.566 -0.2 0.064 -0.126 0.825 0.27 1.942 2.379 6.682 6.702 4.787 5.369 0.428Z" stroke-width="1"></path></g><path id="Vector_27" fill="#141414" d="M86.849 94.13c1.68 -5.7 0.112 -12.935 -4.631 -16.572a12.418 12.418 0 0 0 -15.033 -0.139c-5.312 3.916 -6.4 11.505 -3.773 16.776 -3.3 1.752 -5.748 4.237 -5.45 4.578 0.534 0.613 6.393 -4.684 16.235 -5.121 9.962 -0.443 16.129 4.344 16.625 3.661 0.167 -0.229 -1.174 -1.676 -3.973 -3.183Zm-22.034 -0.621a13.228 13.228 0 0 1 0.05 -9.485c2.61 -7.083 12.413 -9.61 18.143 -2.441a15.99 15.99 0 0 1 2.378 11.826 25.318 25.318 0 0 0 -20.571 0.1Z" stroke-width="1"></path><path id="Vector_28" fill="#141414" d="M74.3 80.711c-1.706 1.447 -0.853 5.588 4.219 6.042 -3.653 2.013 -0.983 8.71 2.805 6.377 5.268 -3.242 -2.131 -16.567 -7.024 -12.419Z" stroke-width="1"></path><path id="Vector_29" fill="#141414" d="M87.7 76.946c-3.773 -4.345 -7.818 -4.666 -7.707 -5.324 0.089 -0.532 5.246 -0.075 8.977 4.221 3.691 4.252 3.462 9.468 2.92 9.481 -0.581 0.014 -0.638 -4.282 -4.19 -8.378Z" stroke-width="1"></path><path id="Vector_30" fill="#141414" d="M69.347 106.707c-2.655 2.835 -2.772 5.822 -3.318 5.805 -0.591 -0.018 -0.718 -3.957 2.091 -6.955 2.882 -3.077 6.754 -3.049 6.8 -2.54 0.054 0.531 -2.966 0.908 -5.573 3.69Z" stroke-width="1"></path><path id="Vector_31" fill="#141414" d="M121.244 114.369c-0.616 -3.905 -3.548 -6.111 -7.166 -7.88 -11.285 -5.771 -25.888 -4.687 -36.737 1.894 -9.073 5.633 -4.451 11.912 0.973 12.806 4.648 0.672 8.853 -2.19 12.821 -3.349 9.18 -2.732 19.2 4.3 26.068 2.3 3.097 -0.909 4.456 -3.14 4.041 -5.771Zm-3.255 2.835c-5.245 3.748 -16.8 -4.764 -27.465 -1.4 -4.471 1.4 -12.1 6.536 -15.994 1.265 10.907 -4.846 18.294 -4.929 18.23 -5.615 -0.034 -0.425 -8.885 -0.341 -18.913 4.079 -0.442 -2.5 2.17 -4.431 4.359 -5.688 18.275 -10.306 39.346 -2.359 40.674 4.677 -11.728 -5.622 -24.672 -3.508 -24.68 -3.322 -0.026 1.262 11.809 -1.259 24.533 5.127 -0.184 0.34 -0.438 0.637 -0.744 0.873v0.004Z" stroke-width="1"></path><path id="Vector_32" fill="#141414" d="M60.694 64.406c-1.063 1.071 -2.059 2.068 -1.726 3.553a7.717 7.717 0 0 0 1.772 3.121c3 3.268 6.038 -0.327 9.539 -1.81 5.128 -2.225 9.621 1.316 11.862 -2.084 5.643 -8.559 -11.341 -12.968 -21.447 -2.78Z" stroke-width="1"></path><path id="Vector_33" fill="#141414" d="M113.221 80.763c-5.371 0.642 -9.325 2.643 -9.13 3.14 0.151 0.384 2.239 -0.044 5.267 -0.542 2.1 4.632 7.788 2.34 7.283 -0.927 3.56 -0.311 6.138 -0.371 6.2 -0.821 0.066 -0.53 -4.253 -1.52 -9.62 -0.85Z" stroke-width="1"></path><path id="Vector_34" fill="#141414" d="M114.293 87.553c-4.655 0.531 -8.457 0.174 -8.458 -0.28 0 -0.475 3.716 -0.873 8.268 -1.392 4.552 -0.519 8.262 -0.968 8.369 -0.5 0.101 0.438 -3.524 1.642 -8.179 2.172Z" stroke-width="1"></path><path id="Vector_35" fill="#141414" d="M120.683 95.141a17.121 17.121 0 0 0 -19.664 -0.274c3.187 -5.06 2.908 -12.543 -1.607 -18.687 5.034 1.767 8.907 -1.4 10.707 -6.43 0.528 -1.528 0.358 -1.709 0.46 -1.134a10.22 10.22 0 0 0 9.67 8.193c1.74 0.02 2.728 -0.45 2.691 -0.7 -0.119 -0.8 -7.636 0.065 -10.992 -7.9 -0.77 -1.79 -0.94 -3.282 -1.791 -1.712a26.47 26.47 0 0 1 -3.413 5.721 6.053 6.053 0 0 1 -7.444 1.91c-2.118 -0.832 -6.187 -3.773 -6.611 -3.276 -0.385 0.6 9.84 7.516 8.371 18.708 -0.511 4.664 -3.628 8.514 -3.243 8.826 0.248 0.227 0.271 -0.484 3.982 -2.329 12.3 -6.216 21.141 2.812 21.695 2.265 0.186 -0.162 -0.674 -1.593 -2.811 -3.18Z" stroke-width="1"></path></g><g id="Group_5"><path id="Vector_36" fill="#d6d5d4" d="M76.272 159.729A15.579 15.579 0 0 0 60.55 162.5c-0.851 -1.09 -1.284 -1.561 -1.331 -4.134 -0.076 -4.066 0.763 -4.716 5.193 -5.852 -0.135 -1.195 -0.884 -5.43 -7.849 -4.171 -5.627 1.022 -4.975 1.96 -10.154 1.747 -2.623 -0.107 -7.841 -0.624 -7.958 3.515 -0.034 1.366 3.245 17.683 3.531 19.888 1.068 8.244 0.892 13.567 7.991 14.453 3.757 0.468 21.741 0.08 28.311 -1.189 3.564 -0.695 4.857 -2.328 5.689 -5.953 2.091 -9.004 1.034 -18.03 -7.701 -21.075Z" stroke-width="1"></path><path id="Vector_37" fill="#d6d5d4" d="M85.223 144.775c-13.831 -8.928 -14.738 -9.776 -16.6 -10.038a2.908 2.908 0 0 0 -3.306 1.931c-0.939 2.189 -0.015 3.973 1.627 5.778a64.698 64.698 0 0 0 11.326 9.374l0.192 0.6c-4.6 1.42 -16.44 -0.82 -18.368 2.922a7.327 7.327 0 0 0 -0.551 3.026 6.34 6.34 0 0 0 0.842 4.331 15.988 15.988 0 0 1 5.676 -3.346c4.967 -1.645 12.131 -0.624 16.26 4.057 6.069 -0.451 12.691 -1.925 13.658 -7.936 0.953 -5.915 -5.836 -7.523 -10.756 -10.699Z" stroke-width="1"></path><path id="Vector_38" fill="#141414" d="M96.691 151.092c-2.232 -4.247 -6.117 -4 -21.6 -14.616 -3.038 -2.089 -6.134 -4.253 -9.228 -2.584a5.741 5.741 0 0 0 -2.211 3.632c-0.389 3 1.737 5.1 3.734 6.977 10.428 9.752 16.066 6.908 0.035 7.068 -2.5 0.025 -1.323 0.47 -2.258 -1.042a7.595 7.595 0 0 0 -5.183 -3.078c-2.781 -0.506 -5.511 0.409 -8.266 1.079 -4.589 1.12 -5.2 0.288 -8.48 0.277 -3.948 0.016 -5.988 2.309 -6.012 4.764 -0.037 1.2 -0.083 0.69 2.981 17.553 1.7 9.343 0.215 17.308 10.145 18.351 4.641 0.407 20.909 0.017 28.213 -1.314a7.588 7.588 0 0 0 5.184 -3.045c2.409 -3.631 3.642 -14.371 0.457 -20.344a19.701 19.701 0 0 0 9.228 -2.864c3.496 -2.292 5.289 -6.957 3.261 -10.814ZM83.408 179.4c-1.3 6.586 -2.436 6.819 -16.016 7.595 -5.122 0.3 -15.558 0.279 -16.837 0.166 -6.082 -0.491 -6.6 -4.3 -7.418 -11.112 -2.347 -19.727 -6.8 -24.4 -0.679 -25.212 -1.048 3.686 0.564 7.286 1.618 12.4 2.509 11.585 0.426 19.057 7.862 20.945 5.039 1.22 28.415 -0.993 28.34 -1.631 -0.039 -0.359 -23.351 1.223 -27.916 0 -3.691 -0.975 -4.344 -3.945 -4.67 -7.733 -1.2 -15.736 -4.86 -19.642 -3.092 -23.985 0.986 0.074 2.021 0.2 3.1 0.191 5.277 -0.081 9.911 -3.625 14.482 -1.122 -2.965 -1.018 -6.267 1.163 -7.152 4.184 -1.214 3.924 1.153 8.734 1.494 8.593 0.437 -0.177 -2.531 -7.41 1.509 -10.444a3.53 3.53 0 0 1 4.639 -0.139 5.744 5.744 0 0 0 -3.591 2.262c-1.052 1.732 -1.048 6.273 0.375 8.121 -4.431 4.476 -3.689 10.831 -3.191 10.7 0.3 -0.023 0.193 -3.388 2.071 -6.823 2.063 -3.851 7.377 -7.242 13.686 -6.678 10.717 1.001 13.378 9.234 11.386 19.722Zm11.468 -22.982c-1.572 4.593 -7.353 5.766 -12.208 6.126 -4.488 -5.1 -14.889 -6.956 -21.983 -1.175 -0.554 -1.189 -0.288 -3.76 -0.162 -4.554 0.77 -4.92 13.186 -1.663 19.165 -3.851 4.3 2.2 5.27 2.321 1.076 -0.481 -4.755 -3.216 -17.87 -11.872 -14.382 -15.979 0.316 -0.363 0.155 -0.421 0.956 -0.846 2.717 -1.144 9.721 5.683 19.217 10.868 4.509 2.485 10.17 4.595 8.321 9.892Z" stroke-width="1"></path></g><g id="Group_6"><path id="Vector_39" fill="#615fff" d="M193.316 60.078C187.6 42.43 172.5 36.254 163.6 40.465c-0.722 0.343 -41.487 23.177 -42.017 23.445 -4.164 2.141 -1.657 3.562 -5.181 5.481 -3.138 1.717 -10.706 6.731 -10.825 6.816 -1.826 1.3 -2.633 2.488 -2.263 6.38 0.417 4.352 2.778 11.708 5.766 13.5 1.113 0.668 2.589 0.361 8.234 -0.016 2.634 5.371 4.9 5 7.143 4.482 3.206 -0.735 5.921 -0.914 8.051 -3.153 0.609 -0.058 0.984 -0.095 2.1 -0.274 7.291 -1.19 21.865 -1.707 45.329 -4.3 8.4 -0.926 19.207 -14.707 13.379 -32.748Z" stroke-width="1"></path><path id="Vector_40" fill="#141414" d="M190.49 66.366c-1.824 -11.448 -10.608 -25.033 -22 -22.422 -19.333 4.231 -10.632 37.1 1.594 42.933 9.926 4.896 22.94 -4.32 20.406 -20.51Zm-21.73 15.45c-7.6 -3.647 -11.391 -22.4 -8.239 -28.064 3.514 -6.728 15.962 -8.883 21.689 7.46 5.371 15.762 -5.532 24.63 -13.45 20.604ZM188.5 73.5c-1.712 9.805 -10.6 14.728 -17.4 11.258 -0.267 -0.129 -1.812 -0.976 -1.24 -0.78 5.075 1.444 9.973 -1 12.712 -5.227 8.376 -12.717 -5.372 -38.043 -19.456 -29.75a11.799 11.799 0 0 1 14.25 -1.886c7.912 4.478 12.561 17.952 11.134 26.385Z" stroke-width="1"></path><path id="Vector_41" fill="#141414" d="M195.426 66.725C192.82 45.211 174.2 33.6 161.966 40.5c-49.122 27.7 -42.242 22.625 -44.4 26.854 -0.456 0.893 0.34 -0.211 -10.893 7.073 -1.6 1.039 -3.172 1.936 -3.846 3.735 -1.68 4.4 2.336 17.176 6.443 18.64 1.278 0.448 1.658 0.237 7.549 -0.226a10.878 10.878 0 0 0 3.022 3.986c1.711 1.338 2.943 1.032 4.769 0.649 2.656 -0.618 6.362 -0.933 8.492 -3.477 51.664 -5.465 47.8 -2.559 54.553 -8.414 6.117 -6.277 8.887 -13.296 7.771 -22.595Zm-54.75 9.123c1.759 6.423 4.516 15.616 11.06 18.057 -8.207 0.835 -11.764 -9.08 -13.927 -16.932 -1.9 -6.8 -3.907 -15.81 1.173 -20.858 4.477 -2.492 -3.875 -0.247 1.694 19.733ZM116.19 95.084c-5.918 0.33 -6.433 0.958 -7.955 -1.377a24.363 24.363 0 0 1 -3.777 -10.649c-0.59 -5.431 0.436 -5.165 6.075 -8.731 2.042 -1.291 4.176 -2.66 6.337 -3.81a22.452 22.452 0 0 0 0.524 8.713c1.359 5.8 1.79 3.578 0.172 4.984 -2.921 2.466 -2.695 7.278 -1.376 10.87Zm10.867 0.609c-0.651 2.609 -3.21 4.288 -5.667 3.172 -3.045 -2.123 -5.574 -10.1 -2.4 -13.011 3.61 -3.299 9.564 4.194 8.067 9.839Zm4.807 0.294c-0.944 1.4 -2.646 1.974 -4.29 2.357 3.219 -4.3 0.4 -12.283 -4.3 -14.265a8.428 8.428 0 0 1 4.665 -0.377c4.538 1.266 6.63 8.267 3.925 12.285Zm11.361 -1.143c-8.252 0.923 -5.746 0.619 -9.116 1.2 1.825 -4.242 0.142 -9.4 -2.817 -12.282 -3.256 -3.3 -7.225 -2.229 -11.541 -0.677 -0.751 -3.479 -1.607 -7 -1.4 -10.845 0.208 -3.073 0.837 -3.429 1.077 -3.929 1.833 -3.669 -1.537 -0.588 16.576 -10.552 -3.986 6.977 -0.082 20.824 2.79 27.508 1.483 3.442 3.757 7.014 7.081 8.778 1.144 0.578 1.958 0.284 -2.65 0.799Zm47.637 -13.483a22.774 22.774 0 0 1 -4.708 6.384c-2.562 2.241 -3.62 3.337 -8.091 3.723 -24.883 2.147 -29.552 6.62 -35.764 -16.063 -1.886 -6.857 -3.986 -16.283 0.876 -21.632 21.237 -11.974 20.706 -11.706 21.636 -12.081 5.852 -2.356 16.141 -0.15 23.116 10.789 5.342 8.407 7.53 20.137 2.935 28.88Z" stroke-width="1"></path></g><g id="Group_7"><path id="Vector_42" fill="#d6d5d4" d="M163.346 47.7c-10.961 8.933 -2.009 41.885 14.814 38.961 9.679 -1.682 16.695 -17.464 7.867 -32.377 -4.577 -7.729 -14.652 -13.124 -22.681 -6.584Z" stroke-width="1"></path><path id="Vector_43" fill="#141414" d="M191.016 66.968c-1.172 -10 -8.114 -22.164 -17.789 -23.3 -9.885 -1.268 -18.215 6.732 -16.087 21.702 4.56 33.571 36.56 25.507 33.876 1.598Zm-3.246 6.82c-2.389 9.178 -11.045 12.958 -17.334 9.449 -9.341 -4.925 -16.181 -30.438 -3.275 -35.972 14.67 -5.759 23.401 15.402 20.609 26.523Z" stroke-width="1"></path><path id="Vector_44" fill="#141414" d="M182.713 58.41c-8.482 -15.593 -18.319 -5.794 -13.526 1.386a10.684 10.684 0 0 0 7.96 4.256c-6.794 4.109 -1.983 17.806 5.066 13.043 5.293 -3.576 3.013 -14.064 0.5 -18.685Z" stroke-width="1"></path><path id="Vector_45" fill="#141414" d="M187.4 25.653a4.02 4.02 0 0 0 -2.248 -2.545c-16.571 -9.321 -36.462 0.807 -36.808 5.9 -0.219 2.652 3.725 7.071 5.278 8.787 2.369 2.617 6.291 -0.477 9.239 -1.979a22.928 22.928 0 0 1 8.88 -1.65c3.887 0.068 9.969 2.505 11.507 2.34 0.967 -0.1 1.239 -0.814 1.633 -1.69 0.811 -1.801 2.946 -7.234 2.519 -9.163Z" stroke-width="1"></path></g><g id="Group_8"><path id="Vector_46" fill="#d6d5d4" d="M117.378 51.523c15.451 -1.793 22.643 -26.383 14.543 -33.506 -1.681 -1.479 -8.791 -4.2 -11.471 -4.788 -15.615 -3.414 -28.085 20.8 -20.432 31.025 2.54 3.357 12.966 7.78 17.36 7.27Z" stroke-width="1"></path><g id="Group_9"><path id="Vector_47" fill="#141414" d="M129.756 16.129a51.827 51.827 0 0 0 -9.2 -3.393c-17.846 -3.9 -31.034 26.323 -18.044 34.379 3.3 2.044 11.305 5.542 14.923 4.895 15.935 -1.569 25.248 -30.21 12.321 -35.881Zm3.733 8.308c-3.575 -0.516 -3.273 -0.75 -6.143 -2.1a10.929 10.929 0 0 0 -2.8 -6.252c-0.211 -0.216 -0.873 -0.52 2.619 1.014 2.658 1.232 5.364 1.678 6.324 7.338Zm-0.457 8.825c-4.151 -0.567 -3.405 -0.735 -6.542 -2.079a23.545 23.545 0 0 0 0.984 -7.442c4.823 1.133 2.236 0.441 6.183 1.993a21.754 21.754 0 0 1 -0.625 7.528Zm-32.038 10.231c-5.5 -6.785 -0.5 -24.717 12.5 -28.731 3.813 -1.178 7.518 -0.792 10.218 2.1 5.392 5.781 1.121 18.173 -3.84 24.516 -3.07 3.977 -6.543 6.375 -11.57 6.023a11.601 11.601 0 0 1 -7.308 -3.908Zm8.7 5.035a12.695 12.695 0 0 0 6.251 -1.74c1.671 0.7 2.527 0.306 5.49 2.056 -4.279 2.032 -7.163 1.379 -11.735 -0.316h-0.006Zm13.04 -0.38c-2.754 -0.836 -2.433 -0.357 -5.536 -2.212A22.937 22.937 0 0 0 121.8 41c2.955 0.757 1.93 -0.156 6.558 1.929a19.9 19.9 0 0 1 -5.619 5.219h-0.005Zm6.375 -6.282c-4.493 -0.881 -2.343 -0.235 -6.545 -2.014a33.44 33.44 0 0 0 3.52 -7.382c2.932 0.787 1.478 -0.109 6.616 1.939a29.241 29.241 0 0 1 -3.586 7.457h-0.005Z" stroke-width="1"></path><path id="Vector_48" fill="#141414" d="M106.422 45.221c5.644 2.477 12.141 -5.492 14.686 -10.4 3.935 -7.685 4.17 -18.258 -3.987 -19.008 -5.452 -0.48 -10.644 4.926 -12.828 9.648 -2.066 4.46 4.263 -9.687 12.748 -8.8 7.415 0.8 6.74 10.7 3.152 17.682 -1.822 3.511 -6.559 9.46 -10.315 10.279 -5.006 1.092 -9.966 -5.139 -6.926 -15.339 0.544 -1.775 1.571 -4.15 0.555 -2.242 -3.196 6.009 -3.229 15.586 2.915 18.18Z" stroke-width="1"></path><path id="Vector_49" fill="#141414" d="M113.953 21.031a11.592 11.592 0 0 0 -1.267 -0.306c-0.767 1.731 -1.886 5.731 -3.211 8.688 -1.325 2.957 -3.307 6.668 -3.884 8.509 1.132 0.367 1.02 0.3 1.12 0.373 -0.837 1.686 -0.251 3.7 0.8 0.773 0.089 -0.255 0.034 -0.23 0.21 -0.131 1.316 0.738 1.3 0.34 1.154 0.721 -1.024 2.682 0.3 2.122 0.964 0.374 0.18 -0.459 0.021 -0.353 0.431 -0.351 4.258 0.078 5.386 -6.531 3.535 -9.389a4.498 4.498 0 0 0 3.945 -5.158 4.507 4.507 0 0 0 -0.978 -2.18c0.793 -1.262 0.578 -2.523 0.277 -2.542 -0.301 -0.019 -0.588 0.741 -0.96 1.616 -0.161 0.39 0.117 0.248 -1.218 -0.529 1.174 -2.299 0.115 -2.924 -0.918 -0.468ZM108.06 36.77a52.003 52.003 0 0 1 2.15 -6.786 5.132 5.132 0 0 1 2.583 1.6c2.107 3.116 0.046 9.393 -4.733 5.186Zm8.6 -11.677a2.674 2.674 0 0 1 -0.992 3.183c-1.541 1.028 -3.254 0.117 -4.472 -0.343 0.877 -1.713 1.875 -3.46 2.61 -4.835 1.25 0.413 2.394 0.847 2.854 1.995Z" stroke-width="1"></path></g></g><g id="Group_10"><path id="Vector_50" fill="#d6d5d4" d="M28.433 109.446c-3.621 -0.217 -6.535 1.569 -10.014 3.709a9.344 9.344 0 0 0 -3.05 2.385c-5.481 7.641 5.9 30.72 19.32 31.311 3.734 0.164 9.49 -3.461 11.934 -5.676 8.586 -7.775 -4.81 -30.928 -18.19 -31.729Z" stroke-width="1"></path><g id="Group_11"><path id="Vector_51" fill="#141414" d="M49.511 131.375c-1.983 -9.669 -10.6 -21.6 -21.049 -22.42 -3.648 -0.286 -7.006 1.736 -10.307 3.77a9.563 9.563 0 0 0 -3.191 2.528C8.6 124.022 22.815 148.731 36 147.348c2.4 -0.265 6.342 -2.4 8.559 -3.953 3.869 -2.686 6.209 -5.214 4.952 -12.02Zm-30.348 -17.032c4.9 -3.1 0.541 -1.467 1.089 5.007 -2.164 1.49 -2.055 1.69 -4.732 2.352 -0.331 -5.212 1.55 -6.002 3.643 -7.359Zm-3.529 8.55c3.038 -1.75 1.469 -1.051 4.782 -2.237a27.078 27.078 0 0 0 2.358 7.195c-2.351 1.493 -2.02 1.636 -5.031 2.346a25.25 25.25 0 0 1 -2.109 -7.304Zm2.592 8.319c3.662 -2.106 2.5 -1.181 5.125 -2.195a40.124 40.124 0 0 0 4.566 6.934c-3.347 1.9 -1.346 1.022 -5.038 2.272a35.201 35.201 0 0 1 -4.653 -7.011Zm5.462 7.924c2.8 -1.928 2.512 -1.348 5.1 -2.158a26.035 26.035 0 0 0 5.066 4.511c-2.078 1.772 -1.911 1.421 -4.188 2.408a22.456 22.456 0 0 1 -5.978 -4.761Zm7.165 5.32c2.038 -1.708 2.887 -1.524 4.221 -2.26a11.156 11.156 0 0 0 5.9 1.24c-3.826 2.054 -5.951 2.702 -10.121 1.02Zm16.822 -6.995c-0.684 1.892 -1.727 2.776 -4.045 4.358 -7.158 2.709 -13.685 -4.506 -17.739 -11.031 -10.685 -17.694 -0.333 -24.912 10.886 -16.84 9.543 6.826 12.685 18.566 10.898 23.513Z" stroke-width="1"></path><path id="Vector_52" fill="#141414" d="M43.167 124.088a13.57 13.57 0 0 0 -1.693 -2.46c-0.241 0.158 3.028 4.238 3.7 10.245 0.29 2.818 -0.2 6.095 -2.518 7.411 -2.886 1.733 -6.351 -1.35 -8.626 -3.282a30.572 30.572 0 0 1 -8.51 -12.178c-1.143 -3.04 -1.761 -7.519 0.145 -9.492 1.327 -1.4 4.283 -2.072 7.63 -0.159 5.6 3.235 7.816 7.513 8.089 7.323 0.273 -0.19 -6.584 -10.26 -13.336 -9.196 -7.35 1.171 -4.54 11.874 0.19 18.68 3.048 4.341 10.325 11.834 14.843 9.024 4.652 -2.743 2.953 -10.774 0.086 -15.916Z" stroke-width="1"></path><path id="Vector_53" fill="#141414" d="M34.626 126.679c1.043 -0.178 1.5 -1.095 1.9 -1.689 1.232 -1.845 1.056 -2.053 0.9 -2.467 -4.6 -3.5 -4.847 -3.851 -8.151 -5.553a43.713 43.713 0 0 0 1.6 7.958c0.416 1.364 0.268 1.139 0.554 1.264a6.359 6.359 0 0 0 3.197 0.487Zm-4.142 -7.979a48.192 48.192 0 0 1 6.066 4.36c-0.232 0.49 -0.507 0.958 -0.821 1.4 -0.536 0.8 -0.9 2.01 -3.729 0.941a34.894 34.894 0 0 1 -1.516 -6.701Z" stroke-width="1"></path><path id="Vector_54" fill="#141414" d="M35.536 131.633c1.153 1.195 2.324 2.43 3.949 2.775 1.186 -1.067 -0.074 -8.612 -0.99 -10.767 -3.554 6.012 -1.752 3.778 -6.864 3.778 2.296 2.381 0.61 0.797 3.905 4.214Zm1 -3.257c2.025 -1.551 1.558 -3.771 1.953 -1.21a39.85 39.85 0 0 1 0.518 6.1 10.05 10.05 0 0 1 -2.862 -2.375c-4.015 -4.248 -1.488 -1.078 0.389 -2.515h0.002Z" stroke-width="1"></path></g></g><g id="Group_12"><path id="Vector_55" fill="#d6d5d4" d="M77.387 20.665c0.706 3.215 7.013 9.835 10.521 10.618C93.157 32.452 99.984 25.77 90.393 16c-1.759 -1.793 -3.961 -3.671 -6.62 -3.761 -2.991 -0.106 -7.373 3.931 -6.386 8.426Z" stroke-width="1"></path><path id="Vector_56" fill="#141414" d="M96.105 24.675c-0.512 -5.275 -8.939 -15.116 -14.238 -12.513 -2.592 1.21 -5.126 3.15 -5.311 5.985 -0.445 6.086 8.5 15.223 14.129 13.963 2.608 -0.51 5.749 -4.357 5.42 -7.435Zm-1.356 0.828c-0.737 1.354 -3.126 0.817 -4.55 0.234 -4.682 -1.9 -11.249 -11.32 -6.26 -12.543 4.575 0.006 11.32 7.788 10.81 12.306v0.003ZM81.734 13.9c-0.72 1.2 -0.4 2.919 0.094 4.225 -1.379 1.567 -1.181 1.881 -3.246 2.9 -1.229 -3.374 0.07 -5.383 3.152 -7.125ZM79 21.987c2 -2.035 1.294 -1.284 3.368 -2.674a17.667 17.667 0 0 0 2.813 3.729c-1.359 1.643 -0.565 1.465 -3.108 3.224A19.602 19.602 0 0 1 79 21.987Zm3.854 5.081c1.8 -2.574 1.626 -1.794 3.229 -3.108a12.27 12.27 0 0 0 3.506 2.559 12.433 12.433 0 0 1 -0.949 1.8c-0.5 0.658 -1.4 1.282 -1.727 1.684a15.334 15.334 0 0 1 -4.059 -2.935Zm10.109 1.816a4.2 4.2 0 0 1 -4.819 1.579 12.38 12.38 0 0 1 0.952 -1.8c0.5 -0.669 1.424 -1.3 1.741 -1.7a5.54 5.54 0 0 0 3.424 0.05 10.4 10.4 0 0 1 -1.298 1.871Z" stroke-width="1"></path></g><g id="Group_13"><path id="Vector_57" fill="#d6d5d4" d="M33.058 60.227c2.771 6.678 0.966 9.327 2.91 8.3 2.677 -1.41 5.821 -1.552 8.847 -1.572 6.667 -0.045 8.19 0.953 14.741 4.415 1.571 0.83 0.777 -3.339 7.673 -9.893 1.4 -1.334 7.431 -4.539 14.433 -6.124 -1.625 -3.963 -3.6 -3.807 -3.77 -9.483 -0.067 -2.186 -0.713 -4.392 -0.145 -6.5a12.047 12.047 0 0 1 4.662 -6.661 18.502 18.502 0 0 1 -4.533 -1.665c-2.874 -1.67 -7.462 -6.959 -9.2 -11.353a12.214 12.214 0 0 1 -0.784 -5.71c-7.733 1.694 -18.454 1.623 -22.61 -5.074 -1.9 3.722 -2.636 4.528 -4.613 6.263 -2.912 2.554 -6.166 7.172 -19.051 8.577 0.644 1.353 0.8 2.115 2.933 9.979 0.515 1.9 -0.8 11.865 -3.612 14.861a20.169 20.169 0 0 1 12.119 11.64Z" stroke-width="1"></path><path id="Vector_58" fill="#141414" d="M82.535 32.844c0.146 -0.569 -5.576 -1.832 -9.839 -7.5 -4.524 -6.011 -4.31 -11.4 -4.828 -11.423 -0.193 -0.846 -12.168 2.358 -19.649 -2.86 -3.8 -2.65 -1.664 -3.51 -5.612 1.006A33.532 33.532 0 0 1 25.714 22.5c-5.26 1.369 -4.571 0 -3.366 4.916 1.606 6.564 2.031 14.515 -1.088 20.3 -0.755 1.465 -1.332 0.291 2.764 2.829 10.186 6.64 10.145 18.3 10.9 18.281 0.4 0.885 8.381 -3.98 21.61 1.534 4.8 2 2.947 2.354 5.9 -2.087 6.549 -10.255 19.49 -12.119 19.374 -12.865 0.492 -0.41 -5.824 -8.442 -2.369 -18.279 1.029 -2.649 3.266 -3.985 3.096 -4.285ZM79.244 52.6c2.562 4.218 3.848 1.9 -1.671 3.146 -7.741 1.754 -13.852 7.025 -16.2 11.914a10.419 10.419 0 0 0 -1.267 3.9c-2.125 -3.13 -13.186 -7.489 -21.663 -4.577 -5.146 1.678 -2.706 3.265 -3.327 -2.111C34.187 56.3 27.362 49.1 21.386 48.5c3.246 -2.283 5.819 -12.009 2.134 -21.446a12.25 12.25 0 0 0 -1.72 -3.292c1.86 0.522 8.017 -0.013 14.07 -3.706a26.362 26.362 0 0 0 7.7 -7.234c3.48 -5.092 0.285 -4.171 3.867 -0.808 5.9 5.515 17.821 3.794 20.274 2.1 -0.692 1.7 -0.1 7.365 3.594 12.284 3.056 4.062 7.714 6.323 10.538 6.541 -4.829 1.882 -7.426 11.544 -2.599 19.661Z" stroke-width="1"></path></g><g id="Group_14"><path id="Vector_59" fill="#d6d5d4" d="M50.418 62.148c-17.576 -0.11 -26 -23.259 -15.662 -35.669a21.638 21.638 0 0 1 21.973 -6.71c9.644 2.706 17.127 12.76 15.749 22.5 -0.24 2.462 -0.685 4.9 -1.329 7.287C68.364 58.063 58.53 62.2 50.418 62.148Z" stroke-width="1"></path><path id="Vector_60" fill="#141414" d="m71.537 31.753 -1.423 0.65a21.765 21.765 0 0 1 1.251 12.735c-3.948 19.777 -29.809 21.42 -37.912 3.475C28.24 37.07 34 23.425 46.781 20.623 55.874 18.63 65.39 22.7 70.114 32.4l1.423 -0.65c-9.917 -21.828 -41.4 -16.489 -42.415 7.64 -0.422 10.056 6.833 20.65 17.327 23.31 19.297 4.881 32.675 -14.789 25.088 -30.947Z" stroke-width="1"></path><g id="Group_15"><path id="Vector_61" fill="#d6d5d4" d="M43.619 33.444c-0.91 -1.641 0.428 -3.452 1.418 -4.84a7.135 7.135 0 0 1 12.894 3.672c0.324 4.977 -4.13 8.327 -4.253 10.611 -0.059 1.076 0.572 2.15 0.3 3.191 -0.678 2.586 -5.393 2.153 -5.425 -2.79 -0.024 -3.854 2.322 -5.572 3.477 -7.361 2.269 -3.514 -0.534 -5.682 -2.11 -4.827 -0.817 0.443 -1.522 1.83 -2.424 2.686a2.443 2.443 0 0 1 -3.877 -0.342Z" stroke-width="1"></path><path id="Vector_62" fill="#d6d5d4" d="M54.488 55.854a3.637 3.637 0 0 1 -4.521 -2.34c-0.483 -2.49 3.07 -5.044 5.846 -2.907 1.894 1.458 0.774 4.601 -1.325 5.247Z" stroke-width="1"></path></g><g id="Group_16"><path id="Vector_63" fill="#141414" d="M55.648 38.224c-1.582 2.567 -3.344 2.994 -2.526 6.348 0.227 0.736 0.327 1.246 0.112 1.622a1.762 1.762 0 0 1 -1.269 0.823c-2.748 0.384 -3.506 -4.846 -1.552 -7.783 1.006 -1.511 3.45 -3.423 3.343 -6.044a3.14 3.14 0 0 0 -2.556 -3.031c-2.812 -0.345 -3.793 3.867 -5.447 3.931 -1.608 0.265 -2.7 -2.817 0.344 -5.941 2.23 -2.291 4.32 -2.092 4.3 -2.445 -0.013 -0.218 -2.626 -0.326 -4.971 1.729 -4.123 3.612 -2.593 8.276 0.44 8.014 2.792 -0.242 3.82 -5.272 5.81 -3.618 0.963 0.8 0.812 2.058 0.222 3.174 -1.109 2.1 -4.012 3.636 -4 8.022 0.02 7.451 7.277 6.082 6.837 2.358 -0.136 -1.154 -0.715 -1.934 -0.351 -2.942 0.388 -1.076 1.442 -1.846 2.447 -3.482 3.081 -5.014 2.025 -9.863 -1.152 -12.092 -2.579 -1.807 -5.148 -1.393 -5.135 -1.167 0.018 0.291 2.209 0.017 4.527 1.947 3.162 2.626 2.761 7.033 0.577 10.577Z" stroke-width="1"></path><path id="Vector_64" fill="#141414" d="M55.8 52.627c0.392 4.138 -6.41 3.253 -4.74 -0.667 0.6 -1.4 1.83 -1.681 1.772 -1.994 -0.06 -0.692 -3.7 0.245 -3.373 3.642 0.419 4.378 8.29 4.287 7.722 -1.141 -0.354 -3.374 -4.393 -3.233 -4.233 -2.519 0.052 0.392 2.628 0.332 2.852 2.679Z" stroke-width="1"></path></g></g><g id="Group_17"><path id="Vector_65" fill="#d6d5d4" d="m183.781 159.825 -2.923 0.624c-0.655 -2.869 -7.685 -36.791 -7.685 -36.791 -0.378 -1.8 -0.825 -6.44 -1.454 -4.242 -7.567 15.4 -8.747 17.672 -8.731 17.772 -0.035 0.177 0.027 -0.376 0 -0.291 -0.015 -0.014 -0.062 0.353 -0.091 0.31 -2.759 -5.611 -2.955 -6.209 -4.487 -9.6 -0.407 0.8 -5.132 9.908 -5.178 10.017 -1 -0.831 -7.972 -9.8 -8.317 -9.57 -0.648 0.427 5.337 8.862 5.816 9.5 0.9 1.2 1.917 2.465 2.867 3.622 0.661 -1.2 3.805 -6.84 4.611 -7.953 0.206 0.612 -0.5 -0.988 4.678 10.356l8.145 -16.4s6.416 30.984 7.071 33.855l-2.89 0.616a0.831 0.831 0 0 0 -0.639 0.625 0.837 0.837 0 0 0 0.29 0.846l5.54 4.443a0.831 0.831 0 0 0 1.044 0.003 0.834 0.834 0 0 0 0.233 -0.291l3.03 -6.272a0.833 0.833 0 0 0 -0.098 -0.879 0.843 0.843 0 0 0 -0.832 -0.3Z" stroke-width="1"></path><path id="Vector_66" fill="#141414" d="M172.094 118.761c0.259 0.573 7.618 36.668 8.764 41.688a30.28 30.28 0 0 1 3.1 -0.643 0.837 0.837 0 0 1 0.748 1.2l-3.03 6.272a0.834 0.834 0 0 1 -1.277 0.288l-5.54 -4.443a0.837 0.837 0 0 1 0.349 -1.471l2.89 -0.616c-0.655 -2.87 -7.071 -33.855 -7.071 -33.855l-8.145 16.4c-5.21 -11.41 -4.466 -9.729 -4.678 -10.356 -0.3 0.411 0.254 -0.526 -4.611 7.953 -3.952 -4.809 -9.545 -13.133 -8.654 -13.133 0.48 0 7.108 8.6 8.288 9.578 0.046 -0.108 4.771 -9.221 5.178 -10.017 0.646 1.43 3.068 6.713 3.267 7.122 1.791 3.683 1.055 2.168 1.311 2.168 0 0.111 -0.028 0.442 0 0.291 0.004 -0.099 8.953 -18.234 9.111 -18.426Zm0.305 -2.312c-2.079 2.532 -0.316 -0.564 -9.468 18.042l-4.455 -9.723s-5.316 10.22 -5.564 10.691c-6.894 -8.038 -6.535 -8.645 -8.339 -8.645 -1.581 0.99 -1.088 1.927 0.99 5.34a92.515 92.515 0 0 0 8.236 11.211l4.213 -7.44 4.825 10.515 7.711 -15.5c0.674 3.278 5.53 26.738 6.076 29.154l-1.67 0.357a2.067 2.067 0 0 0 -0.862 3.636c8.571 6.875 7.1 7.032 11.726 -2.542a2.071 2.071 0 0 0 -0.858 -2.708 2.065 2.065 0 0 0 -0.999 -0.261c-0.735 0.072 -1.462 0.211 -2.172 0.417 -3.671 -16.251 -7.26 -37.842 -9.389 -42.544h-0.001Z" stroke-width="1"></path></g><g id="Group_18"><path id="Vector_67" fill="#615fff" d="m32.793 79.5 -2.683 -6.8a0.863 0.863 0 0 0 -1.29 -0.394l-5.914 4.06a0.862 0.862 0 0 0 0.225 1.53l3.044 0.973c-2.523 5.963 -4.159 10.573 -5.93 15.965 -4.212 -5.97 -5.56 -9.446 -8.284 -15.59 -4.483 24.606 -7.591 37.029 -6.855 37.236 1.14 0.323 5.488 -16.465 6.186 -19.383 2.339 -9.835 1.523 -8.872 2.379 -7.31a73.1 73.1 0 0 0 7.675 11.276 201.876 201.876 0 0 1 7.607 -21.313l2.776 0.886a0.862 0.862 0 0 0 1.064 -1.136Z" stroke-width="1"></path><path id="Vector_68" fill="#141414" d="M29.307 72.148c0.8 0 0.6 0.027 3.486 7.35a0.863 0.863 0 0 1 -1.064 1.138l-2.776 -0.886a203.868 203.868 0 0 0 -7.607 21.307c-8.893 -11.757 -7.307 -11.212 -8.215 -12.288 0.124 -0.713 -0.632 3.26 -1.839 8.322 -1.113 4.664 -5.114 19.385 -6.17 19.385 -0.775 -0.119 2.193 -11.731 6.839 -37.238 2.922 6.614 4.285 9.922 8.284 15.59 1.7 -5.19 3.339 -9.841 5.93 -15.965l-3.044 -0.972a0.86 0.86 0 0 1 -0.225 -1.531c6.401 -4.392 6.023 -4.212 6.401 -4.212Zm0 -1.27c-0.9 0 -0.735 0.054 -7.12 4.435a2.132 2.132 0 0 0 0.559 3.788l1.722 0.55a192.45 192.45 0 0 0 -4.627 12.338c-2.965 -4.537 -3.47 -6.1 -8.389 -17.046 -8.125 41.977 -8.95 42.787 -6.33 42.8 2.919 0.019 7.949 -22.607 8.548 -25.383 2.46 4.19 4.532 6.707 8.166 11.4a221.58 221.58 0 0 1 7.837 -22.451c1.564 0.5 3.041 1.229 4.083 -0.3 0.9 -1.314 0.218 -1.988 -2.465 -8.784a2.124 2.124 0 0 0 -1.984 -1.347Z" stroke-width="1"></path></g><g id="Group_19"><path id="Vector_69" fill="#d6d5d4" d="M172.771 102.51c-3.372 2.669 -5.228 3.749 -8.839 3.219 -16.456 -2.415 -11.378 -5.266 -23.388 -20.418 -1.274 -1.608 -2.037 -2.949 -0.716 -4.733a5.025 5.025 0 0 1 7.1 -0.712c1.294 -1.638 0.672 -4.65 4.691 -4.2 11.844 1.32 14.265 17.666 30.86 17.98 0.822 0.014 0.859 0.54 0.486 1.182 -2.357 4.043 -6.524 4.778 -10.194 7.682Z" stroke-width="1"></path><path id="Vector_70" fill="#141414" d="M178.219 92.414c-12.18 -3.36 -14.673 -14.012 -21.93 -16.926 -3.683 -1.566 -8.751 -1.677 -9.436 2.026 -0.258 1.209 0.348 0.525 -1.781 0.22a5.893 5.893 0 0 0 -6.4 3.4c-0.819 1.974 0.039 3.6 1.393 5.22 3.866 4.51 5.4 8.7 8.32 12.894 5.64 8.445 19.467 7.362 19.37 6.454 -0.046 -0.482 -12.648 0.215 -17.563 -7.657 -2.708 -4.115 -4.307 -8.565 -8.335 -13.213 -0.783 -0.907 -1.429 -1.74 -1.032 -2.864 0.826 -2.19 4.111 -2.856 6.228 -1.144a31.238 31.238 0 0 0 3.817 7.81c3.255 5.283 4.75 7.289 14.276 7.983 1.967 0.136 1.906 -0.218 0.2 -0.894 -2.551 -1.024 -6.128 -1.57 -8.557 -3.229 -2.081 -1.426 -10.169 -13.772 -6.941 -15.38 1.389 -0.713 4 -0.108 5.51 0.535 5.464 2.261 8.891 10.865 16.851 14.654 5.974 2.823 11.089 1.835 11.036 1.37 -0.009 -0.366 -2.022 -0.406 -5.026 -1.259Z" stroke-width="1"></path></g><g id="Group_20"><path id="Vector_71" fill="#d6d5d4" d="M103.827 130.679a12.907 12.907 0 0 1 -6.822 2.333c-35.348 3.834 -37.394 -25.152 -44.291 -27.966 -7.572 -2.252 -3.07 23.532 20.528 33.883 12.368 5.429 27.742 5.771 43 -2.079 -3.755 -1.029 -7.723 -2.05 -12.415 -6.171Z" stroke-width="1"></path><path id="Vector_72" fill="#d6d5d4" d="M146.428 90.736c-2.894 -3.845 -2.372 -2.719 -2.6 -5.05 -0.121 -1.259 -0.272 -2.788 -1.229 -3.62 -1.88 -1.689 -6.692 -0.429 -8.682 4.776 -1.076 2.817 -0.807 5.425 -1.183 8.334 -0.734 5.5 -4.029 7.469 -8.011 11.392 0.659 2.907 -2.8 -11.941 -12.1 -14.4a9.971 9.971 0 0 0 -8.14 1.336c-6.132 4.165 -0.124 7.225 2.4 11.137 0.8 1.244 0.633 0.5 -0.009 4.236 -0.564 3.28 -2.516 4.25 -1.147 8.511a9.473 9.473 0 0 0 -3.056 1.323c-8.382 5.915 8.408 22.642 25.041 16.342 2.893 -1.114 5.829 -2.953 6.256 -6.023a8.369 8.369 0 0 0 -0.275 -2.938c-3.621 1.821 -0.106 0.279 2.862 -2.325 8.16 -7.131 16.559 -24.147 9.873 -33.031Z" stroke-width="1"></path><path id="Vector_73" fill="#141414" d="M145.557 88.02a36.17 36.17 0 0 0 -0.513 -4.5c-1.325 -5.556 -9.083 -4.813 -12.276 2.166 -1.492 3.188 -1.158 6.458 -1.532 9.292 -0.557 4.34 -3.057 6.266 -6.289 9.277 -6.725 -21.076 -25.674 -13.592 -24.507 -6.236 0.408 2.813 2.936 4.021 5.134 7.156 0.783 4.9 -1.911 5.78 -1.781 9.868 0.075 2.346 0.6 2.013 0.1 2.155 -5.788 1.626 -5.592 8.713 -1.179 13.5 -3.528 2.03 -9.755 1.85 -13.846 1.586 -28.4 -1.989 -27.972 -25.99 -35.762 -28.5a3.326 3.326 0 0 0 -4.282 1.671c-5.198 10.077 14.476 44.562 52.676 37.553a44.793 44.793 0 0 0 14.533 -5.44c8.417 1.539 20.774 -2.675 18.435 -10.981 11.739 -7.035 22.281 -29.422 11.089 -38.567Zm-94.039 27.413c-0.971 -2.811 -1.753 -5.474 -1.171 -7.857 0.293 -1.3 0.862 -2.128 2.069 -1.727 6.2 2.057 8 31.407 44.681 28a14.699 14.699 0 0 0 6.67 -2.116 26.84 26.84 0 0 0 10.149 5.353c-22.757 11.614 -53.744 2.254 -62.398 -21.653Zm72.407 12.913c-1.958 0.076 -2.985 -0.035 -3.013 0.127 -0.046 0.27 5.218 2.324 12.147 -1.116a4.588 4.588 0 0 1 -0.486 3.205c-2.635 3.759 -10.528 6.747 -19.171 3.908 -12.367 -4.076 -14.849 -13.461 -8.794 -15.829 3.5 8.314 14.654 10.556 14.876 9.548 0.083 -0.38 -2.744 -1.158 -5.478 -2.667 -3.824 -2.127 -7.716 -6.359 -7.859 -10.55 -0.075 -2.5 1.09 -3.052 1.564 -5.966 1.905 4.317 1.909 7.163 2.383 7.177 0.28 0.026 0.735 -1.736 0.3 -4.566 -1.287 -7.946 -5.77 -10.519 -7.178 -12.65 -1.26 -1.9 -0.152 -3.517 1.734 -4.764a9.286 9.286 0 0 1 9.619 -0.378c8.242 4.355 10.327 18.256 11.458 18.031 0.567 -0.108 -0.15 -4.024 -0.377 -5.017 2.044 -2.039 4.628 -3.915 6.348 -6.809 3.4 -5.557 -0.141 -12.113 5.3 -16.549 1.952 -1.6 4.83 -2.03 5.452 0.589 0.266 1.19 0.623 5.858 0.69 7.1a30.355 30.355 0 0 1 -1.569 12.431c-2.114 6.52 -8.94 12.752 -8.655 13.063 0.127 0.195 2.686 -1.328 5.864 -5.026 -2.121 4 -4.489 6.2 -4.279 6.444 0.272 0.391 4.637 -3.179 6.767 -9.692 3.348 -5.052 4.424 -11.088 4.184 -17.142 7.273 9.835 -5.026 36.452 -21.827 37.098Z" stroke-width="1"></path></g></g></svg>