<svg xmlns="http://www.w3.org/2000/svg" fill="none" viewBox="0 0 200 200" id="Whale--Streamline-Web-3.0.svg"><desc>Whale Streamline Illustration: https://streamlinehq.com</desc><g id="Whale--cryptocurrency-crypto-web 3.0-metaverse-bitcoin-ethereum"><g id="Group"><path id="Vector" fill="#d6d5d4" d="M184.592 64.79c-0.7 -0.481 -0.634 -0.281 -0.438 -0.699a6.088 6.088 0 0 0 -2.275 -7.4c-0.4 -3.673 0.213 -6.225 -2.831 -9.8a13.948 13.948 0 0 0 -10.526 -4.887c-4.907 -0.024 -9.748 3.764 -13 7.384a13.891 13.891 0 0 0 -7.057 0.425c-3.036 0.974 -0.725 1.082 -4.282 -3.45A15.917 15.917 0 0 0 131.6 40.1c0.1 -2.256 1.125 -6.36 -2.133 -10.644 -7.089 -9.17 -23.15 -5.784 -27.342 9.586 -0.319 1.169 0.052 0.849 -1.325 0.936a17.039 17.039 0 0 0 -5.907 1.418c-1.929 -1.1 -3.755 -2.057 -6.415 -1.7 -0.485 0.065 -1.557 -3.59 -6.026 -4.932 -3.727 -1.12 -7.312 0.359 -9.8 3.368 -0.285 0.35 -0.14 0.112 -0.96 1.792 -0.285 0.04 -0.582 0.088 -0.906 0.145a19.574 19.574 0 0 0 -6.174 -10.254c-13.83 -11.35 -31.834 5.62 -17 16.788 -1.649 3.382 -0.346 5.913 0.548 8.146a9.666 9.666 0 0 0 -0.62 0.982 37.467 37.467 0 0 0 -5.3 0.326c-3.367 0.649 -5.387 3.31 -4.435 2.1 -7.6 -4.632 -17.394 -3.362 -20.691 5.084 -2.541 6.509 0.4 14.616 5.233 17.71 0.85 0.545 0.753 0.285 0.442 0.974 -2.173 4.819 0.256 2.935 -3.226 2.787A5.237 5.237 0 0 0 14 89.49c-0.192 1.573 -0.712 1 -2.31 1.567 -7.9 2.824 -5.139 15.935 5.568 14.182a11.466 11.466 0 0 0 2.084 4.4 38.74 38.74 0 0 0 -5.1 3.773c-8 8.07 -2.335 22.99 9.89 22.356 1.276 -0.066 2.183 -0.952 4.054 -1.283 0.5 2.371 -0.076 3.638 0.606 5.155 0.915 1.71 -3.813 7.791 -1.275 16.421 2.189 7.441 10.51 12.968 21.029 9.05 2.938 -1.086 0.7 -1.345 3.317 4.078 2.87 6.039 7.763 8.752 14.217 9.132 5.268 13.792 21.737 11.254 27.384 -1.3a12.143 12.143 0 0 0 9.852 0.9 25.33 25.33 0 0 0 3.456 4.249 20.318 20.318 0 0 0 11.208 5.3c12.044 1.58 21.089 -8.593 21.018 -19.388 3.895 0.38 7.798 -0.649 11 -2.9 0.473 -0.319 0.68 1.379 3.944 3.284 11.926 6.957 23.881 -5.464 18.463 -17.1 -1.285 -2.765 -2.181 -2.843 -1.612 -3.657 2.673 -3.892 0.22 -2.635 3.771 -2.952 3.692 -0.33 7.046 -2.226 8.314 -5.742 1.764 -4.909 -1.556 -7.416 -5.128 -10.1a4.459 4.459 0 0 0 2.284 -0.463c2.194 -1.174 3.274 -4.178 1.114 -7.912 6.744 -4.2 12.838 -19.4 0.426 -26.857a13.603 13.603 0 0 0 2.467 -9.471 11.639 11.639 0 0 0 -0.3 -1.56c8.364 -3.841 7.569 -13.253 0.851 -17.862Z" stroke-width="1"></path><g id="Group_2"><path id="Vector_2" fill="#141414" d="M81.947 63.713c0.247 3.753 1.425 2.656 -1.547 2.211 -8.474 -1.252 -12.585 5.6 -11.692 6.009 0.854 0.452 1.818 -4.37 11.638 -4.886 3.087 -0.159 2.409 0.61 2.726 -3.323 0.852 -11.007 7.469 -15.91 6.963 -16.494 -0.572 -0.696 -8.779 6.452 -8.088 16.483Z" stroke-width="1"></path><path id="Vector_3" fill="#141414" d="M131.618 81.931c-1.9 1.79 -0.662 1.8 -1.286 -0.8 -0.966 -4.3 -6.1 -7.943 -10.535 -7.253 -3.2 0.455 -2.275 2.1 -1.628 -1.639 1.713 -10.474 -7.952 -14.268 -8.215 -13.323 -0.3 0.851 7.1 2.319 7.1 13.228 -0.028 4 -0.371 2.74 2.807 2.856a11.098 11.098 0 0 1 9.41 6.487c1.258 2.872 0.119 3.15 3.036 1.341 7.108 -4.414 12.2 -0.922 12.546 -1.794 0.38 -0.78 -7.591 -4.434 -13.235 0.897Z" stroke-width="1"></path><path id="Vector_4" fill="#141414" d="M185.132 64.627a6.888 6.888 0 0 0 -2.784 -8.683c1.116 -12.41 -11.6 -18.14 -20.24 -13.1 -3.448 2.023 -6.487 5.4 -6.355 5.526a10.293 10.293 0 0 0 -7.594 0.88c-2.714 1.582 -0.465 2.152 -2.566 -2.042a14.708 14.708 0 0 0 -13.378 -8c1.951 -9.776 -5.95 -16.6 -14.422 -15.861 -7.683 0.64 -14.309 6.668 -16.279 15.688a12.725 12.725 0 0 0 -6.5 1.188 8.194 8.194 0 0 0 -6.448 -1.248c-3.591 -7.584 -13.488 -7.512 -17.246 -0.108a8.11 8.11 0 0 0 -0.372 0.084 17.674 17.674 0 0 0 -12.176 -13.444c-12.229 -3.575 -21.935 8.939 -15.746 17.654a9.684 9.684 0 0 0 3.841 3.266c-2.552 4.327 0.236 7.927 0.043 8.263 -3.661 -0.11 -6.607 0.292 -9.142 2.838a15.651 15.651 0 0 0 -15.982 -1.284c-9.335 5.019 -8.274 20.207 0.225 25.167a9.574 9.574 0 0 0 -1.169 2.94 5.937 5.937 0 0 0 -7.825 5.358c-0.01 0.04 -0.227 0.064 -0.268 0.07 -6.876 0.969 -9.09 9.85 -3.555 14.305a9.17 9.17 0 0 0 7.274 1.861 8.68 8.68 0 0 0 1.945 4.078c-6.106 1.813 -10.587 9.151 -8.233 16.938 1.577 5.383 6.2 9.506 11.647 9.825 3.3 0.27 3.428 -0.192 5.515 -1.044 0.4 -0.293 -0.482 2.845 1.057 4.983C20.013 158.365 33.62 172.044 48.9 166c1.83 -0.717 0.232 -0.848 2.088 3.572 2.622 6.334 8.829 9.818 14.4 9.26 4.585 13.389 21.036 13.049 28.635 -0.393a12.244 12.244 0 0 0 9.41 0.556 19.969 19.969 0 0 0 22 9.094c8.585 -2.33 14.256 -10.815 14.153 -19.112a14.205 14.205 0 0 0 10.775 -2.892 13.35 13.35 0 0 0 14.721 4.654 13.35 13.35 0 0 0 4.739 -2.689 13.872 13.872 0 0 0 1.637 -19.355 13.469 13.469 0 0 0 1.795 -3.318c4.624 0.354 9.051 -1.742 10.648 -6 2.425 -6.294 -3.7 -10.01 -3.557 -9.887 -0.123 -0.09 0.014 -0.023 0.364 -0.29 2.349 -1.52 3.44 -4.965 1.3 -8.417 8.008 -4.881 12.266 -20.147 0.94 -27.588a11.725 11.725 0 0 0 1.893 -9.828c7.9 -3.567 7.839 -14.154 0.291 -18.74Zm-0.832 17.236c-0.775 -1.693 -2.1 -2.971 -2.32 -2.745 -0.375 0.324 2.577 3.65 1.446 9.1 -1.064 5.074 -4.758 7.9 -4.4 8.334 0.245 0.316 2 -1.095 2.92 -2.106 11.589 7.46 5.52 24.548 -4.615 27.105 -0.93 0.222 -1.467 0.321 -1.463 0.437 0.007 0.242 2.686 0.447 5.182 -0.7 1.838 3.506 0.255 6.572 -2.314 7.039 -2.529 0.46 -3.329 -0.594 0.267 2.09 3.037 2.323 4.774 4.794 3.436 8.423 -1.324 3.666 -5.009 5.4 -8.86 5.48 0.752 -2.844 0.2 -5.245 -0.136 -5.2 -0.634 0.081 0.221 5.671 -5.269 10.869 -2.654 2.382 -4.572 2.8 -4.479 3.19 0.1 0.442 3.981 -0.145 7.1 -3.684 5.461 7.809 1.291 18.1 -7.066 20.158a13.066 13.066 0 0 1 -12.643 -4.205c2.211 -2.07 2.988 -4.508 2.692 -4.618 -0.469 -0.22 -2.42 4.361 -8.512 6.153 -6.035 1.769 -10.451 -0.466 -10.69 0.178 -0.154 0.379 2.268 1.314 3.953 1.647 -0.433 12.849 -13.337 22.859 -26.678 16.288a18.38 18.38 0 0 1 -7.431 -6.5c6.423 -2.972 5.756 -7.921 6.632 -7.179 2.08 1.761 6.191 1.533 7.932 -0.686 0.646 -0.8 0.732 -1.44 0.561 -1.539 -0.2 -0.118 -0.626 0.268 -1.317 0.707 -3.467 2.262 -7.314 0.338 -7.614 0.819 -0.371 -0.126 -1.443 3.972 -6.16 6.22a11.652 11.652 0 0 1 -10.628 -0.257c-4.688 -2.574 -5.341 -6.684 -5.777 -6.558 -0.357 0.013 0.147 4.556 4.587 7.535 -9.289 16.38 -28.447 9.855 -27.118 -7.055 0.1 -1.14 0.206 -1.78 0.09 -1.813 -0.281 -0.086 -1.886 3.933 -0.545 9 -6.235 -0.278 -12.123 -4.611 -14.159 -12.693a18.582 18.582 0 0 0 6.654 -5.729 7.773 7.773 0 0 0 7.79 6.283c4.123 -0.18 5.65 -3.191 5.314 -3.4 -0.214 -0.149 -0.882 0.814 -2.452 1.443 -4.073 1.7 -8.809 -0.913 -9.71 -5.8 -0.342 -1.688 -0.1 -2.815 -0.346 -2.879 -0.158 -0.069 -0.774 0.905 -0.776 2.7a18.112 18.112 0 0 1 -9 6.947c-13.618 5.065 -26.012 -6.08 -19.182 -23.064 2.18 1.867 5.468 1.422 8.225 0.573 2.034 4.693 6.27 6.436 6.508 5.973 0.225 -0.408 -2.534 -2.11 -4.447 -5.421 -1.985 -3.27 -2.151 -6.508 -2.618 -6.506 -0.2 0 -0.448 0.828 -0.373 2.208 0.06 0.938 0.244 1.864 0.549 2.753 -2.855 0.718 -5.99 1.007 -7.618 -1.387 -0.919 -1.351 -0.154 -2.551 -0.872 -5.853a7.27 7.27 0 0 0 -1.92 0.475c-11.431 4.6 -21.12 -11.321 -12.047 -20.667 2.533 -2.65 4.656 -2.632 4.568 -2.95 1.5 1.37 3.338 1.823 3.456 1.487 0.161 -0.459 -2.282 -1.347 -3.981 -4.662 -1.675 -3.328 -0.948 -5.824 -1.416 -5.966 -0.3 -0.089 -0.98 1.38 -0.872 3.257a8.3 8.3 0 0 1 -6.261 -1.882c-4.4 -3.76 -2.693 -10.877 2.883 -11.793 1.487 -0.233 1.418 -1.018 1.541 -1.944a4.8 4.8 0 0 1 6.172 -3.915c-0.211 2 0.341 3.777 0.721 3.707 0.435 -0.083 0.256 -2.451 1.128 -5.125 0.818 -2.691 2.322 -4.53 2.012 -4.846 -0.29 -0.3 -1.446 0.82 -1.931 1.436 -7.343 -4.774 -8.385 -18.4 -0.105 -23a14.908 14.908 0 0 1 14.6 0.726c-1 1.274 -1.081 2.319 -0.888 2.349 0.471 0.1 1.714 -4.516 9.959 -4.365 -1.173 3.184 -0.4 6.07 -0.052 6.006 0.537 -0.067 -0.132 -4.658 3.286 -8.307 3.731 -3.951 8.014 -2.655 8.148 -3.18 0.052 -0.133 -0.542 -0.531 -1.67 -0.708 0.4 -4.357 5.7 -4.581 5.713 -4.945 0.141 -0.813 -6.771 -0.842 -7.3 4.867a9.261 9.261 0 0 0 -6.276 3.128 7.226 7.226 0 0 1 0.293 -6.833c1.06 -1.784 2.287 -2.5 2.153 -2.71 -0.048 -0.091 -0.412 -0.034 -0.991 0.268a6.517 6.517 0 0 0 -2.011 1.709 8.807 8.807 0 0 1 -3.4 -3.1c-5.087 -7.77 3.41 -18.548 14.297 -15.455a16.952 16.952 0 0 1 11.58 12.264c-0.717 0.279 -2.381 1.22 -2.113 1.673 0.24 0.387 2.053 -0.36 4.362 -0.6 2.3 -0.287 4.239 0.025 4.385 -0.406 0.064 -0.2 -0.369 -0.562 -1.195 -0.853a7.513 7.513 0 0 0 -2.571 -0.374c3.958 -5.146 10.848 -5.264 14.683 0.617 -1.315 0.534 -1.887 1.23 -1.785 1.354 0.236 0.378 3.779 -1.748 7.73 0.435 -1.742 1.159 -3.064 2.919 -2.776 3.156 0.181 0.158 0.9 -0.433 2.108 -1.2 7.02 -4.468 12.7 -1.785 12.972 -2.482 0.124 -0.29 -1.389 -1.1 -3.161 -1.415 5.907 -20.882 31.153 -17.04 28.583 0.088 -2.712 0.234 -5.67 1.572 -5.462 1.958 0.227 0.52 5.788 -2.26 12.366 0.814 7.329 3.442 8.265 10.389 8.6 8.88 0.806 -0.047 5.623 -2.85 11.645 -0.125 1.177 0.524 1.885 0.978 2.052 0.805 0.257 -0.266 -1.166 -1.976 -3.575 -2.89a27.153 27.153 0 0 1 6.021 -4.6c7.606 -4.136 18.519 0.37 18.46 11.33 -3.722 -1.39 -7.437 0.792 -7.209 1.164 0.166 0.284 1.953 -0.93 4.847 -0.512 4.326 0.615 6.219 4.875 4.82 7.81 -1 -0.448 -3.342 -1.136 -3.405 -0.844 -0.079 0.32 3.507 0.987 6.37 4.222 4.315 4.82 3.209 11.97 -2.391 14.594Z" stroke-width="1"></path><path id="Vector_5" fill="#141414" d="M81.6 172.24c-0.916 -0.932 -1.663 -1.269 -1.8 -1.117 -0.3 0.348 1.829 2.5 2.7 5.954 0.951 3.433 0.157 6.363 0.595 6.509 0.917 0.338 2.951 -6.868 -1.495 -11.346Z" stroke-width="1"></path></g></g><g id="Group_3"><path id="Vector_6" fill="#d6d5d4" d="M177.994 61.763c-2.817 0.505 -7.4 4.244 -7.781 4.6 -4.635 4.329 1.885 20.375 12.033 18.964 1.981 -0.275 7.894 -4.193 9.039 -6.85 2.631 -6.107 -4.865 -18.223 -13.291 -16.714Z" stroke-width="1"></path><g id="Group_4"><path id="Vector_7" fill="#141414" d="M177.66 61.263c-2.609 0.512 -7.584 4.25 -8.294 5.19 -5.078 6.6 5.137 23.8 15.293 18.53a26.158 26.158 0 0 0 5.745 -4.277c5.815 -5.906 -2.665 -21.284 -12.744 -19.443Zm-3.7 3.069a7.134 7.134 0 0 0 -1.146 4.437c-1.306 0.977 -1.207 1.312 -3.469 2.194 -0.045 -3.563 1.335 -4.363 4.611 -6.631h0.004Zm-4.576 7.453a13.481 13.481 0 0 1 3.508 -2.1c0.23 1.557 0.7 3.069 1.393 4.482 -1.463 0.9 -0.819 0.987 -3.729 2.207a14.09 14.09 0 0 1 -1.176 -4.59h0.004Zm1.486 5.256c2.623 -1.954 1.789 -1.113 3.8 -2.12a20.358 20.358 0 0 0 2.9 4.113c-2.561 1.8 -0.878 0.922 -3.747 2.2a17.669 17.669 0 0 1 -2.957 -4.193h0.004Zm3.515 4.756c2.629 -2 2.469 -1.4 3.778 -2.14a12.981 12.981 0 0 0 3.244 2.427c-1.79 1.7 -1.181 1.083 -3.134 2.209a11.493 11.493 0 0 1 -3.892 -2.493l0.004 -0.003Zm4.74 2.758c1.729 -1.651 2.23 -1.37 3.133 -2.094a7.43 7.43 0 0 0 3.976 0.18c-3.645 2.459 -5.081 2.426 -7.113 1.914h0.004Zm11.619 -6.261c-2.616 5.317 -9.394 6.2 -14.837 -2.507 -6.324 -10.111 0.363 -16.291 7.8 -12.515 6.335 3.168 8.87 11.288 7.033 15.022h0.004Z" stroke-width="1"></path><path id="Vector_8" fill="#141414" d="M188.19 69.76a8.017 8.017 0 0 0 -1.123 -1.566c-0.169 0.116 2.04 2.6 2.237 6.615 0.158 3.537 -1.772 5.446 -3.586 5.556 -4.021 0.242 -11.326 -7.768 -10.021 -13.553 0.583 -2.8 3.453 -3.675 5.716 -2.864 4.02 1.509 5.365 4.343 5.6 4.167 0.186 -0.137 -4.424 -6.4 -9.146 -4.631 -4.542 1.721 -3.2 8.082 -0.062 12.287 8.086 10.694 15.375 2.729 10.385 -6.011Z" stroke-width="1"></path></g></g><g id="Group_5"><path id="Vector_9" fill="#d6d5d4" d="M190.464 128.316c-0.219 -4.763 -4.276 -9.63 -8.924 -8.563 -1.213 0.278 -2.41 0.611 -3.593 1a2.83 2.83 0 0 0 -1.724 1.311c-1.661 2.933 -1.351 5.687 -0.33 8.507a9.542 9.542 0 0 0 2.617 4.289c2.488 3.191 9.515 0.114 10.632 -1.215a9.088 9.088 0 0 0 1.322 -5.329Z" stroke-width="1"></path><g id="Group_6"><path id="Vector_10" fill="#141414" d="M181.718 119.233a25.343 25.343 0 0 0 -4.086 1.3c-5.447 2.384 -3.2 15.014 3.891 16.183 1.6 0.267 6.453 -1.261 7.909 -2.963 3.605 -4.226 -0.218 -15.87 -7.714 -14.52Zm-1.472 1.294a5.022 5.022 0 0 0 -1.59 2.706c-0.368 0.111 -1.036 0.437 -1.6 0.581a9.334 9.334 0 0 1 -1.139 0.179c0.683 -2.38 1.783 -2.62 4.329 -3.466Zm-1.683 6.645a8.93 8.93 0 0 1 -2.926 0.74 9.863 9.863 0 0 1 0.135 -3.357 7.323 7.323 0 0 1 2.755 -0.7 10.37 10.37 0 0 0 0.036 3.317Zm-2.848 1.245a8.443 8.443 0 0 1 2.955 -0.66c0.237 1.16 0.617 2.286 1.131 3.352a7.559 7.559 0 0 1 -2.933 0.73 12.36 12.36 0 0 1 -1.153 -3.422Zm1.418 3.908a9.058 9.058 0 0 1 2.946 -0.677 9.105 9.105 0 0 0 1.7 2.285 6.526 6.526 0 0 1 -2.516 0.853 8.014 8.014 0 0 1 -2.13 -2.461Zm2.647 2.8c0.279 -0.148 0.568 -0.276 0.865 -0.382a12.33 12.33 0 0 0 1.629 -0.4 5.07 5.07 0 0 0 2.575 0.926c-2.872 0.89 -3.797 0.605 -5.069 -0.143v-0.001Zm10.138 -4.348c-0.527 2.592 -1.767 3.264 -3.98 4.113 -5.56 0.652 -8.483 -8.77 -6.4 -12.848 2.801 -5.402 11.962 0.192 10.38 8.736v-0.001Z" stroke-width="1"></path><path id="Vector_11" fill="#141414" d="M188.527 126.018c-0.85 -2.2 1.682 3.815 -1.071 6.743 -3.644 3.989 -8.856 -6 -6.469 -10.264a2.93 2.93 0 0 1 2.028 -1.432 2.928 2.928 0 0 1 2.397 0.644 10.429 10.429 0 0 1 2.939 3.928 5.664 5.664 0 0 0 -0.46 -1.275c-2.233 -4.586 -5.963 -4.438 -7.267 -2.064 -1.772 3.105 -0.037 8.324 2.851 10.955 3.186 2.89 7.105 -1.9 5.052 -7.235Z" stroke-width="1"></path></g></g><path id="Vector_12" fill="#141414" d="m159.358 140.229 -1.383 -0.371C150.93 162.864 125.932 173.8 126 165.233c0.018 -2.307 1.461 -3.279 5.324 -11.274 1.129 -2.335 2.168 -4.442 3.2 -6.256l-1.225 -0.741c-2.729 4.231 -4.732 8.739 -7.655 13.447 -1.523 2.451 -2.472 5.109 -1.063 7.645 1.951 3.511 6.814 2.057 10.631 0.782 9.281 -3.104 20.758 -14.736 24.146 -28.607Z" stroke-width="1"></path><g id="Group_7"><path id="Vector_13" fill="#615fff" d="M88.594 95.422a17.688 17.688 0 0 0 -8.4 -14.7c-12.5 -8.191 -26.255 -14.069 -40.665 -9.636 -7.668 -15.7 -20.337 -17.7 -23.7 -13.283 -1.257 1.692 0.408 3.254 1.334 5.158 0.117 0.232 4.224 9.963 4.365 10.254 2.938 6.1 7.908 4.189 3.148 4.959C16.511 79.6 9.643 83.918 6.389 91.3c-1.241 2.811 -1.607 5.917 0.722 7.743 4.65 3.64 15.4 -8.889 30.764 -1.135 12 6.036 31.486 32.494 35.884 35.41 1.637 1.085 3.86 1.158 6.434 -0.685 4.441 -3.179 4.737 -9.391 4.887 -14.377 0.363 -11.989 3.778 -16.656 3.514 -22.834Z" stroke-width="1"></path><path id="Vector_14" fill="#d6d5d4" d="M42.315 101.17c6.5 4.86 21.6 21.616 26.83 28.269a18.219 18.219 0 0 0 3.282 3.53c2.532 1.881 6.412 2.085 8.716 -0.068 2.894 -2.705 3.63 -8.359 3.661 -8.459 0.651 -2.11 1.219 -3.909 -0.556 -5.362 -0.909 -0.744 -2.806 -1.064 -3.219 -0.289 -0.424 0.8 -0.162 6.478 -0.941 8.095 -1.638 3.4 -4.589 2.659 -5.979 -1.013 -1.784 -4.713 -1.193 -8.967 -2.179 -10.017a5.973 5.973 0 0 0 -1.306 -1.2c-14.069 -14.016 -20.558 -18.5 -33.881 -20.233a17.063 17.063 0 0 0 -7.441 0.788c-1.173 0.508 4.715 -0.242 13.013 5.959Z" stroke-width="1"></path><path id="Vector_15" fill="#141414" d="M79.8 78.627c-11.82 -7.438 -25.611 -12.812 -38.911 -8.383 -3.514 -7.286 -9.092 -13.66 -16.938 -15.475 -3.13 -0.716 -5.738 -0.738 -8.119 1.258 -3.465 2.906 -0.645 5.251 0.486 7.636 4.474 9.44 5.407 12.484 8.747 13.86 -21.95 2.077 -27.393 26.84 -13.199 23.385 4.83 -1.192 14.213 -7.249 25.3 -1.577 7.577 3.826 12.468 8.96 34.14 33.918 4.045 4.659 12.681 2.438 14.772 -8.014 0.976 -4.993 0.159 -9.075 1.361 -14.907 1.626 -8.306 8.089 -21.915 -7.639 -31.701Zm5.454 31.273c-1.261 6.063 -0.422 10.142 -1.361 14.9 -1.377 6.989 -6.9 10.691 -10.39 7.517 -0.474 -0.431 1.255 1.331 -13.157 -14.458 -11.3 -12.38 -21.094 -25.754 -37.434 -22.7 -8.3 1.534 -13.251 5.843 -15.846 2.961 -3.673 -3.889 2.909 -13.81 10.894 -17.305 8.67 -3.82 16.875 -1.98 16.948 -2.554 0.039 -0.255 -3.676 -0.966 -7.724 -0.865 -4.393 -1.05 -5.148 -4.592 -7.888 -11.073 -1.35 -3.168 -1.493 -3.532 -1.7 -3.916 -0.63 -1.153 -1.746 -2.68 -1.569 -3.567 0.117 -0.935 1.856 -2.042 2.84 -2.3C23.4 55.3 32.9 58.948 38.793 71.032c-1.458 0.616 -4.731 2.374 -4.578 2.64 0.944 1.635 14.065 -12.627 44.412 6.8 14.034 8.897 8.42 20.288 6.627 29.428Z" stroke-width="1"></path><path id="Vector_16" fill="#141414" d="M84.36 90.124c-3.138 -3.493 -6.266 0.719 -7.752 1.158 0.069 0.249 0.037 0.126 -0.011 0 -0.471 0.168 -3.619 -0.842 -4.109 1.277a6.01 6.01 0 0 0 0.189 1.736c0.831 2.5 1.882 3.239 1.454 5.088a81.728 81.728 0 0 0 -2.326 15.442c-9.453 -9.008 -20.466 -19.559 -33.705 -20.546a21.182 21.182 0 0 0 -3.555 0.092c0 0.49 4.735 -0.466 12.653 2.976 9.049 3.836 17.358 12.336 24.512 19.143a37.603 37.603 0 0 0 0.056 5.51c-7.831 -7.03 -17.972 -17.2 -27.388 -22.521a9.575 9.575 0 0 0 -2.912 -1.279c-0.04 0.089 0.968 0.589 2.654 1.706 10.356 6.926 18.957 16.1 27.947 24.067 1.325 6.266 5.665 6.912 8.106 4.028 1.424 -1.759 1.374 -4.278 1.221 -6.649 -0.359 -4.4 -0.68 -4.623 -0.871 0.008 -0.123 2.168 -0.215 4.384 -1.427 5.711 -1.141 1.179 -2.733 1.394 -3.865 -0.012 -3.5 -4.552 -0.256 -21.553 1.07 -27.129 0.7 -2.967 -1.025 -4.376 -1.58 -6.546 -0.236 -0.59 1.578 0.835 3.615 -0.562 2.169 -1.544 2.862 -2.509 4.014 -1.778 3.266 2.074 -0.727 10.895 -1.027 19.344 -0.093 2.2 0.065 3.423 0.207 3.425 0.419 0.01 -0.341 -0.467 3.35 -15.272 0.584 -2.494 1.134 -6.477 -0.52 -8.417Z" stroke-width="1"></path></g><g id="Group_8"><path id="Vector_17" fill="#d6d5d4" d="M64.592 69.862c8.429 1 19.1 -8.946 20.319 -17.017 0.42 -3 -0.72 -3.911 -2.064 -5.275 -2.029 -2.06 -3.847 -3.946 -6.367 -4.584 -10.617 -2.692 -25.491 13.386 -20.314 20.373 1.915 2.584 5.252 6.09 8.426 6.503Z" stroke-width="1"></path><g id="Group_9"><path id="Vector_18" fill="#141414" d="M64.7 57.146c0.562 -2.374 0.706 -2.98 0.778 -3.294l-1.932 0.48 -1.275 5.4c0.13 -0.026 3.1 -0.775 5.2 -1.3 0.14 -0.034 0.071 0.086 0.544 -1.93 0.031 -0.133 0.072 -0.1 -0.3 0 -3.337 0.848 -3.056 0.83 -3.015 0.644Z" stroke-width="1"></path><path id="Vector_19" fill="#141414" d="m72.992 48.756 -5.287 1.326 -0.461 1.967c0.714 -0.178 2.589 -0.65 3.28 -0.824 0.118 -0.03 0.126 -0.244 -0.719 3.321 -0.028 0.119 -0.3 0.153 1.913 -0.4l1.274 -5.39Z" stroke-width="1"></path><path id="Vector_20" fill="#141414" d="m66.433 55.475 1.939 -0.49 0.47 -1.985 -1.94 0.487 -0.469 1.988Z" stroke-width="1"></path><path id="Vector_21" fill="#141414" d="m68.998 58.035 1.91 -0.484 0.465 -1.952 -1.915 0.482 -0.46 1.954Z" stroke-width="1"></path><path id="Vector_22" fill="#141414" d="M64.438 50.888c-0.144 0.036 -0.065 -0.062 -0.54 1.927 -0.029 0.118 -0.141 0.112 1.857 -0.389 0.092 -0.023 0.015 0.172 0.526 -1.994 -0.054 0.006 -1.79 0.443 -1.843 0.456Z" stroke-width="1"></path><path id="Vector_23" fill="#141414" d="M85.258 49.707a7.445 7.445 0 0 0 -1.935 -2.5c-1.958 -2.005 -4.361 -4.37 -7.116 -4.835 -11.037 -1.864 -25 13.854 -20.533 20.923a23.6 23.6 0 0 0 6.061 6.1c8.835 5.982 27.012 -11.059 23.523 -19.688Zm-2.788 -1.676c1.287 1.379 2.788 2.318 1.421 6.573 -2.393 -1.3 -1.95 -1.324 -3.463 -2.92a7.256 7.256 0 0 0 -0.086 -5.763c0.721 0.652 1.421 1.372 2.128 2.11ZM56.789 55.9c6.689 -14.759 25.746 -16.337 23.386 -5.91 -1.527 7.437 -14.693 20.128 -22.106 14.59 -1.815 -2.094 -3.352 -3.915 -1.28 -8.68ZM62.4 68.4a20.717 20.717 0 0 1 -3 -2.416c1.683 0.69 3.54 0.833 5.308 0.409 0.369 0.406 1.36 1 2.007 1.588 0.38 0.374 0.717 0.788 1.008 1.235A7.34 7.34 0 0 1 62.4 68.4Zm6.355 0.6c-1.639 -1.352 -1.4 -0.715 -3.006 -2.905 1.69 -0.62 3.29 -1.46 4.76 -2.5 1.559 1.2 1.078 0.129 3.743 2.874a17.99 17.99 0 0 1 -5.5 2.531h0.003Zm6.292 -3.075a21.306 21.306 0 0 1 -2 -1.248c-0.607 -0.49 -1.249 -1.232 -1.7 -1.672a31.626 31.626 0 0 0 4.88 -4.495c1.513 1.167 0.819 0.135 3.771 2.882a28.608 28.608 0 0 1 -4.954 4.534l0.003 -0.001Zm5.507 -5.219c-2.7 -1.432 -2.007 -1.315 -3.685 -2.954a20.65 20.65 0 0 0 3.2 -5.107c0.418 0.292 1.651 1.069 1.836 1.255 0.573 0.477 1.2 1.157 1.673 1.589a20.12 20.12 0 0 1 -3.027 5.218l0.003 -0.001Z" stroke-width="1"></path><path id="Vector_24" fill="#141414" d="M59.051 63.3c2.935 3.026 9.966 -1.344 13.142 -4.1 4.815 -4.22 9.184 -12 3.719 -14.33C71 42.8 63.7 49.171 63.9 49.393c0.143 0.164 2.914 -2.731 7.622 -4.084 2.938 -0.831 5.085 0.253 5.837 1.582 1.106 1.913 -0.27 5.246 -1.7 7.327a24.22 24.22 0 0 1 -8.874 7.738c-2.105 1.044 -5.356 2.774 -7.262 0.874C58 61.387 58.225 58.791 59 56.648c1.817 -4.9 5.028 -6.926 4.805 -7.171 -0.392 -0.424 -9.428 9.23 -4.754 13.823Z" stroke-width="1"></path></g></g><g id="Group_10"><path id="Vector_25" fill="#d6d5d4" d="M72.7 80.915c-1.64 -1.314 -3.849 -3.2 -5.845 -3.466 -8.008 -1.049 -14.682 10.565 -10.506 15.176 1.291 1.425 4.672 4.263 6.441 4.555 7.981 1.32 15.636 -11.68 9.91 -16.265Z" stroke-width="1"></path><g id="Group_11"><path id="Vector_26" fill="#141414" d="M73.413 80.911a30.147 30.147 0 0 0 -4.089 -3.049c-7.905 -4.433 -16.769 7.179 -14.367 13.352 0.964 2.463 5.8 6.1 7.757 6.435 8.479 1.466 15.934 -11.91 10.699 -16.738Zm0.471 4.561a10.361 10.361 0 0 1 -2.712 -1.883c0.285 -3.382 -1.925 -4.582 0.674 -2.434 1.595 1.281 2.147 2.054 2.038 4.317Zm-17.917 5.351c-2.046 -4.651 3.27 -12.786 9.533 -12.849 11.428 -0.183 1.6 19.574 -6.786 15.954a8.226 8.226 0 0 1 -2.747 -3.105Zm3.763 3.889a6.008 6.008 0 0 0 3.075 -0.078c-0.151 0.178 1.1 0.412 2.434 1.786 -2.258 0.435 -3.499 -0.255 -5.509 -1.708Zm6.2 1.538a7.044 7.044 0 0 1 -2.409 -1.885 10.862 10.862 0 0 0 2.793 -1.9c1.092 0.684 1.046 0.216 2.984 1.855a9.413 9.413 0 0 1 -3.371 1.93h0.003Zm3.841 -2.358a8.945 8.945 0 0 1 -2.937 -1.923 16.97 16.97 0 0 0 2.57 -3.316c1.647 0.919 1.14 0.3 3 1.84a14.618 14.618 0 0 1 -2.636 3.399h0.003Zm2.907 -3.919a11.052 11.052 0 0 1 -2.927 -1.935 12.275 12.275 0 0 0 1.329 -3.706 8.567 8.567 0 0 1 2.751 1.8 11.667 11.667 0 0 1 -1.156 3.841h0.003Z" stroke-width="1"></path><path id="Vector_27" fill="#141414" d="M58.21 92.473c2.441 2.264 6.579 -0.862 8.546 -3.231 2.739 -3.34 4.131 -8.631 0.411 -10.237 -3.781 -1.618 -7.972 3.367 -7.792 3.513a12.637 12.637 0 0 1 4.819 -3.26C68.271 78 71.411 82.52 66.346 88.9c-1.261 1.519 -4.391 4.077 -6.358 3.868 -1.506 -0.159 -3.042 -1.822 -2.778 -4.762a12.387 12.387 0 0 1 2.114 -5.426c-0.342 -0.266 -4.788 6.593 -1.114 9.893Z" stroke-width="1"></path></g></g><g id="Group_12"><path id="Vector_28" fill="#d6d5d4" d="M111.785 30.132c-0.393 -2.488 -1.085 -5.909 -2.484 -8 -5.6 -8.369 -25.872 -3.392 -25.673 4.761 0.077 2.957 0.942 8.285 3.469 10.481 7.595 6.6 25.878 0.266 24.688 -7.242Z" stroke-width="1"></path><g id="Group_13"><path id="Vector_29" fill="#141414" d="M112.176 28.742c-1.09 -5.539 -2.413 -9.412 -9.371 -11 -7.605 -1.66 -20.215 2.452 -19.822 9.339 -0.022 2.541 1.082 8.166 2.692 9.856 7.783 8.172 25.72 2.064 26.8 -5.261a8.963 8.963 0 0 0 -0.299 -2.934ZM84.569 24.92c2.731 -5.87 15.1 -9.19 22.086 -4.42 8.945 6.105 -1.489 14.126 -13.167 13.971 -7.988 -0.108 -10.573 -4.981 -8.919 -9.551Zm0.171 6.43a8.264 8.264 0 0 0 3.711 2.958c0.173 1.133 0.806 1.431 0.946 3.839 -3.126 -1.523 -3.862 -3.395 -4.657 -6.797Zm5.549 7.187c-0.633 -1.981 -0.72 -1.378 -0.864 -3.907 1.577 0.403 3.202 0.582 4.829 0.533 0.559 1.666 0.827 0.858 1.46 4.306a15.234 15.234 0 0 1 -5.425 -0.932Zm6.32 0.917c-1.325 -2.93 -0.752 -1.423 -1.393 -4.326a26.824 26.824 0 0 0 5.9 -1.007c0.639 1.9 0.6 0.59 1.475 4.326a24.03 24.03 0 0 1 -5.982 1.007Zm6.76 -1.264c-1.361 -2.565 -0.856 -2.086 -1.354 -4.343a18.563 18.563 0 0 0 4.92 -2.391c0.224 0.573 0.583 1.337 0.8 1.992 0 0.1 0.462 2.041 0.486 2.144a17.296 17.296 0 0 1 -4.852 2.598Zm5.533 -3.158c-1.188 -2.29 -0.842 -2.22 -1.193 -4.172a7.061 7.061 0 0 0 2.716 -4.432c1.068 4.415 1.496 5.955 -1.525 8.604h0.002Z" stroke-width="1"></path><path id="Vector_30" fill="#141414" d="M86.987 30.916c2.011 1.668 9.452 2.989 16.178 0.038 6.948 -3.071 6.283 -8.8 1.088 -10.492a16.032 16.032 0 0 0 -7.555 -0.5c-1.481 0.28 0.287 0.094 1.624 0.079 7.393 -0.037 11.133 3.782 8.531 7.3 -4.33 6.025 -23.073 6.893 -20.435 -0.832 1.883 -5.355 11.825 -6.695 9.05 -6.353 -7.658 0.921 -12.551 7.51 -8.481 10.76Z" stroke-width="1"></path></g></g><g id="Group_14"><path id="Vector_31" fill="#d6d5d4" d="M40.582 34.6c-6.125 1 -12.848 9.262 -9.339 14.546a24.802 24.802 0 0 0 6.657 5.836c5.211 2.87 14.417 -2.321 15.628 -10.222 0.422 -2.751 -0.367 -4.149 -1.8 -5.422 -3.828 -3.4 -6.063 -5.57 -11.146 -4.738Z" stroke-width="1"></path><g id="Group_15"><path id="Vector_32" fill="#141414" d="M52.176 38.879a34.88 34.88 0 0 0 -4.476 -3.634c-9.532 -5.951 -22.491 7.806 -16.155 15.188a27.856 27.856 0 0 0 5.1 4.485c9.365 6.232 22.695 -8.874 15.531 -16.039Zm0.795 5.422c-2.254 -1.279 -1.089 -0.747 -3.207 -2.478a6.308 6.308 0 0 0 -0.6 -4.022c2.845 2.43 4.171 3.369 3.807 6.499v0.001ZM31.307 48.1c-2.272 -5.213 4.206 -13.932 12.056 -13.183 2.942 0.251 5.564 1.977 5.883 4.9 0.731 5.985 -8.252 15.494 -15.2 11.53a11.873 11.873 0 0 1 -2.739 -3.247Zm4.02 4.36a8.661 8.661 0 0 0 3.785 0.389c0.78 0.754 1.4 0.68 2.813 2.289 -2.762 0.18 -4.276 -0.787 -6.598 -2.674v-0.004Zm7.487 2.574a9.23 9.23 0 0 1 -2.826 -2.426 13.66 13.66 0 0 0 3.414 -1.7c1.221 0.891 1.11 0.255 3.489 2.477a10.993 10.993 0 0 1 -4.077 1.653v-0.004Zm4.715 -2.085c-2.845 -1.657 -1.4 -0.758 -3.46 -2.54a17.522 17.522 0 0 0 3.237 -3.267c1.715 1.127 1.189 0.336 3.539 2.486a15.14 15.14 0 0 1 -3.316 3.325v-0.004Zm3.709 -3.9c-2.71 -1.505 -2.136 -1.539 -3.46 -2.561a12.533 12.533 0 0 0 1.813 -3.838 10.758 10.758 0 0 1 3.256 2.427 11.409 11.409 0 0 1 -1.609 3.977v-0.005Z" stroke-width="1"></path><path id="Vector_33" fill="#141414" d="M35.935 50.974c2.519 0.477 8.434 -2.128 11.021 -7.332 2.459 -4.956 -1.025 -8.71 -5.3 -7.843a11.17 11.17 0 0 0 -5.506 2.978c-0.9 0.917 0.3 -0.12 1.151 -0.7 8.057 -5.42 13.9 1.642 6.431 8.905 -1.719 1.618 -5.509 3.82 -7.7 3.438 -1.964 -0.34 -3.559 -2.47 -3.154 -5.369 0.538 -3.84 3.076 -5.685 2.91 -5.85 -0.084 -0.085 -1.093 1.045 -1.283 1.282 -3.926 4.917 -1.911 9.951 1.43 10.491Z" stroke-width="1"></path></g></g><g id="Group_16"><g id="Group_17"><path id="Vector_34" fill="#d6d5d4" d="M113.8 96.893c-1.856 -0.547 -5.126 -1.58 -7.118 -1.191 -9.291 1.816 -12.871 17.7 -6.516 20.719a22.968 22.968 0 0 0 6.386 1.757c9.534 1.078 14.973 -19.009 7.248 -21.285Z" stroke-width="1"></path><g id="Group_18"><path id="Vector_35" fill="#141414" d="M117.02 98.789c-0.969 -1.939 -2.129 -2.242 -4.176 -2.832 -2.047 -0.59 -4.784 -1.34 -6.862 -0.753 -8.826 2.2 -13.444 18.3 -6.09 21.789a21.416 21.416 0 0 0 6.587 1.818c7.736 0.868 14.472 -12.158 10.541 -20.022ZM112.959 101c1.256 0.026 2.5 0.249 3.687 0.662 0.264 1.498 0.272 3.029 0.025 4.53 -2.926 -0.1 -1.866 -0.258 -3.886 -0.685 0.291 -1.484 0.349 -3.005 0.174 -4.507Zm3.532 -0.063c-2.214 -0.015 -2.016 -0.251 -3.679 -0.759a6.04 6.04 0 0 0 -2.12 -3.577c3.642 0.922 5.002 1.165 5.799 4.335v0.001ZM98.839 114.9c-3.307 -3.453 -1.486 -14.417 5.567 -17.936 12.87 -6.123 8.819 20.336 -1.908 19.8 -1.198 -0.379 -2.867 -0.908 -3.659 -1.864Zm8.835 2.761a16.517 16.517 0 0 1 -3.709 -0.492 7.445 7.445 0 0 0 3.6 -1.55c-0.081 0.25 1.3 -0.067 3.268 0.788a7.549 7.549 0 0 1 -3.159 1.253v0.001Zm3.829 -1.747a7.87 7.87 0 0 1 -3.3 -0.876 14.42 14.42 0 0 0 2.392 -3.31c1.607 0.268 1.223 -0.227 3.887 0.593a12.629 12.629 0 0 1 -2.982 3.592l0.003 0.001Zm3.345 -4.257a9.626 9.626 0 0 1 -3.87 -0.667 21.623 21.623 0 0 0 1.647 -4.7c1.762 0.2 1.276 -0.208 3.924 0.573a18.938 18.938 0 0 1 -1.701 4.793v0.001Z" stroke-width="1"></path><path id="Vector_36" fill="#141414" d="M102.158 115.551c3.384 0.912 6.666 -4.445 7.814 -7.411 1.8 -4.736 1.529 -11.317 -3.379 -10.957 -4.453 0.321 -7.109 7.182 -6.883 7.265a17.464 17.464 0 0 1 3.919 -5.487c3.272 -2.8 7.219 -1.127 6.8 4.458 -0.44 5.6 -5.681 14.669 -9.682 10.736 -3.478 -3.419 -0.351 -11.491 -1.282 -9.185 -1.556 3.843 -1.048 9.618 2.693 10.581Z" stroke-width="1"></path></g></g><g id="Group_19"><path id="Vector_37" fill="#d6d5d4" d="M100.655 112.431c-2.216 0.06 -4.423 0.301 -6.6 0.72 -9.626 2.462 -9.952 19.125 -2.847 22.1 2.35 1.01 8.92 0.358 10.874 -0.587 8.868 -4.334 6.343 -22.233 -1.427 -22.233Z" stroke-width="1"></path><g id="Group_20"><path id="Vector_38" fill="#141414" d="M103.839 113.043a5.365 5.365 0 0 0 -3.915 -1.054c-3.72 0.124 -7.413 0.385 -10.07 2.942 -6.3 5.759 -4.688 18.224 1.175 20.752 1.852 1 7.182 0.46 9.377 -0.012 9.145 -1.918 10.145 -17.489 3.433 -22.628Zm1 18.109a9.283 9.283 0 0 1 -3.8 0.328 13.55 13.55 0 0 0 1.239 -3.9c0.022 0.109 1.442 -0.454 2.446 -0.634a10.14 10.14 0 0 1 1.874 -0.133 12.082 12.082 0 0 1 -1.763 4.339h0.004Zm1.9 -5.137c-3.044 0.844 -1.2 0.473 -4.337 0.726 0.2 -1.634 0.191 -3.286 -0.025 -4.918 1.967 -0.436 1.117 -0.642 4.358 -0.822a16.92 16.92 0 0 1 -0.004 5.014h0.008Zm-0.136 -5.734c-3.2 0.965 -2.364 0.438 -4.354 0.712a13.559 13.559 0 0 0 -1.461 -4.241 14.283 14.283 0 0 1 4.129 -0.653 12.468 12.468 0 0 1 1.683 4.182h0.003Zm-7.818 -7.02c2.2 -0.1 3.73 -0.417 5.675 2.173 -2.38 0.787 -2.136 0.454 -4.15 0.562 -2.342 -3.317 -5.584 -2.505 -1.533 -2.735h0.008Zm-7.328 21.423c-5.29 -2.175 -6.847 -13.519 -0.866 -18.952a8.234 8.234 0 0 1 4.379 -2.058c7.342 -0.216 8.8 13.856 4.7 18.849a7.675 7.675 0 0 1 -4.069 2.557c-1.027 0.042 -3.234 0.102 -4.152 -0.396h0.008Zm6 0.26a8.186 8.186 0 0 0 3.12 -2.678c0.009 0.264 1.411 -0.512 3.707 -0.373 -1.891 2.271 -3.684 2.707 -6.831 3.051h0.004Z" stroke-width="1"></path><path id="Vector_39" fill="#141414" d="M100.3 124.435c0.126 -5.246 -2.678 -11.042 -7.469 -9.113 -4.475 1.78 -4.793 9.188 -4.511 9.195a15.479 15.479 0 0 1 2.1 -6.583c1.393 -2.127 4.339 -3.261 6.215 -1.735 2.355 1.71 3.1 5.309 3.03 8.217 -0.07 2.379 -1.176 6.94 -3.013 8.373 -1.651 1.288 -4.4 0.941 -6.237 -1.63 -2.434 -3.408 -1.809 -6.55 -2.1 -6.547 -0.291 0.003 -0.172 7.3 4.542 9.143 4.768 1.896 7.293 -4.255 7.443 -9.32Z" stroke-width="1"></path></g></g><g id="Group_21"><path id="Vector_40" fill="#d6d5d4" d="M84.991 127.138c6.571 -1.649 10.718 -14.7 2.37 -21.194 -2.915 -1.932 -9.426 -2.725 -10 -2.725 -6.254 0 -11.608 11.494 -6.94 18.912a8.853 8.853 0 0 0 3.92 3.456c2.532 0.972 8.189 2.169 10.65 1.551Z" stroke-width="1"></path><g id="Group_22"><path id="Vector_41" fill="#141414" d="M91.565 110.579c-2.162 -5.4 -6.021 -6.469 -11.44 -7.446 -2.523 -0.427 -5.775 -1.421 -9.547 4.113 -3.444 5.18 -3.747 13.836 2.317 18.14 2.087 1.482 7.99 2.443 11 2.4a7.681 7.681 0 0 0 5.095 -2.557 14.712 14.712 0 0 0 2.575 -14.65Zm-9.537 -5.879a7.151 7.151 0 0 0 -4.074 2.122c-3.095 -0.7 -1.653 0.01 -4.439 -1.116 2.638 -2.418 4.556 -1.806 8.513 -1.006Zm-9.147 1.643a12.19 12.19 0 0 1 4.44 1.18 13.07 13.07 0 0 0 -2.179 4.012c-3.339 -0.856 -1.332 0.108 -4.694 -1.282a12.165 12.165 0 0 1 2.433 -3.907v-0.003Zm-2.692 4.646c0.72 0.084 1.435 0.218 2.137 0.4 0.886 0.262 1.952 0.782 2.549 0.981a18.167 18.167 0 0 0 -0.707 4.841c-3.16 -0.617 -0.947 0.137 -4.69 -1.3a15.4 15.4 0 0 1 0.711 -4.919v-0.003Zm-0.667 5.782c0.703 0.073 1.4 0.198 2.084 0.374 1.027 0.3 2.547 1.059 2.579 0.957 0.253 5.373 2.235 3.793 -1.267 3.793 -0.7 -0.159 -1.537 -0.48 -2.122 -0.643a11.266 11.266 0 0 1 -1.274 -4.478v-0.003Zm1.807 5.338c2.551 0.14 3.992 1.129 4.036 0.83A8.411 8.411 0 0 0 78.354 126c-3.173 -0.7 -5.217 -1.322 -7.025 -3.888v-0.003Zm16.934 2.43c-2.409 2.507 -4.91 2.292 -7.8 1.849a8.343 8.343 0 0 1 -4.065 -2.933c-4.238 -5.908 0.354 -20.478 8.234 -18.092 7.029 2.137 9.668 12.71 3.631 19.179v-0.003Z" stroke-width="1"></path><path id="Vector_42" fill="#141414" d="M85.991 107.05c-6.585 -3.143 -11.665 7.531 -8.143 15.584a4.763 4.763 0 0 0 5.693 2.786c5.238 -1.2 6.565 -8.442 6.209 -8.492 -0.191 -0.026 -0.341 3.5 -3.259 6.282 -2.291 2.18 -5.182 2.21 -6.809 0.877 -3.376 -2.767 -3.392 -13.674 2.253 -16.582 2.23 -1.149 5.143 0.2 6.391 2.373 2.089 3.828 1.17 6.924 1.436 6.955 0.266 0.031 1.091 -7.473 -3.771 -9.783Z" stroke-width="1"></path></g></g><g id="Group_23"><path id="Vector_43" fill="#d6d5d4" d="M88.707 103.939c2.076 1.551 7.412 2.256 10.013 2.434 7.528 0.568 11.8 -9.762 7.672 -16.547 -2.5 -4.11 -6.846 -4.619 -11.357 -5.366 -9.091 -1.505 -14.553 13.332 -6.328 19.479Z" stroke-width="1"></path><g id="Group_24"><path id="Vector_44" fill="#141414" d="M107.44 90.731c-2.387 -4.907 -6.27 -5.741 -11.383 -6.585 -2.178 -0.4 -3.427 -0.563 -5.2 0.175 -7.839 3.4 -10.184 18.162 0.851 21.394 2.351 0.644 6.918 1.473 9.3 0.988 5.838 -1.24 9.407 -9.703 6.432 -15.972Zm-11.573 -5.4c4.1 0.635 0.993 -0.385 -1.889 2.247 -1.6 -0.344 -1.594 0.051 -4.409 -1 2.306 -1.906 3.958 -1.652 6.298 -1.246v-0.001Zm-6.959 1.84c1.525 0.076 3.022 0.44 4.412 1.073a11.923 11.923 0 0 0 -2.15 3.656c-1.673 -0.41 -1.365 0.109 -4.7 -1.17a11.04 11.04 0 0 1 2.438 -3.558v-0.001ZM86.2 91.428c3.689 0.556 2.015 0.443 4.694 1.272a15.312 15.312 0 0 0 -0.7 4.405c-0.673 -0.121 -2.378 -0.3 -2.479 -0.4 -0.745 -0.2 -1.622 -0.577 -2.223 -0.791a12.97 12.97 0 0 1 0.708 -4.486Zm-0.664 5.3c0.703 0.062 1.4 0.174 2.087 0.335 1.069 0.285 2.557 0.993 2.588 0.885 0.248 4.865 2.22 3.452 -1.287 3.452 -0.692 -0.144 -1.517 -0.438 -2.1 -0.592a9.337 9.337 0 0 1 -1.288 -4.079v-0.001Zm1.846 4.893c2.443 0.112 2.848 0.676 3.992 0.823a9.287 9.287 0 0 0 2.831 2.644c-3.099 -0.642 -5.035 -1.174 -6.823 -3.466v-0.001Zm16.783 2.28c-2.432 2.206 -4.838 1.969 -7.607 1.591a7.808 7.808 0 0 1 -4.055 -2.531c-1.89 -2.242 -1.96 -6.1 -1.3 -8.977 2.2 -9.8 11.6 -10.144 15.334 -2.811a10.953 10.953 0 0 1 -2.372 12.727v0.001Z" stroke-width="1"></path><path id="Vector_45" fill="#141414" d="M101.858 87.73c-5.21 -2.264 -10.791 4.327 -8.67 12.374 0.448 1.627 0.886 2.936 2.315 3.892 3.631 2.462 9.535 -0.914 10.24 -6.658 0.162 -1.316 -0.175 0.308 -0.524 1.28 -2.286 6.277 -8.775 7.138 -10.709 3.392 -2.355 -4.488 -1.15 -11.764 3.473 -13.8 2.819 -1.335 7.331 0.65 7.755 6.714 0.074 1.18 -0.021 1.837 0.035 1.845 0.239 0.031 1.143 -6.953 -3.915 -9.04Z" stroke-width="1"></path></g></g><g id="Group_25"><path id="Vector_46" fill="#d6d5d4" d="M98.717 85.042c3.39 -5.452 -7.7 -17.319 -15.266 -15.549 -2.306 0.54 -5.7 3.877 -6.126 4.424 -3.414 4.353 5.912 17.288 14.41 16.38 2.528 -0.27 5.999 -3.674 6.982 -5.255Z" stroke-width="1"></path><g id="Group_26"><path id="Vector_47" fill="#141414" d="M83.894 68.938c-2.654 0.333 -6.813 4.236 -7.309 5.263 -3.194 6.387 10.136 20.24 17.424 15.825a18.193 18.193 0 0 0 4.893 -4.42c4.039 -5.044 -6.231 -17.769 -15.008 -16.668Zm-4.86 4.311c2.735 -2.586 0.2 -1.007 1.266 2.752 -1.188 1.135 -0.966 1.246 -2.642 2.053 -0.789 -2.943 0.142 -3.641 1.376 -4.805ZM77.853 78.7c0.382 -0.381 0.79 -0.734 1.224 -1.055 0.452 -0.319 1.051 -0.64 1.465 -0.9a15.208 15.208 0 0 0 2.25 3.931c-1.323 1.047 -0.649 0.934 -2.825 2.052a14.676 14.676 0 0 1 -2.114 -4.028Zm2.5 4.533c1.835 -1.694 1.453 -1.051 2.913 -1.962a23.698 23.698 0 0 0 3.566 3.529 8.13 8.13 0 0 1 -2.816 2.028 21.138 21.138 0 0 1 -3.665 -3.593l0.002 -0.002Zm8.389 6.049a13.376 13.376 0 0 1 -4.161 -2.042c1.769 -1.677 1.89 -1.276 2.875 -1.966a15.39 15.39 0 0 0 3.552 2.007 6.63 6.63 0 0 1 -2.268 2.003l0.002 -0.002Zm0.727 0.169c1.1 -1.328 1.736 -1.318 2.328 -1.914a6.81 6.81 0 0 0 3.71 -0.04c-2.102 1.752 -3.328 2.419 -6.04 1.956l0.002 -0.002Zm9.217 -6.094c-0.3 1.284 -0.637 1.667 -2.007 3.07 -4.937 4.938 -20.318 -9.87 -15.126 -15.315 6.547 -4.531 18.165 5.417 17.131 12.247l0.002 -0.002Z" stroke-width="1"></path><path id="Vector_48" fill="#141414" d="M94.456 76.016a8.736 8.736 0 0 0 -1.3 -1.238 17.035 17.035 0 0 1 3.423 5.585c0.514 1.658 0.538 3.625 -0.689 4.643 -1.534 1.326 -3.922 -0.024 -5.516 -0.88a18.033 18.033 0 0 1 -6.526 -6.106c-3.122 -4.939 -0.482 -7.873 3.551 -6.593 3.891 1.252 5.517 3.467 5.687 3.285 0.142 -0.148 -5.105 -5.163 -9.011 -3.75C79.758 72.539 82.7 78.5 86.327 81.9c9.782 9.1 14.517 1.472 8.129 -5.884Z" stroke-width="1"></path></g></g><g id="Group_27"><path id="Vector_49" fill="#d6d5d4" d="M78.46 121.523c-0.951 0.394 -4.923 3.3 -6.249 5.491 -3.889 6.413 3.434 18.594 10.44 18.673 3.005 -0.185 8.111 -4.444 8.869 -6.678 2.98 -8.777 -7.529 -19.748 -13.06 -17.486Z" stroke-width="1"></path><g id="Group_28"><path id="Vector_50" fill="#141414" d="M78.281 121.088a25.658 25.658 0 0 0 -5.572 4.421c-6.252 7.192 3.159 21.268 10.238 20.627 2.193 -0.075 7.835 -3.848 9.02 -6.978 3.318 -8.765 -7.74 -20.641 -13.686 -18.07Zm9.141 12.677c0.939 -0.888 0.458 -1.041 2.818 -2.743a12.645 12.645 0 0 1 1.066 4.546 7.585 7.585 0 0 1 -2.688 2.1 14.42 14.42 0 0 0 -1.196 -3.903Zm2.507 -3.432a9.583 9.583 0 0 1 -2.867 2.684 21.653 21.653 0 0 0 -2.753 -4.147c1.373 -1.447 0.509 -1.071 2.825 -2.783a18.954 18.954 0 0 1 2.795 4.246Zm-3.258 -4.75c-1.752 2.161 -1.65 1.608 -2.891 2.685a14.623 14.623 0 0 0 -3.49 -2.858 12.098 12.098 0 0 1 2.753 -2.541 13.466 13.466 0 0 1 3.628 2.714Zm-4.3 -3.027c-1.341 1.745 -1.341 1.4 -2.826 2.475a6.041 6.041 0 0 0 -4.132 -0.468c3.111 -2.487 4.031 -3.25 6.959 -2.007h-0.001Zm0.484 22.5c-4.73 0.552 -12.4 -7.5 -10.945 -15.262 2.894 -13.973 21.521 5.249 14.64 13.468 -1.03 0.738 -2.45 1.738 -3.694 1.795l-0.001 -0.001Zm7.532 -5.38a16.53 16.53 0 0 1 -2.629 2.661 7.467 7.467 0 0 0 0.934 -3.8 21.14 21.14 0 0 1 2.6 -2.133 7.684 7.684 0 0 1 -0.904 3.273l-0.001 -0.001Z" stroke-width="1"></path><path id="Vector_51" fill="#141414" d="M86.628 138.709c-0.957 -5.879 -5.225 -11.7 -9.586 -12.249 -3.312 -0.489 -6.343 3.535 -3 10.039 0.274 0.555 0.61 1.078 1 1.558a17.45 17.45 0 0 1 -2.011 -6.436c-0.26 -4.251 3.414 -6.474 7.657 -2.732 4.218 3.746 8.261 13.383 2.719 14.2 -4.823 0.71 -9.373 -6.647 -8.1 -4.52 4.034 6.731 12.348 6.604 11.321 0.14Z" stroke-width="1"></path></g></g><g id="Group_29"><path id="Vector_52" fill="#d6d5d4" d="M99.513 122.472c-2.131 -1.206 -4.563 -1.553 -7.626 -2.057 -7.867 -1.292 -13.033 12.111 -5.246 17.823 1.55 1.137 6.84 1.977 9.143 2.046 8.173 0.245 11.299 -13.529 3.729 -17.812Z" stroke-width="1"></path><g id="Group_30"><path id="Vector_53" fill="#141414" d="M103.369 126.11c-2.153 -4.437 -5.648 -5.211 -10.318 -5.985 -1.967 -0.362 -3.11 -0.514 -4.73 0.161 -7.1 3.074 -9.28 16.5 0.777 19.437 2.12 0.579 6.263 1.332 8.425 0.887 5.356 -1.138 8.511 -8.872 5.846 -14.5Zm-10.507 -4.8c3.4 0.524 0.836 -0.34 -1.7 1.972a14.248 14.248 0 0 1 -3.918 -0.883c2.056 -1.679 3.521 -1.45 5.618 -1.088v-0.001Zm-6.2 1.616c1.351 0.078 2.677 0.403 3.911 0.958a10.768 10.768 0 0 0 -1.942 3.3c-2.555 -0.626 -1.291 0.085 -4.189 -1.035a10.032 10.032 0 0 1 2.217 -3.222l0.003 -0.001Zm1.086 8.962c-3.121 -0.563 -1.22 0.028 -4.185 -1.053 -0.03 -1.382 0.187 -2.759 0.639 -4.066 3.12 0.461 2.319 0.565 4.179 1.14a13.851 13.851 0 0 0 -0.636 3.98l0.003 -0.001Zm-4.145 -0.331c3.182 0.441 2.8 0.768 4.156 1.113a10.19 10.19 0 0 0 0.7 3.251c-2.2 -0.106 -1.18 0.024 -3.675 -0.664a8.378 8.378 0 0 1 -1.184 -3.699l0.003 -0.001Zm1.685 4.415c2.384 0.116 3.493 0.985 3.536 0.673a7.09 7.09 0 0 0 2.4 2.368c-2.68 -0.574 -4.354 -1.033 -5.939 -3.04l0.003 -0.001Zm15.049 2.021c-2.171 1.964 -4.311 1.764 -6.832 1.418 -3.462 -0.483 -6.209 -4.381 -4.845 -10.341 1.978 -8.819 10.407 -9.175 13.809 -2.518a9.812 9.812 0 0 1 -2.135 11.442l0.003 -0.001Z" stroke-width="1"></path><path id="Vector_54" fill="#141414" d="M98.282 123.419c-4.7 -2.043 -9.75 3.9 -7.832 11.18a5.41 5.41 0 0 0 2.092 3.516c3.3 2.236 8.621 -0.861 9.25 -6.015 0.148 -1.192 -0.16 0.283 -0.473 1.155 -2.064 5.675 -7.93 6.445 -9.674 3.065 -2.132 -4.067 -1.033 -10.631 3.137 -12.468 2.513 -1.191 6.62 0.584 7.006 6.065 0.067 1.066 -0.019 1.661 0.031 1.666 0.221 0.031 1.008 -6.289 -3.537 -8.164Z" stroke-width="1"></path></g></g><g id="Group_31"><path id="Vector_55" fill="#d6d5d4" d="M95.569 112.155c5.9 -4.183 0.344 -20.655 -9.012 -21.665 -2.49 -0.269 -7.862 1.76 -8.847 2.509 -4.524 3.364 -1.88 16.912 5.719 21.043 2.3 1.251 4.476 1.695 9.573 -0.542a16.441 16.441 0 0 0 2.567 -1.345Z" stroke-width="1"></path><g id="Group_32"><path id="Vector_56" fill="#141414" d="M84.574 90.08a25.942 25.942 0 0 0 -7.15 2.542c-5.368 4 -1.608 21.065 8.988 22.931 2.165 0.381 6.846 -1.457 8.9 -2.673 7.788 -4.511 0.05 -24.415 -10.738 -22.8Zm-2.252 1.772a6.534 6.534 0 0 0 -2.034 4.1c-1.847 0.739 -1.549 0.926 -3.842 1.122 0.577 -3.474 1.932 -3.881 5.876 -5.222Zm-5.98 6.02c0.347 -0.118 1.776 -0.666 1.9 -0.666 0.622 -0.155 1.4 -0.253 1.962 -0.361 -0.064 1.632 0.12 3.265 0.546 4.842 -2.017 0.6 -0.94 0.7 -4.064 1.059a14.912 14.912 0 0 1 -0.344 -4.874Zm0.522 5.591c2.76 -1.061 2.371 -0.617 4.112 -0.953a23.658 23.658 0 0 0 2.112 4.926 10.152 10.152 0 0 1 -4.057 1.04 20.777 20.777 0 0 1 -2.167 -5.013Zm2.6 5.7c2.945 -1.172 2.672 -0.626 4.076 -0.974a15.427 15.427 0 0 0 2.787 3.369 8.417 8.417 0 0 1 -3.452 1.228 13.559 13.559 0 0 1 -3.409 -3.622l-0.002 -0.001Zm4.162 4.105c2.111 -1.146 3.524 -0.919 3.435 -1.13a7.767 7.767 0 0 0 4.029 1.367c-3.669 1.232 -5.284 1.042 -7.462 -0.236l-0.002 -0.001Zm13.823 -6.364c-0.316 3.779 -1.832 4.76 -4.817 6.021 -6.568 1.021 -11.058 -8 -11.736 -13.857 -1.696 -14.603 17.537 -7.301 16.555 7.837l-0.002 -0.001Z" stroke-width="1"></path><path id="Vector_57" fill="#141414" d="M94.717 100.01c-1.339 -2.752 2.845 5.8 -0.574 9.942 -3.85 4.659 -10.137 -4.6 -11.073 -10.67 -0.316 -2.079 0.01 -5.01 1.657 -6.015a4.652 4.652 0 0 1 5.12 0.619c3.608 2.745 4.305 5.708 4.568 5.586 0.2 -0.093 -3.034 -7.31 -7.869 -7.247 -5.152 0.072 -4.9 7.114 -2.629 12.062 1.52 3.252 5.382 8.631 8.873 7.3 3.803 -1.37 3.865 -7.587 1.927 -11.577Z" stroke-width="1"></path></g></g><g id="Group_33"><path id="Vector_58" fill="#d6d5d4" d="M118.7 82.447c-5.012 -2.422 -8.258 -4.044 -13.31 -0.317 -6.1 4.5 -8.1 12.87 -6.251 16.51a5.377 5.377 0 0 0 2.3 2.38c1.905 1.179 5.763 3.1 7.994 2.921 9.923 -0.793 16.141 -18.17 9.267 -21.494Z" stroke-width="1"></path><g id="Group_34"><path id="Vector_59" fill="#141414" d="M121.659 85.13c-0.673 -2.18 -1.822 -2.7 -3.859 -3.669 -2.037 -0.969 -4.753 -2.22 -7.016 -1.966 -9.57 0.764 -17.152 16.741 -10.1 21.636a22.598 22.598 0 0 0 6.546 3.028c7.9 2.241 17.17 -10.165 14.429 -19.029Zm-0.921 2.144c-2.271 -0.39 -2.121 -0.642 -3.7 -1.425 -0.243 -4.17 -3.493 -5.058 0.21 -3.246 2.157 1.04 3.231 1.558 3.49 4.671Zm-20.786 11.5c-2.935 -4.294 1.052 -15.3 8.889 -17.715 14.438 -4.152 5.662 22.688 -5.4 20.287 -1.188 -0.608 -2.827 -1.44 -3.489 -2.577v0.005Zm8.723 4.4a17.56 17.56 0 0 1 -3.778 -1.151 7.885 7.885 0 0 0 4.013 -0.993c-0.09 0.176 1.615 0.314 3.268 1.383a7.98 7.98 0 0 1 -3.503 0.754v0.007Zm4.289 -1.159a8.287 8.287 0 0 1 -3.282 -1.48 15.17 15.17 0 0 0 3.061 -3.035c1.386 0.475 1.274 -0.043 3.946 1.288a13.34 13.34 0 0 1 -3.725 3.22v0.007Zm4.216 -3.856c-2.878 -0.635 -1.539 -0.283 -3.915 -1.36a22.928 22.928 0 0 0 2.524 -4.609c1.821 0.514 1.333 -0.01 3.987 1.274a19.988 19.988 0 0 1 -2.596 4.688v0.007Zm2.839 -5.376c-2.9 -0.58 -2.288 -0.743 -3.927 -1.383 0.558 -1.495 0.882 -3.068 0.958 -4.663a12.73 12.73 0 0 1 3.725 1.325 14.203 14.203 0 0 1 -0.756 4.714v0.007Z" stroke-width="1"></path><path id="Vector_60" fill="#141414" d="M103.3 100.02c3.361 1.53 7.7 -3.462 9.414 -6.369 2.691 -4.625 3.537 -11.522 -1.63 -11.99 -4.691 -0.437 -8.64 6.251 -8.419 6.377A18.409 18.409 0 0 1 107.687 83c3.884 -2.353 7.71 0.07 6.309 5.814 -1.44 5.825 -8.46 14.272 -11.931 9.51 -3.032 -4.16 1.612 -12.02 0.248 -9.786 -2.285 3.748 -2.74 9.838 0.987 11.482Z" stroke-width="1"></path></g></g></g><g id="Group_35"><path id="Vector_61" fill="#d6d5d4" d="M24.572 142.8a20.08 20.08 0 0 0 5.587 -0.52c7.474 -1.818 7.118 -17.431 0.726 -18.519 -0.933 -0.1 -5.3 0.215 -7 1.182 -6.685 3.823 -5.702 17.649 0.687 17.857Z" stroke-width="1"></path><g id="Group_36"><path id="Vector_62" fill="#141414" d="M31 123.286c-6.925 -0.131 -9.321 2.032 -10.912 5.52 -2.335 5.18 -1.094 14.147 4.582 14.469 2.233 0.127 5.755 -0.116 7.589 -1.416 6.441 -4.729 4.253 -17.935 -1.259 -18.573Zm2.6 15.79a7.045 7.045 0 0 1 -2.955 0.3c0.471 -1.032 0.81 -2.121 1.005 -3.239a10.131 10.131 0 0 1 3.339 -0.678 10.631 10.631 0 0 1 -1.389 3.617Zm1.5 -4.263c-0.44 0.131 -1.083 0.374 -1.624 0.483 -2.96 0 -1.1 1.362 -1.709 -3.94a9.799 9.799 0 0 1 3.375 -0.706 15.238 15.238 0 0 1 -0.042 4.163Zm-0.05 -4.745a9.771 9.771 0 0 1 -3.374 0.623 11.549 11.549 0 0 0 -1.111 -3.534 8.019 8.019 0 0 1 3.215 -0.571 10.657 10.657 0 0 1 1.27 3.482Zm-1.614 -4.026a8.924 8.924 0 0 1 -3.217 0.524 4.815 4.815 0 0 0 -2.782 -2.162c3.498 -0.404 4.54 -0.473 5.999 1.638Zm-12.418 13.934c-5.64 -10.13 6.456 -21.835 9.748 -11.034 1.4 4.584 0.664 12.121 -4.433 13.482 -2.306 0.106 -3.941 -0.014 -5.315 -2.448Zm6.713 2.334a6.966 6.966 0 0 0 2.561 -2.271c0.943 -0.24 1.913 -0.361 2.886 -0.361 -1.468 1.922 -2.954 2.339 -5.447 2.632Z" stroke-width="1"></path><path id="Vector_63" fill="#141414" d="M26.011 141.528c2.028 -0.252 2.82 -2.344 3.414 -4.067a13.36 13.36 0 0 0 0.255 -7.882c-1.938 -6.819 -8.887 -3.875 -8.817 3.7 0.007 1.105 0.12 -0.3 0.265 -1.112 1.289 -7.078 6.559 -7.859 8.075 -2.457 1.236 4.536 -0.559 9.486 -1.867 10.688 -1.787 1.642 -5.44 0.508 -6.273 -5.123 -0.127 -0.923 -0.165 -2.183 -0.219 -1.122 -0.182 3.478 1.885 7.812 5.167 7.375Z" stroke-width="1"></path></g></g><g id="Group_37"><path id="Vector_64" fill="#d6d5d4" d="M34.777 117.739c0.523 0.219 1.023 0.49 1.493 0.807 2.627 1.478 7.745 1.161 11.253 -2.817a18.168 18.168 0 0 0 2.708 -5.524c0.877 2.644 3.531 5.627 5 6.905 2.728 2.374 3.891 2.883 8.158 3.329a10.65 10.65 0 0 0 5.716 -1.11c-1.7 6.977 -2.945 15.043 1.886 21.588a24.09 24.09 0 0 0 1.842 2.5c0.426 0.386 0.8 0.825 1.114 1.306 -0.478 0.51 -1.319 0.5 -1.848 0.958a25.62 25.62 0 0 0 -3.648 3.4c-4.141 5.358 -0.758 8.4 -1.435 10.254 -3.1 -1.337 -3.328 -1.385 -3.632 -1.728 -3.589 -0.656 -6.463 -1.128 -9.731 0.4 -4.359 2.041 -5.433 5.174 -6.612 6.272a36.756 36.756 0 0 0 -1.112 -4.577c-0.136 -0.336 -1.745 -2.86 -1.823 -2.96a12.707 12.707 0 0 0 -6.141 -3.857c-2.346 -0.8 -4.622 0.164 -4.072 -0.825 1.87 -3.365 1.21 -6.187 1.1 -8.678 -0.215 -4.986 -1.092 -4.98 -1.781 -5.917 -0.443 -0.6 -0.559 -1.442 -1.139 -1.915 -0.615 -0.5 -1.38 -0.713 -1.9 -1.317 -0.711 -0.831 -0.035 -0.519 -2.1 -1.931 -0.3 -0.2 -0.23 -0.4 0.084 -0.512 1.335 -0.465 1.594 -0.155 3.176 -1.209 1.723 -1.147 2.592 -1.642 3.111 -2.376a15.554 15.554 0 0 0 1.822 -3.62 7.49 7.49 0 0 0 -0.438 -4.107 14.056 14.056 0 0 1 -1.051 -2.739Z" stroke-width="1"></path><path id="Vector_65" fill="#141414" d="M71.861 141.442c-7.091 -11.318 -1.811 -21.883 -2.646 -22.192 -0.154 -0.338 -2.913 1.146 -7.195 0.329a16.524 16.524 0 0 1 -10.2 -7.27c-1.128 -1.822 -1.459 -3.16 -1.669 -3.115 -0.22 -0.015 -0.315 1.306 -1.137 3.154a10.522 10.522 0 0 1 -9.4 6.324c-3.707 -0.08 -6.039 -2.654 -6.306 -2.353 -0.29 0.278 5.521 6.717 -0.48 12.33 -2.607 2.489 -5.291 2.934 -5.217 3.274 -0.271 0.337 2.927 2.618 4.748 5.261 2.429 3.509 2.657 7.732 1.921 11.914 -0.828 4.59 -1.343 3.182 2.393 3.961a12.052 12.052 0 0 1 9.478 8.879c1.2 4.069 0 3.5 3.033 0.218a13.414 13.414 0 0 1 6.862 -3.982c6.533 -1.516 10.972 1.946 11.256 1.51 0.454 -0.2 -1.4 -4.321 0.593 -8.726 2.062 -4.632 6.309 -5.679 6.159 -6.165 0.163 -0.159 -0.884 -1.293 -2.193 -3.351Zm-0.515 4.045a10.246 10.246 0 0 0 -5.26 11.681c0.732 2.926 1.642 1.97 -1.715 0.469 -6.564 -2.905 -14.595 -0.019 -17.153 6.023a11.588 11.588 0 0 0 -3.584 -8.539c-3.116 -2.939 -7.843 -3.557 -9.69 -2.753 1.279 -1.717 5.125 -11.981 -3.322 -18.638 -3.648 -2.791 -3.316 -0.985 0.09 -2.339 5.888 -2.347 7.565 -8.291 4.888 -12.791 5.758 3.728 13.936 -0.837 14.693 -7.7 1.517 5.734 8.634 11.161 15.563 9.825 4.444 -0.882 3.207 -3.037 1.782 2.286 -2.456 8.54 1.326 18.879 6.2 21.7a6.16 6.16 0 0 0 -2.492 0.776Z" stroke-width="1"></path><path id="Vector_66" fill="#d6d5d4" d="M37.137 131.228c-2.44 10.113 5.065 22.565 11.827 23.686 3.984 0.66 12.529 -3.274 14.388 -5.724 8.42 -11.1 -4.2 -32.669 -13.811 -28.987 -6.601 2.528 -10.813 4.351 -12.404 11.025Z" stroke-width="1"></path><path id="Vector_67" fill="#141414" d="M66.788 138.5c-1.045 -10.589 -9.646 -22.05 -17.457 -19.09 -5.206 2.1 -9.656 3.563 -11.933 8.648 -4.891 10.413 3.17 26.387 11.442 27.671 2.2 0.342 3.278 0.06 6.464 -1.022a29.785 29.785 0 0 0 7.655 -3.928c2.064 -1.649 4.388 -6.148 3.829 -12.279ZM59.8 140c2.033 -1.123 0.772 -1.176 5.214 -2.912 0.412 2.234 0.4 4.525 -0.033 6.755 -2.335 1.239 -1.561 1.249 -4.829 2.092A20.6 20.6 0 0 0 59.8 140Zm5 -4.038c-3.843 2.628 -1.559 1.264 -5.254 2.849a31.335 31.335 0 0 0 -2.523 -6.833c2.8 -1.558 0.254 -0.721 5.243 -2.94a27.582 27.582 0 0 1 2.525 6.926l0.009 -0.002Zm-3.049 -7.837c-3.126 2.447 -2.557 1.624 -5.284 2.808a21.494 21.494 0 0 0 -4.056 -5.294c0.678 -0.423 1.57 -1.061 2.356 -1.491 0.1 -0.105 2.267 -0.977 2.68 -1.165a20.213 20.213 0 0 1 4.295 5.144l0.009 -0.002Zm-5.2 -5.851c-2.748 2.118 -2.563 1.572 -5.093 2.559a9.048 9.048 0 0 0 -6.168 -2.136c5.078 -2.297 7.14 -3.456 11.256 -0.421l0.005 -0.002Zm-6.787 32.206c-8.548 -1.077 -15.927 -16.055 -11.136 -25.847 3.532 -7.609 12.691 -7.928 18.568 5.844 2.78 6.895 3.843 15.067 -2.48 18.915 -1.402 0.494 -3.589 1.263 -4.957 1.09l0.005 -0.002ZM57 152.476a10.73 10.73 0 0 0 2.959 -5.247c0.1 -0.035 2.745 -1.46 2.846 -1.56a12.57 12.57 0 0 1 1.856 -0.594c-1.229 3.968 -3.388 5.494 -7.661 7.401Z" stroke-width="1"></path><path id="Vector_68" fill="#141414" d="M52.472 130.2c-1.917 -2.679 -5.331 -5.256 -8.276 -4.608 -5.876 1.249 -6.359 9.769 -4.194 15.377 0.7 1.817 0.013 -0.565 -0.257 -2.007 -1.874 -10.306 3.328 -13.9 7.319 -12.224 7.371 2.982 11.027 17.788 8.133 22.813 -1.39 2.413 -5.1 3.292 -9.042 0.2 -4.587 -3.632 -5.474 -8.132 -5.8 -8.009 -0.394 0.141 3.376 9.9 10.149 10.7 9.288 1.126 7.46 -14.533 1.968 -22.242Z" stroke-width="1"></path><path id="Vector_69" fill="#141414" d="M44.667 140.471c0.041 0.112 -0.045 0 1.358 1.311 0.1 0.093 0.033 0.052 3.177 -1.107 0.1 -0.036 0.113 0.186 1.17 3.061 0.039 0.109 0.151 0.021 -1.51 0.636 -0.1 0.038 -0.205 -0.446 -0.584 -1.487 -0.042 -0.116 0.185 -0.148 -2.393 0.791 -0.1 0.037 0.079 0.324 1.093 3.1 0.037 0.1 -0.052 -0.011 1.361 1.306 0.1 0.095 0.04 0.035 4.777 -1.7 0.1 -0.036 0.08 -0.407 0.252 -1.82 0.013 -0.1 0.132 0.285 -2.274 -6.283 -0.04 -0.109 0.055 0.011 -1.35 -1.3 -0.1 -0.092 0.1 -0.11 -3.185 1.1 -0.1 0.038 -0.128 -0.231 -1.167 -3.058 -0.041 -0.115 -0.164 -0.02 1.54 -0.651 0.1 -0.038 0.222 0.5 0.581 1.484 0.045 0.125 -0.173 0.146 2.392 -0.787 0.1 -0.037 -0.05 -0.254 -1.087 -3.088 -0.04 -0.109 0.058 0.01 -1.345 -1.3a29.048 29.048 0 0 0 -4.849 1.832c-0.289 2.413 -0.624 0.689 2.043 7.96Z" stroke-width="1"></path></g><g id="Group_38"><path id="Vector_70" fill="#615fff" d="M97.976 64.111c-1.088 0.624 -2.726 2.118 -2.735 2.59 0 0.235 4.239 6.5 7.482 11.1 0.714 1.014 0.738 -0.6 9.366 -8.263 0.737 -0.654 0.435 -0.665 -0.818 -2.5a13.969 13.969 0 0 0 -1.555 -2.193c-0.957 -0.826 -7.246 -1.078 -9.089 -1.04a5.293 5.293 0 0 0 -3.59 1.03l0.939 -0.724Z" stroke-width="1"></path><path id="Vector_71" fill="#141414" d="M112.044 67.523c-1.579 -3.091 -2.439 -3.238 -5 -3.687a40.918 40.918 0 0 0 -7.8 -0.432 5.094 5.094 0 0 0 -3.3 1.953c-1.422 1.822 -1.462 1.251 4.714 10.221 1.086 1.578 2.1 2.767 2.323 2.625 0.1 -0.052 0.576 0.106 2.716 -1.959 7.403 -7.144 7.375 -6.708 6.347 -8.721Zm-9.031 10.435c-0.286 -1.409 -6.886 -10.929 -7.732 -11.259a5.986 5.986 0 0 0 1.151 -0.871c1.588 -1.358 2.093 -1.818 7.954 -1.353 1.644 0.087 3.268 0.39 4.832 0.905 0.943 0.512 2.691 3.273 3.193 3.595 -1.068 0.139 -8.958 7.98 -9.398 8.983Z" stroke-width="1"></path><path id="Vector_72" fill="#141414" d="M110.477 69.242c-0.2 -2.059 -0.45 -3.938 -0.384 -1.889 0.075 1.734 0.114 1.482 -0.094 1.272 -2.411 -2.43 -2.133 -2.113 -2.009 -2.16 1.988 -0.8 2.108 -1.02 -0.124 -0.364a64.282 64.282 0 0 1 -7.066 -0.289c-0.55 -0.163 -2.174 -1.171 -2.255 -1.038a7.88 7.88 0 0 0 2.111 1.466c1.966 0.258 3.946 0.394 5.929 0.409a655.36 655.36 0 0 0 -3.237 2.849c-0.172 0.132 0.013 0.308 -0.763 -0.832 -1.813 -2.669 -1.208 -2.5 -3.037 -1.824 -1.76 0.546 -1.743 1.289 -1.478 0.069 0.727 -3.477 0.016 -1.212 -0.492 0.857 -5.111 -3.238 1.535 1.671 2.395 2.062a50.788 50.788 0 0 0 2.173 5.967 47.667 47.667 0 0 0 -1.633 -5.78c0.955 0.17 1.921 0.27 2.891 0.3 -0.539 9.06 -0.112 9.092 0.453 0.031 3.708 0.249 3.159 0.224 3.845 0.219 -4.6 7.04 -4.076 7.032 0.574 -0.049 0.731 -0.167 6.35 -2.808 2.201 -1.276ZM97.9 67.971c-0.076 -0.048 -0.076 -0.006 0.238 -0.136 2.994 -1.292 2.695 -1.088 2.917 -0.682 0.375 0.592 1.318 1.99 1.709 2.57 -2.77 -0.194 -2.228 -0.044 -4.864 -1.752Zm11.651 1.621c-1.722 0.647 -0.873 0.595 -5.848 0.2a45.13 45.13 0 0 1 3.579 -3.124c0.206 -0.093 0.376 0.3 2.955 2.6 0.097 0.088 0.126 0.01 -0.689 0.324h0.003Z" stroke-width="1"></path></g><g id="Group_39"><path id="Vector_73" fill="#615fff" d="M56.841 102.205c-0.672 0.522 -1.4 0.979 -2.021 1.561 -1.787 1.671 -1.735 1.5 -2.245 2.706 -0.417 0.982 -0.878 3.322 -0.3 3.891 0.333 0.325 13.137 2.6 13.238 2.619 0.613 0.093 0.183 -0.117 0.323 -3.683 0.132 -3.359 0.267 -6.45 0.29 -8.422 0.009 -0.729 1.029 -1.539 -4.1 -1.8 -2.564 -0.124 -2.399 0.962 -5.185 3.128Z" stroke-width="1"></path><path id="Vector_74" fill="#141414" d="M65.95 99.654c-0.858 -0.579 -3.828 -1.348 -5.006 -0.971 -2.054 0.659 -5.738 4.052 -7.272 5.556a5.019 5.019 0 0 0 -1.889 4.683c0.27 2.268 -0.192 1.912 10.545 3.938 1.1 0.27 2.232 0.378 3.362 0.322 0.6 -0.167 0.672 -2.844 0.684 -3.4 0.14 -6.459 0.385 -9.582 -0.424 -10.128Zm-0.278 13.246c-1.23 -0.821 -12.077 -2.765 -13.259 -2.59 0.337 -3.224 -0.643 -3.4 4.741 -7.95 4.482 -3.752 4.186 -2.879 8.816 -2.374 -0.57 1.131 -0.755 11.72 -0.298 12.914Z" stroke-width="1"></path><path id="Vector_75" fill="#141414" d="M64.167 103.905c0.412 -0.651 2.527 -6.447 0.667 -2.454 -4.629 -3.824 -0.52 -0.1 -0.643 -0.1 -0.978 -0.019 0.195 0.042 -2.706 -0.007 -0.509 0 -0.438 0.029 -0.372 -0.116 0.853 -1.969 0.777 -2.2 -0.344 -0.171a64.235 64.235 0 0 1 -5.22 4.771c-0.507 0.271 -2.369 0.7 -2.332 0.851a7.874 7.874 0 0 0 2.53 -0.446 48.504 48.504 0 0 0 4.5 -3.885c-0.1 1.344 -0.216 3.125 -0.292 4.3 -0.03 0.215 0.228 0.209 -1.128 -0.053 -2.754 -0.538 -2.45 -0.506 -2.639 -0.476 -0.564 0.249 -1.381 2.864 -1.428 2.966 -0.012 0.007 -1.391 -2.173 -1.461 -2.133a24.98 24.98 0 0 0 1.341 2.53c-5.894 1.3 2.249 0.113 3.152 -0.221a48.66 48.66 0 0 0 5.745 2.7 47.843 47.843 0 0 0 -5.23 -2.954 20.099 20.099 0 0 0 2.262 -1.825c6.032 6.854 6.29 6.491 0.343 -0.3 2.782 -2.413 2.392 -2.056 2.884 -2.552 1.669 8.162 2.073 7.97 0.371 -0.425Zm-9.219 5.514c0.394 -0.992 0.846 -1.96 1.351 -2.9 0.127 0.014 0.252 0.043 0.373 0.086 0.7 0.163 2.506 0.52 3.023 0.622 -2.23 1.92 -1.612 1.487 -4.747 2.192Zm5.461 -2.807c0.382 -5.723 -0.251 -4.857 2 -4.875 2.715 0.022 2.522 -0.511 2.016 0.617 -0.774 1.674 -0.184 1.018 -4.016 4.258Z" stroke-width="1"></path></g><g id="Group_40"><path id="Vector_76" fill="#615fff" d="m114.066 51.042 0.473 -4.561a0.55 0.55 0 0 0 -0.158 -0.44 0.532 0.532 0 0 0 -0.442 -0.152l-4.464 0.549a0.545 0.545 0 0 0 -0.444 0.36 0.546 0.546 0 0 0 -0.017 0.297 0.547 0.547 0 0 0 0.144 0.261l1.413 1.42c-5.475 4.533 -7.9 7.278 -7.923 7.11 -0.674 -4.526 0.328 -6.1 -0.266 -7.649 -0.28 -0.73 -1.319 -1.186 -1.869 -0.63 -0.1 0.1 -12.816 15.746 -12.535 16.01 0.541 0.51 7.812 -7.576 9.044 -9 4.117 -4.767 3.411 -4.5 3.436 -3.38 0.013 0.76 0.047 1.518 0.1 2.275 0.717 9.691 -0.975 6.69 11.3 -3.441l1.288 1.3a0.539 0.539 0 0 0 0.808 -0.05 0.538 0.538 0 0 0 0.112 -0.279Z" stroke-width="1"></path><path id="Vector_77" fill="#141414" d="M114 45.884c0.786 0 0.546 0.519 0.063 5.158a0.546 0.546 0 0 1 -0.358 0.454 0.54 0.54 0 0 1 -0.563 -0.128l-1.288 -1.3c-7.887 6.509 -9.561 9.338 -10.384 9.338 -0.939 0 -1.074 -8.757 -1.024 -8.883 0.028 -0.11 -3.378 4.317 -7.915 9.01 -2.665 2.758 -4.39 4.239 -4.56 4.079 -0.279 -0.262 12.436 -15.91 12.535 -16.01 0.549 -0.555 1.588 -0.1 1.869 0.63 0.57 1.482 -0.352 3.016 0.221 7.31 0.132 0.991 -0.524 0.261 7.968 -6.771l-1.413 -1.42a0.538 0.538 0 0 1 -0.127 -0.558 0.544 0.544 0 0 1 0.444 -0.36c3.901 -0.476 4.419 -0.549 4.532 -0.549Zm0 -0.8c-0.055 0 -0.11 0.003 -0.165 0.01 -4.549 0.562 -5.2 0.391 -5.564 1.441 -0.309 0.893 0.266 1.329 1.115 2.183a122.137 122.137 0 0 0 -6.14 5.528c-0.271 -2.689 0.484 -4.707 -0.128 -6.3a2.216 2.216 0 0 0 -2 -1.388c-1.266 0 -1.458 0.828 -6 6.5 -6.155 7.7 -9.792 11.315 -7.118 11.359 0.318 0.005 0.908 0 5.1 -4.333 7.693 -7.959 6.608 -8.8 6.681 -5.769 0.052 2.122 -0.027 5.884 1.713 5.884 1.451 -0.078 2.035 -2.141 10.3 -9.057 0.873 0.877 1.065 1.174 1.72 1.174a1.338 1.338 0 0 0 1.333 -1.2l0.473 -4.562a1.336 1.336 0 0 0 -1.32 -1.466v-0.004Z" stroke-width="1"></path></g><g id="Group_41"><path id="Vector_78" fill="#615fff" d="M27.182 112.579c1.686 -2.428 4.218 1.244 4.86 0.974 0.152 -0.064 5.547 -15.434 6.484 -16.627 0.859 -1.093 1.915 -0.565 2.5 0.455 0.892 1.548 1.781 3.089 2.6 4.676 0.5 -0.751 4.451 -9.7 4.911 -9.506l-1.833 -0.809a0.541 0.541 0 0 1 -0.039 -0.97l3.959 -2.137a0.54 0.54 0 0 1 0.777 0.332l1.219 4.422a0.54 0.54 0 0 1 -0.739 0.638l-1.672 -0.738c-0.574 -0.253 -4.951 11.24 -6.01 11.925 -1.3 0.844 -3.488 -5.259 -4.328 -5.866 -0.92 -0.665 -2.757 7.35 -5.243 12.81 -1.4 3.064 -1.6 4.275 -3.345 3.478 -3.649 -1.667 -1.78 -3.129 -5.561 1.656 -0.525 0.663 -1.194 2.053 -2.127 2.1 -1.729 0.099 3.516 -6.711 3.587 -6.813Z" stroke-width="1"></path><path id="Vector_79" fill="#141414" d="M50.887 88.571c0.567 0 0.449 0.131 1.741 4.818a0.542 0.542 0 0 1 -0.739 0.638c-1.16 -0.515 -1.591 -0.742 -1.692 -0.742 -0.746 0 -5.086 12.009 -6.252 12.009 -1.574 0 -3.7 -6.96 -4.445 -5.884 -1.193 1.714 -2.756 8.641 -6.136 15.477 -0.972 1.967 -2.4 0.542 -4.185 -0.578 -0.964 -0.6 -0.833 -0.328 -3.449 2.983 -0.514 0.649 -1.226 2.105 -2.161 2.105 -1.638 0 3.541 -6.715 3.613 -6.818 1.367 -1.969 3.062 0 4.566 0.905 0.543 0.326 0.043 0.472 3.555 -8.594 2.711 -7 2.39 -6.9 3.223 -7.964 0.811 -1.033 1.863 -0.655 2.5 0.455 0.892 1.548 1.781 3.089 2.6 4.676 0.5 -0.743 4.9 -9.51 4.9 -9.51l-1.817 -0.8a0.541 0.541 0 0 1 -0.039 -0.971c4.31 -2.328 4.024 -2.205 4.217 -2.205Zm0 -0.8c-0.507 0 -0.493 0.086 -4.592 2.3a1.336 1.336 0 0 0 0.095 2.4l0.9 0.4c-0.916 1.572 -2.753 5.551 -3.671 7.465a157.524 157.524 0 0 0 -1.9 -3.349c-0.928 -1.609 -2.659 -2.026 -3.819 -0.549 -0.79 1.006 -5.841 14.808 -6.254 16.029 -0.948 -0.67 -1.956 -1.525 -3.106 -1.525 -1.468 0 -2.019 1.231 -3.044 2.595 -0.92 1.225 -3.058 4.125 -2.995 5.655a1.026 1.026 0 0 0 1.068 1c1.382 0 1.708 -1.1 5.059 -5.285 4.468 2.5 4.566 5.126 10.51 -12.745 0.17 -0.557 0.378 -1.101 0.623 -1.629 1.172 2.073 2.908 6.624 4.878 5.349 1.233 -0.8 4.334 -9.042 5.793 -11.629 1.17 0.516 1.3 0.617 1.677 0.617a1.338 1.338 0 0 0 1.291 -1.693c-1.117 -4.036 -1.15 -5.403 -2.513 -5.403v-0.003Z" stroke-width="1"></path></g><g id="Group_42"><path id="Vector_80" fill="#d6d5d4" d="M167.626 53.429c-0.229 0.116 -0.479 -0.092 -0.68 -0.252 -0.725 -0.577 -1.251 -0.593 -5.357 -1.173 -2.278 -0.321 -7.124 1.034 -9.572 3.588 -4.314 4.5 -2.1 6.968 -3.857 4.248 -0.274 -0.424 -0.732 -0.715 -0.959 -1.167 -0.51 -1.015 -7.158 -9.438 -15.859 -11.051 -2.758 -0.511 -5.417 0.213 -5.137 -0.506 0.624 -1.6 0.157 -6.436 -2.139 -9.836 -3.805 -5.633 -6.547 -4.585 -4.508 -5.491a8.99 8.99 0 0 1 2.27 -1.878c2.778 -2.21 3.552 -5.291 4.6 -8.356 0.814 -2.371 0.105 -5.925 0.108 -6.53 0.009 -2.675 0.1 0.3 4.8 1.164 1.345 0.21 2.709 0.28 4.069 0.208a17.777 17.777 0 0 0 6.486 -2.573c0.811 -0.61 0.687 -0.691 1.936 -1.684 0.244 -0.2 2.084 3.226 3.209 4.44a33.372 33.372 0 0 0 4.533 3.59 6.8 6.8 0 0 0 3.37 1.446c5.459 1.219 5.3 -0.011 7.551 0.126 0.29 -0.156 0.619 -0.222 0.947 -0.192 0.462 0.342 -1.618 1.865 -0.353 6.715A7.433 7.433 0 0 0 165.347 32c2.855 3.441 4.2 2.654 7.158 3.662 -5.2 3.547 -7.175 6.007 -6.511 12.592 0.094 0.946 0.087 0.462 1.632 5.175Z" stroke-width="1"></path><path id="Vector_81" fill="#141414" d="M173.032 35.587c0.021 -0.466 -4.879 -0.5 -7.941 -4.978a10.038 10.038 0 0 1 -1.8 -6.272c0.191 -3.6 1.6 -3.117 -3.224 -2.8a13.472 13.472 0 0 1 -7.789 -1.59c-5.2 -2.8 -7.983 -8.218 -8.471 -7.918 -0.353 -0.269 -2.781 2.8 -8.59 3.574 -2.15 0.343 -4.353 0.087 -6.367 -0.741 -1.516 -0.678 -2.28 -1.472 -2.448 -1.322 -0.62 0.1 0.9 5.311 -1.53 10.438a18.736 18.736 0 0 1 -4.063 6.2c-3.511 3.211 -2.891 1.213 -0.249 3.541 2.508 2.21 5.047 7.5 5.408 11.076 0.489 3.787 -1.462 2.263 4.154 3.3a26.56 26.56 0 0 1 13.115 6.855c4.031 3.82 5.415 6.439 5.723 6.258 0.338 0.076 0.878 -3.077 4.019 -5.675 2.627 -2.206 7.367 -3.48 11.772 -2.59 4.511 0.906 3.591 2.111 2.3 -2.124 -3.286 -10.634 6.186 -14.778 5.981 -15.232Zm-3.018 1.238a11.52 11.52 0 0 0 -3.848 14.335c1.285 2.865 2.03 1.9 -1.176 0.869 -7.592 -2.468 -15.956 2.747 -16.105 8.753 -1.937 -5.209 -9.53 -12.582 -18.626 -13.622 -6.159 -0.53 -3.412 1.835 -3.336 -2.394 0.235 -5.437 -4.415 -12.389 -7.828 -12.6 4.915 -1.623 10.083 -10.076 7.688 -17.866 1.9 2.409 5.589 3.054 8.614 2.642 4.623 -0.612 7.911 -3.373 8.41 -4.691 0.49 2.049 6.224 11.924 16.369 10.238 4.787 -0.868 2.947 -1.937 2.175 1.736 -0.949 4.513 2.343 10.045 7.657 11.321 2.664 0.633 2.485 -0.387 0.006 1.279Z" stroke-width="1"></path><g id="Group_43"><path id="Vector_82" fill="#d6d5d4" d="M134.828 21.07c-2.237 1.286 -3.915 3.306 -5.705 5.488 -1.261 1.538 -2.2 2.464 -2.135 4.73 0.184 9 15.173 22.432 26.262 19.668 3.457 -0.862 7.478 -5.873 9.088 -8.988 4.924 -9.53 -16.863 -27.025 -27.51 -20.899Z" stroke-width="1"></path><g id="Group_44"><path id="Vector_83" fill="#141414" d="M161.821 33.062c-4.821 -8.177 -16.321 -15.679 -25.3 -13.341 -3.2 0.833 -5.793 3.872 -7.89 6.434a8.856 8.856 0 0 0 -2.023 3.159c-2.879 9.431 16.974 27.025 28.173 21.8 2.013 -0.953 4.832 -4.019 6.315 -6.054 2.451 -3.342 3.961 -6.26 0.725 -11.998Zm-33.749 -3.311c0.256 -1.073 3.244 -4.521 3.919 -5.256a8.615 8.615 0 0 0 0.547 6.658c-1.538 1.947 -1.116 2.047 -3.725 3.761 -0.65 -1.548 -1.233 -3.557 -0.741 -5.163Zm1.2 6.161c0.534 -0.59 1.127 -1.384 1.766 -2 0.606 -0.585 1.453 -1.183 2.028 -1.664 1.145 2.09 2.591 4 4.291 5.67 -1.944 2.267 -1.139 1.989 -3.981 3.826a23.755 23.755 0 0 1 -4.107 -5.832h0.003Zm4.827 6.567c3.023 -3.368 2.528 -2.291 4.1 -3.739a37.232 37.232 0 0 0 6.2 4.777c-2.49 2.886 -0.951 1.5 -4.008 3.783a33.688 33.688 0 0 1 -6.291 -4.821h-0.001Zm7.272 5.377c2.622 -3.238 2.665 -2.437 4.067 -3.725a24.076 24.076 0 0 0 5.854 2.438c-1.636 2.693 -1.423 1.977 -3.186 3.682a21.159 21.159 0 0 1 -6.738 -2.395h0.003Zm7.93 2.536c1.638 -2.706 2.183 -2.186 3.241 -3.579a10.245 10.245 0 0 0 6.081 -0.972c-3.252 3.713 -5.246 4.785 -9.323 4.551h0.001Zm12.333 -8.77c-2.7 6.022 -9.166 5.242 -14.99 2.179 -14.79 -7.936 -19.682 -22.6 -6.844 -23.192 12.822 -0.432 25.568 14.48 21.831 21.013h0.003Z" stroke-width="1"></path><path id="Vector_84" fill="#141414" d="M154.1 28.494a12.716 12.716 0 0 0 -2.245 -1.659c-0.165 0.213 3.968 2.825 6.391 7.931 1.115 2.4 1.676 5.45 0.031 7.319 -2.023 2.411 -6.026 0.741 -8.625 -0.275a28.57 28.57 0 0 1 -11.233 -8.174c-1.937 -2.34 -3.846 -6.111 -2.763 -8.436 0.757 -1.661 3.181 -3.132 6.7 -2.464 5.937 1.153 9.2 4.261 9.382 4.01 0.182 -0.251 -8.948 -7.065 -14.591 -4.067 -6.14 3.276 -0.4 11.881 5.858 16.457 4.018 2.91 12.735 7.318 15.871 3.457 3.285 -3.863 -0.723 -10.465 -4.776 -14.099Z" stroke-width="1"></path><path id="Vector_85" fill="#141414" d="M147.94 31.151c0.842 -2.907 -2.388 -5.987 -5.116 -5.383 -0.667 -0.988 -1.882 -1.59 -2.055 -1.3 -0.162 0.26 0.759 1.163 1.184 1.612 -1.11 0.514 -0.742 0.643 -1.1 0.246 -1.443 -1.618 -2.125 -1.04 -0.668 0.6 0.229 0.258 0.262 -0.01 -0.531 0.981 0 0 3.57 3.45 6.236 6.117 6.713 7.586 5.428 7.022 6.484 5.882 1.192 1.453 3.145 1.741 0.755 -0.473 0.314 -0.187 0.602 -0.414 0.859 -0.674 1.686 1.962 2.58 1.225 0.537 -0.71 1.851 -3.315 -3.793 -7.129 -6.585 -6.898ZM142 27.922a5.906 5.906 0 0 1 1.15 -0.9c2 -1.022 4.368 1.378 3.642 3.277a5.002 5.002 0 0 1 -1.512 1.8c-1.18 -1.439 -2.35 -2.999 -3.28 -4.177Zm9.676 10.3a56.415 56.415 0 0 1 -5.109 -4.628 3.288 3.288 0 0 1 2.191 -1.112c3.031 -0.028 5.8 2.8 4.8 4.547a3.185 3.185 0 0 1 -1.883 1.195l0.001 -0.002Z" stroke-width="1"></path></g></g></g><g id="Group_45"><path id="Vector_86" fill="#d6d5d4" d="M122.745 50.653a26.888 26.888 0 0 0 -5.89 5.012c-1.681 1.7 -2.82 3.689 -0.808 8.713 3.292 8.149 13.924 17.414 22.976 15.562 2.478 -0.506 6.887 -4.889 8.452 -7.2 6.155 -9.079 -14.258 -27.832 -24.73 -22.087Z" stroke-width="1"></path><g id="Group_46"><path id="Vector_87" fill="#141414" d="M124.931 49.243c-3.09 0.522 -5.788 3.178 -7.976 5.418a8.396 8.396 0 0 0 -2.168 2.805c-3.546 8.768 13.934 26.86 24.776 22.914 2.569 -0.95 9.009 -6.42 9.366 -10.734 0.728 -8.789 -13.157 -22.235 -23.998 -20.403Zm-8.884 8.723c0.341 -1.016 3.517 -4.08 4.251 -4.744a8.116 8.116 0 0 0 -0.1 6.461c-1.727 1.825 -1.243 1.846 -3.882 3.272 -0.491 -1.538 -0.873 -3.498 -0.269 -4.989Zm0.625 5.982c0.529 -0.484 1.233 -1.244 1.876 -1.78 0 -0.1 1.269 -0.857 2.057 -1.407a23.132 23.132 0 0 0 3.587 5.723c-1.888 1.845 -1.133 1.725 -4.13 3.311a22.572 22.572 0 0 1 -3.39 -5.847Zm4.021 6.615c3.663 -3.405 1.889 -1.428 4.225 -3.23a35.399 35.399 0 0 0 5.47 5.038c-2.851 2.768 -1.2 1.428 -4.154 3.272a31.994 31.994 0 0 1 -5.541 -5.08Zm6.432 5.7c2.909 -2.993 2.686 -2.064 4.195 -3.222a22.83 22.83 0 0 0 5.335 2.8c-1.815 2.467 -1.571 1.771 -3.37 3.256a20.14 20.14 0 0 1 -6.16 -2.837v0.003Zm7.294 3.07c1.719 -2.352 2.462 -2.13 3.4 -3.162a9.72 9.72 0 0 0 5.951 -0.46c-3.702 3.58 -5.777 4.167 -9.351 3.618v0.003Zm13.314 -9.79c-0.189 1.882 -0.84 2.71 -2.471 4.591 -4.006 3 -8.613 1.375 -12.774 -1.3 -6.3 -4.135 -15.168 -13.81 -11.1 -20.118 2.44 -3.3 7.971 -2.8 11.81 -1.253 9.418 3.754 15.032 13.128 14.535 18.077v0.003Z" stroke-width="1"></path><path id="Vector_88" fill="#141414" d="M140.818 58.966a13.958 13.958 0 0 0 -1.986 -1.757c-0.174 0.188 3.518 3 5.385 8.037 0.854 2.368 1.131 5.3 -0.582 6.928 -2.117 2.112 -5.762 0.2 -8.137 -0.98a27.155 27.155 0 0 1 -9.946 -8.672c-1.634 -2.37 -3.131 -6.1 -1.91 -8.212 0.844 -1.489 3.247 -2.7 6.542 -1.772 5.521 1.587 8.348 4.8 8.542 4.577 0.194 -0.223 -7.874 -7.43 -13.466 -5.066 -6.124 2.605 -1.293 11.271 4.169 16.06 3.571 3.091 11.44 7.983 14.728 4.591 3.422 -3.359 0.229 -9.922 -3.339 -13.734Z" stroke-width="1"></path><path id="Vector_89" fill="#141414" d="M135.173 61.491c0.173 -0.622 1.02 -2.343 0.241 -2.691 -5.3 -2.365 -6.059 -2.5 -8.1 -2.988a37.96 37.96 0 0 0 3.534 7.282c0.126 0.218 0.053 0.165 0.3 0.206 0.964 0.16 1.953 0.067 2.87 -0.27a2.208 2.208 0 0 0 1.155 -1.539Zm-3.7 1a30.993 30.993 0 0 1 -2.744 -5.455 45.257 45.257 0 0 1 6.163 2.458 8.363 8.363 0 0 1 -0.406 1.387c-0.286 0.809 -0.344 1.927 -3.011 1.611l-0.002 -0.001Z" stroke-width="1"></path><path id="Vector_90" fill="#141414" d="M133.253 65.422c1 0.755 1.2 0.787 2.606 1.683a7.184 7.184 0 0 0 4 1.545c0.706 -1.044 -1.665 -7.081 -3.163 -9.067 -0.295 0.99 -0.367 1.2 -0.534 1.935 -0.788 3.424 -1.626 2.045 -3.611 2.551 -1.423 0.363 -1.204 -0.083 0.702 1.353Zm2.767 -1.337c1.413 -1.772 0.536 -3.586 1.424 -1.464a35.245 35.245 0 0 1 1.754 5.146 8.904 8.904 0 0 1 -2.976 -1.434c-4.37 -2.787 -1.506 -0.613 -0.202 -2.248Z" stroke-width="1"></path></g></g><g id="Group_47"><path id="Vector_91" fill="#615fff" d="M193.333 85.635c-4.661 -10.875 -20.069 -9.3 -17.181 -9.33 -10.787 0.1 -27.661 7.565 -47.623 9.658 -6.05 0.634 -12.256 0.8 -16.671 5.382a9.46 9.46 0 0 0 -2.532 4.866c-0.19 1.128 -0.274 4.888 -0.27 4.786a7.417 7.417 0 0 1 -1.526 1.492c-6.67 5.694 -8.222 17.047 -7.43 25.108 -2.295 16.355 -10.355 20.111 -18.472 28.924 -3.428 3.722 -6.331 8.129 -2.068 11.408 5.7 4.387 22.921 -1.838 29.371 -5.207 6.222 -3.247 11.532 -8.18 13.36 -9.713 11.058 -9.313 25.244 -5.759 44.418 -17.55 15.973 -9.803 32.054 -37.159 26.624 -49.824Z" stroke-width="1"></path><path id="Vector_92" fill="#d6d5d4" d="M141.779 106.734c3.91 3.373 9.721 1.479 10.818 -3.044 0.124 -0.512 -0.03 -0.695 -0.54 -0.828a159.576 159.576 0 0 0 -8.859 -2.043c-0.907 -0.182 -2.781 -0.965 -3.558 -0.222 -1.193 1.14 0.445 4.676 2.139 6.137Z" stroke-width="1"></path><path id="Vector_93" fill="#d6d5d4" d="M191.424 87.575c1.613 -0.456 3.348 -0.8 3.553 2.722 0.268 4.6 -1.787 9.025 -4.811 16.99 -10.682 28.14 -32.171 33.424 -53.433 39.407 -6.8 1.914 -8.9 2.512 -9 2.517 -0.973 0.049 5.947 -11.415 7.087 -17.566 1.339 -7.222 -0.8 -1.643 17.494 -12.914 18.612 -11.468 23.899 -26.854 39.11 -31.156Z" stroke-width="1"></path><path id="Vector_94" fill="#141414" d="M195.707 90.3c-0.457 -9.919 -9.608 -15.46 -19.576 -15.263 -7.654 0.107 -15.088 3.013 -28.4 6.276 -15.02 3.746 -20.919 3.717 -25.5 4.446 -5.546 0.866 -11.049 3.242 -13.077 8.427 -0.945 2.411 -0.578 4.654 -0.757 6.85 -6.266 3.863 -11.46 16.223 -8.623 23.729 -2.357 22.26 -14.926 24.007 -21.813 34.623 -3.793 5.938 -0.073 10.762 5.818 11.174 3.308 0.004 6.606 -0.35 9.837 -1.057 21.065 -4.193 27.416 -15.812 36.079 -19.565 13.125 -5.719 44.874 -3.545 62.27 -43.394 2.213 -5.117 3.962 -10.684 3.742 -16.246ZM88.489 168.333c-2.877 0.4 -6.135 0.717 -8.445 -1.035 -5.57 -4.149 3.24 -11.434 8.307 -16.29 6.812 -6.512 11.1 -12 12.634 -24.01 3.063 3.909 10.215 4.151 10.339 3.517 0.063 -0.315 -1.173 -0.771 -3.065 -1.461 -4.533 -1.718 -7 -3.394 -7.074 -8.912 -0.085 -5.146 2.734 -11.582 5.7 -14.928 4.06 -4.691 9.2 -5.009 9.091 -5.825 -0.05 -0.47 -3.149 -0.506 -6.1 0.861 0.135 -2.992 -0.422 -7.2 5.372 -10.554 4.429 -2.587 10.1 -2.459 15.467 -3.2 26.865 -3.426 42.231 -13.617 54.884 -7.46a13.553 13.553 0 0 1 6.977 6.91C174 88.677 164.438 118.821 129.433 128.3c-7.954 2.094 -13.125 2.236 -13.106 2.622 0.022 0.439 8.5 0.545 17.888 -2.227a38.713 38.713 0 0 1 -7.591 18.508c-2.749 3.7 -3.011 3.772 -6.869 6.95a56.5 56.5 0 0 1 -31.266 14.18Zm96.441 -52.882c-16.873 28.211 -44.28 27.327 -56.106 32.5 -0.89 0.387 0.364 -0.01 3.017 -4.8a39.284 39.284 0 0 0 4.69 -15.188c29.745 -10 40.076 -37.728 56.715 -39.859 1.805 8.096 -4.077 20.202 -8.316 27.347Z" stroke-width="1"></path><path id="Vector_95" fill="#141414" d="M139.369 132.969c20.685 -4.491 40.352 -21.724 47.96 -40.075 2.674 -6.577 -0.8 0.611 -4.329 6.116a80.224 80.224 0 0 1 -36.844 30.79c-5.992 2.469 -13.756 4.637 -6.787 3.169Z" stroke-width="1"></path><path id="Vector_96" fill="#141414" d="M192.9 90.4c-0.453 -0.158 -3.757 11.3 -11.841 22.442 -9.521 13.074 -21 20.332 -36.547 25.656 -6.611 2.218 -17.173 4.876 -8.411 3.22 28.444 -5.4 45.658 -20.5 54.759 -44.43 0.134 -0.359 2.404 -6.769 2.04 -6.888Z" stroke-width="1"></path><path id="Vector_97" fill="#141414" d="M158.488 100.646c-0.51 -0.328 -1.828 1.567 -5.931 1.373 -3.016 -0.087 -6.115 -1.918 -9.656 -2.51 -6.567 -1.063 -10.191 3.1 -9.67 3.695 0.373 0.424 2.393 -0.847 5.25 -1.395a7.73 7.73 0 0 0 11.76 6.625 7.73 7.73 0 0 0 3.317 -4.207c4.001 -0.327 5.559 -3.244 4.93 -3.581Zm-18.477 0.949c4.157 -0.351 7.605 2.187 11.753 2.6a6.33 6.33 0 0 1 -11.753 -2.595v-0.005Z" stroke-width="1"></path></g><g id="Group_48"><path id="Vector_98" fill="#d6d5d4" d="M172.914 146.987c-0.147 -0.039 -2.3 -0.974 -2.4 -1.023a10.88 10.88 0 0 1 -6.172 -7.873c-1.232 -5.34 1.045 -9.227 0.614 -9.462 -0.131 -0.071 -4.507 2.4 -7.905 2.016a21.15 21.15 0 0 1 -5.519 -1.9c-2.39 -1.33 -2.777 -2.856 -3.535 -3.763 -0.855 -1.022 -0.9 0.925 -0.968 1.139 -2.047 6.669 -5.791 7.954 -11.152 8.191 -0.808 0.035 -2.08 -0.638 -2.208 -0.549 -0.662 0.46 4.562 8.917 -5.205 17.5 -2.751 2.418 -3.962 2.179 -3.356 2.634a12.415 12.415 0 0 1 3.466 4.82c1.337 3.9 2.542 6.967 -1.319 12.179 5.1 -1.378 12.605 0.448 16.293 4.735 0.171 0.187 0.355 0.362 0.551 0.523 0.237 0.251 0.446 0.528 0.622 0.825 0.086 0.12 0.952 1.091 0.929 1.142 1.539 -3.47 2.036 -3.667 5.7 -5.741a15.885 15.885 0 0 1 6.58 -2.455c3 -0.212 2.5 1.585 2.427 -1.358a17.04 17.04 0 0 1 0.681 -5.531c2.207 -6.306 3.461 -7.547 7.316 -11.884a18.876 18.876 0 0 1 3.307 -3.152c1.664 -1.193 1.698 -0.9 1.253 -1.013Z" stroke-width="1"></path><path id="Vector_99" fill="#d6d5d4" d="M162.686 145.934c-0.377 -5.984 -3.426 -9.265 -7.987 -11.491 -3.547 -1.731 -6.311 -2.552 -10.25 0.343a35.207 35.207 0 0 0 -6.483 7.278 38.567 38.567 0 0 0 -2.344 5.516c-2.641 6.55 -2.438 8.314 -1.721 12 0.637 3.272 1.893 5.362 4.91 6.906 5.769 2.951 6.949 3.734 8.646 3.665 6.221 -0.251 15.99 -12.129 15.229 -24.217Z" stroke-width="1"></path><path id="Vector_100" fill="#141414" d="M173.333 146.994c0.066 -0.34 -3.1 -0.786 -5.748 -3.856 -2.212 -2.5 -3.652 -7.205 -2.908 -11.667 0.747 -4.529 1.961 -3.647 -2.178 -2.22a11.818 11.818 0 0 1 -13.193 -3.123c-2.857 -3.113 -1.594 -3.344 -2.885 0.391a10.692 10.692 0 0 1 -7 6.957c-2.658 0.86 -5.7 -0.029 -5.792 0.2 -0.41 0.08 0.59 3.926 0.171 7.121 -0.545 4.248 -3.168 7.643 -6.322 10.52 -3.429 3.079 -2.909 1.7 -0.982 4.759 2.693 4.415 3 9.577 1.734 12.508 -1.233 3.063 -2.719 2.664 1.953 2.471 3.852 -0.183 7.66 0.885 10.856 3.044 3.424 2.111 4.338 4.558 4.69 4.363 0.49 0.032 0.123 -2.619 6.272 -5.926a19.43 19.43 0 0 1 5.862 -2.039c1.568 -0.258 2.537 -0.007 2.615 -0.2 0.263 -0.021 0.216 -3.54 0.913 -6.018 2.257 -10.747 12.262 -16.786 11.942 -17.285Zm-3.592 2.076c-4.447 3.282 -8.612 9.3 -9.44 14.983a14.854 14.854 0 0 0 0.069 6.089c-3.183 -2.476 -14.288 2.46 -14.759 7.55 -0.014 0.366 -0.627 -3.655 -7.721 -6.65a13.854 13.854 0 0 0 -7.8 -0.926c-3.493 0.581 -2.388 1.258 -1.012 -1.119 2.016 -3.313 1.419 -9.526 -1.817 -13.471a6.345 6.345 0 0 0 -2.095 -1.8c2.1 -0.582 9.282 -5.564 9.855 -12.8a16.164 16.164 0 0 0 -1.2 -7.007c1.923 1.393 6.222 1.556 9.615 -1a10.248 10.248 0 0 0 4.076 -8.053c2.876 6.848 12.023 8.363 17.18 4.1 -2.982 5.16 -1.281 14.274 5.154 17.308 3.782 1.746 4.254 -0.518 -0.105 2.796Z" stroke-width="1"></path><path id="Vector_101" fill="#141414" d="M161.624 139.593c-1.541 -2.933 -5.1 -4.767 -8.058 -6.223a8.856 8.856 0 0 0 -3.536 -1.253c-9.9 -0.666 -22.421 22.728 -14.832 32.388 1.384 1.744 5.01 3.793 7.329 4.775 3.8 1.624 6.987 2.442 11.85 -2.019 6.86 -6.539 11.567 -19.447 7.247 -27.668Zm-5.678 -3.327a8.63 8.63 0 0 0 -6.36 2.044c-2.338 -1.1 -2.223 -0.6 -4.509 -2.773 3.529 -2.557 4.974 -2.593 10.869 0.729Zm-11.737 -0.058c0.658 0.365 1.628 0.8 2.35 1.264 0.707 0.458 1.482 1.147 2.082 1.6a24.355 24.355 0 0 0 -4.548 5.467c-2.542 -1.324 -2.131 -0.595 -4.63 -3.008a23.74 23.74 0 0 1 4.746 -5.323Zm-5.3 6.191c4.29 2.358 2.287 1.589 4.573 3.142a37.19 37.19 0 0 0 -3.244 7.125c-3.494 -1.83 -1.751 -0.644 -4.594 -3.045a33.647 33.647 0 0 1 3.265 -7.221v-0.001Zm-3.585 8.3c3.825 1.853 2.928 2.007 4.552 3.114a24.06 24.06 0 0 0 -1.045 6.255c-2.95 -0.969 -2.15 -0.873 -4.309 -2.267a21.138 21.138 0 0 1 0.802 -7.101v-0.001Zm-0.669 8.3c2.861 0.934 2.892 1.748 4.222 2.344a10.242 10.242 0 0 0 2.328 5.7c-4.705 -2.505 -5.88 -4.168 -6.55 -8.043v-0.001ZM146 169.02c-6.444 -1.26 -7.2 -7.68 -5.525 -14.1 4.342 -16.1 17.522 -24.374 21.031 -11.932 3.202 11.903 -8.162 28.231 -15.506 26.032Z" stroke-width="1"></path><path id="Vector_102" fill="#141414" d="M158.883 140.867c-4.586 -5.237 -11.661 2.311 -14.7 9.442 -1.926 4.584 -4.231 14.064 0.238 16.241 4.841 2.5 11.262 -4.006 13.533 -9.722 1.6 -4.022 -3.392 8.569 -10.56 9.439 -6.843 0.714 -5 -9.4 -2.39 -15.613 6.683 -15.721 18.528 -13.341 14.04 2.693 -0.485 1.679 -1.273 3.741 -0.451 2.024 1.807 -3.747 3.413 -10.924 0.29 -14.504Z" stroke-width="1"></path><path id="Vector_103" fill="#141414" d="M154.967 156.4c0.136 -0.18 0.084 -0.036 -0.216 -3.277 -0.04 -0.425 0.389 -0.111 -6.6 -3.046 -0.226 -0.094 -0.335 0.149 -0.31 0.4 0.309 3.144 0.227 3.207 0.524 3.329 1.18 0.474 6.478 2.754 6.602 2.594Z" stroke-width="1"></path><path id="Vector_104" fill="#141414" d="M155.626 151.033c3.388 -2.771 3.558 -1.857 -1.063 -3.815 -3.253 -1.378 -3.033 -1.391 -3.368 -1.118 -2.526 2.061 -2.453 1.913 -2.484 2.145 -0.047 0.36 3.361 1.421 3.309 1.558 3.503 1.464 3.274 1.503 3.606 1.23Z" stroke-width="1"></path><path id="Vector_105" fill="#141414" d="M147.677 155.389c-0.25 -0.105 -0.2 -0.064 -2.728 1.974 -0.187 0.151 -0.289 0.394 -0.068 0.487 6.977 2.958 6.471 2.85 6.753 2.623 2 -1.617 2.962 -2.152 2.363 -2.405 -1.202 -0.504 -5.056 -2.145 -6.32 -2.679Z" stroke-width="1"></path></g><g id="Group_49"><path id="Vector_106" fill="#d6d5d4" d="M121.912 151.787c4.256 -4.737 -1.625 -17.588 -9.3 -17.819a18.155 18.155 0 0 0 -8.03 2.41c-2.369 1.979 -1.98 7.247 -0.564 10.628 1.651 3.922 5.226 8.035 9.287 8.035 2.005 0 7.156 -1.641 8.607 -3.254Z" stroke-width="1"></path><g id="Group_50"><path id="Vector_107" fill="#141414" d="M111.257 133.557a25.791 25.791 0 0 0 -5.244 1.514 4.354 4.354 0 0 0 -1.682 0.889c-0.489 0.416 -0.88 0.935 -1.145 1.52 -2.716 5.773 1.7 16.4 8.953 17.884 3.087 0.63 8.929 -1.822 10.209 -3.368 4.37 -5.275 -2.076 -19.647 -11.091 -18.439Zm-2.319 1.751a5.48 5.48 0 0 0 -1.686 3.337 9.977 9.977 0 0 1 -3.437 0.925c0.567 -2.983 2.015 -3.251 5.123 -4.262Zm-5.226 4.951a9.06 9.06 0 0 1 3.456 -0.848c-0.064 1.394 0.097 2.79 0.479 4.133 -1.682 0.474 -0.972 0.628 -3.646 0.9a11.869 11.869 0 0 1 -0.289 -4.185Zm0.454 4.8c2.457 -0.9 2.129 -0.5 3.692 -0.788a19.542 19.542 0 0 0 1.9 4.185 9.26 9.26 0 0 1 -3.623 0.875 17.025 17.025 0 0 1 -1.969 -4.275v0.003Zm2.363 4.859a16.766 16.766 0 0 1 3.634 -0.821 13.367 13.367 0 0 0 2.519 2.886c-0.927 0.554 -1.963 0.9 -3.036 1.017a11.786 11.786 0 0 1 -3.117 -3.085v0.003Zm3.8 3.482a15.526 15.526 0 0 1 3.021 -0.9 8.063 8.063 0 0 0 3.408 1.141c-2.575 0.768 -4.139 0.98 -6.432 -0.241h0.003Zm12.428 -5.215c-0.3 3.084 -1.893 3.98 -4.634 5 -5.681 0.554 -9.7 -6.66 -10.341 -11.85 -1.573 -12.583 16.136 -5.975 14.972 6.847l0.003 0.003Z" stroke-width="1"></path><path id="Vector_108" fill="#141414" d="M120.346 142.141c-1.226 -2.409 2.732 5.187 -0.645 8.584 -3.521 3.75 -9.159 -4.124 -9.964 -9.314 -0.747 -5.061 2.923 -6.82 6.211 -4.493a15.718 15.718 0 0 1 4.126 4.759c0.179 -0.084 -2.715 -6.139 -7.023 -6.2 -4.741 -0.042 -4.635 5.96 -2.531 10.29 2.01 4.078 6.385 8.6 9.52 5.285 2.073 -2.166 1.624 -6.33 0.306 -8.911Z" stroke-width="1"></path></g></g><g id="Group_51"><path id="Vector_109" fill="#d6d5d4" d="M112.658 165.317c-0.824 -3.034 -4.394 -7.885 -5.586 -8.6 -7.121 -4.256 -26.1 8.444 -24.244 18.8 0.487 2.549 4.706 9.1 8.043 9.885 8.017 1.898 23.845 -9.728 21.787 -20.085Z" stroke-width="1"></path><g id="Group_52"><path id="Vector_110" fill="#141414" d="M113.342 166.861c0 -2.944 -2.038 -5.851 -3.78 -8.237a7.884 7.884 0 0 0 -2.263 -2.446c-5.826 -3.577 -21.085 4.181 -24.553 14.4 -1.189 3.729 -1.076 6.509 3.256 11.8 1.581 1.857 2.426 2.98 4.691 3.556 7.97 2.022 22.659 -8.701 22.649 -19.073Zm-6.7 -9.594c0.891 0.476 3.236 3.9 3.736 4.679a7.633 7.633 0 0 0 -5.973 -1.1c-1.381 -1.83 -1.5 -1.4 -2.429 -4.108a7.351 7.351 0 0 1 4.663 0.529h0.003Zm-5.642 -0.352c0.35 0.54 1.36 1.916 1.36 2.017 0.358 0.661 0.7 1.521 0.983 2.126a21.705 21.705 0 0 0 -5.864 2.433c-1.416 -2.037 -1.422 -1.318 -2.426 -4.344a21.247 21.247 0 0 1 5.947 -2.232Zm-6.758 2.7c0.362 0.55 0.86 1.237 1.2 1.85 0.1 0 0.782 1.911 1.135 2.57a33.241 33.241 0 0 0 -5.522 4.285c-1.887 -2.734 -0.966 -0.923 -2.386 -4.36a30.06 30.06 0 0 1 5.57 -4.348l0.003 0.003Zm-6.281 5.075c2.333 3.177 1.476 2.778 2.333 4.39a21.553 21.553 0 0 0 -3.423 4.509c-2 -2.063 -1.364 -1.678 -2.493 -3.629a18.962 18.962 0 0 1 3.58 -5.273l0.003 0.003Zm-3.987 6.3c0.034 -0.1 0.982 1.078 1.107 1.263 0.053 0.053 1.121 2.135 1.3 2.362a9.145 9.145 0 0 0 -0.5 5.587c-2.765 -4.014 -2.991 -5.868 -1.91 -9.215l0.003 0.003Zm27.948 -1.488c-2.1 9.339 -14.231 17.169 -20.943 15.337 -1.721 -0.47 -2.386 -1.207 -3.87 -3.007 -2.153 -4.174 0.06 -8.189 3.2 -11.636 10.098 -10.913 24.011 -12.015 21.61 -0.696l0.003 0.002Z" stroke-width="1"></path><path id="Vector_111" fill="#141414" d="M100.609 164.662c-7.545 3.538 -12.309 10.616 -12.652 13.486a4.026 4.026 0 0 0 2.879 4.507c5.5 1.964 13.175 -3.879 12.956 -4.15 -0.147 -0.19 -3.331 2.794 -8.287 3.74 -2.343 0.426 -5.093 0.216 -6.331 -1.618 -1.629 -2.29 0.714 -5.372 2.175 -7.39a25.487 25.487 0 0 1 9.587 -7.868c2.452 -1.145 6.14 -1.954 7.909 -0.492 1.262 1.025 1.993 3.447 0.624 6.34 -2.447 5.113 -5.792 6.939 -5.572 7.2 0.171 0.211 8.114 -6.141 6.792 -11.693 -1.04 -4.324 -6.046 -3.924 -10.08 -2.062Z" stroke-width="1"></path><path id="Vector_112" fill="#141414" d="M104.564 170.1c0.215 -0.478 -0.048 -0.732 -0.588 -0.594 -0.1 0.026 -10.131 2.887 -10.415 3.1 -0.69 0.531 0.793 1.355 0.706 1.441 1.232 1.257 1.069 1.32 3.255 0.7 6.303 -1.788 5.378 -0.947 7.042 -4.647Z" stroke-width="1"></path><path id="Vector_113" fill="#141414" d="M101.234 175.388c-4.621 1.294 -4.739 0.928 -2.806 2.9 1.669 1.7 1.612 1.662 2.441 -0.133 0.64 -1.388 1.782 -3.163 0.365 -2.767Z" stroke-width="1"></path></g></g><g id="Group_53"><path id="Vector_114" fill="#615fff" d="M84.754 147.745c-1.664 0.676 -6.35 3.014 -7.005 4.68 -0.268 0.682 -1 2.459 -0.585 2.984 0.369 0.47 2.363 0.589 8.033 3.2 0.752 0.346 2.008 0.985 2.278 0.62s1.255 -6.807 1.394 -7.233a9.157 9.157 0 0 0 0.672 -2.357c0.1 -0.625 0.012 -0.906 -0.791 -1.2 -2.714 -0.993 -2.833 -1.167 -3.996 -0.694Z" stroke-width="1"></path><path id="Vector_115" fill="#141414" d="M89.641 148.937c-0.015 -0.459 -2.754 -1.933 -3.986 -1.767 -1.5 0.2 -7.74 3.338 -8.522 5.532a3.707 3.707 0 0 0 -0.133 2.636c-0.245 0.575 3.547 1.9 7.695 3.486 2.153 0.823 2.72 0.721 2.783 0.6 0.518 0.1 1.033 -2.688 2.066 -7.777 0.283 -1.394 0.322 -2.568 0.097 -2.71Zm-2.1 7.764c-0.706 3.476 0.871 2.524 -2.5 1.233 -4.784 -1.829 -6.874 -2.7 -7.794 -2.683 0.161 -0.448 0.365 -2.327 1.534 -3.326a32.34 32.34 0 0 1 5.193 -3.153c2.252 -1.056 1.841 -0.758 5.443 0.282 -0.617 0.806 -1.076 3.726 -1.873 7.646l-0.003 0.001Z" stroke-width="1"></path><path id="Vector_116" fill="#141414" d="M88.362 150.022c-1.649 -1.953 -2.065 -2.339 -0.622 -0.419 0.358 0.485 0.457 0.2 -2.358 -0.208 1.03 -1.491 1.025 -1.773 -0.2 -0.269 -0.321 0.343 -0.707 0.62 -1.135 0.815 -3.8 2.3 -3.392 2.244 -4.338 2.345 -1.821 0.184 -1.764 0.321 0.018 0.311 0.793 -0.013 0.9 0.052 4.851 -2.518 -0.083 0.4 0.073 -0.33 -0.849 3.38 -0.062 0.192 0 0.106 -0.062 0.116 -3.141 -1.219 -2.718 -1.075 -2.859 -1.078 -0.435 0.1 -1.283 1.684 -1.51 2.07 -0.078 0.131 0.036 0.31 -0.591 -1.182 -0.7 -1.628 -0.058 0.387 0.387 1.565 -4.752 0.18 1.438 0.422 2.536 0.274 0.36 0.269 4.09 3.1 4.185 2.98a43.44 43.44 0 0 0 -3.737 -3.1 16.156 16.156 0 0 0 2.062 -1.127c3.806 6.307 4.078 6.08 0.316 -0.186 1.523 -0.905 2.269 -1.336 2.661 -1.611 0.16 6.8 0.507 6.537 0.36 -0.3 0.386 -0.411 2.96 -4.799 0.885 -1.858Zm-9.01 4.918c1.983 -2.5 0.338 -2.543 4.085 -1.065 -1.883 1.139 -1.556 0.991 -4.085 1.065Zm8.552 -4.258c-0.857 1.226 -0.316 0.8 -3.8 2.81a30.92 30.92 0 0 1 0.952 -3.72c0.093 -0.154 0.315 0.018 3.159 0.378 0.096 0.013 0.095 -0.06 -0.315 0.532h0.004Z" stroke-width="1"></path></g><g id="Group_54"><path id="Vector_117" fill="#615fff" d="M133.713 123.606c-0.5 6.081 -0.49 6.333 -0.83 6.522 -0.358 0.2 -3.285 -0.209 -6.643 0.129 -0.539 0.055 -9.424 0.876 -9.719 0.438 -0.271 -0.4 0.782 -4.634 0.959 -7.426 0.183 -2.88 0.437 -5.754 0.763 -8.623 0.219 -1.925 0.919 -1.5 4.52 -1.435 2.415 0.04 5.657 4.435 6.6 5.463 1.56 1.685 3.348 2.869 4.35 4.932Z" stroke-width="1"></path><path id="Vector_118" fill="#141414" d="M134.085 123.4c-1.012 -2.525 -5.593 -6.846 -7.626 -8.644a6.386 6.386 0 0 0 -3.9 -2.02c-1.229 -0.134 -3.909 0 -4.418 1.274 -0.75 1.879 -0.991 5.543 -1.788 12.394 -0.585 5.028 -0.6 5.081 4.256 4.843 6.635 -0.326 10.9 -0.388 12.212 -1.019 1.112 -0.538 1.855 -5.359 1.264 -6.828Zm-1 1.484c-0.047 2.751 -0.245 4.532 -0.115 4.991 -1.187 -0.789 -15 0.1 -16.3 0.7 0.926 -1.63 2.547 -15.943 1.991 -17.021a6.717 6.717 0 0 0 1.8 0.142c2.948 0.1 3.715 0.732 5.154 2.008 2.008 1.779 7.533 6.811 7.466 9.175l0.004 0.005Z" stroke-width="1"></path><path id="Vector_119" fill="#141414" d="M131.054 123.4c-0.516 -0.183 -0.551 -0.3 -3.653 -3.356a30.115 30.115 0 0 1 -2.8 -2.769c-0.386 -0.612 -1.087 -2.909 -1.274 -2.85a9.744 9.744 0 0 0 0.783 3.135 61.191 61.191 0 0 0 5.273 5.3c-3.462 0 -5.578 0.015 -5.622 0.011 0 0.1 0.582 -4.534 0.528 -4.767 -0.325 -0.618 -3.031 -1.3 -3.7 -1.484 -0.251 -0.062 -0.4 0.127 1.555 -1.345 2.6 -2 -1.82 0.894 -2.211 1.183 -1.379 -4.668 -1.066 -2.59 0.032 2.171 0.688 2.772 0.877 0.516 -1.595 6.935 -2.029 5.193 0.326 0.572 2.478 -4.546a25.11 25.11 0 0 0 2.491 2.675c-7.634 7.739 -8 8.882 0.4 0.4l2.721 2.723c1.136 1.187 1.513 0.111 -4.4 2.1 -7.438 2.5 5.382 -1.122 5.953 -0.894 1.021 0.44 7.951 2.437 2.9 0.5a13.535 13.535 0 0 0 1.957 -2.926c-0.1 -0.065 -0.449 0.591 -1.515 1.864 -0.656 0.79 -0.163 0.635 -0.636 -3.685a9.455 9.455 0 0 0 2.192 0.627 6.676 6.676 0 0 0 -1.857 -1.002Zm-10.983 -6.487c-0.037 -0.124 -0.084 -0.074 0.339 0.069 4.005 1.291 3.444 1.229 3.325 1.771 -0.146 0.93 -0.409 3.037 -0.511 3.848 -2.469 -2.486 -2.071 -1.895 -3.153 -5.689v0.001Zm9.684 11.185c-2.172 -0.817 -1.322 -0.166 -5.7 -4.656 5.85 -0.031 5.782 -0.093 5.975 0.008 0.275 0.084 0.088 0.569 0.639 4.867 0.024 0.175 0.197 0.188 -0.914 -0.217v-0.002Z" stroke-width="1"></path></g><g id="Group_55"><path id="Vector_120" fill="#615fff" d="m162.319 65.389 1.989 1.216a0.652 0.652 0 0 0 0.99 -0.629l-0.6 -5.4a0.658 0.658 0 0 0 -0.576 -0.577 0.654 0.654 0 0 0 -0.289 0.033l-5.233 1.833a0.653 0.653 0 0 0 -0.125 1.173l1.967 1.2c-18.312 29.006 -14.873 27.351 -18.622 25.423 -2.618 -1.346 -4.309 -3.039 -5.961 -0.915 -2.667 3.429 -8.242 12.451 -9.909 13.357 -1.587 0.864 -2.672 -2 -4.461 -0.534 -1.632 1.333 -2.718 3.845 -3.736 5.646a81.385 81.385 0 0 0 -6.141 12.593 26.852 26.852 0 0 0 4.127 -5.186c5.9 -9.687 6.035 -10.669 7.222 -10.852 2.153 -0.331 2.388 3.79 6.428 -1.8 8.1 -11.2 8.183 -12.431 9.986 -11.264 1.844 1.17 4.758 4.17 6.74 1.494 1.64 -2.222 7.473 -12.984 16.204 -26.811Z" stroke-width="1"></path><path id="Vector_121" fill="#141414" d="M164.046 60c0.794 0 0.621 0.354 1.252 5.981a0.656 0.656 0 0 1 -0.299 0.623 0.651 0.651 0 0 1 -0.691 0.006l-1.989 -1.216c-19.726 31.24 -15.028 30.385 -22.943 25.316 -1.812 -1.161 -1.867 0.026 -9.986 11.264 -4.017 5.56 -4.333 1.481 -6.428 1.8 -2.117 0.327 -4.865 9.266 -11.349 16.038a81.341 81.341 0 0 1 6.141 -12.593c0.911 -1.612 2.937 -6.07 4.783 -6.07 1.234 0 2.157 1.642 3.414 0.958 1.66 -0.9 7.216 -9.895 9.909 -13.357a2.3 2.3 0 0 1 3.35 -0.527c4.812 2.847 4.725 2.618 5.152 2.037 3.861 -5.254 7.531 -12.477 16.081 -26.018l-1.967 -1.2a0.659 0.659 0 0 1 -0.171 -0.962 0.652 0.652 0 0 1 0.296 -0.211c5.705 -2.004 5.287 -1.869 5.445 -1.869Zm-0.535 -0.871c-4.929 1.728 -6.149 1.764 -6.3 3.186 -0.129 1.219 0.84 1.6 1.9 2.243 -7.652 12.178 -11.845 20.117 -15.476 25.073 -0.7 -0.331 -4.312 -2.853 -5.958 -2.853 -1.97 0 -2.87 1.548 -6.364 6.756 -7.912 11.791 -5.033 6.657 -8.775 6.657 -2.516 0 -4.471 4.526 -5.723 6.741 -4.515 7.982 -4.975 9.551 -7.757 16.945 4.422 -4.619 5.712 -5.805 7.5 -8.747 5.6 -9.188 5.983 -10.408 6.632 -10.408 1.105 0 2.778 3.68 6.831 -1.981 8.269 -11.55 8.042 -11.73 8.83 -11.224 1.318 0.846 3.3 2.728 5.336 2.728 3.25 0 2.617 -2.359 18.437 -27.536 0.949 0.581 2.163 1.61 3.229 0.418 0.635 -0.711 0.438 -0.887 -0.206 -6.653a1.603 1.603 0 0 0 -1.419 -1.436 1.598 1.598 0 0 0 -0.717 0.086v0.005Z" stroke-width="1"></path></g></g></svg>