<svg xmlns="http://www.w3.org/2000/svg" fill="none" viewBox="0 0 200 200" id="Woman-In-Crypto--Streamline-Web-3.0.svg"><desc>Woman In Crypto Streamline Illustration: https://streamlinehq.com</desc><g id="Woman-In-Crypto--cryptocurrency-crypto-web 3.0-metaverse-bitcoin-ethereum"><g id="Group"><path id="Vector" fill="#d6d5d4" d="M130.172 118.219a21.439 21.439 0 0 1 3.95 6.363c2.246 4.854 4.62 9.789 6.541 14.78a24.047 24.047 0 0 1 -9.246 10.118 37.297 37.297 0 0 1 -1.376 22.584c-29.1 4.133 -42.222 2.821 -56.831 3.2 -0.629 0.017 -0.785 -0.164 -0.829 -0.717a442.587 442.587 0 0 1 -0.872 -13.225c4.552 -2.631 7.263 -7.825 8.6 -12.909 1.337 -5.084 1.316 -10.413 1.285 -15.669 1.117 -0.469 2.363 0.142 3.449 0.679A32.443 32.443 0 0 0 116 131.74c2.316 -1.473 4.579 -3.35 6.735 -5.049a27.272 27.272 0 0 0 7.437 -8.472Z" stroke-width="1"></path><path id="Vector_2" fill="#d6d5d4" d="M55.065 194.657h73.959c-1.791 -21.8 -1.245 -21.645 -2.878 -21.823 -2.741 -0.3 -49.163 2.766 -54.039 2.182l-0.607 -10.362 -20.925 4.446 1.369 23.185c1.923 2.451 1.209 1.957 3.121 2.372Z" stroke-width="1"></path><path id="Vector_3" fill="#d6d5d4" d="M140.374 139.027c11.584 25.029 11.826 24.865 11.6 27.433 -0.262 3 -2.913 5.869 -7.5 6.405a4.756 4.756 0 0 1 -4.348 -1.34c-8.4 -6.807 -7.992 -6.436 -8.159 -6.708 -0.461 -0.748 0.42 -5.85 0.4 -8.7 -0.014 -1.912 -1.033 -4.1 -0.883 -5.926 0.148 -1.809 2.384 -1.762 6.308 -7.04 0.399 -0.536 2.853 -3.537 2.582 -4.124Z" stroke-width="1"></path><path id="Vector_4" fill="#d6d5d4" d="M80.1 114.332c1.774 -0.948 2.552 -0.84 4.53 -0.156a41.707 41.707 0 0 0 11.329 2.62 24.183 24.183 0 0 0 16.272 -5.264c1.8 -1.453 2.451 -1.988 4.836 -1.669 7.216 0.964 12.86 6.416 13.046 8.094 0.255 2.3 -12.287 17.195 -28.316 18.881 -4.278 0.449 -6.483 -0.1 -10.118 -1.188 -8.9 -2.674 -13.658 -2.882 -15.458 -11.54 -1.25 -6.032 -1.428 -6.94 3.879 -9.778Z" stroke-width="1"></path><g id="Group_2"><path id="Vector_5" fill="#141414" d="M83.9 136.8c4.463 -0.138 6.768 0.722 7.02 -1.589 0.022 -0.2 -0.261 -0.544 -0.356 -0.421 -1.8 2.313 -5.028 1.6 -4.952 0.782 0.051 -0.546 0.457 -0.218 0.675 -0.187a1.249 1.249 0 0 0 1.389 -0.563 10.618 10.618 0 0 1 -3.168 -1.169c-0.272 1.411 -0.313 2.541 -1.657 2.894a1.358 1.358 0 0 0 1.049 0.253Z" stroke-width="1"></path><path id="Vector_6" fill="#141414" d="M108.127 148.706a6.717 6.717 0 1 0 6.739 6.764 6.75 6.75 0 0 0 -6.739 -6.764Zm3.891 9.628a1.279 1.279 0 0 0 -0.964 0.948 2.993 2.993 0 0 1 -2.829 2.215 2.986 2.986 0 0 1 -2.913 -2.102 1.524 1.524 0 0 0 -1.089 -1.083 2.975 2.975 0 0 1 -2.14 -2.84 2.979 2.979 0 0 1 2.105 -2.865 1.561 1.561 0 0 0 1.125 -1.172 2.988 2.988 0 0 1 5.647 -0.039c0.075 0.293 0.225 0.561 0.436 0.777 0.21 0.217 0.474 0.375 0.764 0.458a2.984 2.984 0 0 1 1.486 1.121 2.985 2.985 0 0 1 -0.088 3.537 2.991 2.991 0 0 1 -1.54 1.045Z" stroke-width="1"></path><path id="Vector_7" fill="#141414" d="M131.278 125.581c1.632 0.38 1.1 0.973 -1.428 7.978 -0.1 0.289 -0.149 0.711 -0.558 0.711 -0.409 0 -0.447 -0.412 -0.591 -0.694 -0.646 -1.267 -0.066 -2.5 0.158 -3.72 0.221 -1.2 0.047 -2.683 1.8 -3.124a10.768 10.768 0 0 0 -3.591 0.015c1.152 0.511 0.773 1.388 0.668 2.169 -0.042 0.308 -0.006 0.778 -0.338 0.846 -0.415 0.084 -0.412 -0.424 -0.526 -0.693a11.884 11.884 0 0 1 -0.45 -1.388c-0.265 -0.92 -0.484 -1.831 0.917 -2.18a7.04 7.04 0 0 0 -3.434 0.047c1.026 0.623 1.176 0.744 2.967 6.055a5.02 5.02 0 0 1 -0.133 2.751 5.024 5.024 0 0 1 -1.567 2.265c0.216 0.229 -0.119 0.205 6.093 0.176 1.551 -0.007 2.031 -0.536 2.016 -2.217 -0.384 -0.021 -0.442 0.329 -0.606 0.544 -1.185 1.55 -5.144 1.568 -4.738 0.265 0.112 -0.357 0.376 -0.1 0.572 -0.055a1.34 1.34 0 0 0 1.541 -0.504c0.111 -0.16 0.185 -0.342 0.217 -0.534 0.748 -2.148 1.611 -4.256 2.413 -6.386a3.6 3.6 0 0 1 1.7 -2.372 4.811 4.811 0 0 0 -3.102 0.045Z" stroke-width="1"></path><path id="Vector_8" fill="#141414" d="M122.283 166.618a1.388 1.388 0 0 0 -0.6 -0.308c-3.065 -0.088 -1.318 -2.982 -3.43 -3.568a1.133 1.133 0 0 0 -0.75 0.453c-1.175 1.314 -0.134 2.822 -1.921 2.877 -0.974 0.031 -3.274 1.137 -1.358 2.385 1.327 0.864 2.41 -0.055 2.559 1.676 0.114 1.337 1.149 2.77 2.078 1.752 0.393 -0.352 0.642 -0.837 0.7 -1.361a1.477 1.477 0 0 1 0.956 -1.553c0.206 -0.076 0.426 -0.105 0.644 -0.086 0.753 -0.046 2.86 -1.132 1.122 -2.267Zm-4.05 2.342a1.453 1.453 0 0 1 -1.056 -0.421 1.469 1.469 0 0 1 -0.318 -1.618 1.458 1.458 0 0 1 1.391 -0.886 1.464 1.464 0 0 1 -0.017 2.925Z" stroke-width="1"></path><path id="Vector_9" fill="#141414" d="M122.54 142.62c-1.515 -1.212 -2.77 -0.01 -2.913 -2.082 -0.071 -1.038 -1.064 -2.587 -2.04 -1.6 -1.353 1.365 -0.184 2.88 -1.871 2.936 -0.762 0.026 -2.217 0.659 -2.238 1.421 -0.055 2 2.9 -0.229 3.76 4a0.927 0.927 0 0 0 1.652 0.421c1.252 -1.245 0.107 -2.754 1.9 -2.916 1.331 -0.124 2.961 -1.212 1.75 -2.18Zm-4.233 2.156a1.461 1.461 0 0 1 -1.077 -0.392 1.45 1.45 0 0 1 1.065 -2.508 1.454 1.454 0 0 1 1.382 1.444 1.452 1.452 0 0 1 -1.37 1.456Z" stroke-width="1"></path><path id="Vector_10" fill="#141414" d="M139.842 138.624c-1.409 -0.007 -0.706 2.166 -3.663 3.577 -1.877 0.9 -0.851 2.179 0.023 2.254 0.222 0.018 0.442 0.055 0.657 0.112 1.615 -1.794 3.4 -3.839 3.427 -5.819a0.839 0.839 0 0 0 -0.444 -0.124Z" stroke-width="1"></path><path id="Vector_11" fill="#141414" d="M93.04 144.486c3.414 0.255 1.53 3.684 3.613 3.6 1.976 -0.079 0 -3.1 3.489 -3.553a1.52 1.52 0 0 0 1.252 -1.125 1.46 1.46 0 0 0 -1.242 -1.213c-3.352 -0.284 -1.455 -3.522 -3.528 -3.585 -1.939 -0.06 0.032 3.025 -3.667 3.618a1.132 1.132 0 0 0 -1.087 1.17 1.13 1.13 0 0 0 1.17 1.088Zm3.514 -2.6a1.445 1.445 0 1 1 0.077 2.889 1.447 1.447 0 0 1 -1.052 -2.42c0.252 -0.276 0.602 -0.443 0.975 -0.467v-0.002Z" stroke-width="1"></path><path id="Vector_12" fill="#141414" d="M76.043 163.629c-3.085 3.045 -4.747 2.288 -4.528 4.961a2.742 2.742 0 0 1 2.407 2.692 1.067 1.067 0 0 0 2.115 0.023c0.334 -3.423 3.485 -1.909 3.744 -3.762 -0.105 -1.926 -2.898 0.157 -3.738 -3.914Zm-1.1 5.327a1.464 1.464 0 0 1 -1.368 -1.513 1.463 1.463 0 0 1 1.478 -1.406 1.449 1.449 0 0 1 1.038 0.457 1.457 1.457 0 0 1 -0.082 2.088 1.465 1.465 0 0 1 -1.07 0.374h0.004Z" stroke-width="1"></path><path id="Vector_13" fill="#141414" d="M100.348 166.453c-3.666 -0.483 -1.7 -3.673 -3.7 -3.679 -1.9 0 -0.147 3.177 -3.78 3.644a1.081 1.081 0 0 0 0.014 2.154c3.433 0.344 1.742 3.433 3.739 3.712 2.05 -0.515 0.16 -3.172 3.76 -3.7a1.068 1.068 0 0 0 0.957 -1.081 1.07 1.07 0 0 0 -0.99 -1.05Zm-3.741 2.513a1.46 1.46 0 1 1 0.085 -2.917 1.46 1.46 0 0 1 -0.085 2.917Z" stroke-width="1"></path><path id="Vector_14" fill="#141414" d="M87.334 149.335c-0.806 -1.688 -0.882 1.01 -4.76 4.112 -0.188 0.83 -0.447 1.643 -0.775 2.429a11.054 11.054 0 0 1 4.821 5.192c0.8 1.731 0.981 -1.919 6.277 -5.37 1.833 -1.193 -2.797 -0.56 -5.563 -6.363Zm3.862 6.541c-1.4 1.193 -2.939 -0.016 -2.935 2.134 0 0.863 -0.765 1.837 -1.416 1.819 -2.2 -0.87 -0.066 -3.162 -2.978 -3.444 -0.694 -0.067 -1.521 -0.406 -1.547 -1.238 -0.026 -0.863 0.831 -1.052 1.505 -1.286 0.755 -0.261 1.777 0.169 1.78 -1.368 0 -0.9 1.148 -3.126 2.268 -1.337 0.879 1.4 0.023 2.56 1.591 2.617 1.217 0.045 2.916 1.098 1.736 2.103h-0.004Z" stroke-width="1"></path><path id="Vector_15" fill="#141414" d="M130.774 159.116c-0.786 1.693 -2.017 0.819 -2.087 0.035 -0.318 -3.583 -3.59 -1.917 -3.61 -3.728 -0.02 -1.917 3.351 -0.118 3.622 -3.675a1.114 1.114 0 0 1 1.041 -1.019c1.14 -0.015 0.88 1.8 2.55 3.01a18.119 18.119 0 0 0 -0.129 -1.118c-1.914 -2.025 -1.987 -3.494 -2.6 -3.534 -0.682 0.62 -2.012 3.3 -5.849 5.836 -1.689 1.116 2.856 0.533 5.622 6.316 0.652 1.364 0.863 -0.14 2.9 -2.355a55.4 55.4 0 0 0 0.106 -1.775 4.223 4.223 0 0 0 -1.566 2.007Z" stroke-width="1"></path><path id="Vector_16" fill="#141414" d="M106.991 172.492c-1.1 2.261 -1.562 1.989 -0.746 1.959a1.084 1.084 0 0 1 0.953 -0.652 1.09 1.09 0 0 1 1.003 0.571c1.514 -0.07 1.122 0.427 -0.367 -1.88 -0.262 -0.406 -0.561 -0.576 -0.843 0.002Z" stroke-width="1"></path><path id="Vector_17" fill="#141414" d="M108.122 153.962a1.461 1.461 0 1 0 0.538 2.835 1.475 1.475 0 0 0 0.957 -1.353 1.475 1.475 0 0 0 -0.433 -1.058 1.466 1.466 0 0 0 -1.062 -0.424Z" stroke-width="1"></path><path id="Vector_18" fill="#141414" d="M87.023 153.708a1.442 1.442 0 0 0 -1.409 0.841 1.443 1.443 0 0 0 0.28 1.616 1.45 1.45 0 0 0 1.045 0.436 1.444 1.444 0 0 0 1.409 -0.841 1.443 1.443 0 0 0 -0.28 -1.616 1.45 1.45 0 0 0 -1.045 -0.436Z" stroke-width="1"></path><path id="Vector_19" fill="#141414" d="M129.686 153.976a1.453 1.453 0 1 0 0.195 2.9 1.453 1.453 0 0 0 -0.195 -2.9Z" stroke-width="1"></path></g><path id="Vector_20" fill="#d6d5d4" d="M123.279 113.083a1.107 1.107 0 0 0 -0.865 -0.382c-0.476 0 -0.8 0.2 -1.363 1.2a32.037 32.037 0 0 1 -4.776 5.911c-4.389 3.836 -9.45 6.013 -18.779 4.24 -4.982 -0.946 -11.68 -3.33 -15.9 -6.565 -0.546 -0.419 -1.471 -1.734 -2.309 -1.734 -4.717 0 7.893 10.97 23.723 10.97 8.915 0 15.366 -3.251 19.96 -11.939 0.276 -0.513 0.65 -1.22 0.309 -1.701Z" stroke-width="1"></path><path id="Vector_21" fill="#d6d5d4" d="M107.893 49.122c4.735 6.8 7.6 14.693 10.376 22.5 7.084 19.94 2.51 42.282 -18.3 44.666 -12.761 1.462 -24.762 -4.595 -32.569 -14.588a11.517 11.517 0 0 1 -18.266 -3.35 11.519 11.519 0 0 1 -0.984 -7.014c0.635 -3.648 6.7 -15.986 13.09 -22.585 5.665 -5.851 21.312 -17.597 46.653 -19.63Z" stroke-width="1"></path><path id="Vector_22" fill="#141414" d="M60.41 93.209c-1.659 -3.526 -5.145 -2.326 -5.063 -2.967 0.088 -0.69 2.374 -1.76 4.714 -0.358a6.565 6.565 0 0 1 2.327 8.036c-0.583 1.347 -1.394 1.863 -1.591 1.694 -0.448 -0.338 1.103 -3.238 -0.387 -6.405Z" stroke-width="1"></path><g id="Group_3"><path id="Vector_23" fill="#141414" d="M82.89 94.13c-0.843 -2.339 0.958 -2.812 1.746 -0.629 0.798 2.214 -0.91 2.947 -1.746 0.629Z" stroke-width="1"></path><path id="Vector_24" fill="#141414" d="M86.377 93.045c-1.14 -2.487 0.538 -3.279 1.687 -0.774s-0.55 3.254 -1.687 0.774Z" stroke-width="1"></path></g><g id="Group_4"><path id="Vector_25" fill="#141414" d="M111.829 84.653c-1.047 -2.127 0.622 -2.939 1.664 -0.82 1.042 2.119 -0.62 2.939 -1.664 0.82Z" stroke-width="1"></path><path id="Vector_26" fill="#141414" d="M115.083 83.887c-0.948 -2.131 0.743 -2.9 1.7 -0.754 0.934 2.109 -0.732 2.931 -1.7 0.754Z" stroke-width="1"></path></g><path id="Vector_27" fill="#141414" d="M110.136 93.178c-0.79 -2.586 -3.934 -1.269 -5.794 -0.736 -6.983 1.951 -13.816 3.968 -8.415 8.82a10.153 10.153 0 0 0 2.271 1.645 8.358 8.358 0 0 0 8.968 -0.972c1.675 -1.395 3.812 -6.135 2.97 -8.757Zm-3.717 7.827a7.122 7.122 0 0 1 -7.85 0.177 10.496 10.496 0 0 1 9.156 -2.369 7.235 7.235 0 0 1 -1.306 2.192Z" stroke-width="1"></path><g id="Group_5"><path id="Vector_28" fill="#141414" d="M123 61.865c-1.415 -2.614 -3.5 -2.578 -6.071 -1.942 -17.729 4.051 -13.948 6.152 -18.819 8.617 -1.411 0.714 -3.6 -0.064 -5.51 0.551 -2.823 0.394 -14.207 3.092 -16.743 6.175a78.391 78.391 0 0 0 -12.027 8.619l1.07 1.675a56.067 56.067 0 0 0 9.832 -6.136c0.752 5.727 8.051 8.048 13.8 8.738a5.588 5.588 0 0 0 4.758 -1.116c4.366 -3.483 5.189 -12 4.254 -14.838 1.578 -1.313 2.119 -1.472 3.155 -1.563 1.285 5.275 8.248 7.377 13.662 8.027C123.061 79.7 125 65.423 123 61.865Z" stroke-width="1"></path><g id="Group_6"><path id="Vector_29" fill="#d6d5d4" d="m80.793 78.427 0.858 3.585 3.585 -0.857 -0.858 -3.585 -3.585 0.857Z" stroke-width="1"></path><path id="Vector_30" fill="#d6d5d4" d="m83.52 73.984 0.858 3.585 3.585 -0.857 -0.857 -3.585 -3.585 0.857Z" stroke-width="1"></path></g><g id="Group_7"><path id="Vector_31" fill="#d6d5d4" d="m105.858 69.215 0.857 3.585 3.585 -0.858 -0.857 -3.584 -3.585 0.857Z" stroke-width="1"></path><path id="Vector_32" fill="#d6d5d4" d="m108.586 64.773 0.857 3.585 3.585 -0.858 -0.857 -3.584 -3.585 0.857Z" stroke-width="1"></path></g></g><path id="Vector_33" fill="#141414" d="M152.522 164.154c-0.558 -3.485 -4.839 -12.055 -8.366 -19.559 -7.663 -16.293 -9.641 -28.212 -19.975 -33.371 -9.069 -4.586 -9.437 0.975 -5.759 -5.3 9.741 -16.615 0.592 -39.742 -9.181 -56.3 2.986 -6.314 -1.943 -16.938 -16.092 -17.519 -14.387 -0.58 -64.07 17.091 -50.066 59.382 2.339 7.5 5.99 15.089 8.832 24.894 6.038 21.187 -5.28 25.17 -7.4 38.612 -1 4.551 0.956 10.741 5.273 14.262 0.029 0.72 0.918 22.481 1.157 23.619 0.749 3.93 6.378 2.934 18.178 2.846a8.482 8.482 0 0 0 3.646 -0.467 2.605 2.605 0 0 0 1.508 -2.063c0.078 -0.856 -1.117 -16.666 -1.147 -17.054 17.512 -0.171 36 -0.252 53.353 -2.781a120.552 120.552 0 0 0 1.914 21.718l1.423 -0.158c-0.12 -5.124 -1.042 -16.45 -1.724 -21.8 3.436 -0.538 2.819 -0.412 2.932 -0.594a46.565 46.565 0 0 0 1.643 -6.41c5.653 4.885 8.143 7.792 11.971 7.772a8.392 8.392 0 0 0 6.124 -3.096 8.386 8.386 0 0 0 1.756 -6.633Zm-28.2 -50.819a19.589 19.589 0 0 1 5.024 4.569 41.162 41.162 0 0 1 -20.5 16.426c-6.75 2.462 -14.844 1.464 -21.595 -0.731a27.36 27.36 0 0 1 -3.781 -1.465 67.917 67.917 0 0 0 -4.5 -13.077c8.515 7.722 26.723 11.709 36.292 5.614 6 -3.759 9.213 -9.958 9.063 -11.336h-0.003Zm-51.431 -4.929a40.933 40.933 0 0 0 7.177 5.131c-5.082 1.511 -1.168 3.725 -7.174 -5.131h-0.003Zm49.52 4.518a0.884 0.884 0 0 1 0.683 0.288c0.416 0.585 -1.743 4.139 -2.095 4.6 -14.241 18.843 -44.048 1.55 -42.339 -1.483 2.217 -0.79 0.136 0.45 7.221 4.035a46.648 46.648 0 0 0 11.4 3.875c10.1 1.937 15.108 -0.665 19.776 -4.824a21.504 21.504 0 0 0 2.656 -3.249c1.887 -2.184 1.76 -3.242 2.701 -3.242h-0.003Zm-0.8 -0.974a3.035 3.035 0 0 0 -1.365 1.508 29.005 29.005 0 0 1 -2.221 3.062c-4.935 6.866 -12.738 8.316 -20.964 6.517 -4.953 -1.108 -10.868 -3.174 -14.908 -6.274 -0.042 -0.032 -1.006 -1.007 -1.284 -1.237 3.232 -1.189 -0.009 -0.86 7.384 1.181 8.671 2.393 20.026 0.428 26.566 -6.16 2.335 0.022 4.643 0.499 6.796 1.403h-0.004ZM56.058 85.9a11.83 11.83 0 0 1 8.616 -0.381c2.174 0.753 3.292 1.853 3.545 1.61 0.162 -0.113 -0.341 -1.2 -1.871 -2.331a9.184 9.184 0 0 1 -2.318 -7.01c1.385 -11.442 24.089 -17.736 34.234 -21.078 3.6 -1.244 7.851 -2.575 10.142 -5.681 35.56 65.6 -17.853 79.145 -40.065 50.26a5.968 5.968 0 0 0 0.594 -1.923c0.076 -0.745 -0.047 -1.153 -0.184 -1.168 -0.423 -0.067 -0.8 2.482 -3.662 4.324 -0.895 -1.107 -2.661 -2.36 -3.488 -1.276 -0.57 0.739 0.085 1.466 0.635 2.46 -1.09 0.273 -2.215 0.372 -3.336 0.294a2.828 2.828 0 0 1 0.8 -1.513c2.1 -2.282 -2.386 -3.529 -3.977 0.646 -7.357 -3.587 -6.489 -14.304 0.335 -17.233Zm16.05 107.01c-0.187 0.8 -0.744 0.575 -16.172 0.684 -1.163 0 -2.628 -0.166 -2.866 -1.2 -0.033 -0.129 -0.959 -15.145 -1.415 -21.877 5.312 2.844 13.753 0.817 19.127 -2.029 0.701 14.138 1.388 24.056 1.326 24.422Zm57.556 -21.892c-0.04 0.1 0.041 0.064 -0.322 0.118 -18.328 2.808 -38.829 2.879 -56.343 3.329 -0.186 -2.435 -0.367 -4.753 -0.543 -6.937 11.566 -7.133 14.181 -20.343 11.4 -33.7a40.934 40.934 0 0 0 17.252 3.79c10.287 -0.208 22.353 -7.212 29.078 -18.59 3.781 5.433 4.931 10.868 9.312 20.742a46.435 46.435 0 0 1 -7.7 8.6c-2.636 -8.406 -8.125 -13.165 -8.293 -13 -0.525 0.52 13.584 12.208 6.159 35.648Zm19.414 -1.348c-4.642 5.844 -10.191 -0.479 -16.134 -5.241a38.011 38.011 0 0 0 -0.794 -14.852c0.17 0.249 5.215 -2.689 8.1 -8.13 8.95 19.753 12.592 23.564 8.828 28.223Z" stroke-width="1"></path><path id="Vector_34" fill="#d6d5d4" d="M56.592 103.441c0.825 -2.056 2.587 -2.364 2.7 -2.033 0.113 0.331 -1.631 1.061 -1.37 3.789 0.306 3.184 2.946 3.719 4.572 2.545 3.043 -1.919 -0.426 -5.578 -0.156 -5.93 0.5 -0.656 5.564 3.691 1.778 7.16 -4.031 3.694 -9.511 -0.585 -7.524 -5.531Z" stroke-width="1"></path><g id="Group_8"><path id="Vector_35" fill="#615fff" d="M106.271 139.327c1.178 0.2 1.039 -1.19 4.658 -2.959 -0.489 5.078 -1.245 4.869 -1.884 6.821a3.953 3.953 0 0 1 -0.975 2.078 28.28 28.28 0 0 1 -4.809 -4.835c-0.382 -0.49 -1.885 -2.115 -0.461 -1.989 1.126 0.099 2.333 0.688 3.471 0.884Z" stroke-width="1"></path><path id="Vector_36" fill="#615fff" d="M104.7 126.879c3.041 4.665 7.405 6.259 4.421 8.875a7.972 7.972 0 0 1 -2.735 1.728 15.974 15.974 0 0 1 -4.351 -1.038c-0.674 -0.441 -0.757 -0.574 0.957 -5.912 0.38 -1.181 0.915 -4.18 1.708 -3.653Z" stroke-width="1"></path><path id="Vector_37" fill="#141414" d="M110.761 133.788c-0.239 -1.015 -0.986 -1.613 -2.117 -2.831 -0.179 -0.192 -3.939 -4.5 -4.221 -4.249 -0.252 -0.111 -1.589 3.021 -2.9 6.923 -0.326 0.971 -0.963 2.929 0.115 3.257 1.401 0.518 2.852 0.889 4.33 1.106 0.525 0.051 0.539 0.041 1.111 -0.359 1.485 -1.035 4.062 -2.244 3.682 -3.847Zm-6.353 -6.472c0.166 1.713 0.778 4.751 1.082 6.686 -0.677 0.236 -2.862 1.348 -3.489 1.7 0.183 -1.652 1.879 -5.402 2.407 -8.386Zm1.223 9.663c-1.19 -0.21 -2.36 -0.517 -3.5 -0.917 0.755 -0.313 2.034 -1.011 3.428 -1.6 0.47 3.032 0.576 2.602 0.072 2.517Zm4.087 -2.508c-0.643 0.888 -2.265 1.717 -3.328 2.483 -0.313 -3.21 -0.954 -2.635 1.145 -2.643 2.532 0.032 2.344 -0.063 2.183 0.16Zm-3.781 -0.581c-0.153 -0.9 -0.965 -5.409 -1.265 -6.6 2.2 3.535 5.13 5.738 5.168 6.81a26.252 26.252 0 0 0 -3.903 -0.21Z" stroke-width="1"></path><path id="Vector_38" fill="#141414" d="M111.52 135.847c-0.092 -0.628 0.26 -0.642 -3.987 2.325 -1.192 0.834 -0.639 0.711 -2.476 0.373a9.58 9.58 0 0 1 -4.069 -1.651c0.072 0.583 0.219 1.155 0.439 1.7 0.86 1.764 6.245 7.279 6.625 6.794 0.514 0.278 3.818 -7.168 3.468 -9.541Zm-8.266 3.7c-0.609 -0.8 -0.645 -0.674 0.057 -0.446 1.085 0.301 2.191 0.524 3.308 0.668a39.797 39.797 0 0 0 1.169 5.15c-0.688 -0.868 -2.594 -2.834 -4.534 -5.372Zm4.935 5.117c-0.122 -0.595 -0.4 -1.506 -0.58 -2.421 -0.216 -1.086 -0.314 -2.086 -0.477 -2.6 0.8 -0.453 3.427 -2.6 3.4 -2.5 0.138 -0.103 -1.583 5.214 -2.343 7.521Z" stroke-width="1"></path></g></g><g id="Group_9"><path id="Vector_39" fill="#d6d5d4" d="M167.021 91.258c2.57 1.07 2.389 4.248 1.983 6.847 -4.266 27.321 -4.622 31.291 -8.764 31.066 -3.455 -0.188 -18.845 -1.329 -21.739 -4.522 -3.334 -3.677 -1.136 -13.079 -0.68 -17.65 1.248 -12.5 1.158 -15.715 3.765 -17.86 3.712 -3.054 12.108 -0.887 14.989 -0.575a33.152 33.152 0 0 1 10.446 2.694Z" stroke-width="1"></path><path id="Vector_40" fill="#141414" d="M168.669 91.685c-2.063 -1.845 -6.119 -2.657 -8.861 -3.043 -8.855 -1.247 -12.5 -2.595 -16.631 -1.008 -4.313 1.678 -4.251 5.506 -4.869 10.42 -2.623 22.117 -4.408 26.994 3.274 29.011 3.663 0.862 18.092 4.329 21.248 2.26 1.666 -1.016 2.143 -2.778 3.692 -10.743 1.357 -7.112 3.393 -21.961 3.414 -23.308a4.625 4.625 0 0 0 -1.267 -3.589ZM139.7 98.226c0.595 -4.52 0.272 -7.946 3.949 -9.409 0.994 -0.4 0.346 -0.242 -0.2 0.736 -2.083 3.765 -4.2 27.241 -4.185 29.868a11.74 11.74 0 0 0 1.168 5.728c-4.818 -1.603 -2.538 -10.744 -0.732 -26.923Zm29.018 -2.968c0 0.148 -3.973 31.163 -6.673 32.773 -0.939 0.6 -5.282 0.263 -6.321 0.173a90.388 90.388 0 0 1 -13.15 -2.493c-2.835 -1.648 -2.18 -7.564 -1.81 -11.014 2.954 -26.206 2.18 -26.764 10.3 -26.262 12.385 1.838 17.794 2.241 17.649 6.823h0.005Z" stroke-width="1"></path><path id="Vector_41" fill="#141414" d="M166.746 95.7c-0.114 -2.473 -3.223 -3.169 -5.741 -3.573 -4.215 -0.694 -4.82 1.726 -4.957 5.952 -0.037 1.143 -0.683 3.365 2.375 4.506 1.626 0.519 3.306 0.85 5.007 0.986a2.434 2.434 0 0 0 2.332 -1.537 34.51 34.51 0 0 0 0.984 -6.334Zm-1.228 1.839c-0.86 4.631 -0.4 5.375 -4.336 4.465 -4.309 -1.033 -4.007 -1.377 -3.917 -3.871 0.105 -3.52 0.149 -5.521 3.6 -5.027a9.565 9.565 0 0 1 3.932 1.007c1.282 0.836 1.024 1.794 0.721 3.422v0.004Z" stroke-width="1"></path><g id="Group_10"><path id="Vector_42" fill="#141414" d="M159.856 95.933a1.289 1.289 0 0 0 -1.373 1.172 1.294 1.294 0 0 0 1.142 1.399 1.289 1.289 0 0 0 1.373 -1.173 1.294 1.294 0 0 0 -1.142 -1.398Z" stroke-width="1"></path><path id="Vector_43" fill="#141414" d="M163.211 94.939a1.289 1.289 0 0 0 -1.373 1.173 1.293 1.293 0 0 0 1.142 1.398 1.29 1.29 0 0 0 1.087 -2.105 1.29 1.29 0 0 0 -0.856 -0.466Z" stroke-width="1"></path><path id="Vector_44" fill="#141414" d="M162.372 98.194a1.291 1.291 0 0 0 -0.232 2.571 1.293 1.293 0 0 0 1.375 -1.172 1.29 1.29 0 0 0 -1.143 -1.4v0.001Z" stroke-width="1"></path></g><g id="Group_11"><path id="Vector_45" fill="#141414" d="M151.087 110.1c0.38 0.326 2.168 1.674 2.727 1.627a12.36 12.36 0 0 0 3.022 -0.9c0.81 -0.477 0.512 -2.242 -0.344 -2.024 -0.61 0.1 -0.713 0.108 -0.911 -0.018a1.255 1.255 0 0 1 -0.353 -1.5c0.243 -0.443 0.749 -0.8 0.677 -1.278a7.288 7.288 0 0 0 -0.907 -1.82c-0.131 -0.124 -4.037 4.045 -4.3 5.169 -0.106 0.344 0.215 0.597 0.389 0.744Zm1.8 0.558a13.228 13.228 0 0 1 -1.412 -1.01c-0.25 -0.213 -0.687 -0.219 2.467 -0.32 -0.348 2.213 0.022 2.013 -1.06 1.331l0.005 -0.001Zm3.628 -0.33c-0.858 0.374 -1.762 0.636 -2.687 0.779 0.095 -0.35 0.232 -0.979 0.385 -1.763 0.177 0.031 1.731 0.644 1.9 0.708 0.534 0.202 0.578 0.157 0.397 0.277l0.005 -0.001Zm-1.151 -4.584c0.082 0.283 0.166 0.3 -0.011 0.535 -0.284 0.362 -1.033 0.935 -0.776 1.919 0.3 1.054 0.923 1.364 1.622 1.25 0.51 -0.083 0.436 -0.143 0.5 0.166 0.042 0.164 0.042 0.336 0 0.5a17.665 17.665 0 0 0 -2.424 -1.056c1.086 -5.758 0.463 -5.458 1.084 -3.313l0.005 -0.001Zm-0.5 -1.221c-1.583 5.771 0.518 4.11 -3.515 4.746 0.351 -0.822 2.473 -3.026 3.508 -4.745l0.007 -0.001Z" stroke-width="1"></path><path id="Vector_46" fill="#141414" d="M157.28 111.356c-0.535 0.047 0.1 -0.106 -3.53 0.929 -0.477 0.054 -1.833 -0.933 -2.2 -1.24 -1.321 -1.111 -1.006 -1.691 -1.167 -0.664 -0.227 1.447 2.115 6.579 2.6 6.373 1.564 -0.668 4.935 -5.498 4.297 -5.398Zm-4.432 5.105c-0.362 -1.114 -0.883 -2.034 -1.792 -5.062 2.821 2.454 2.479 0.344 2.007 3.241 -0.107 0.602 -0.179 1.21 -0.215 1.821Zm3.143 -3.707c-1.277 1.779 -2.536 3.158 -2.975 3.727 0.448 -1.65 0.462 -3.535 0.563 -3.564 0.291 -0.042 0.577 -0.112 0.854 -0.21 2.532 -0.723 2.15 -0.777 1.558 0.047Z" stroke-width="1"></path></g></g><g id="Group_12"><path id="Vector_47" fill="#d6d5d4" d="M140.222 155.215c-0.062 5.736 0.209 17.567 5.8 18.98a5.314 5.314 0 0 0 5.172 -2.1 15.636 15.636 0 0 0 2.431 -5.331c2.267 -7.288 4.321 -12.78 3.813 -18.117 -0.154 -1.612 -1.164 -0.326 -10.149 -1.669 -1.754 -0.262 -3.672 -1.156 -5.428 -1.164 -2.033 -0.014 -1.547 0.923 -1.639 9.401Z" stroke-width="1"></path><path id="Vector_48" fill="#d6d5d4" d="M159.025 121.108a7.79 7.79 0 0 0 1.8 -2.19c3.232 -4.505 12.31 -5.251 9.3 0.939 -4.748 9.778 -6.836 15.159 -11.564 18 11.466 13.379 -14.014 11.281 -19.318 6.265a4.759 4.759 0 0 1 -0.045 -6.833 4.748 4.748 0 0 1 2.194 -1.222c-2.72 -1.184 -4.685 -3.908 -6.412 -6.32a6.645 6.645 0 0 1 -1.567 -3.772c0.015 -1.385 1.161 -2.837 2.536 -2.666a10.024 10.024 0 0 1 -2.234 -3.053 3.408 3.408 0 0 1 0.472 -3.57c1.273 -1.313 3.44 -0.867 5.187 -0.326 -1.652 -0.774 -1.89 -3.308 -0.671 -4.665a4.622 4.622 0 0 1 5.062 -0.9 13.002 13.002 0 0 1 3.176 2.066 127.885 127.885 0 0 0 12.084 8.247Z" stroke-width="1"></path><path id="Vector_49" fill="#141414" d="M171.959 117.6c-1.069 -5.385 -10.305 -3.9 -13.352 2.785 -8.968 -5.3 -13.035 -12.579 -17.961 -11.174a4.343 4.343 0 0 0 -3.5 4.061c-0.027 2.058 0.714 0.47 -1.868 1.13 -2.764 0.655 -4.321 4.751 -0.794 8.369a3.94 3.94 0 0 0 -2.2 2.986c-0.464 3.566 4.372 7.851 7.281 10 -3.338 1.577 -3.582 7.2 -0.008 9.791a159.982 159.982 0 0 0 0.326 21.552c1.317 8.681 7.273 10.4 10.916 6.764 4.854 -4.845 7.627 -17.646 7.443 -25.085 2.694 -0.765 4.353 -2.548 4.27 -5.378a9.368 9.368 0 0 0 -0.607 -2.754 6.78 6.78 0 0 0 -2.176 -2.691c5.517 -3.459 7.365 -10.575 10.692 -16.213 0.893 -1.456 1.686 -2.443 1.538 -4.143Zm-27.423 54.657c-1.261 -1.214 -2.085 -3.766 -2.378 -5.532 -0.5 -3.033 -0.976 -15.865 -1.01 -20.275 2.767 1.255 11.384 3.14 15.5 2.638 -0.398 8.733 -6.028 29.087 -12.112 23.164v0.005Zm25.189 -54.1c-0.041 0.886 -1.044 1.743 -2.74 5.318 -2.249 4.665 -4.214 10.413 -8.149 13.165 -4.665 3.446 -8.336 2.518 -8.386 3.056 -0.059 0.367 3.63 1.043 7.68 -0.863 2.564 1.551 2.867 5.095 1.8 6.468 -2.353 3.2 -12.554 0.663 -16.4 -0.408 -3.474 -0.987 -4.418 -2.474 -4.518 -4.7a3.833 3.833 0 0 1 0.043 -1.009 2.553 2.553 0 0 1 2.346 -2.184c4.475 2.778 8.559 3.131 8.592 2.64 0.106 -0.695 -6.483 -1.541 -13.964 -10.224 -1.179 -1.421 -2.355 -3.356 -0.964 -4.58 0.26 -0.227 0.979 -0.659 1.245 -0.441 6.209 5.03 11.3 6.185 11.523 5.585 0.311 -0.828 -8.134 -5.212 -11.791 -8.992a3.383 3.383 0 0 1 -1.116 -3.388c1.252 -3.613 6.642 3.062 12.974 5.535 1.749 0.694 2.929 0.851 3.053 0.559 0.387 -0.9 -11.1 -7.309 -11.563 -9.293 -0.681 -2.661 1.956 -3.7 4.027 -2.733 2.816 1.311 10.42 9.484 17.708 11.045 1.167 0.255 1.839 0.216 1.867 0.071 0.035 -0.2 -0.989 -0.575 -2.657 -1.439 2.71 -5.601 9.508 -5.725 9.39 -3.193v0.005Z" stroke-width="1"></path></g><g id="Group_13"><g id="Group_14"><path id="Vector_50" fill="#d6d5d4" d="M33.786 179.962c2.163 3.435 4.422 4.012 7.9 3.128 9.4 -2.389 15.46 -10.577 15.425 -13.972 -0.023 -2.2 -2.532 -5.539 -3.9 -6.648 -2.472 -2 -6.094 -2.031 -9.065 -0.9 -2.971 1.131 -5.439 3.259 -7.843 5.341 -5.348 4.639 -6.503 6.719 -2.517 13.051Z" stroke-width="1"></path><path id="Vector_51" fill="#141414" d="M57.782 168.2c-0.219 -3.254 -3.753 -6.543 -6.229 -7.581 -5.7 -2.456 -19.446 5.427 -20.77 12.983 -0.347 3.687 3.085 13 12.626 9.932 6.11 -2.01 14.983 -8.942 14.373 -15.334Zm-7.762 -6.228c1.607 1.157 0.538 4.117 -0.427 5.83 -2.422 4.332 -13.359 11.471 -16.364 7.495 -3.297 -4.417 10.153 -14.925 16.791 -13.321v-0.004Zm-16.841 14.722c1.408 1.106 3.657 0.968 5.393 0.552 1.762 2 2.206 1.808 3.172 4.6 -4.496 1.019 -6.844 -0.952 -8.565 -5.152Zm9.852 4.769c-2.206 -2.787 -1.344 -1.687 -2.866 -4.714a22.6 22.6 0 0 0 5.2 -2.987c2.565 2.727 1.9 1.184 3.608 4.472a25.155 25.155 0 0 1 -5.942 3.229Zm7.083 -4.095c-3.028 -2.731 -1.877 -2.124 -3.44 -4.607a15.76 15.76 0 0 0 3.817 -4.054c0.753 0.44 1.468 0.942 2.138 1.5 0.759 0.735 1.409 1.983 1.868 2.466a19.652 19.652 0 0 1 -4.383 4.695Zm5.166 -6.192a19.273 19.273 0 0 1 -2.142 -1.5c-0.758 -0.76 -1.43 -2.021 -1.89 -2.488a7.084 7.084 0 0 0 0.608 -4.352c3.094 2.109 4.884 4.864 3.424 8.34Z" stroke-width="1"></path></g><g id="Group_15"><path id="Vector_52" fill="#d6d5d4" d="M167.333 80.131c2.737 -3.385 1.693 -5.167 -0.322 -24.178a7.607 7.607 0 0 0 -7.548 -6.8c-0.571 0 0.9 -0.138 -19.41 2.014a7.599 7.599 0 0 0 -6.753 8.354c2.1 19.849 1.594 20.9 4.463 23.462a7.577 7.577 0 0 0 5.862 1.895c19.181 -2.027 21.062 -1.478 23.708 -4.747Z" stroke-width="1"></path><path id="Vector_53" fill="#141414" d="m169.552 74.5 -1.972 -18.607a8.176 8.176 0 0 0 -8.984 -7.26l-18.6 1.97a8.176 8.176 0 0 0 -7.261 8.984c2.016 19.02 1.444 21.253 4.959 24.1 3.5 2.827 5.169 1.858 24.6 -0.2a8.177 8.177 0 0 0 7.258 -8.987Zm-26.519 -22.62c17.191 -1.822 15.933 -1.7 16.43 -1.7A6.585 6.585 0 0 1 166 56.06l1.666 15.724a6.75 6.75 0 0 1 -5.985 5.945l-14.275 1.513a6.73 6.73 0 0 1 -6.626 -3.48 6.746 6.746 0 0 1 -0.78 -2.509c-1.572 -14.835 -2.377 -16.346 -0.053 -19.22a6.694 6.694 0 0 1 3.086 -2.153Zm19.09 30.02c-28.779 3.051 -24.794 5.993 -27.811 -22.48a6.588 6.588 0 0 1 5.624 -7.208c-4.143 3.611 -2.708 7 -1.206 21.175a8.006 8.006 0 0 0 7.949 7.166c0.617 0 -0.4 0.088 15.136 -1.559a7.992 7.992 0 0 0 6.175 -4.105 6.586 6.586 0 0 1 -5.867 7.011Z" stroke-width="1"></path><path id="Vector_54" fill="#141414" d="M154.1 75.5c-0.2 -0.157 -3.226 -2.774 -6.366 -5.472 -0.163 -0.14 -0.248 0.072 1.689 -2.515 0.127 -0.17 0.033 -0.138 0.46 0.232 4.086 3.53 3.673 3.29 3.849 3.054 2.966 -3.976 3.01 -4.039 3.117 -4.174l2.366 2.029L154.1 75.5Z" stroke-width="1"></path><path id="Vector_55" fill="#141414" d="m149.149 64.109 -2.364 -2.027 5.1 -6.832 6.462 5.561 -1.867 2.49a1570.23 1570.23 0 0 1 -4.006 -3.452c-0.169 -0.149 -2.159 2.772 -3.325 4.26Z" stroke-width="1"></path><path id="Vector_56" fill="#141414" d="m152.753 63.084 2.372 2.041 -1.882 2.518 -2.365 -2.043 1.875 -2.516Z" stroke-width="1"></path><path id="Vector_57" fill="#141414" d="m145.416 63.923 2.339 2.016 -1.852 2.474 -2.328 -2.015 1.841 -2.475Z" stroke-width="1"></path><path id="Vector_58" fill="#141414" d="M158.229 64.8c2.055 -2.748 1.839 -2.537 1.939 -2.451 2.4 2.061 2.344 1.925 2.221 2.088 -1.9 2.522 -1.751 2.45 -1.894 2.327 -1.061 -0.918 -2.148 -1.84 -2.266 -1.964Z" stroke-width="1"></path></g><g id="Group_16"><path id="Vector_59" fill="#d6d5d4" d="M148.466 36.478c-3.134 -15.451 -2.826 -17.383 -6.257 -19.656a7.547 7.547 0 0 0 -5.705 -1.113c-15.452 3.134 -17.383 2.827 -19.657 6.257 -2.219 3.349 -1.3 4.783 1.9 20.541a7.602 7.602 0 0 0 7.423 6.093c1.085 0 0.417 0.071 16.362 -3.163a7.6 7.6 0 0 0 5.934 -8.959Z" stroke-width="1"></path><path id="Vector_60" fill="#141414" d="M149.027 36.365c-2.9 -14.309 -2.649 -17.468 -6.5 -20.02 -3.755 -2.489 -5.883 -1.248 -20.971 1.812a8.158 8.158 0 0 0 -6.381 9.628l3.008 14.835a8.186 8.186 0 0 0 8 6.546c1.172 0 0.582 0.047 16.461 -3.173a8.158 8.158 0 0 0 6.396 -6.44 8.162 8.162 0 0 0 -0.013 -3.188Zm-25.376 -17.011c14.062 -2.851 13.436 -2.779 14.364 -2.779a6.588 6.588 0 0 1 6.445 5.27l2.647 13.055a6.908 6.908 0 0 1 -5.487 6.036l-11.02 2.236a6.893 6.893 0 0 1 -8.128 -5.388l-2.241 -11.024a6.906 6.906 0 0 1 3.42 -7.406Zm22.854 22.268c-2.007 3.027 -3.535 2.685 -19.01 5.821a6.584 6.584 0 0 1 -7.754 -5.139l-3.009 -14.834a6.575 6.575 0 0 1 4.739 -7.66 7.858 7.858 0 0 0 -2.175 7.139l2.236 11.024a7.851 7.851 0 0 0 7.677 6.293c1.072 0 0.613 0.037 12.6 -2.395a7.847 7.847 0 0 0 5.728 -4.785 6.523 6.523 0 0 1 -1.032 4.536Z" stroke-width="1"></path><path id="Vector_61" fill="#141414" d="m138.39 30.832 -1.079 -5.386 1.083 -0.217 1.078 5.386 -1.082 0.217Z" stroke-width="1"></path><path id="Vector_62" fill="#141414" d="m126.092 34.958 -2.321 0.465 -1.078 -5.386c1.871 -0.375 3.872 -1.135 4.244 0.724a1.274 1.274 0 0 1 -0.463 1.249 1.512 1.512 0 0 1 0.566 2.548 1.51 1.51 0 0 1 -0.948 0.4Zm-1.069 -4.412 -1.06 0.212 0.249 1.242 1.059 -0.212a0.642 0.642 0 0 0 0.59 -0.492 0.642 0.642 0 0 0 -0.838 -0.75Zm-0.622 2.4 0.265 1.324c1.069 -0.214 1.881 -0.232 1.72 -1.037 -0.141 -0.709 -0.668 -0.552 -1.986 -0.289l0.001 0.002Z" stroke-width="1"></path><path id="Vector_63" fill="#141414" d="m131.092 33.957 -1.075 0.215c-0.557 -2.78 0.018 -1.64 -2.745 -5.052l1.176 -0.236 1.471 1.964 0.585 -2.375 1.176 -0.236c-1.237 4.215 -1.145 2.938 -0.588 5.72Z" stroke-width="1"></path><path id="Vector_64" fill="#141414" d="m135.828 33.009 -2.321 0.465 -1.078 -5.387c1.871 -0.374 3.872 -1.134 4.244 0.724a1.27 1.27 0 0 1 -0.463 1.25 1.512 1.512 0 0 1 0.566 2.548 1.51 1.51 0 0 1 -0.948 0.4Zm-1.07 -4.412 -1.059 0.212 0.248 1.24 1.06 -0.212a0.645 0.645 0 0 0 0.482 -0.242 0.642 0.642 0 0 0 -0.193 -0.959 0.64 0.64 0 0 0 -0.538 -0.036v-0.003Zm-0.621 2.4 0.265 1.324c1.068 -0.214 1.881 -0.232 1.72 -1.037 -0.142 -0.71 -0.668 -0.553 -1.985 -0.284v-0.003Z" stroke-width="1"></path><path id="Vector_65" fill="#141414" d="m142.392 27.068 0.89 4.449 -1.082 0.217 -0.891 -4.449 -1.449 0.29 -0.188 -0.938 3.98 -0.8 0.188 0.938 -1.448 0.293Z" stroke-width="1"></path></g><g id="Group_17"><path id="Vector_66" fill="#d6d5d4" d="M89.432 5.261c-4.775 1.252 -6.513 7.406 -7.177 12.293 -1.821 13.411 -2.483 14.232 17.729 17.106a7.714 7.714 0 0 0 8.813 -6.39c2.106 -14.28 2.156 -14.089 2.025 -15.046 -0.238 -1.724 -2.593 -4.782 -3.879 -5.545 -1.887 -1.119 -14.414 -3.23 -17.511 -2.418Z" stroke-width="1"></path><path id="Vector_67" fill="#141414" d="M109.947 9.355C107.294 5.8 104.721 6.181 91.8 4.31a8.176 8.176 0 0 0 -9.254 6.913L80.692 24a8.178 8.178 0 0 0 6.913 9.254c13.2 1.911 15.367 2.9 18.837 0.31 3.641 -2.722 3.263 -5.839 5.045 -18.152a8.13 8.13 0 0 0 -0.163 -3.183 8.131 8.131 0 0 0 -1.377 -2.874Zm-25.831 2.1a6.575 6.575 0 0 1 7.452 -5.567l11.266 1.631a6.91 6.91 0 0 1 3.833 7.2c-1.291 8.918 -1.042 11.52 -4.032 13.753 -2.99 2.234 -5.194 1.288 -14.331 -0.034a6.9 6.9 0 0 1 -5.82 -5.709l1.632 -11.274Zm25.8 3.735c-1.9 13.114 -1.507 14.928 -4.423 17.1 -2.94 2.2 -4.7 1.266 -17.656 -0.61a6.586 6.586 0 0 1 -5.633 -6.7c2.266 4.738 6.012 4.408 15.182 5.73a7.8 7.8 0 0 0 5.823 -1.48c3.175 -2.373 2.95 -4.323 4.405 -14.38a7.851 7.851 0 0 0 -2.535 -6.972 6.577 6.577 0 0 1 4.834 7.308l0.003 0.004Z" stroke-width="1"></path><path id="Vector_68" fill="#141414" d="M102.741 17.273a7.705 7.705 0 0 0 -5.822 -7.044 7.709 7.709 0 0 0 -9.243 9.744c2.58 8.7 15.629 6.386 15.065 -2.7Zm-2.653 -0.122c-2.061 -0.251 -2.1 -0.223 -2.137 -0.355a2.906 2.906 0 0 0 -2.713 -2.058 2.966 2.966 0 1 0 2.02 5.053c0.78 -0.771 -0.227 -0.77 2.9 -0.334a4.581 4.581 0 0 1 -1.4 2.187 5.347 5.347 0 0 1 -8.878 -4.783c0.962 -6.092 9.809 -5.906 10.593 0.29 0.012 0.075 -0.023 0.049 -0.385 0Z" stroke-width="1"></path></g><g id="Group_18"><path id="Vector_69" fill="#d6d5d4" d="M145.859 183.019c2.38 3.113 8.687 8.922 12.843 9.248 15.986 1.257 32.808 -22.755 28.415 -33.118 -1.275 -2.591 -7.553 -7.441 -9.726 -8.611 -12.378 -6.568 -31.633 11.436 -33.349 25.185a9.847 9.847 0 0 0 1.817 7.296Z" stroke-width="1"></path><path id="Vector_70" fill="#141414" d="M187.692 159.06a10.303 10.303 0 0 0 -3.084 -3.673c-3.064 -2.765 -6.982 -6.358 -11.13 -6.693 -11.705 -1.575 -24.557 10.938 -28.863 22.281a14.996 14.996 0 0 0 -0.629 9.835c2.092 4.6 9.251 10.529 12.834 11.687 1.89 0.642 5.113 0.428 7.226 -0.054 15.284 -3.798 27.448 -24.612 23.646 -33.383Zm-1.627 7.4c-2.09 -0.855 -1.729 -0.92 -3.32 -2.414 1.053 -3.733 0.806 -5.94 0.264 -7.694 2.291 2.101 4.614 3.468 3.056 10.108Zm-40.536 13.786c-3.491 -12.444 14.261 -31.917 27.748 -29.9 2.889 0.273 5.744 2.476 7.946 4.4 6.386 11.092 -16.43 36.985 -30.3 31.85a20.763 20.763 0 0 1 -5.394 -6.35Zm7.33 7.892a14.56 14.56 0 0 0 7.26 -0.4c1.539 1.1 2.051 0.769 3.665 2.858 -5.469 1.442 -8.084 -0.372 -10.925 -2.458Zm12.33 2.034c-2.016 -1.338 -1.877 -0.86 -3.594 -2.974a32.138 32.138 0 0 0 7.279 -4.427c1.5 1.011 1.71 0.222 4.255 2.859a26.212 26.212 0 0 1 -7.94 4.542Zm9 -5.423c-3.025 -1.47 -1.923 -0.808 -4.136 -2.942a49.776 49.776 0 0 0 6.9 -7.185c2.253 1.228 1.81 0.282 4.141 2.541a42.492 42.492 0 0 1 -6.903 7.586h-0.002Zm7.6 -8.6c-2.958 -1.207 -2.178 -1.324 -3.929 -2.728a33.865 33.865 0 0 0 4.441 -8.035 6.918 6.918 0 0 1 3.429 2.35 31.337 31.337 0 0 1 -3.943 8.413h0.002Z" stroke-width="1"></path><path id="Vector_71" fill="#141414" d="M150.7 183.171c11.412 7.361 35.286 -18.969 27.145 -28.016 -5.23 -5.944 -16.182 -0.524 -21.559 5.136 -1.769 1.864 0.486 -0.154 2.32 -1.52 10.962 -8.071 19.464 -5.916 19.59 0.581 0.266 10.488 -14.286 24.079 -23.267 23.933 -7.975 -0.058 -8.677 -9.691 -1.695 -19.194 1.405 -1.856 3.417 -4.046 1.541 -2.306 -6.341 5.858 -10.575 17.142 -4.075 21.386Z" stroke-width="1"></path><path id="Vector_72" fill="#141414" d="M158.5 170.6c-2.679 -2.763 -2.411 -2.586 -2.537 -2.464 -3.5 3.386 -3.29 3.148 -3.328 3.26 -0.69 2.009 -0.9 2.362 -0.8 2.462 5.331 5.515 4.872 5.112 5 5.072 2.586 -0.8 2.407 -0.712 2.518 -0.819 7.088 -6.847 6.681 -6.417 6.724 -6.542 0.728 -2.126 0.888 -2.362 0.79 -2.462 -3.558 -3.675 -3.3 -3.321 -3.168 -3.447 3 -2.886 3.243 -3.251 3.338 -3.15 1.76 1.84 1.665 1.651 1.554 1.758 -1.647 1.582 -1.647 1.539 -1.582 1.606 2.688 2.769 2.409 2.584 2.54 2.458 3.508 -3.393 3.286 -3.142 3.329 -3.268 0.85 -2.475 0.861 -2.384 0.784 -2.465 -4.33 -4.461 -4.868 -5.191 -4.96 -5.091 -0.802 0.334 -1.631 0.597 -2.479 0.784 -0.138 0.043 0.285 -0.326 -6.713 6.423 -0.12 0.115 -0.028 -0.055 -0.912 2.487 -0.045 0.128 -0.29 -0.175 3.224 3.451 0.1 0.1 -0.059 0.136 -3.266 3.238 -0.119 0.115 0.057 0.2 -1.673 -1.576 -0.127 -0.13 1.748 -1.582 1.617 -1.715Z" stroke-width="1"></path></g><g id="Group_19"><path id="Vector_73" fill="#d6d5d4" d="M18.369 71.933c4.009 2.562 10.243 5.37 14.117 5.378a9.652 9.652 0 0 0 2.346 -0.389C50.571 72.8 59.2 42.968 50.909 35.375a10.736 10.736 0 0 0 -3.571 -2c-4.208 -1.854 -8.4 -3.773 -12.637 -2.9 -17.169 3.517 -26.265 35.108 -16.332 41.458Z" stroke-width="1"></path><path id="Vector_74" fill="#141414" d="M49.692 33.824c-0.692 -0.364 -6.873 -3.278 -10.6 -3.937 -16.54 -3.052 -30.93 28.423 -23.453 39.84 2.588 3.951 9.747 6.827 14.4 7.839C48.261 81.6 62.422 40.567 49.692 33.824Zm2.855 9.328c-2.318 -0.16 -1.987 -0.344 -4.006 -1.28 -0.336 -7.549 -3.706 -8.235 -1.722 -7.342 2.369 1.085 5.116 1.764 5.728 8.622ZM18.526 70.6c-5.817 -4.879 -4.053 -22.674 6.733 -33.466a19.247 19.247 0 0 1 9.668 -5.534c2.9 -0.665 6.382 0.558 9.142 1.717 9.772 8.724 -4.058 41.257 -19.22 40.724a30.076 30.076 0 0 1 -6.323 -3.441Zm8.706 4.32a14.931 14.931 0 0 0 6.932 -2.724c1.763 0.544 2.27 0.108 4.484 1.6 -4.871 3.151 -7.948 2.249 -11.416 1.123v0.001Zm12.645 -1.99c-2.388 -0.649 -2.119 -0.242 -4.453 -1.736a32.924 32.924 0 0 0 5.654 -6.647c1.738 0.485 1.712 -0.347 5.058 1.41a26.768 26.768 0 0 1 -6.259 6.972v0.001Zm7.008 -8.171c-3.437 -0.457 -2.319 -0.258 -4.969 -1.53a50.984 50.984 0 0 0 4.4 -9.207c2.063 0.374 1.913 -0.281 4.845 1.138a43.514 43.514 0 0 1 -4.276 9.598v0.001Zm4.62 -10.808a13.194 13.194 0 0 1 -2.054 -0.242c-0.936 -0.266 -2 -0.907 -2.645 -1.146a34.633 34.633 0 0 0 1.732 -9.242A7.1 7.1 0 0 1 52.63 44.5a32.086 32.086 0 0 1 -1.125 9.45v0.001Z" stroke-width="1"></path><path id="Vector_75" fill="#141414" d="M21.54 69.873a7.478 7.478 0 0 0 6.474 0.741C42.252 66.3 52.167 33.569 36.8 33.83c-8.935 0.215 -15.959 13.624 -15.549 13.832 0.3 0.159 2.791 -5.756 9.206 -10.515 3.833 -2.819 7.756 -2.733 9.906 -1.421 3.13 1.849 3.4 7.9 2.716 11.723A38.212 38.212 0 0 1 34.742 64.5C24.7 75.941 14.408 68.2 19.86 51.412c0.787 -2.306 1.392 -3.525 1.3 -3.571 -0.711 -0.36 -8.027 16.373 0.38 22.032Z" stroke-width="1"></path><path id="Vector_76" fill="#141414" d="M33.7 40.285c-0.52 -0.19 -1.052 -0.345 -1.593 -0.463 -1.044 2.07 -2.68 6.885 -4.444 10.441 -0.066 0.1 -4.555 8.234 -5.266 10.187 1.419 0.533 1.168 0.414 1.375 0.59 -1.135 2.036 -0.468 4.649 1.036 0.8 0.53 0.381 1.103 0.701 1.706 0.953 -1.716 3.61 0.312 2.94 1.238 0.363 5.738 1.043 7.394 -7.412 5.287 -11.252 4.7 -0.1 6.657 -5.381 4.046 -8.831 1.055 -1.5 0.853 -3.08 0.472 -3.12 -0.4 -0.053 -0.937 1.213 -1.38 2.155 -1.537 -1.411 -1.484 -0.927 -1.243 -1.392 1.333 -2.558 0.106 -3.152 -1.234 -0.431ZM25.541 59.2a61.649 61.649 0 0 1 3 -8.143 7.25 7.25 0 0 1 3.112 2.306c2.534 4.085 -0.243 11.965 -6.112 5.837Zm11.268 -13.5a3.133 3.133 0 0 1 -3.426 4.311 11.38 11.38 0 0 1 -3.471 -1.435l-0.112 0.224c-0.1 -0.062 2.614 -4.364 3.551 -5.915 1.504 0.675 2.881 1.344 3.458 2.815Z" stroke-width="1"></path></g><g id="Group_20"><path id="Vector_77" fill="#d6d5d4" d="M22.079 105.878c-1.8 0.91 -7.229 4.433 -8.4 6.049 -6.038 8.321 7.036 34.844 22.928 35.72a9.203 9.203 0 0 0 2.261 -0.084c3.453 -0.718 11.28 -5.755 13.157 -9.111 6.415 -11.471 -13.457 -40.925 -29.946 -32.574Z" stroke-width="1"></path><path id="Vector_78" fill="#141414" d="M27.869 103.706c-4.058 -0.153 -8.272 2.875 -11.571 5.21a9.963 9.963 0 0 0 -3.415 3.209C8.974 118.839 15 136.777 27.744 145.1c6.993 4.441 13.029 4.847 22.347 -3.566a10.374 10.374 0 0 0 2.687 -3.268c4.992 -12.366 -10.69 -34.784 -24.909 -34.56Zm-10.129 6.331a12.954 12.954 0 0 0 -0.632 7.495c-1.687 1.247 -1.379 1.378 -3.5 1.961 -0.739 -6.542 1.606 -7.632 4.132 -9.456Zm-3.952 10.731a6.814 6.814 0 0 1 3.6 -1.883 33.096 33.096 0 0 0 3.381 8.306c-1.83 1.144 -1.147 1.376 -4.126 2.194a30.661 30.661 0 0 1 -2.855 -8.617Zm3.407 9.681c2.522 -1.92 2.322 -1.193 4.311 -1.988a48.667 48.667 0 0 0 5.866 7.766c-2.646 2.01 -1.755 1.48 -4.351 2.377a41.518 41.518 0 0 1 -5.821 -8.155h-0.005Zm6.754 9.132c2.8 -2.284 2.927 -1.5 4.457 -2.283a31.432 31.432 0 0 0 6.551 5.133c-1.9 1.845 -1.7 1.393 -3.83 2.472a25.593 25.593 0 0 1 -7.178 -5.322Zm8.491 5.9c1.807 -1.845 2.257 -1.46 3.887 -2.351 2.192 0.994 4.6 1.414 7 1.223 -3.048 1.722 -5.783 3.157 -10.887 1.125v0.003Zm19.514 -9.584c-0.756 3.006 -3.751 5.288 -6.568 7.182a13.268 13.268 0 0 1 -8.1 -0.686c-10.2 -4.394 -24.326 -24.733 -17.631 -33.707 5.461 -3.724 7.974 -3.8 11.862 -2.913 12.783 3.246 22.854 20.52 20.437 30.121v0.003Z" stroke-width="1"></path><path id="Vector_79" fill="#141414" d="M46.118 120.738a16.815 16.815 0 0 0 -2.282 -2.85c-0.255 0.2 4.219 5.037 5.163 12.221 1.1 9.046 -6 12.533 -14.679 5.939A36.413 36.413 0 0 1 23.278 121.7c-1.364 -3.427 -2.269 -9.15 0.3 -11.473 1.762 -1.637 5.4 -2.468 9.529 -0.561 7.346 3.431 10.276 8.346 10.609 8.072 0.314 -0.248 -8.654 -11.487 -17.169 -9.962 -14.441 2.7 1.127 31.387 15.224 32.7 7.706 0.773 11.718 -8.353 4.347 -19.738Z" stroke-width="1"></path><path id="Vector_80" fill="#141414" d="M34.27 125.37a3.441 3.441 0 0 0 2.674 -1.37 8.742 8.742 0 0 0 1.156 -4.328c0 -0.392 0.058 -0.263 -0.239 -0.508 -4.244 -3.5 -3.374 -3.009 -10.309 -7.341a37.463 37.463 0 0 0 1.2 7.923c1.891 7.132 0.448 6.111 5.518 5.624Zm-3 -0.961c-1.716 -6.607 -1.977 -8.119 -2.2 -10.082a48.187 48.187 0 0 1 7.7 5.649 7.262 7.262 0 0 1 -0.932 3.3 2.287 2.287 0 0 1 -1.7 0.783 20.21 20.21 0 0 1 -2.87 0.35h0.002Z" stroke-width="1"></path><path id="Vector_81" fill="#141414" d="M34.726 130.259c1.567 0.989 7.123 4.376 8.784 4.376 0.246 0 0.3 -0.07 0.631 -0.253 0.444 -3.724 -1.252 -5.709 -4.59 -13.747a9.48 9.48 0 0 0 -1.075 3.122c-0.67 3.571 -1.565 2.73 -7.541 3.435a13.451 13.451 0 0 0 3.791 3.067Zm-0.592 -2.056a9.292 9.292 0 0 0 3.914 -0.848c2.319 -1.267 1.016 -5 2.311 -1.826 1.545 3.762 2.526 5.79 2.55 7.664 -2.63 -1.027 -9.209 -4.965 -8.775 -4.993v0.003Z" stroke-width="1"></path></g><g id="Group_21"><path id="Vector_82" fill="#d6d5d4" d="M28.171 30.343c-5.631 3.928 -0.232 0.154 4.225 4.32 0.867 0.81 2.191 3.748 2.7 3.554 0.112 -0.043 0.118 -0.2 0.106 -0.317a10.223 10.223 0 0 1 4.4 -9.313c0.69 -0.46 0.434 -0.92 -0.364 -0.948a11.213 11.213 0 0 1 -4.426 -0.933c-1.3 -0.77 -3.354 -3.419 -4.255 -4.818 0.059 3.54 -0.5 7.262 -3.434 9.238l1.048 -0.783Z" stroke-width="1"></path><path id="Vector_83" fill="#141414" d="M40.939 27.787c0.044 -0.675 -4.469 -0.149 -6.859 -2.124 -2.793 -2.3 -3.681 -6.1 -4.181 -5.94 -0.818 0.189 1.557 6.683 -2.426 10.589 -1.444 1.416 -3.074 2.037 -2.962 2.327 0.125 0.717 5.691 -1.23 9.105 4.527 1 1.669 1.585 3.2 1.855 3.172 0.64 0 -0.969 -6.031 2.76 -10.189 1.417 -1.556 2.803 -2.089 2.708 -2.362Zm-3.394 1.743a12.144 12.144 0 0 0 -2.787 7.8 9.04 9.04 0 0 0 -8.044 -5.3c2.119 -1.112 4.137 -3.966 4.1 -8.469 -0.008 -0.668 -0.1 -0.63 0.171 -0.166a8.378 8.378 0 0 0 6.131 4.534c3.608 0.579 2.484 -0.668 0.429 1.601Z" stroke-width="1"></path></g><g id="Group_22"><path id="Vector_84" fill="#d6d5d4" d="M28.82 100.781c-1.247 4.314 -3.664 3.946 -3.109 4.765a8.75 8.75 0 0 1 8.222 4.123c0.193 0.323 0.43 0.7 0.807 0.72 -0.762 -8.209 3.334 -8.737 3.637 -10.234 -7.069 0.013 -6.521 -2.108 -9.464 -4.921 -0.159 1.446 0.993 1.788 -0.093 5.547Z" stroke-width="1"></path><path id="Vector_85" fill="#141414" d="M39.209 100.082c-0.012 -0.618 -4.125 0.224 -6.5 -1.411 -2.773 -1.91 -3.88 -5.336 -4.329 -5.144 -0.736 0.239 2.02 6.094 -1.391 9.958 -1.2 1.439 -2.672 2.124 -2.546 2.382 0.173 0.653 5.15 -1.59 8.757 3.448 1.069 1.472 1.744 2.873 1.975 2.774 0.533 -0.178 -1.34 -5.54 1.721 -9.613 1.186 -1.547 2.423 -2.15 2.313 -2.394Zm-2.99 1.878a11.251 11.251 0 0 0 -1.948 7.416 8.702 8.702 0 0 0 -6.366 -4.245c-2.121 -0.245 -1.689 0.59 -0.264 -1.087a9.041 9.041 0 0 0 1.9 -7.052c-0.06 -0.616 -0.138 -0.574 0.144 -0.167a7.762 7.762 0 0 0 6.016 3.692c3.383 0.246 2.237 -0.817 0.518 1.443Z" stroke-width="1"></path></g><g id="Group_23"><path id="Vector_86" fill="#d6d5d4" d="M92.329 155.2c-3.342 -1.6 -6.119 -0.383 -9.054 1.235 -7.605 4.192 -0.834 16.191 5.905 21.477 6.695 5.251 13.323 -0.618 12.955 -7.355 -0.33 -6.057 -6.259 -13.657 -9.806 -15.357Z" stroke-width="1"></path><path id="Vector_87" fill="#141414" d="M102.954 169.784c-1.093 -5.5 -6.671 -15.049 -13.258 -16.223 -3.687 -0.353 -13.006 3.055 -9.962 12.6 2.985 9.13 13.2 19.059 20.028 12.049 3.217 -3.127 3.748 -5.317 3.192 -8.426Zm-1.675 3.043c-1.161 1.6 -4.117 0.529 -5.829 -0.442C91.113 169.946 84.016 158.989 88 156c4.4 -3.27 14.912 10.148 13.279 16.827ZM86.6 155.949c-1.109 1.4 -0.98 3.652 -0.566 5.392 -2.044 1.8 -1.841 2.214 -4.6 3.161 -1.014 -4.502 0.972 -6.846 5.166 -8.553Zm-4.79 9.841c2.82 -2.223 1.783 -1.388 4.72 -2.854a22.609 22.609 0 0 0 2.975 5.2c-1.94 1.816 -0.979 1.783 -4.481 3.6a24.778 24.778 0 0 1 -3.214 -5.946Zm4.077 7.093c2.726 -3.011 2.157 -1.89 4.616 -3.429a15.73 15.73 0 0 0 4.044 3.827 17.403 17.403 0 0 1 -1.5 2.134c0 0.166 -2.153 1.562 -2.471 1.862a19.643 19.643 0 0 1 -4.689 -4.394Zm12.569 3.956a5.385 5.385 0 0 1 -6.389 1.225c0.45 -0.746 0.952 -1.46 1.5 -2.138 0.762 -0.757 2.024 -1.426 2.492 -1.885a7.092 7.092 0 0 0 4.35 0.619 13.313 13.313 0 0 1 -1.953 2.179Z" stroke-width="1"></path></g></g></g></svg>