<svg xmlns="http://www.w3.org/2000/svg" fill="none" viewBox="0 0 200 200" id="Blockchain--Streamline-Web-3.0.svg"><desc>Blockchain Streamline Illustration: https://streamlinehq.com</desc><g id="Blockchain--cryptocurrency-crypto-web 3.0-metaverse-bitcoin-ethereum"><g id="Group"><path id="Vector" fill="#d6d5d4" d="M12.172 48.816c1.317 -0.8 2.707 -1.467 4.094 -2.136 4.983 -2.4 6.46 -2.156 10.007 -0.641 2.546 1.088 12.213 5.1 13.2 7.636 0.3 0.774 0.225 0.632 0.29 10.618 0.022 3.322 -0.451 3.115 -0.772 4.824 -0.465 2.478 0.283 3.347 -2.636 4.862a36.677 36.677 0 0 1 -12.391 4.3 9.906 9.906 0 0 1 -7.728 -0.906c-1.868 -0.884 -9.326 -5.193 -10.32 -6.993 -0.6 -1.093 -0.49 -1.511 -0.74 -11.257 -0.222 -8.757 -1.024 -5.445 6.996 -10.307Z" stroke-width="1"></path><path id="Vector_2" fill="#141414" d="M37.586 49.788c-13.994 -5.935 -14.579 -6.731 -17.245 -5.62l-13.2 5.5a5.177 5.177 0 0 0 -3.192 4.789v14.865a5.174 5.174 0 0 0 3.195 4.788c14.458 6.027 13.8 5.905 15.207 5.905s0.556 0.2 15.207 -5.905a5.173 5.173 0 0 0 3.192 -4.788V54.564a5.18 5.18 0 0 0 -3.164 -4.776ZM21.147 46.1a3.1 3.1 0 0 1 2.4 0.007C37.989 52.24 36.932 51.76 37.284 52l-14.931 5.683L7.42 51.889c0.364 -0.242 -0.686 0.218 13.727 -5.789ZM7.95 72.176a3.084 3.084 0 0 1 -1.9 -2.854c0 -15.933 -0.153 -15.357 0.366 -16.325l15.238 5.912c0 20.889 0.211 19.067 -0.491 18.775L7.95 72.176Zm30.7 -2.854a3.085 3.085 0 0 1 -1.9 2.854l-13.209 5.508c-0.7 0.293 -0.492 2.123 -0.492 -18.772l15.241 -5.8c0.504 0.942 0.364 0.311 0.364 16.21h-0.004Z" stroke-width="1"></path></g><g id="Group_2"><path id="Vector_3" fill="#d6d5d4" d="M56.7 79.5c-1.2 -1.5 -6.065 -3.905 -9.52 -4.937 -2.65 -0.791 -2.66 0.118 -4.3 0.784 1.25 -3.233 -0.959 -7.855 -3.573 -10.3 -3.405 -3.179 -2.976 -4.562 -5.2 -4.137a2.172 2.172 0 0 0 -1.321 1.2c-1.232 2.158 2.637 4.843 3.31 6.523a2.178 2.178 0 0 1 -0.375 2.248c-1.1 0.792 -2.714 -0.023 -3.494 -0.878 -0.78 -0.855 -1.258 -1.908 -1.994 -2.781 -1.722 -2.042 -3.876 -1.493 -4.711 0.091 -0.433 0.822 0.321 2.248 0.836 3.02 3.1 4.644 3.526 5.361 4.4 6.272 2 2.094 4.884 2.844 6.2 2.6a8.837 8.837 0 0 0 2.057 -0.9c0.244 0.2 0.497 0.389 0.758 0.567a5.613 5.613 0 0 0 -0.5 2.156c0.284 4.154 7.94 8.035 10.56 9.5 1.812 1.015 3.323 -1.657 2.641 -2.808 -0.567 -0.957 -3.736 -1.3 -5.834 -3.508 -1.261 -1.327 -1.125 -2.587 -0.48 -3.2a4.178 4.178 0 0 1 3.21 -0.643 15.63 15.63 0 0 1 3.923 2.2c1.237 0.92 1.973 1.2 3.1 0.019 0.929 -0.964 1.207 -1.958 0.307 -3.088Z" stroke-width="1"></path><path id="Vector_4" fill="#141414" d="M57.653 80.49a1.861 1.861 0 0 0 -1.243 -1.69c-2.641 -2.788 -7.939 -6.228 -12.1 -5.356 0.831 -4.488 -4.756 -9.425 -7.748 -11.986 -0.33 -0.28 -0.142 -0.451 -0.852 -0.812 -1.722 -0.874 -3.877 0.833 -3.413 2.53 0.586 2.3 3.213 4.694 3.339 6.471 0.063 0.944 -0.405 1.255 -1.237 1.024 -1.861 -0.524 -4.488 -4.4 -5.528 -4.873 -2.312 -1.039 -4.741 1.4 -3.366 3.541 0.333 0.488 2.123 5.626 6.3 8.792 1.968 1.46 4.244 2.41 6.512 1.508a6.974 6.974 0 0 0 2.558 6.139c1.932 1.717 7.212 4.381 8.65 4.926 0.243 0.528 1.461 0.927 2.8 -0.765 1.319 -1.664 0.384 -2.849 -0.175 -2.918 -0.985 -0.892 -4.746 -3.136 -5.46 -4.532 -0.427 -0.864 0.2 -1.506 1.082 -1.658 1.623 -0.29 4.7 1.887 6.467 2.545 1.087 1.446 3.604 -0.776 3.414 -2.886Zm-31.214 -10.7c-0.207 -0.69 -0.846 -1.744 0.164 -2.724a2.6 2.6 0 0 1 2.568 -0.454c0.43 2.07 3.53 6.382 6.271 5.824 -0.758 2.076 0.358 4.118 1.9 5.7 -4.57 1.31 -9.91 -7.146 -10.903 -8.349v0.003ZM46.688 84.9c4.241 3.065 5.35 2.041 5.459 2.961 0.049 0.417 -0.145 0.8 -0.641 1.426 -1.349 1.708 -1.564 1.078 -1.9 0.856 -3.923 -3.236 -9.913 -5.443 -9.6 -9.885a7.684 7.684 0 0 0 4.855 1.187c-0.261 1.469 0.654 2.564 1.827 3.455Zm7.854 -1.868c-0.761 -1.154 -4.455 -4.091 -6.83 -3.914a2.173 2.173 0 0 0 -0.4 -1.9c-0.359 -0.39 -1.059 -0.993 -0.531 0.341a1.776 1.776 0 0 1 -0.374 1.784c-2.357 2.729 -11.058 -2.915 -9.759 -6.822 0.551 -1.805 1.994 -1.582 2.071 -1.79 0.085 -0.139 -0.6 -0.519 -1.42 -0.251a4.034 4.034 0 0 0 -0.687 -2.93A18.09 18.09 0 0 0 33 63.676a2.152 2.152 0 0 1 0.857 -1.933 2.514 2.514 0 0 1 1.823 -0.363c1.7 2.574 6.915 7.044 6.99 11.065a2.553 2.553 0 0 1 -0.7 1.944 26.904 26.904 0 0 1 -1.508 -2.7c-0.633 -0.929 -1.424 -1.055 -1.5 -0.849 -0.1 0.2 0.264 0.6 0.473 1.364a7.338 7.338 0 0 0 1.526 3.5 3.923 3.923 0 0 0 3.817 1.471c1.029 -0.277 1.972 -0.406 1.1 -0.892 -0.733 -0.433 -1.542 -0.027 -2.406 -0.581 -0.129 -0.078 -0.108 -0.051 -0.057 -0.128 4.362 -2.154 10.088 2.344 12.922 3.807 1.027 1.37 -0.582 3.999 -1.795 3.655v-0.004Z" stroke-width="1"></path></g><g id="Group_3"><path id="Vector_5" fill="#d6d5d4" d="M167.386 48.748c1.317 -0.8 2.706 -1.468 4.094 -2.136 4.983 -2.4 6.461 -2.157 10.007 -0.642 2.546 1.088 12.213 5.1 13.2 7.636 0.3 0.774 0.225 0.632 0.29 10.618 0.022 3.322 -0.451 3.115 -0.772 4.824 -0.465 2.478 0.283 3.347 -2.636 4.862a36.7 36.7 0 0 1 -12.391 4.3 9.91 9.91 0 0 1 -7.728 -0.906c-1.868 -0.884 -9.326 -5.193 -10.32 -6.993 -0.6 -1.093 -0.489 -1.51 -0.739 -11.257 -0.223 -8.754 -1.025 -5.445 6.995 -10.306Z" stroke-width="1"></path><path id="Vector_6" fill="#141414" d="M192.885 49.788c-14.043 -5.956 -14.6 -6.724 -17.246 -5.62l-13.2 5.5a5.174 5.174 0 0 0 -3.191 4.789v14.865a5.172 5.172 0 0 0 3.191 4.788c14.458 6.028 13.8 5.905 15.207 5.905 1.473 0 1.2 -0.065 15.207 -5.905a5.175 5.175 0 0 0 3.192 -4.788V54.564a5.182 5.182 0 0 0 -3.16 -4.776Zm-16.44 -3.688a3.114 3.114 0 0 1 2.4 0.007c14.446 6.126 13.387 5.65 13.74 5.886l-14.932 5.687 -14.933 -5.794c0.355 -0.235 -0.805 0.273 13.725 -5.786Zm-13.2 26.073a3.08 3.08 0 0 1 -1.9 -2.854c0 -15.969 -0.147 -15.366 0.366 -16.325l15.239 5.912c0 20.889 0.21 19.067 -0.492 18.775l-13.213 -5.508Zm30.7 -2.854a3.08 3.08 0 0 1 -1.9 2.854l-13.21 5.508c-0.7 0.293 -0.491 2.123 -0.491 -18.772l15.24 -5.8c0.509 0.945 0.368 0.314 0.368 16.213l-0.007 -0.003Z" stroke-width="1"></path></g><g id="Group_4"><path id="Vector_7" fill="#d6d5d4" d="M174.68 65.669c-0.217 -0.661 -1.439 -2.2 -2.373 -2.2 -1.9 -0.012 -3.751 5.025 -6.124 5.183a1.69 1.69 0 0 1 -1.655 -0.895c-0.843 -1.876 3.691 -6.1 3.2 -7.49a6.604 6.604 0 0 0 -1.488 -1.494c-0.893 -0.462 -1.775 0.257 -2.458 0.907 -7.711 7.331 -6.424 5.836 -6.959 9.638a4.387 4.387 0 0 0 0.107 2.361 14.94 14.94 0 0 0 -5.334 0.341c-0.961 0.344 -1.486 0.726 -5.318 3.183 -0.95 0.61 -2.752 1.185 -3.086 2.681 -0.256 1.142 0.609 3.2 1.817 3.092 0.994 -0.088 0.657 -0.97 5 -2.488a5.582 5.582 0 0 1 2.425 -0.458 1.916 1.916 0 0 1 1.752 1.5c0.124 1.105 -2.277 4.23 -4.41 4.723 -0.673 0.156 -1.509 0.2 -1.825 0.811 -0.291 0.569 0.079 1.24 0.438 1.769 1.083 1.6 1.79 1.448 2.629 0.931 6.829 -4.2 7.3 -4.408 8 -5.221 0.839 -0.968 2.2 -4.039 1.988 -5.754 0.208 -0.246 0.449 -0.462 0.715 -0.643 1.584 -0.829 3.235 2.185 7.759 -1.966 1.275 -1.17 2.273 -2.715 4.229 -5.472 0.645 -0.908 1.316 -1.99 0.971 -3.039Z" stroke-width="1"></path><path id="Vector_8" fill="#141414" d="M175.335 65.493a2.603 2.603 0 0 0 -2.385 -2.388 2.467 2.467 0 0 0 -2.261 0.944c-0.913 0.926 -4.446 5.225 -5.593 4.094 -2.2 -1.662 5.773 -7.225 2.087 -9.724 -1.364 -0.946 -3.088 -0.185 -3.145 0.443 -3.305 2.764 -7.751 6.773 -7.977 11.069 -0.069 1.255 0.366 1.078 -0.355 0.974 -4.136 -0.545 -9.2 2.821 -11.674 5.431a1.489 1.489 0 0 0 -0.7 0.427c-1.893 1.989 1.478 6 2.866 4.15 1.753 -0.659 4.854 -2.834 6.465 -2.545 0.9 0.156 1.5 0.805 1.082 1.658 -0.711 1.391 -4.487 3.653 -5.46 4.532 -0.609 0.074 -1.486 1.262 -0.176 2.918 1.389 1.749 2.588 1.242 2.8 0.766a42.196 42.196 0 0 0 8.65 -4.928 6.974 6.974 0 0 0 2.559 -6.139c2.266 0.9 4.542 -0.046 6.512 -1.508 2.884 -2.185 4.206 -4.593 5.818 -7.832 0.684 -1.393 0.92 -1.577 0.887 -2.342ZM145.9 80.572c-1.209 0.342 -2.823 -2.294 -1.793 -3.654 3.049 -1.574 8.582 -5.957 12.922 -3.806 0.051 0.075 0.071 0.049 -0.057 0.128 -0.877 0.542 -1.676 0.148 -2.406 0.58 -0.281 0.157 -0.369 0.324 -0.328 0.423 0.041 0.099 0.215 0.143 0.444 0.2a4.166 4.166 0 0 0 2.956 0.134c2.812 -1.266 3.1 -3.967 3.369 -4.831 0.209 -0.764 0.575 -1.16 0.474 -1.363 -0.072 -0.207 -0.864 -0.08 -1.5 0.849a27.837 27.837 0 0 1 -1.508 2.7 6.594 6.594 0 0 0 -0.212 -0.127c-2.237 -3.91 4.216 -9.786 6.111 -12.337 0.473 -0.631 0.315 -0.541 0.574 -0.57a2.113 2.113 0 0 1 2.457 1.77c0.085 0.775 0.208 0.264 -1.622 2.052 -1.159 1.188 -2.486 2.671 -2.682 4.317 -0.127 1.363 0.381 0.927 -0.42 0.9 -0.706 -0.038 -1 0.268 -0.957 0.34 0.045 0.124 0.366 0.082 0.814 0.273 1.176 0.494 2.026 2.416 0.763 4.41 -1.072 1.726 -3.952 4.176 -6.523 4.569 -2.587 0.455 -3.614 -1.283 -3.117 -2.424 0.178 -0.448 0.458 -0.657 0.392 -0.767 -0.107 -0.29 -1.74 0.464 -1.324 2.33 -2.333 -0.185 -6.068 2.75 -6.827 3.904Zm4.573 7.44c-0.68 -0.031 -1.069 -0.594 -1.536 -1.185 -0.708 -0.9 -0.733 -1.245 -0.557 -1.817 1.46 -0.129 7.772 -2.774 7.209 -6.025a7.682 7.682 0 0 0 4.854 -1.187c0.335 4.819 -7.286 7.46 -9.971 10.214h0.001ZM163.1 75.669c1.545 -1.586 2.654 -3.629 1.9 -5.7 2.112 0.429 4.1 -1.814 5.255 -3.625 1.483 -2.357 0.534 -2.155 1.531 -2.3 1.87 -0.291 2.985 1.124 2.485 2.508 -0.75 2.253 -6.949 10.333 -11.171 9.117Z" stroke-width="1"></path></g><g id="Group_5"><path id="Vector_9" fill="#d6d5d4" d="M75.367 137.514c-0.127 -1.247 -0.56 -2.451 -0.657 -3.7 -0.079 -1.012 0.064 -2.028 0.068 -3.043 0.017 -4.672 -3.033 -7.557 -6.188 -7.364 -0.473 -2.519 -1.092 -5.282 -3.154 -6.805a7.024 7.024 0 0 0 -6.3 -1.23c-0.313 -4.477 -3.224 -9.131 -7.855 -8.456 -6.3 0.919 -18.381 16.756 -20.909 21.8 -2.235 4.462 -3.273 9.805 -1.952 14.527 -2.17 -3.323 -6.574 0.383 -6.652 7.43a5.368 5.368 0 0 0 1.435 4.076 56.845 56.845 0 0 0 5.136 6.332c2.071 1.966 8.406 6.269 12.734 7.549 6.443 1.905 11.465 -0.664 12.425 -2.932 0.3 -0.711 0.3 -1.217 0.6 -4.655 0.115 -1.339 0.038 -2.621 -1.241 -3.037 9.226 -2.334 12.01 -11.236 12.209 -11.452a8.272 8.272 0 0 1 3.876 -1.94c4.1 -0.206 6.839 -3.014 6.425 -7.1Zm-41.114 14.121a51.58 51.58 0 0 0 6.561 4.786 21.311 21.311 0 0 1 -6.561 -4.786Zm8.185 5.6a15.947 15.947 0 0 0 7.462 1.244c-2.789 1.146 -4.4 0.256 -7.462 -1.242v-0.002Z" stroke-width="1"></path><path id="Vector_10" fill="#141414" d="M74.827 132.679c2.509 -3.48 -0.309 -9.827 -4.132 -10.158 -0.192 -4.37 -5.6 -9.052 -10.533 -7.953a8.88 8.88 0 0 0 -8.505 -8.786c-3.442 -0.129 -5.811 2.06 -8.009 4.707 -7.433 9.169 -18.747 19.055 -16.769 30.7 -6 1.228 -9.755 10.069 -1.381 18.549 5.587 5.483 17.171 13.378 24.5 10.345a9.46 9.46 0 0 0 5.478 -5.929 7.675 7.675 0 0 0 -0.519 -5.56c5.19 -2.153 8.814 -7.381 11.51 -12.346 2.851 -0.861 6.051 -0.84 8.329 -3.434 2.504 -2.784 2.326 -7.114 0.031 -10.135Zm-4.965 -6.39c0.301 -0.608 0.526 -1.25 0.67 -1.913 1.641 0.853 3.4 4.208 2.924 6.852a11.875 11.875 0 0 0 -4.977 -2.5c-0.779 -0.202 0.053 0.22 1.383 -2.439Zm-1.547 -3.355a7.91 7.91 0 0 1 -2.422 5.413 21.538 21.538 0 0 0 -7.334 0.83c-10.011 2.929 -5.367 4.777 -9.133 0.841 5.022 -3.842 10.041 -8.253 10.681 -13.646 3.935 -0.503 8.12 3.44 8.208 6.562Zm-14.691 40.672a7.563 7.563 0 0 1 -4.394 4.406c-6.225 2.426 -17.334 -5.446 -22.062 -9.975 -7.194 -7.084 -4.385 -13.991 0.071 -15.23 2.629 9.581 15.5 19.509 26.155 16.341a6.01 6.01 0 0 1 0.23 4.458Zm19.465 -22.26c-2.421 2.913 -8.11 1.653 -15.058 7.793 -1.271 1.128 -1.828 1.894 -1.723 2.011 0.272 0.305 2.981 -2.115 7.753 -4.042 -3.426 5.219 -6.712 9.407 -12.686 10.387 -9.951 1.465 -22.331 -9.161 -22.29 -18.938 -0.027 -8.48 8.011 -16.655 13.522 -23.115 3.578 -4.144 6.706 -9.907 12.33 -6.377 3.3 2.029 4.54 7.345 1.14 12.058a48.547 48.547 0 0 1 -7.841 7.759c-4.759 -4.213 -10 -3.806 -10.009 -3.17 -0.015 0.983 4.956 0.119 11.394 7.55 -1.124 0.692 -8.742 5.964 -8.331 6.539 0.241 0.339 4.489 -2.445 8.461 -4.582 20.67 -11.109 27.482 1.143 23.338 6.127Z" stroke-width="1"></path></g><g id="Group_6"><path id="Vector_11" fill="#d6d5d4" d="M43.343 121.332c0.164 3.816 0.573 8.047 3.4 10.609 2.372 2.146 5.8 2.514 8.838 3.5 7.563 2.455 7.116 5.733 37.208 16.264 6.637 2.323 7.829 1.641 12.455 -0.426 6.512 -2.911 12.655 -5.179 18.8 -8.8 3.09 -1.822 6.987 -2.958 10.14 -4.669 5.345 -2.9 11.722 -3.528 16.958 -6.622 1.8 -1.063 2.337 -2.8 2.936 -4.8 0.375 -1.561 0.387 -3.186 0.033 -4.752 -1.324 -8.344 0.676 -16.683 -0.058 -25.1 -0.845 -9.7 1.782 -19.42 -0.129 -28.965a7.052 7.052 0 0 0 -2.065 -2.88c-0.993 -0.938 -2.531 -0.948 -3.758 -1.548a14.931 14.931 0 0 1 -3.137 -1.6c-3.354 -2.752 -12 -3.212 -29.852 -12.048 -3.489 -1.727 -10.5 -4.511 -14.356 -5.061 -6.038 -0.861 -8.258 1.635 -13.841 4.09 -12.192 5.363 -19.89 8.708 -26.593 11.87 -6.851 3.233 -14.653 3.079 -15.852 9.242 -0.332 1.7 -1.115 17.085 -1.23 20.233a396.957 396.957 0 0 0 0.103 31.463Z" stroke-width="1"></path><path id="Vector_12" fill="#d6d5d4" d="M82.966 77.922a8.08 8.08 0 0 0 2.422 1.433c0.846 0.288 0.862 -1.691 0.912 -2.2 0.081 -0.837 0.3 -1.516 -0.057 -1.546 -0.9 -0.079 -1.361 0.547 -2.02 1.02 -0.331 0.233 -1.461 0.777 -1.257 1.293Z" stroke-width="1"></path><path id="Vector_13" fill="#d6d5d4" d="M106.513 139.15c-2.075 0.226 -2.525 0.916 -2.618 2.251 -0.133 1.9 0.453 3.968 0.809 4.256a1.007 1.007 0 0 0 0.869 0.06c6.23 -1.506 6.08 -1.74 6.081 -3.433 0 -0.688 -0.009 -3.246 -0.466 -3.766 -0.907 -1.035 -4.5 0.276 -5.758 1l1.083 -0.368Z" stroke-width="1"></path><path id="Vector_14" fill="#d6d5d4" d="M141.331 79.144h0.088c-0.118 -0.993 1.46 -1.215 1.867 -1.33 0.184 -0.052 4.451 -1.949 5.214 -1.276 0.469 0.413 0.044 1.578 0.1 2.756 0.155 3.126 4.738 7.352 -2.485 9.2 -2.377 0.608 -4.081 1.375 -3.661 -0.479 0.667 -2.935 -2.854 -4.231 -1.123 -8.871Z" stroke-width="1"></path><path id="Vector_15" fill="#141414" d="M155.506 69.43a6.405 6.405 0 0 0 -3.973 -6.2l-49.449 -19.672c-3.459 -1.376 -1.232 -1.5 -54.964 20.465a6.8 6.8 0 0 0 -4.32 6.083v56.97a6.425 6.425 0 0 0 3.855 6.152l49.451 20.781a6.663 6.663 0 0 0 5.186 -0.024l50.008 -21.554a6.818 6.818 0 0 0 4.2 -6.034l0.006 -56.967Zm-2.468 40.834 -15.91 6.829V98.768l15.91 -6.886v18.382Zm-36.046 15.508v-18.326l18.429 -7.946c0.418 0.163 0.31 -3.34 0.31 18.192l-18.739 8.08Zm18.739 -6.555v17.263l-18.739 8.078v-17.264l18.739 -8.077ZM98.7 133.658c-18.232 -7.658 -16.41 -6.589 -16.41 -7.579l16.829 -6.879 16.428 6.535c0.073 -0.181 0.048 -0.262 0.048 0.64L98.7 133.658Zm1.02 -74.079 16.4 7.407c-3.809 1.787 -8.482 4 -15.877 7.514 -1.533 0.727 1.467 1.595 -17.954 -7.246l17.431 -7.675Zm-19.132 6.9a1925.777 1925.777 0 0 0 -15.72 -7.069l17.653 -7.216 15.251 6.717 -17.184 7.568Zm20.517 -7.808 15.154 -6.842 17.641 7.016c-7.41 3.347 -11.216 5.075 -16.106 7.36l-16.689 -7.534Zm34.626 39.177c-0.474 0.2 1.525 0.882 -17.427 -6.658V67.97l17.427 7.869v22.009Zm-20.136 26.4 -15.781 -6.278v-17.5l15.781 6.277v17.501ZM82.319 85.277c0.593 -1.35 -1.342 0.395 13.622 -7.129 1 -0.5 1.838 -0.941 2.51 -1.27v21.953c0 0.227 1.257 -0.381 -16.161 6.739 0 -21.185 -0.071 -20.337 0.029 -20.293Zm17.531 12.9V76.218c4.431 -2.1 12.656 -5.992 17.057 -8.057V91.2L99.85 98.177Zm-0.036 0.745 0.022 0.056 -0.022 -0.009v-0.047Zm-17.524 8.157 16.127 -6.592v17.491l-16.127 6.591v-17.49Zm34.845 -1.215L100.7 99.327l16.905 -6.91 15.976 6.356 -16.446 7.091Zm1.129 -37.912c-1.1 0 -1.111 0.094 -0.464 -0.209l0.464 0.209Zm-20.721 7.833c-3.058 1.508 -9.028 4.618 -15.909 7.664L63.577 75.5l17 -7.488c7.642 3.471 14.23 6.509 16.966 7.773Zm-16.65 8.864v21.68l-18.355 -7.714v-22.05l18.355 8.084ZM61.141 98.028 45.3 91.37c0.164 -23.219 0.1 -21.549 0.285 -22.271l15.556 6.851v22.078Zm-15.919 -5.147 15.919 6.662v18.332l-15.919 -6.717V92.881Zm17.316 7.249 18.355 7.714c0 18.873 -0.041 17.538 0 17.638 0 0.994 2.77 1.859 -18.355 -7.02V100.13Zm18.355 27.561v17.272l-18.355 -7.713v-17.272l18.355 7.713Zm72.221 -37.335 -15.986 6.89V75.577l16.007 -7.227c0.188 0.75 0.141 -0.838 -0.021 22.006Zm-0.543 -23.284c-18.017 8.135 -16.257 7.2 -16.09 7.573l-17.012 -7.682c4.647 -2.163 8.595 -3.952 16.231 -7.4 16.441 6.537 15.908 6.056 16.871 7.509ZM98.055 45.845c2.1 -0.857 2.26 -0.359 16.4 5.266l-15.271 6.9 -14.866 -6.552 13.737 -5.614Zm-34.981 14.3a1829.353 1829.353 0 0 1 15.8 7.09l-17.029 7.5 -15.69 -6.911c0.951 -1.415 0.393 -0.924 16.919 -7.68v0.001ZM45.1 127.093v-14.424l16.045 6.722v17.272L47.6 130.974a4.118 4.118 0 0 1 -2.5 -3.881Zm37.19 18.457v-17.271l15.791 6.663v17.086c-0.717 -0.113 0.307 0.288 -15.791 -6.478Zm17.189 6.465v-17.2L115.6 127.9v17.26c-16.617 7.159 -15.44 6.732 -16.121 6.855Zm50.856 -21.829 -13.207 5.692v-17.263l15.783 -6.825v14.589a4.224 4.224 0 0 1 -2.576 3.807Z" stroke-width="1"></path><g id="Group_7"><path id="Vector_16" fill="#141414" d="M111.975 139.71a2.898 2.898 0 0 0 -0.428 -1.665 1.516 1.516 0 0 0 -1.567 -0.462c0.261 -3.8 -5.953 -3.294 -5.341 1.593 -1.681 0.847 -1.409 3.068 -1.212 5.055a2.043 2.043 0 0 0 1.3 1.9 4.629 4.629 0 0 0 2.78 -0.435c3.859 -1.343 4.845 -1.143 4.468 -5.986Zm-6.185 -2.046c0.5 -1.3 3.113 -2.385 3.258 0.176 -4.208 1.221 -2.754 0.789 -3.526 1 0.036 -0.402 0.126 -0.798 0.268 -1.176Zm1.4 6.961c-1.194 0.345 -2.033 0.707 -2.4 0.095 -0.2 -0.328 -0.673 -3.746 0.3 -4.4 0.186 -0.117 4.573 -1.5 4.759 -1.555 1.027 -0.393 1.013 -0.018 1.157 1.047 0.569 4.158 -0.106 3.681 -3.812 4.813h-0.004Z" stroke-width="1"></path><path id="Vector_17" fill="#141414" d="M107.942 140.714c-0.816 -0.022 -0.68 2.578 0.131 2.47 0.811 -0.108 0.687 -2.447 -0.131 -2.47Z" stroke-width="1"></path></g><path id="Vector_18" fill="#141414" d="M86.748 75.1c-0.478 -0.335 -1.175 0.107 -1.991 0.588 -1.963 -3.207 -3.085 -6.189 -4.181 -2.666 -0.193 0.618 -0.783 2.037 -0.731 2.137 0.009 0.016 -0.006 0.038 -0.033 0.024 -5.064 -3.838 -6.234 -3.963 -0.729 0.895 0.258 0.17 0.445 0.532 1 0.489a0.961 0.961 0 0 0 0.825 -0.7c0.446 -1.619 0.42 -1.153 0.891 -2.639l1.949 3.172c-2.368 1.658 -1.549 2.139 0.7 3.093 1.905 0.82 2.07 1.044 2.619 -2.936 0.055 -0.396 0.155 -1.126 -0.319 -1.457Zm-1.134 3.634c-0.035 0.154 0.075 0.2 -0.528 -0.1 -0.1 -0.05 -1.492 -0.693 -1.592 -0.727a15.066 15.066 0 0 1 2.564 -1.738c-0.029 0.331 -0.199 1.457 -0.444 2.564v0.001Z" stroke-width="1"></path><g id="Group_8"><path id="Vector_19" fill="#141414" d="M150.367 83.634c-0.2 -1.766 -1.613 -2.443 -1.611 -5.856 -0.006 -2 0.6 -2.541 -3.755 -0.962 -2.507 0.915 -3.635 1.273 -4.062 3.237 -0.694 3.108 1.123 4.933 1.356 6.128 0.56 2.7 -2.064 4.768 3.783 2.767 2.683 -0.904 4.582 -2.479 4.289 -5.314Zm-1.27 3.155a17.585 17.585 0 0 0 -3.428 1c-4.067 1.391 -3.087 2.061 -2.472 0.2 0.609 -2.017 -0.011 -2.907 -0.623 -4.209a11.016 11.016 0 0 1 -0.751 -5.151c0.813 0.346 4.89 -0.8 6.494 -2.151a6.407 6.407 0 0 0 0.092 5.455c1.191 2.449 1.018 1.904 0.691 4.856h-0.003Z" stroke-width="1"></path><path id="Vector_20" fill="#141414" d="M146.891 79.983c-0.15 -0.437 -4.006 0.89 -3.856 1.327 0.15 0.437 4.006 -0.89 3.856 -1.327Z" stroke-width="1"></path><path id="Vector_21" fill="#141414" d="M147.335 82.054c-0.145 -0.438 -3.746 0.751 -3.6 1.189 0.146 0.438 3.745 -0.75 3.6 -1.189Z" stroke-width="1"></path><path id="Vector_22" fill="#141414" d="M146.1 84.074c-2.03 0.633 -2.97 1.655 0.208 0.667 3.157 -0.988 1.827 -1.304 -0.208 -0.667Z" stroke-width="1"></path></g></g><g id="Group_9"><path id="Vector_23" fill="#d6d5d4" d="M90.947 8.957c1.317 -0.8 2.706 -1.468 4.093 -2.136 4.984 -2.4 6.462 -2.157 10.008 -0.641 2.546 1.087 12.213 5.1 13.2 7.635 0.3 0.774 0.225 0.633 0.29 10.618 0.021 3.323 -0.451 3.115 -0.772 4.824 -0.465 2.478 0.282 3.347 -2.636 4.862a36.703 36.703 0 0 1 -12.391 4.3 9.908 9.908 0 0 1 -7.728 -0.907c-1.868 -0.884 -9.326 -5.193 -10.32 -6.992 -0.6 -1.094 -0.489 -1.511 -0.739 -11.258 -0.223 -8.756 -1.025 -5.443 6.995 -10.305Z" stroke-width="1"></path><path id="Vector_24" fill="#141414" d="M116.419 10.355c-13.995 -5.933 -14.58 -6.73 -17.246 -5.619l-13.2 5.5a5.176 5.176 0 0 0 -3.191 4.789V29.89a5.175 5.175 0 0 0 3.191 4.788c14.429 6.016 13.8 5.905 15.207 5.905s0.668 0.156 15.207 -5.905a5.174 5.174 0 0 0 3.192 -4.788V15.132a5.183 5.183 0 0 0 -3.16 -4.777ZM99.98 6.67a3.114 3.114 0 0 1 2.4 0.008c14.421 6.125 13.391 5.651 13.74 5.885l-14.934 5.687 -14.934 -5.793c0.361 -0.24 -0.72 0.236 13.728 -5.787Zm-13.2 26.074a3.084 3.084 0 0 1 -1.9 -2.854c0 -15.97 -0.147 -15.366 0.366 -16.325l15.239 5.912c0 20.88 0.211 19.067 -0.492 18.775L86.78 32.744Zm30.7 -2.854a3.08 3.08 0 0 1 -1.9 2.854l-13.21 5.508c-0.7 0.293 -0.492 2.123 -0.492 -18.772l15.241 -5.8c0.508 0.941 0.367 0.311 0.367 16.21h-0.006Z" stroke-width="1"></path></g><g id="Group_10"><path id="Vector_25" fill="#d6d5d4" d="M192.494 143.663c-0.805 -2.249 -2.781 -3.838 -4.666 -5.305a3.533 3.533 0 0 0 -2.433 -1.034c-0.349 2.509 0.333 -1.481 -2.193 -8.085 -1 -2.612 -2.889 -6.53 -5.067 -8.512 -0.406 -0.37 -5.335 -4.764 -8.674 -7.515 -5.667 -4.67 -11.726 -9.519 -18.991 -10.586a11.087 11.087 0 0 0 -4.986 0.239c-4.725 1.517 -3.778 5.3 -4.75 7.41a23.183 23.183 0 0 1 -1.807 2.632c-2.895 4.542 0.089 11.114 6.841 12.54 -0.916 2.5 -5.268 -0.4 -5.083 6.057 0.243 8.479 2.5 8.146 5.429 11.563 1.411 1.646 2.251 3.7 3.445 5.5 2.489 3.773 8.928 8.783 11 9.586 4.468 1.732 10.16 -0.918 14.2 -2.845 -4.153 3.062 -6.243 2.173 -9.171 3.753 -1.725 0.931 -2.416 1.695 -0.561 4.5 9.395 14.224 30.746 -10.734 27.467 -19.898Z" stroke-width="1"></path><path id="Vector_26" fill="#141414" d="M193.6 145.983c-0.3 -4.307 -3.033 -8.5 -7.152 -9.539 0.346 -20.866 -37.142 -42.754 -44.865 -32.722a7.158 7.158 0 0 0 -1.086 6.257c-3.191 1.534 -4.152 5.948 -3.122 9.52a7.935 7.935 0 0 0 -1.463 6.282 7.944 7.944 0 0 0 3.682 5.296c-1.3 4.118 0.2 7.18 3.059 10.464 3.809 4.372 1.543 0.808 8.175 9.363 3.312 4.286 6.946 8.363 12.4 9.008 1.075 8.068 9.532 11.113 16.625 7.061 5.226 -2.941 14.205 -12.501 13.747 -20.99Zm-52.466 -34.419c2.221 4.2 6.964 5.661 11.006 7.05a78.855 78.855 0 0 1 7.631 3.133 36.404 36.404 0 0 0 -3.927 5.94c-6.474 -2.976 -5.981 -0.776 -11.578 -3.735 -6.36 -3.372 -5.735 -10.221 -3.129 -12.388h-0.003Zm-2.74 10.3a10.72 10.72 0 0 0 5.579 4.345 7.034 7.034 0 0 0 -3.573 3.05 7.79 7.79 0 0 1 -2 -7.392l-0.006 -0.003Zm18.351 32.111c-2.866 -2.691 -5.252 -6.5 -7.926 -9.533 -2.138 -2.432 -5.695 -5.255 -6.881 -8.414 -1 -2.534 -0.028 -5.949 2.108 -7.256 3 -1.947 8.221 -0.45 11.53 1.026 10.247 4.655 14.352 15.418 15.125 15.012 0.14 -0.072 -0.323 -1.411 -1.509 -3.684 -2.126 -3.98 -3.647 -5.4 -3.15 -5.084 4.407 2.774 8.441 4.225 8.632 3.778 0.277 -0.634 -11.657 -7.65 -12.736 -8.24a23.227 23.227 0 0 0 -4.652 -3.183c5.236 -8.447 9.34 -11.763 8.887 -12.276 -0.236 -0.308 -2.966 1.5 -6.019 5.2a30.443 30.443 0 0 0 -3.322 -1.941c-3.6 -2.106 -6.62 -2.772 -9.668 -4.535 -3.128 -1.825 -5.626 -4.788 -4.64 -8.24 1.249 -4.251 6.355 -2.988 10.577 -1.968a44.64 44.64 0 0 1 18.923 10.8c5.764 5.511 11.764 12.263 11.975 20.184 0.418 13.44 -16.199 28.961 -27.251 18.357l-0.003 -0.003Zm32.8 -0.989c-1.971 3.727 -6.629 9.443 -10.882 11.917 -5.536 3.262 -12.2 1.5 -13.732 -4.9 10.352 -0.086 20.307 -11.092 21.414 -21.83 3.838 1.506 7.238 7.281 3.203 14.816l-0.003 -0.003Z" stroke-width="1"></path></g><g id="Group_11"><path id="Vector_27" fill="#d6d5d4" d="M122.009 130.351c-0.346 0.56 -1 1.323 -0.59 1.447 3.607 1.1 6.915 -0.758 14.771 2.27 3.913 1.508 8.435 4.263 10.991 7.851 2.013 2.828 2.31 4.953 2.619 4.325 0.972 -1.973 0.28 -2 2.229 -4.274 2.2 -2.572 4.739 -3.524 8.249 -4.791 3.769 -1.36 7.83 -3.052 11.908 -2.622 2 0.211 1 -0.8 -0.2 -6.827 -1.361 -6.806 0.833 -12.2 6.009 -15.847a11.122 11.122 0 0 1 1.642 -1.014 5.376 5.376 0 0 0 1.573 -0.858c1.322 -1.193 -9.7 -1.658 -15.913 -8.846a22.783 22.783 0 0 1 -3.951 -6.788c-0.51 -1.225 -0.867 -2.561 -1.452 -3.748 -0.97 -1.967 -0.679 -4.874 -1.433 -4.139 -2.693 2.626 -3.329 5.62 -7.893 7.186 -8.179 2.808 -16.951 4.405 -25.531 3.3 4.723 10.842 0.083 28.359 -3.028 33.375Z" stroke-width="1"></path><path id="Vector_28" fill="#141414" d="M182.046 109.763c0.206 -0.759 -8.178 -2.609 -15 -9.314 -7.605 -7.477 -7.428 -15.35 -8.146 -15.321 -0.36 -0.145 -1.8 3.237 -5.713 5.89a21.572 21.572 0 0 1 -2.732 1.521c-13.867 6.736 -25.389 3.288 -25.593 4.191 -0.476 0.193 1.074 3.021 1.561 10.96 0.952 15.518 -6.183 23.58 -5.384 24.139 -0.086 1.112 10.046 0.56 16.553 3.568a24.525 24.525 0 0 1 9.052 7.271c4.1 5.351 1.833 5.173 5.616 0.893 8.359 -9.576 21.1 -7.967 21.157 -9.041 1.613 -0.3 -5.229 -13.069 5.286 -22.193 1.903 -1.667 3.437 -2.253 3.343 -2.564Zm-4.238 1.381c-5.327 3.427 -8.821 10.6 -6.135 19.37a19.703 19.703 0 0 0 1.494 3.8c-3.253 -1.439 -16.33 -0.647 -22.091 8.356 -2.835 4.375 -0.067 4.511 -3.21 -0.833a21.513 21.513 0 0 0 -16.149 -10.191c-14.88 -1.831 -10.809 3.984 -6.077 -6.628 4.257 -9.549 3.041 -23.32 -0.454 -28.009 2.677 1.389 10.785 2.518 19.03 0.152 4.118 -1.162 9.278 -3.458 12.155 -6.819 3.582 -4.2 1.411 -5.3 2.658 0.222 1.624 7.47 8.169 14.968 17.708 18.2 5.503 1.866 4.643 0.072 1.071 2.38Z" stroke-width="1"></path></g><g id="Group_12"><path id="Vector_29" fill="#d6d5d4" d="M108.454 27.042c-0.447 -1.142 -0.914 -1.415 -1.969 -1.392 -0.965 0.021 -2.1 0.34 -2.4 1.259 -0.2 0.624 0.122 5.065 -0.861 6.639a1.499 1.499 0 0 1 -2.585 0.161c-2.975 -3.053 -0.34 -8.314 -3.375 -8.263a2.831 2.831 0 0 0 -2.717 2.664c-0.041 0.71 0.114 1.421 0.031 2.13 -0.347 2.967 -1.006 0.358 0.647 7.795 0.423 1.905 0.931 3.557 3.154 4.6 -3 0.9 -3.438 5.389 -3.8 8.893 -0.334 3.287 0.2 5.61 3.437 6.816 1.777 0.662 1.812 0.236 1.678 0.649a6.795 6.795 0 0 0 -2.762 -0.7c-3.126 -0.263 -3.9 6.527 -3.786 9.43 0.071 1.78 0.727 2.146 2.112 2.134 1.033 -0.009 1.537 -0.147 1.906 -1.069 0.654 -1.628 0.607 -3.973 2.931 -3.688 1.1 0.135 1.425 0.674 1.514 1.732 0.147 1.745 -1.3 2.77 0.442 3.394 2.355 0.842 3.574 1.39 3.858 -5.249a7.353 7.353 0 0 0 -0.884 -4.4c0.164 -0.677 0.27 -1.367 0.317 -2.062 0.92 -0.148 2.008 0.038 2.922 -1.91 1.558 -3.321 0.718 -9.369 -0.335 -12.95 -0.153 -0.521 -0.292 -0.681 -0.826 -0.79 -1.528 -0.312 -1.36 0.041 -1.4 -0.346 5.084 -1.757 4.172 -11.84 2.751 -15.477Z" stroke-width="1"></path><path id="Vector_30" fill="#141414" d="M108.436 26a2.829 2.829 0 0 0 -4.422 0.247c-0.438 0.72 -0.267 1.507 -0.407 3.387 -0.474 6.055 -2.8 4.952 -3.549 2.407 -0.678 -2.383 -0.52 -5.448 -1.445 -6.4a2.6 2.6 0 0 0 -3.794 0.436c-0.965 1.431 -2.979 13.334 2.33 16.754 -2.163 1.5 -2.831 5.1 -3.084 7.734 -0.269 2.72 0.141 5.585 2.292 7.285 -4.189 2.329 -4.248 10.915 -2.964 12.11 1.255 1.186 3.759 0.813 4.016 -0.981 0.529 -0.932 0.81 -2 1.254 -2.7 0.647 -1.02 1.466 -0.872 1.778 -0.556 0.526 0.53 0 4.153 0.579 4.355 0.627 1.552 3.381 1.628 4.193 0.1 0.836 -1 2.567 -7.884 0.467 -10.537 0.024 -0.095 0.047 -0.19 0.068 -0.286 4.883 -1.208 4.364 -7.216 4.1 -11.782 -0.141 -1.84 -0.489 -4.04 -2.03 -5.054 4.482 -3.807 2.294 -14.659 0.618 -16.519Zm-7.555 37.829c-1.49 0.28 -2.176 -1.516 -2.371 -1.482 -0.166 0.015 -0.221 0.894 0.421 1.688 -1.769 0.66 -2.293 3.271 -2.232 4.994a2.012 2.012 0 0 1 -3.141 -0.39c-0.041 -0.1 0.012 0.074 0.285 -1.446 0.662 -3.41 1.079 -7.672 4.425 -8.314 0.261 0.092 0.516 0.166 0.764 0.228a5.48 5.48 0 0 0 -0.824 2.444c0.035 0.385 0.173 0.565 0.277 0.558 0.119 -0.006 0.2 -0.189 0.347 -0.444 0.557 -1.008 1.418 -1.561 1.905 -2.869 1.026 -2.685 -1.159 -5.013 -1.289 -6.973 -0.069 -0.923 0.649 -2.482 -0.423 -1.516 -1.945 1.749 0.178 4.87 0.357 6.854a7.102 7.102 0 0 0 -1.417 0.118c-3 -1.936 -2.484 -5.965 -1.771 -9.571 0.331 -1.718 0.867 -3.4 2.42 -4.2 0.43 0.138 0.868 0.245 1.313 0.32 -0.032 0.658 -0.381 3.322 0.26 3.166 0.3 -0.067 2.151 -3.3 1.023 -7.1a24.566 24.566 0 0 0 -1.068 -2.865c-0.217 -0.086 -0.621 0.539 -0.587 1.558 0 0.878 0.371 2.49 0.371 3.463 -4.886 -0.5 -4.754 -7.929 -4.7 -12.9 0.045 -2.82 -0.2 -2.331 0.137 -2.575a2.052 2.052 0 0 1 3.155 0.4c0.167 0.262 -1.291 7.623 2.61 8.622 -0.876 0.281 -1.1 1.148 -0.9 1.189 0.115 0.06 0.3 -0.218 0.7 -0.354 0.854 -0.289 2.671 0.451 3.552 2.661a10.5 10.5 0 0 1 -0.04 7.416c-0.815 1.754 -2.624 2.2 -3.682 1.16 -0.333 -0.315 -0.431 -0.619 -0.561 -0.6 -0.239 0 -0.24 1.263 1.011 1.95 -1.011 0.1 -2.558 1.154 -0.682 0.853 5.146 -0.854 4.934 13.1 0.355 13.954v0.003Zm4.068 0.985c-0.5 5.3 -0.1 4.61 -0.3 4.828a2.164 2.164 0 0 1 -3.162 -0.187c0.514 -1.318 1.066 -3.444 0.263 -4.61a6.457 6.457 0 0 0 3.16 -3.153 8.978 8.978 0 0 1 0.039 3.119v0.003Zm2.952 -19.7c0.375 1.366 0.92 8.377 -0.149 10.862a3.952 3.952 0 0 1 -1.792 2.017c0.237 -2.776 -0.5 -7.479 -3.054 -8.66 2.641 -0.356 3.69 -3.245 3.846 -5.917a2.54 2.54 0 0 1 1.148 1.696l0.001 0.002Zm-1.227 -3.829c-0.3 -2.222 -1.362 -4.641 -3.462 -5.5 -0.686 -0.3 -0.776 -0.138 -0.431 -0.279 2.4 -0.96 2.453 -6.5 1.334 -8.367 1.278 -1.15 2.218 -1.481 4.219 -0.367 -0.164 3.122 1.883 11.367 -1.66 14.511v0.002Z" stroke-width="1"></path></g><g id="Group_13"><path id="Vector_31" fill="#d6d5d4" d="M131.163 120.388c-0.208 1.9 0.075 2.423 1.391 3.476 13.079 10.464 18.142 10.446 30.366 5.322 2.156 -0.9 2.462 -1.525 2.666 -3.235 1.922 -16.152 2.026 -15.918 1.694 -16.816 -0.715 -1.932 -6.667 -4.7 -8.532 -5.6 -6.951 -3.347 -7.922 -3.944 -9.431 -4.075 -2.872 -0.25 -11.678 3.458 -14.33 4.611 -1.469 0.638 -1.446 1.44 -1.851 3.482a149.25 149.25 0 0 0 -1.973 12.835Z" stroke-width="1"></path><path id="Vector_32" fill="#141414" d="M166.078 105.456c-13.324 -7.316 -13.827 -8.167 -16.591 -7.33l-13.687 4.143a5.178 5.178 0 0 0 -3.659 4.442l-1.5 14.787a5.18 5.18 0 0 0 2.692 5.086c13.471 7.29 13.277 7.435 15.065 7.435 1.1 0 0.543 0.067 15.194 -4.368a5.171 5.171 0 0 0 3.659 -4.442l1.488 -14.682a5.176 5.176 0 0 0 -2.661 -5.071Zm-15.984 -5.325a3.11 3.11 0 0 1 2.385 0.249c13.741 7.54 12.753 6.974 13.076 7.242l-15.428 4.151 -14.274 -7.27c0.383 -0.203 -0.726 0.158 14.241 -4.372Zm-15.759 24.61a3.096 3.096 0 0 1 -1.263 -1.272 3.097 3.097 0 0 1 -0.342 -1.76c1.612 -15.9 1.405 -15.305 2.011 -16.2l14.564 7.419c-2.105 20.774 -1.713 18.993 -2.383 18.63l-12.587 -6.817Zm30.835 0.259a3.079 3.079 0 0 1 -2.181 2.648c-14.855 4.5 -13.823 4.206 -14.2 4.253l1.909 -18.832 15.748 -4.237c0.403 0.989 0.328 0.348 -1.276 16.168Z" stroke-width="1"></path><path id="Vector_33" fill="#141414" d="M145.965 115.917c-0.241 -1.252 -0.251 -1.456 -0.547 -1.666 -0.543 -0.384 -1.327 0.133 -1.807 0.337 -2.293 0.975 -3.041 1.455 -0.7 3.093l-1.9 3.1c-0.944 -4.267 -0.94 -4.374 -1.135 -4.556a0.953 0.953 0 0 0 -1.241 -0.161c-0.968 0.674 -8.5 11.363 0.067 1.66 0.473 -0.535 0.134 -0.964 1.249 3.966 0.289 1.276 1.258 1.057 1.628 0.523l2.342 -3.825c1.964 1.164 2.772 1.297 2.044 -2.471Zm-3.309 0.254c2.523 -1.009 2.013 -1.434 2.28 -0.055 0.1 0.537 0.255 1.454 0.284 1.793a14.843 14.843 0 0 1 -2.564 -1.738Z" stroke-width="1"></path></g><g id="Group_14"><path id="Vector_34" fill="#d6d5d4" d="M145.826 127.613c-9.19 3.94 -3.711 12.16 -0.159 15.855 1.117 1.162 3.915 2.029 4.954 3.262a43.767 43.767 0 0 0 3.931 4.594c1.138 1.047 29.59 5.846 8.23 -17.042 -4.115 -4.409 -11.407 -9.049 -16.956 -6.669Z" stroke-width="1"></path><path id="Vector_35" fill="#141414" d="M146.21 141.742c-3.43 -3.458 -5.639 -6.13 -4.216 -10.216 2.193 -6.3 11.788 -3.152 17.232 0.615 5.641 3.9 10.815 13.015 11.478 12.672 0.823 -0.426 -3.879 -10.4 -10.07 -14.671 -7.065 -4.869 -18.148 -7.624 -20.942 0.559 -1.819 5.328 0.752 8.726 4.784 12.764 5 5.006 4.981 5.774 8.192 9.172 2.239 2.369 4.055 3.384 4.245 3.129 0.214 -0.287 -1.114 -1.679 -2.914 -4.232 -4.461 -6.324 -4.477 -6.453 -7.789 -9.792Z" stroke-width="1"></path></g><g id="Group_15"><path id="Vector_36" fill="#d6d5d4" d="M75.062 141.342c3.99 -4.906 -4.275 -13.919 -13.6 -11.637 -5.761 1.41 -20.93 9.619 -21.8 12.235 -0.422 1.275 0.8 2.574 1.472 3.734a10.162 10.162 0 0 0 2.769 2.887c3.09 2.324 6.572 5.838 10.232 4.592 2.336 -0.795 4.66 -4.6 6.885 -5.587 0.328 -0.144 12.047 -3.772 14.042 -6.224Z" stroke-width="1"></path><path id="Vector_37" fill="#141414" d="M59.141 131.353c-5.914 1.514 -10.658 4.592 -15.468 7.346 -3.11 1.78 -3.112 1.36 -0.545 -0.781 24.3 -20.267 39.184 -3.56 31.67 4.895 -1.486 1.673 -3.3 2.269 -5.491 2.757 -9.149 2.039 -12.558 6.072 -13 5.58 -0.1 -0.117 0.451 -0.884 1.723 -2.011 6.88 -6.09 12.612 -4.851 15.058 -7.793 3.738 -4.494 -1.315 -13.225 -13.947 -9.993Z" stroke-width="1"></path></g><g id="Group_16"><path id="Vector_38" fill="#d6d5d4" d="M81.1 113.62c-0.454 -5.109 0.9 -27.561 0.212 -28.795 -0.375 -0.67 -2.2 -1.361 -6.667 -3.4 -1.55 -0.707 -3.273 -0.991 -4.814 -1.739 -2.652 -1.286 -4.483 -2.3 -7.094 -3.669 -1.246 -0.651 -3.6 -0.737 -4.76 -1.53a54.165 54.165 0 0 0 -11.6 -5.517c-1.482 -0.448 -2.03 0.233 -2.314 1.7 -0.162 0.834 0.033 0.486 0.013 1.321 -0.145 6 -0.414 1.725 -0.155 11.263 0.146 5.368 0.362 6.347 -0.161 7.752 1.27 14.475 -2.448 18.4 3.259 22.193 3.969 2.636 15.016 4.747 23.16 9.034 3.1 1.633 6.268 3.289 9.725 3.868 0.728 0.122 1.274 -0.042 1.423 -1.469 0.318 -1.792 0.469 -3.61 0.45 -5.43 -0.153 -1.843 -0.677 -3.731 -0.677 -5.582Z" stroke-width="1"></path><path id="Vector_39" fill="#d6d5d4" d="M49.685 109.508c-2.46 -1.019 -1.728 -1.247 -1.209 -34.431 1.219 -0.069 2.206 1.025 3.287 1.591 14.61 7.648 24.552 9.942 24.932 10.52 0.189 0.288 -0.355 31.4 -0.5 31.876 -0.52 1.73 -1.108 0.5 -1.7 0.4a12.174 12.174 0 0 1 -3 -1.112c-3.184 -1.375 -6.624 -2.363 -9.808 -3.738 -6.443 -2.78 -2.725 -1.261 -12.002 -5.106Z" stroke-width="1"></path><path id="Vector_40" fill="#d6d5d4" d="M54.2 99.292c0.036 -0.411 0.145 -2.194 -0.193 -2.44a3.772 3.772 0 0 1 -2.276 -1.82 2.225 2.225 0 0 1 1.826 -3.294c0.278 -0.05 1.435 -0.1 1.487 0.047 -1.884 -5.253 -3.456 -7.858 1.152 -4.87 0.987 -2.087 0.99 -2.16 1.215 -2.333 1.374 -1.063 2.246 2.589 3.5 0.969 0.4 -0.512 0.432 -1.536 0.657 -1.843 0.257 -0.35 1.143 -0.378 1.332 0.929 0.123 0.855 -0.16 2.789 0.874 2.96a2.029 2.029 0 0 0 1.186 -0.4c1.517 -0.78 2.628 0.22 2.453 0.9 -0.057 0.222 -0.3 0.477 -0.157 0.707a2.892 2.892 0 0 1 2.138 -0.39 1.131 1.131 0 0 1 0.3 1.325c-0.393 0.932 -1.3 1 -1.288 1.657 0 0.2 -0.016 0.124 0.855 1.919 0.272 0.24 0.443 0.573 0.478 0.934 1.41 0 1.567 -0.191 2.22 0.724a2.712 2.712 0 0 1 -1.376 4.044c-1.965 0.647 0.623 0.822 0.023 4.783 -0.218 1.435 -0.146 3.423 -1.472 4 -0.454 0.2 -0.722 0.355 -0.22 1.046 0.684 0.941 1.075 0.721 1.6 2.849a6.3 6.3 0 0 1 0.226 2.919c-0.142 2.068 0.895 3.632 0.006 3.391a15.045 15.045 0 0 1 -5.07 -2.083c-0.1 -0.045 -6.664 -2.288 -14.085 -5.777 -2.277 -1.071 1.259 -4.46 4.6 -4.7 1.145 -0.082 0.443 -0.783 -0.3 -1.551 -2.235 -2.33 -1.791 -3.452 -1.691 -4.602Z" stroke-width="1"></path><path id="Vector_41" fill="#141414" d="M54.29 93.279c-1.054 -0.026 -1.576 0.993 -1.353 1.09 0.132 0.074 0.586 -0.517 1.338 -0.5 0.154 0.005 0.305 0.042 0.443 0.11a1.011 1.011 0 0 0 -0.242 1.82c0.335 0.185 0.573 0.088 0.569 0.015 0.012 -0.148 -0.731 -0.434 -0.4 -1.091 0.095 -0.2 0.146 -0.154 0.224 -0.13 1.566 0.716 1.3 0.773 1.053 -0.057a1.79 1.79 0 0 0 -1.631 -1.257Z" stroke-width="1"></path><path id="Vector_42" fill="#141414" d="M82.537 85.555c0 -3.511 -2 -2.221 -35.085 -17.481a3 3 0 0 0 -2.876 0.19c-1.978 1.251 -1.32 -0.294 -1.69 41.746a3.009 3.009 0 0 0 1.848 2.813c36.019 15.136 34.6 15.164 36.523 13.889 1.923 -1.275 1.292 0.268 1.28 -41.157Zm-3.305 39.492C43.192 109.9 45.41 110.9 45.182 110.615c1.139 -0.468 2.631 -1.733 2.345 -2.1 -0.286 -0.367 -2.125 0.809 -2.542 1.11 0.3 -41.5 0.26 -38.888 0.327 -39.1 0.412 0.95 2.359 4.421 2.868 4.087 0.467 -0.307 -1.285 -3.446 -2.259 -4.682 0.431 -0.134 -1.975 -1.1 33.7 14.659 -0.746 0.3 -3.281 1.575 -3.061 2.055 0.242 0.526 3.031 -0.869 3.831 -1.382 0.069 0.209 0.078 -2.547 0.115 38.936 0 0.6 -0.005 -0.066 -1.526 -1.768 -1.984 -2.232 -5.04 -4.1 -0.782 0.7 0.682 0.763 1.311 1.442 1.794 1.9a0.903 0.903 0 0 1 -0.76 0.017Z" stroke-width="1"></path><path id="Vector_43" fill="#141414" d="M48.9 91.737c0.168 -22.184 -1.065 -22.228 -1.231 -0.042 -0.093 3.19 -0.063 16.63 0.06 16.645 0.94 0.123 1.16 -16.248 1.171 -16.603Z" stroke-width="1"></path><path id="Vector_44" fill="#141414" d="M76.153 119.538c0.865 0.1 1.074 -15.568 1.091 -16.206 0.165 -21.648 -1.068 -21.692 -1.231 -0.041 -0.055 2.009 -0.097 16.222 0.14 16.247Z" stroke-width="1"></path><path id="Vector_45" fill="#141414" d="M71.332 117.7a13.592 13.592 0 0 0 -1.532 -8.19c-0.965 -1.563 -1.242 -1.077 -0.65 -1.4 1.523 -0.83 1.74 -2.216 1.723 -3.934a5.77 5.77 0 0 0 -0.4 -4.518c-0.221 -0.367 0.357 0.1 1.443 -0.914 2.187 -1.967 0.39 -5.87 -1.931 -4.958 -0.29 -1.721 -1.527 -1.615 -0.913 -2.263a4.52 4.52 0 0 0 0.59 -0.592c1.263 -1.671 0.473 -3.424 -1.542 -2.854 -0.741 0.259 -0.28 0.325 -0.343 -0.455 -0.08 -1.079 -1.55 -2.077 -3.746 -0.58 -0.51 0.365 -0.377 0.4 -0.5 -0.282 -0.211 -1.187 -0.474 -2.863 -1.052 -3.358 -0.312 -0.319 -0.821 -0.41 -1.32 0.279a6.687 6.687 0 0 0 -0.69 1.518c-0.324 0.788 -0.456 0.089 -1.363 -0.842 -0.813 -0.835 -1.8 -0.847 -2.355 0.162 -0.21 0.449 -0.373 0.918 -0.487 1.4a0.949 0.949 0 0 1 -0.148 0.339c-0.684 -0.158 -1.366 -1.17 -2.345 -1.282 -2.155 -0.134 -0.443 3.143 0.732 6.272 -3.743 -0.687 -4.93 4.744 -0.667 6.185 -0.517 2.838 0.075 5.752 2.3 7.54 -2.614 0.334 -4.955 1.78 -5.55 4.38 -12.7 -4.322 24.628 11.711 25.089 10.61 0.066 -0.172 -1.612 -1.031 -4.343 -2.263Zm-2.684 -10.47c-1.964 1.085 -9.993 0.294 -10.083 -3.257 -0.044 -1.738 0.7 -3.356 2.927 -4.685a1.45 1.45 0 0 0 0.569 1.574c1.465 0.783 2.167 -0.172 2.523 1.465 0.056 0.247 0.155 0.38 0.225 0.363 0.07 -0.017 0.119 -0.137 0.183 -0.356 0.817 -2.8 -3.758 -1.553 -2.282 -3.2 0.657 -0.759 4.583 -0.864 5.825 0.134 1.306 1.058 -1.508 0.928 -2.031 2.154 -0.2 0.478 -0.137 1.44 0.03 1.488 0.229 0.066 0.37 -0.815 0.614 -1.122 0.487 -0.613 2.308 -0.274 2.7 -1.7 0.313 0.794 0.425 1.652 0.328 2.5 -0.232 2.953 -1.931 2.534 -4.653 2.41 -13.366 -0.941 1.373 1.716 3.613 0.942 0.72 -0.23 0.812 -0.636 0.6 0a2.198 2.198 0 0 1 -1.088 1.287v0.003Zm-8.194 -8.534a2.514 2.514 0 0 1 -1.247 -1.826c1.926 -0.145 1.657 -0.165 1.664 -0.068 0.039 0.561 -0.055 0.842 0.65 0.751 0.705 -0.091 0.563 -0.372 0.529 -0.812 1.285 0.133 1.365 0.377 1.8 0.2 -0.177 0.851 -0.186 0.667 -0.677 0.791a2.343 2.343 0 0 0 -1.311 0.784 7.91 7.91 0 0 0 -0.9 0.4 3.724 3.724 0 0 1 -0.508 -0.223v0.003ZM65.6 97.5c-2.013 0.016 -1.217 0.351 -1.345 -0.736 0.224 0.04 1.624 -0.094 2.14 -0.126 -0.041 0.1 0.018 0.264 0.056 0.613 0.027 0.246 1.218 0.381 1.177 -0.1 -0.016 -0.175 -0.04 -0.33 -0.06 -0.471 0.426 0.055 1.276 0.247 1.309 0.248 -0.902 1.555 -0.46 0.619 -3.277 0.572Zm3.537 -2.224c0.306 0.667 -0.026 1.163 -0.3 1.071a7.753 7.753 0 0 0 -3.51 -0.1c-1.713 0.188 -0.383 0.281 -0.985 -1.1a2.715 2.715 0 0 1 4.793 0.125l0.002 0.004Zm-5.238 0.7c-0.037 0.7 -0.61 0.336 -1.395 0.242 -1.664 -0.222 -3.381 0.312 -3.578 0.159 -0.413 -0.223 0.142 -2.563 2.488 -2.549 1.464 -0.002 2.586 1.319 2.486 2.14l-0.001 0.008Zm6.89 -1.343c1.573 0.541 1.52 3.721 -0.965 4.272 -0.071 -0.059 -0.926 -0.669 -1.092 -0.76 0.379 -0.382 0.627 -0.875 0.708 -1.407a0.936 0.936 0 0 0 0.14 -0.135 0.52 0.52 0 0 0 0.458 0.365c0.046 -0.03 0.154 0.188 0.092 0.317 -0.121 0.293 -0.64 0.556 -0.563 0.712 0.068 0.2 0.84 0.113 1.116 -0.5a0.816 0.816 0 0 0 -0.541 -1.115c0.1 -0.144 0.535 -0.25 0.687 -0.018 0.255 0.413 0.422 0.244 0.4 -0.125 -0.038 -0.642 -0.875 -0.764 -1.377 -0.392a1.774 1.774 0 0 0 -0.176 -0.816c-0.057 -0.118 0.55 -0.599 1.11 -0.406l0.003 0.008Zm-13.6 -8.433c0.078 -0.261 0.348 -1.456 0.616 -1.515 0.755 -0.549 2.285 4 3.586 0.271 0.034 -0.1 0.4 -1.117 0.54 -1.092 0.369 -0.578 1.219 5.322 0.99 6.257 -0.021 0.1 -0.026 0.034 -7.23 1.259 0.068 0.19 -0.3 -0.745 -0.376 -0.946 0.2 -0.031 6.953 -1.339 6.923 -1.583 -0.037 -0.32 -4.486 0.232 -7.042 1.277 -3.554 -9.161 0.773 0.214 1.994 -3.928Zm-2.62 11.387c1.548 0.166 2.125 -0.906 1.619 -0.736 -1.91 0.643 -4.594 -1.3 -3.892 -3.494 0.5 -1.562 2.464 -1.448 3.67 -0.595 1 0.721 1.12 1.621 1.274 1.587 0.066 -0.005 0.136 -0.23 0.067 -0.64a3.42 3.42 0 0 0 -0.738 -1.415c7.14 -1.289 6.894 -1.24 7.072 -1.5a4.57 4.57 0 0 0 0.132 -2.41c1.037 -0.6 1.752 -1.3 2.732 -0.984 1.22 0.472 -1.542 2.652 -1.024 2.97 0.105 0.125 0.79 -0.436 1.937 -1.084 1.115 -0.592 2.214 -0.676 1.728 0.473 -0.342 0.843 -0.931 0.873 -1.232 1.624 -0.51 1.237 0.919 1.247 1.177 2.8a3.175 3.175 0 0 0 -4.988 0.521 3.127 3.127 0 0 0 -5.7 1.081c-0.022 0.3 -0.09 0.838 0.365 1.029a2.377 2.377 0 0 0 1.455 2.356c0.37 0.15 0.176 -0.141 -0.962 0.96a5.183 5.183 0 0 0 -1.621 3.855c-0.007 0.985 0.574 1.327 -0.442 0.575 -2.223 -1.621 -2.732 -4.226 -2.628 -6.973Zm1.618 13.824a6.367 6.367 0 0 1 5.755 -0.713c4.072 1.375 5.1 4.071 5.414 3.936 0.218 -0.09 -0.36 -1.745 -2.01 -2.935 -4.17 -3.085 -8.12 -2.319 -9.556 -0.441a167.79 167.79 0 0 0 -4.556 -1.684c1.139 -2.506 3.2 -3.3 5.86 -3.974 0.458 0.241 0.941 0.432 1.44 0.568 1.543 1.862 3.6 2.047 5.856 2.4a9.708 9.708 0 0 0 3.636 -0.024c1.953 2.358 2.39 5.754 2.57 8.82 -4.281 -1.908 -9.925 -4.225 -14.41 -5.953Z" stroke-width="1"></path><path id="Vector_46" fill="#141414" d="M76.48 87.052c0.225 -0.561 -27.084 -12.027 -27.327 -11.48 -0.422 0.949 26.947 12.422 27.328 11.48Z" stroke-width="1"></path></g><g id="Group_17"><path id="Vector_47" fill="#d6d5d4" d="M116.571 63.484c0.757 -1.172 1.373 -1.049 1.911 -0.3 1.757 2.43 9.056 12.726 8.549 15.716a4.737 4.737 0 0 1 -3.088 3.147c-0.708 0.215 -1.7 0.754 -2.4 0.982 -0.8 0.407 -1.578 0.855 -2.331 1.342 -2.462 1.1 -5.257 -0.9 -10.13 -3.778 -1.246 -0.735 -0.906 -1.807 -0.3 -3.08a120.94 120.94 0 0 1 7.789 -14.029Z" stroke-width="1"></path><path id="Vector_48" fill="#d6d5d4" d="M116.079 98.645c0.381 0.784 0.919 2.075 1.98 1.664 0.613 -0.238 0.735 -1.026 1.009 -1.623 0.322 -0.576 0.726 -1.1 1.2 -1.559 0.962 -1.092 7.331 -11.325 6.692 -12.6 -0.42 -0.839 -2.679 1.153 -6.074 2.438a8.2 8.2 0 0 1 -7.806 -0.467c-2.441 -1.254 -3.742 -2.179 -4.795 -1.529 -0.519 0.321 -0.371 0.3 -0.144 0.933 2.69 7.446 6.529 9.843 7.938 12.743Z" stroke-width="1"></path><path id="Vector_49" fill="#141414" d="M107.642 80.6c0.944 1.363 8.7 4.9 9.857 4.742 0.081 0 0.15 -0.055 0.242 0l0.23 -0.065c6.731 -3.2 12.43 -3.332 8.3 -10.5 -2.723 -4.466 -7.809 -13.188 -8.364 -12.865 -0.662 -0.417 -8.218 12.16 -8.574 12.779 -1.033 1.892 -2.416 4.19 -1.691 5.909Zm9.365 2.838a42.725 42.725 0 0 1 -7.676 -3.679c-0.391 -0.285 0.061 -0.243 1.583 -0.532 2.884 -0.548 5.518 -1.219 6.273 -1.316 0.024 6.425 0.371 5.704 -0.18 5.528v-0.001Zm1.164 -0.247c-0.731 0.31 -0.372 0.973 -0.159 -5.316 1.083 0.049 4.7 1.06 7.713 1.535 -0.825 1.406 -5.598 2.952 -7.554 3.782v-0.001Zm1.353 -17.025c4.607 9.653 6.37 10.541 6.372 12.545 -0.008 0.523 0.689 0.329 -6.373 -1.513a7.983 7.983 0 0 0 -1.481 -0.23c0.083 -2.823 0.243 -12.051 -0.088 -14.494a30.901 30.901 0 0 0 1.57 3.693v-0.001Zm-10.185 12.78c0.693 -2.189 6.23 -10.753 8.3 -15.893 -0.336 3.165 -0.452 10.425 -0.455 13.945 -1.837 0.21 -7.903 2.134 -7.845 1.949v-0.001Z" stroke-width="1"></path><path id="Vector_50" fill="#141414" d="M127.879 82.972a1.075 1.075 0 0 0 -1.064 -0.066c-2.506 1.232 -5.122 2.352 -8.27 3.838 -1.351 0.639 -0.634 0.693 -2.944 -0.2 -8.181 -3.175 -6.925 -4.94 -8.206 -4.363 -2.7 1.22 7.081 16.569 9.933 18.654 1.868 1.365 9.34 -12.55 10.428 -14.827 0.478 -1.021 1.024 -2.444 0.123 -3.036Zm-17.591 4.32c-1.362 -2.8 -1.61 -1.49 4.653 0.939 1.637 0.635 1.675 0.65 1.913 0.723 0.877 0.3 0.275 -1.05 0.252 5.489a48.565 48.565 0 0 0 0.231 5.605c-0.987 -1.928 -4.114 -6.724 -7.049 -12.756Zm7.344 13.428c-0.234 -0.83 0.355 1.552 0.382 -6.274 0.021 -6.022 -0.447 -5.334 -0.031 -5.461l8.112 -3.713c-3.225 6.779 -8.247 14.783 -8.463 15.448Z" stroke-width="1"></path></g><g id="Group_18"><path id="Vector_51" fill="#d6d5d4" d="M97.211 127.442a10.912 10.912 0 0 1 -3.265 -2.256 17.512 17.512 0 0 0 -2.105 -2.566 23.437 23.437 0 0 1 -3.633 -5.65c-0.375 -0.956 -0.482 -1.817 -1.446 -6.935 -0.872 -4.629 -1.677 -10.213 2.328 -13.392 3.183 -2.527 9.238 -1.754 11.9 -0.578 3.418 1.51 8.147 6.609 9.554 13.256 0.615 2.9 1.037 10.548 -0.141 13.269 -2.352 5.427 -12.083 5.21 -13.192 4.852Z" stroke-width="1"></path><g id="Group_19"><path id="Vector_52" fill="#141414" d="M104.113 97.093c-4.157 -3.873 -7.68 -3.2 -13.193 -2.341 -8.555 1.329 -6.973 26.408 5.411 32.751 1.882 0.944 5.92 0.538 8.018 0.116 2.811 -0.6 4 -0.957 5.444 -2.664 4.13 -5.505 1.907 -21.11 -5.68 -27.862Zm-14.171 -0.465c0.736 -0.475 4.62 -0.973 5.322 -1.041a7.284 7.284 0 0 0 -3.1 4.759c-2.252 0.446 -2.023 0.7 -4.523 0.243 0.37 -1.428 1.059 -3.156 2.301 -3.961Zm-2.542 5.024c3.16 -0.393 1.321 -0.334 4.518 -0.13a24.4 24.4 0 0 0 -0.022 6.725c-2.371 0.6 -1.927 0.81 -4.664 0.509a22.802 22.802 0 0 1 0.168 -7.104Zm-0.019 8.147c3.5 -0.733 2.4 -0.273 4.677 -0.371a38.96 38.96 0 0 0 1.689 6.66c-2.885 0.453 -1.785 0.421 -4.679 0.066a34.563 34.563 0 0 1 -1.686 -6.354l-0.001 -0.001Zm2.113 7.434c3.208 -0.586 3.195 0.02 4.692 0.026a25.048 25.048 0 0 0 2.736 5.194c-2.168 0.726 -1.711 0.46 -4.049 0.481a21.893 21.893 0 0 1 -3.373 -5.701h-0.006Zm4.2 6.6c2.112 -0.691 3 -0.166 4.042 -0.357a10.127 10.127 0 0 0 4.617 3.037c-3.947 0.425 -5.97 0.045 -8.659 -2.676v-0.004Zm16.838 -4.325c-0.757 5.32 -3.018 6.039 -6.032 6.664 -6.409 -0.217 -9.631 -8.279 -11.077 -14.535 -4.026 -17.453 5.97 -20.7 13.153 -9.637a26.525 26.525 0 0 1 3.956 17.512v-0.004Z" stroke-width="1"></path><path id="Vector_53" fill="#141414" d="M108.39 111.95c0.392 3.425 0.313 8.5 -2.181 10.836a3.104 3.104 0 0 1 -1.012 0.698 3.123 3.123 0 0 1 -3.434 -0.658c-6.928 -5.586 -9.947 -27.1 -1.642 -24.551 3.244 0.995 5.66 5.524 6.956 8.66 1.257 3.122 1.376 3.063 0.336 -0.123 -4.2 -12.485 -13.6 -12.683 -13.264 -1.04 0.32 8.431 6.743 23.347 12.582 17.569 2.643 -2.594 2.687 -7.752 2.013 -11.447 -0.655 -3.315 -0.776 -3.237 -0.354 0.056Z" stroke-width="1"></path><path id="Vector_54" fill="#141414" d="M102.671 109.635a3.304 3.304 0 0 0 -1.621 -5.61c-0.112 -1.091 -0.814 -1.728 -1 -1.6 -0.21 0.136 0.08 1.012 0.227 1.546 -1.178 0.006 -0.973 0.2 -1.047 -0.11 -0.426 -1.759 -1.191 -1.4 -0.709 0.32a6.606 6.606 0 0 1 -0.88 0.4c0.342 1.354 1.515 4.185 2.09 6.5 2.144 8.63 1.144 6.469 2.444 6.417 0.29 1.38 1.539 2.246 0.816 0.084 -0.062 -0.181 -0.081 -0.145 0.058 -0.166 1.095 -0.163 0.908 -0.382 0.984 -0.1 0.443 1.627 1.222 1.571 0.737 -0.212 -0.095 -0.346 -0.137 -0.214 0.109 -0.4 2.573 -1.891 0.17 -6.249 -2.208 -7.069Zm-3.294 -4.18a3.039 3.039 0 0 1 2.585 -0.139 1.975 1.975 0 0 1 0.979 1.635 1.962 1.962 0 0 1 -0.865 1.697 6.2 6.2 0 0 1 -2.017 0.794c-0.269 -1.391 -0.484 -2.856 -0.682 -3.987ZM102.263 116a37.74 37.74 0 0 1 -1.841 -4.912 3.88 3.88 0 0 1 2.245 -0.241c2.652 0.843 4.388 5.444 -0.404 5.153Z" stroke-width="1"></path></g></g><g id="Group_20"><path id="Vector_55" fill="#d6d5d4" d="M127.977 164.678c1.317 -0.8 2.706 -1.468 4.093 -2.136 4.984 -2.4 6.462 -2.157 10.008 -0.642 2.546 1.088 12.213 5.1 13.2 7.636 0.3 0.774 0.225 0.633 0.29 10.618 0.021 3.323 -0.451 3.115 -0.772 4.824 -0.465 2.478 0.282 3.347 -2.636 4.862a36.705 36.705 0 0 1 -12.391 4.3 9.91 9.91 0 0 1 -7.728 -0.907c-1.868 -0.884 -9.326 -5.193 -10.32 -6.993 -0.6 -1.093 -0.489 -1.51 -0.739 -11.257 -0.223 -8.756 -1.025 -5.443 6.995 -10.305Z" stroke-width="1"></path><path id="Vector_56" fill="#141414" d="M153.449 165.348c-14 -5.933 -14.58 -6.731 -17.246 -5.62l-13.2 5.5a5.175 5.175 0 0 0 -3.192 4.789v14.863a5.182 5.182 0 0 0 3.192 4.789c14.458 6.028 13.8 5.9 15.207 5.9s0.557 0.205 15.207 -5.9a5.182 5.182 0 0 0 3.192 -4.789v-14.756a5.175 5.175 0 0 0 -3.16 -4.776Zm-16.44 -3.685a3.115 3.115 0 0 1 2.4 0.007c14.444 6.13 13.387 5.65 13.74 5.886l-14.932 5.686 -14.933 -5.793c0.362 -0.242 -0.684 0.218 13.725 -5.786Zm-13.2 26.073a3.08 3.08 0 0 1 -1.9 -2.854c0 -15.933 -0.153 -15.357 0.366 -16.325l15.239 5.912c0 20.88 0.211 19.067 -0.492 18.775l-13.213 -5.508Zm30.7 -2.854a3.08 3.08 0 0 1 -1.9 2.854l-13.209 5.508c-0.7 0.293 -0.491 2.123 -0.491 -18.772l15.24 -5.8c0.508 0.94 0.367 0.321 0.367 16.21h-0.007Z" stroke-width="1"></path></g><g id="Group_21"><path id="Vector_57" fill="#d6d5d4" d="M69.447 164.678c1.317 -0.8 2.706 -1.468 4.093 -2.136 4.983 -2.4 6.462 -2.157 10.008 -0.642 2.546 1.088 12.213 5.1 13.2 7.636 0.3 0.774 0.225 0.633 0.29 10.618 0.021 3.323 -0.451 3.115 -0.772 4.824 -0.466 2.478 0.282 3.347 -2.636 4.862a36.703 36.703 0 0 1 -12.391 4.3 9.909 9.909 0 0 1 -7.728 -0.907c-1.868 -0.884 -9.326 -5.193 -10.32 -6.993 -0.6 -1.093 -0.489 -1.51 -0.739 -11.257 -0.223 -8.756 -1.025 -5.443 6.995 -10.305Z" stroke-width="1"></path><path id="Vector_58" fill="#141414" d="M94.919 165.439c-13.993 -5.934 -14.581 -6.73 -17.246 -5.62l-13.2 5.5a5.174 5.174 0 0 0 -3.191 4.788v14.863a5.178 5.178 0 0 0 3.191 4.789c14.458 6.029 13.8 5.905 15.207 5.905 1.473 0 1.208 -0.068 15.207 -5.905a5.176 5.176 0 0 0 3.192 -4.789v-14.754a5.18 5.18 0 0 0 -3.16 -4.777Zm-16.439 -3.685a3.112 3.112 0 0 1 2.4 0.007c14.431 6.12 13.384 5.649 13.74 5.886l-14.931 5.687 -14.937 -5.794c0.357 -0.24 -0.803 0.271 13.728 -5.786Zm-13.2 26.074a3.089 3.089 0 0 1 -1.9 -2.855c0 -15.969 -0.147 -15.366 0.366 -16.325l15.239 5.913c0 20.888 0.211 19.067 -0.492 18.774l-13.213 -5.507Zm30.7 -2.855a3.086 3.086 0 0 1 -1.9 2.855l-13.21 5.507c-0.7 0.293 -0.493 2.124 -0.493 -18.771l15.242 -5.805c0.508 0.946 0.367 0.315 0.367 16.214h-0.006Z" stroke-width="1"></path></g><g id="Group_22"><path id="Vector_59" fill="#d6d5d4" d="M143.7 165.568c-0.075 -1.268 -1.893 -4.836 -3.522 -8.135a4.906 4.906 0 0 0 -2.34 -2.606 4.532 4.532 0 0 0 -3.959 -0.564c-1.486 0.312 -1.179 0.371 -1.576 -0.109 0.9 -0.081 1.346 -0.293 1.947 -1.455 2.185 -4.221 0.086 -5.622 -0.712 -9a17.915 17.915 0 0 0 -1.14 -4.285c-1.093 -2.9 -1.252 -5.009 -4.858 -2.964 -0.966 0.548 -1.036 0.937 -0.689 1.821 0.554 1.41 2.145 5.839 1.858 7.333a1.613 1.613 0 0 1 -2.691 1.064c-1.723 -1.139 -1.709 -2.821 -1.974 -4.186 -0.342 -1.753 -1.721 -4.623 -3.45 -4.82a2.08 2.08 0 0 0 -1.196 0.358 2.08 2.08 0 0 0 -0.773 0.98c-0.433 1.836 3.6 12.113 4.845 13.542a5.277 5.277 0 0 0 2.972 1.594c0.522 3.008 1.077 1.792 -0.038 2.6a3.495 3.495 0 0 0 -0.828 3.3c0.476 2.654 5.036 8 6.076 8.709 2.031 1.394 4.636 0.717 3.747 -1.579a8.38 8.38 0 0 0 -1.146 -1.756c-2.182 -3.049 -0.161 -5.372 1.512 -4.9 1.394 0.389 1.7 2.217 2.13 3.223a10.784 10.784 0 0 0 2.7 3.659 1.911 1.911 0 0 0 2.192 0.177 1.912 1.912 0 0 0 0.913 -2.001Z" stroke-width="1"></path><path id="Vector_60" fill="#141414" d="M143.963 164.138c-0.372 -3.251 -3.966 -10.932 -8.7 -11.105 2.094 -4.268 -1.636 -13.84 -3.368 -16.317 0.227 -2.284 -4.32 -2.455 -5.193 -0.077 -0.542 1.507 1.859 7.041 1.738 8.678 -0.045 0.954 -0.852 1.25 -1.6 0.646 -0.905 -0.732 -2.524 -5.225 -3.724 -6.594a2.32 2.32 0 0 0 -2.56 -2.068c-1.743 0.09 -2.5 1.845 -1.94 2.6 -1.156 1.238 2.11 10.537 3.67 12.809a5.206 5.206 0 0 0 3.324 2.356c0.229 0.826 0.352 0.9 0.252 0.81a4.546 4.546 0 0 0 -0.948 4.185c0.724 3 5.519 9.254 6.776 8.886 0.137 0.232 0.333 0.424 0.568 0.555 1.887 1.174 4.831 -0.51 3.374 -2.338 -0.5 -1.6 -2.105 -5.154 -0.545 -5.382 1.932 -0.283 2.852 3.691 4.319 4.917 0.291 1.6 4.143 2.5 4.379 0.4a7.183 7.183 0 0 0 0.178 -2.961Zm-23.309 -20.285c-1.33 -4.81 -2.151 -3.494 -1.473 -4.669a1.66 1.66 0 0 1 1.439 -0.837 2.526 2.526 0 0 1 2.109 1.063c-0.027 1.066 1.353 4.932 1.743 5.95 0.174 0.556 0.467 1.068 0.859 1.499 0.393 0.43 0.875 0.77 1.413 0.994 -1.5 1.344 -1.659 3.9 -1.421 5.786 -2.576 -2.501 -3.577 -5.859 -4.669 -9.786Zm14.556 23.717c-0.047 0.668 -0.072 0.888 -0.966 1.187a5.862 5.862 0 0 1 -2.484 -0.066c-0.2 -0.744 -4.673 -7.026 -5.147 -9.033a2.956 2.956 0 0 1 0.139 -1.975c1.264 2.047 3.715 4.09 6.1 4.1 -0.452 1.75 1.115 4.834 2.358 5.787Zm7.866 -0.68c-0.454 0.791 -2.289 0.191 -2.878 -0.141 -0.7 -0.393 -0.187 -0.05 -0.952 -2.345 -0.638 -1.765 -1.384 -3.979 -3.525 -4.335 0.314 -0.735 0.061 -1.366 -0.08 -1.332 -0.142 0.008 -0.166 0.361 -0.449 0.778 -1.882 2.827 -8.152 -1.114 -8.332 -7.418 -0.237 -5.286 2.982 -3.945 3.069 -4.05 0.066 -0.059 -0.026 -0.412 -0.577 -0.722 1.829 -1.84 0.072 -4.915 -0.9 -7.184a10.365 10.365 0 0 0 -1.446 -2.581c0.481 -0.947 1.256 -1.7 3.275 -1.6 0.521 0.026 0.735 0.282 1.119 0.648 -0.328 3.126 5.375 13.531 1.308 16.927 -0.859 -1.883 -0.911 -4.313 -2.115 -5.214 -1.061 -0.794 -0.463 0.5 -0.351 1.556 0.27 2.544 0.343 4.759 2.558 6.53 0.679 0.531 1.147 0.777 1.547 1.114 0.792 0.6 1.036 1.16 1.284 1.15 0.424 -0.045 0.159 -1.205 -0.372 -1.983 -0.479 -0.58 -0.993 -1.13 -1.54 -1.646 1.46 -0.565 3.1 -0.3 4.73 1.549 1.609 1.793 5.478 8.727 4.627 10.299Z" stroke-width="1"></path></g><g id="Group_23"><path id="Vector_61" fill="#d6d5d4" d="M96.246 143.327A3.736 3.736 0 0 0 94 142c-2.274 -0.113 -2.533 4.341 -3.951 6.1 -1.01 1.253 -2.39 1.143 -2.75 0.568a3.57 3.57 0 0 1 0.073 -2.291 13.423 13.423 0 0 0 1.249 -3.336 4.807 4.807 0 0 0 0.035 -3.392c-0.391 -0.816 -2.373 -1.274 -3.432 -0.187 -0.478 0.601 -0.82 1.3 -1 2.047 -0.838 2.411 -4.845 8.686 -0.813 11.6 -0.245 1.6 -0.084 1.339 -0.571 1.2 -3.792 -1.073 -8.781 9.649 -8.784 10.921a1.728 1.728 0 0 0 1.384 1.59c2.044 0.436 3.036 -1.9 3.728 -2.98 1.077 -1.681 2.356 -1.794 2.86 -1.454a2.932 2.932 0 0 1 0.61 2.89c-0.293 0.962 -1.293 2.178 -0.615 3.217 0.71 1.09 1.11 1.161 1.792 1.171 1.816 0.028 1.059 0.172 2.919 -1.763a40.813 40.813 0 0 0 3.108 -4.744A5.521 5.521 0 0 0 88.066 156c0.25 -0.959 0.06 -0.721 0.555 -0.631a7.477 7.477 0 0 0 4.67 -1.525 14.62 14.62 0 0 0 2.17 -4.381c0.175 -0.633 0.268 -1.286 0.44 -1.919 0.334 -1.201 1.207 -2.907 0.345 -4.217Z" stroke-width="1"></path><path id="Vector_62" fill="#141414" d="M96.982 143.361c-0.565 -1.639 -2.738 -2.56 -4.063 -1.341 -1.258 0.217 -3.39 7.027 -4.6 6.529 -1.592 -0.557 1.67 -6.4 1.14 -8.342a2.615 2.615 0 0 0 -1.435 -1.61 2.624 2.624 0 0 0 -2.157 0.01c-1.257 0.634 -8.618 9.829 -3.913 15.087 -2.9 0.487 -4 2.152 -5.307 4.284 -0.97 1.616 -3.242 5.966 -2.984 7.769 0.234 1.817 3.139 2.359 3.929 0.981 0.5 -0.031 1.492 -0.987 2.353 -2.269a1.741 1.741 0 0 1 1.838 -0.941c2.177 0.66 -0.816 3.846 -0.036 4.574a2.325 2.325 0 0 0 1.24 1.753 2.31 2.31 0 0 0 2.146 -0.015c1.9 -1.094 7.877 -8.464 4.994 -13.019 4.212 -0.53 5.309 -4.436 6.214 -8.276 0.136 -0.601 1.059 -4.721 0.641 -5.174Zm-19.707 23.052c-1.493 0.259 -2.348 0.057 -3.118 -1.249 1.5 -1.516 4.439 -7.908 6.165 -9.011a4.969 4.969 0 0 1 2.057 -0.754 5.526 5.526 0 0 1 -0.7 1.736c-1.841 2.934 -0.976 4.806 1.49 0.91 1.26 -2.031 1.141 -4.238 1.57 -6.148 0.4 -1.826 0.959 -2.324 0.769 -2.668 -0.268 -0.524 -2.091 0.037 -2.587 2.883 -2.8 -3.975 2.924 -10.895 2.555 -12.75 1.216 0.033 2.108 -0.42 3.5 1.4 -1.155 0.7 -3.37 5.851 -2.814 7.729 -0.182 0.1 -0.611 0.465 -0.507 0.656 0.114 0.212 0.622 0.108 0.945 0.186 2.254 0 0.936 12.711 -3.7 12.549 -1.622 -0.086 -1.515 -1.561 -1.878 -1.586 -0.236 -0.04 -0.649 0.67 -0.366 1.544 -1.956 0.528 -3.489 3.621 -3.381 4.573Zm8.039 2.688c-1.363 0.043 -1.859 0.127 -3 -1.063a3.925 3.925 0 0 0 1.8 -4.6c2.534 -0.565 3.765 -3.294 4.47 -5.79 2.328 3.339 -2.737 8.58 -3.27 11.452v0.001Zm10.366 -23.538c-1.943 5.014 -1.973 9.557 -6.481 9.563a11.214 11.214 0 0 0 -0.118 -4.919c1.966 -0.661 3.554 -4.638 3.974 -6.668 0.257 -1.323 -0.054 -1.011 0.5 -1.125a3.274 3.274 0 0 1 2.762 1.258c0.246 0.273 0.162 -0.172 -0.637 1.891Z" stroke-width="1"></path></g></g></svg>