<svg xmlns="http://www.w3.org/2000/svg" width="200" height="200" viewBox="0 0 68 66"><path d="M41 3h20a2 2 0 0 1 2 2v20a2 2 0 0 1-2 2H41a2 2 0 0 1-2-2V5a2 2 0 0 1 2-2zM4 42h20a2 2 0 0 1 2 2v20a2 2 0 0 1-2 2H4a2 2 0 0 1-2-2V44a2 2 0 0 1 2-2zm49.728-3.008 14 24C68.505 64.326 67.544 66 66 66H38c-1.544 0-2.505-1.674-1.728-3.008l14-24c.772-1.323 2.684-1.323 3.456 0zM15 0c8.284 0 15 6.716 15 15s-6.716 15-15 15S0 23.284 0 15 6.716 0 15 0z" fill="url(&quot;#SvgjsLinearGradient1047&quot;)"></path><defs><linearGradient id="SvgjsLinearGradient1047"><stop stop-color="#f5f7fa" offset="0"></stop><stop stop-color="#c3cfe2" offset="1"></stop></linearGradient></defs></svg>