<svg xmlns="http://www.w3.org/2000/svg" width="200" height="200" fill="none" viewBox="0 0 200 200" version="1.1" xmlns:xlink="http://www.w3.org/1999/xlink" xmlns:svgjs="http://svgjs.dev/svgjs"><path fill="rgba(214, 213, 212, 1)" fill-rule="evenodd" d="M100 153.877c41.147 0 76.851-26.337 94.627-42.204 7.162-6.393 7.162-17.076 0-23.469C176.851 72.337 141.147 46 99.999 46 58.852 46 23.148 72.337 5.372 88.204c-7.163 6.393-7.163 17.076 0 23.469 17.776 15.867 53.48 42.204 94.627 42.204Zm0-16.307c20.783 0 37.631-16.848 37.631-37.632 0-20.783-16.848-37.631-37.632-37.631-20.783 0-37.631 16.848-37.631 37.631 0 20.784 16.848 37.632 37.631 37.632Z" clip-rule="evenodd"></path></svg>